<svg
   xmlns="http://www.w3.org/2000/svg"
   viewBox="0 0 160.32001 160.32001"
   height="160.32001"
   width="160.32001">
  <path
     d="m 11.520001,156.80001 v -3.52 h 0.8 c 0.465545,0 0.8,-0.18399 0.8,-0.4401 0,-0.24206 0.612,-0.96155 1.36,-1.59887 1.140372,-0.97163 1.601459,-1.15894 2.855183,-1.15989 1.4254,-9.6e-4 1.512435,0.0511 1.864817,1.11886 l 0.369634,1.12 h 1.998179 c 1.098998,0 2.686507,-0.23454 3.527797,-0.52119 1.059561,-0.36103 2.151064,-0.47131 3.551871,-0.35887 1.268139,0.10179 2.154816,0.0298 2.377739,-0.19316 0.207805,-0.2078 1.381463,-0.33715 2.825133,-0.31134 1.358307,0.0243 3.025828,0.0531 3.705604,0.064 1.357113,0.0218 2.643696,-0.5335 3.437577,-1.48361 0.526749,-0.6304 3.564257,-1.17156 6.117617,-1.08989 1.722134,0.0551 3.40279,0.85126 3.755568,1.77914 0.166458,0.43782 0.597542,0.95385 0.957965,1.14674 0.360425,0.19289 0.655318,0.55833 0.655318,0.81208 0,0.57585 1.372215,1.49912 2.394919,1.61139 0.422685,0.0464 0.956742,0.20156 1.1868,0.3448 0.504061,0.31386 4.035373,0.82774 5.978909,0.87007 1.240957,0.027 1.514551,-0.1052 2.4,-1.15984 0.859357,-1.02356 1.18625,-1.19033 2.3332,-1.19031 1.865818,2e-5 2.285799,-0.22714 2.996849,-1.62092 0.55704,-1.09189 0.768518,-1.23248 1.986368,-1.32053 1.20623,-0.0872 1.37424,-0.19599 1.461075,-0.94602 0.08709,-0.75229 0.194918,-0.82123 0.96,-0.61376 0.673568,0.18265 0.854454,0.41874 0.827888,1.08052 -0.02269,0.565 0.164845,0.9099 0.563511,1.03643 0.328627,0.10431 0.815622,0.61144 1.082211,1.12697 0.617024,1.19319 1.224745,1.18669 2.11887,-0.0227 0.49594,-0.67079 0.980836,-0.96 1.609581,-0.96 0.494903,0 0.899821,0.12946 0.899821,0.28769 0,0.15823 0.577671,0.58879 1.283715,0.9568 l 1.283712,0.66911 1.623793,-1.16658 c 1.401884,-1.00715 1.843948,-1.15879 3.234774,-1.10956 0.886042,0.0314 1.807264,-0.10588 2.047162,-0.30498 0.333174,-0.27651 0.712954,-0.19869 1.608237,0.32954 1.253334,0.73949 2.523187,0.78076 3.345766,0.10875 0.392068,-0.3203 0.739242,-0.33341 1.529856,-0.0578 0.765434,0.26683 1.253962,0.26072 1.942036,-0.0243 0.751702,-0.31137 1.240484,-0.27957 2.680504,0.17435 1.71357,0.54016 1.79072,0.53773 2.85453,-0.0899 0.60136,-0.35481 1.83869,-0.83612 2.74964,-1.06959 0.91096,-0.23347 1.65628,-0.53767 1.65628,-0.676 0,-0.13832 0.43164,-0.16517 0.9592,-0.0597 0.57428,0.11486 1.1551,0.0293 1.44734,-0.21327 0.36207,-0.30049 1.08535,-0.33841 2.80079,-0.14682 1.27197,0.14206 2.74467,0.25522 3.27267,0.25147 1.30495,-0.009 4.92008,-0.67539 5.99811,-1.1052 0.69187,-0.27585 1.03564,-0.24688 1.62087,0.13657 1.41259,0.92557 2.96969,1.15651 5.38274,0.79837 1.92805,-0.28617 2.55593,-0.2531 4.03262,0.21239 1.69101,0.53304 1.76794,0.53101 2.31961,-0.0611 0.42612,-0.45738 1.07728,-0.63075 2.57167,-0.68467 1.78201,-0.0643 2.09833,0.021 2.88946,0.77891 0.80976,0.7758 1.03959,0.83274 2.59665,0.64337 0.93955,-0.11427 2.35627,-0.20119 3.14827,-0.19316 0.792,0.008 1.728,-0.12451 2.08,-0.29454 0.352,-0.17002 1.648,-0.45811 2.88,-0.6402 1.232,-0.18208 2.96,-0.46622 3.84,-0.63141 0.88,-0.1652 1.996,-0.30894 2.48,-0.31944 l 0.88,-0.0191 v 6.72 6.72 H 85.920005 11.520001 Z m 16.960001,-16.47887 c -2.641724,-0.92517 -4.211765,-1.80467 -4.036573,-2.26121 0.09707,-0.25296 0.04901,-0.45992 -0.106804,-0.45992 -0.155809,0 -0.355922,0.18 -0.444694,0.4 -0.09642,0.23896 -0.171574,0.17454 -0.186666,-0.16 -0.03882,-0.86051 1.022968,-0.83975 4.134737,0.0808 1.144,0.33845 2.933319,0.80467 3.976265,1.03605 2.236884,0.49625 2.626663,1.05441 0.91817,1.3148 -2.753586,0.41967 -3.182987,0.42466 -4.254435,0.0494 z m -6.805116,-2.33887 c -1.329642,-0.0852 -1.465867,-0.15699 -1.062857,-0.56 0.604918,-0.60492 1.922655,-0.59113 2.43439,0.0255 0.51925,0.62565 0.453045,0.65146 -1.371533,0.53452 z m -3.434885,-0.70226 c 0,-0.47634 0.213334,-0.64 0.834237,-0.64 0.629245,0 0.786508,0.12438 0.64,0.50617 -0.10683,0.27839 -0.194237,0.56639 -0.194237,0.64 0,0.0736 -0.288,0.13383 -0.64,0.13383 -0.426666,0 -0.64,-0.21334 -0.64,-0.64 z m 140.960009,-0.95564 c -0.528,-0.14186 -1.356,-0.34762 -1.84,-0.45724 -1.68147,-0.38084 -0.81966,-1.29845 1.97123,-2.09887 l 0.98877,-0.28358 v 1.57767 c 0,0.86771 -0.036,1.56467 -0.08,1.5488 -0.044,-0.0159 -0.512,-0.14493 -1.04,-0.28678 z m -146.320009,-0.26276 -1.36,-0.0984 v -2.81092 -2.81092 l 1.52,-0.0389 c 0.836,-0.0214 2.277869,0.1231 3.204153,0.32117 1.321231,0.28252 1.851,0.27083 2.458413,-0.0542 1.011464,-0.54132 2.023336,-0.2112 1.454292,0.47445 -0.549843,0.66253 -0.262324,0.59936 1.47387,-0.32378 1.741383,-0.9259 2.314932,-0.99395 2.578929,-0.30599 0.138129,0.35996 0.591281,0.47794 1.669957,0.43479 1.95943,-0.0784 4.719085,0.78263 5.721558,1.7851 0.856461,0.85646 1.779066,0.97616 4.080596,0.52944 1.417718,-0.27518 3.376429,0.31107 3.332969,0.99758 -0.0177,0.27978 -0.07043,0.28874 -0.176361,0.03 -0.0951,-0.23229 -0.436157,-0.084 -0.920192,0.4 -0.858701,0.8587 -2.453936,0.99883 -4.913809,0.43165 -1.013824,-0.23376 -1.519022,-0.21938 -1.846694,0.0526 -0.24809,0.20589 -0.772058,0.41846 -1.164376,0.47237 -0.392317,0.0539 -1.073304,0.19386 -1.513304,0.31099 -0.821576,0.21872 -13.163388,0.37941 -15.600001,0.20311 z m 118.320009,-0.0194 c -1.04292,-0.21714 -0.97685,-0.25045 0.96,-0.48411 3.6893,-0.44506 5.36814,-0.33955 4.73122,0.29737 -0.29603,0.29604 -4.50322,0.43409 -5.69122,0.18674 z m -63.592739,-0.97003 c -1.225267,-0.60763 -1.296876,-0.85062 -0.327267,-1.11046 1.075866,-0.28832 2.495044,-0.23838 3.84,0.13513 1.402666,0.38954 1.589265,0.94318 0.317888,0.94318 -0.485161,0 -1.313161,0.12247 -1.84,0.27215 -0.686461,0.19503 -1.250525,0.12702 -1.990621,-0.24 z m -4.887267,-0.67215 c -0.776375,-0.24864 -0.771648,-0.25603 0.16,-0.25024 0.528,0.003 1.392,0.11589 1.92,0.25024 l 0.96,0.24428 -1.12,0.006 c -0.616,0.003 -1.48,-0.10933 -1.92,-0.25024 z m 54.880006,-3.88137 c -0.88,-0.15172 -2.644,-0.36742 -3.92,-0.47933 -1.276,-0.11191 -2.32,-0.31444 -2.32,-0.45008 0,-0.60288 -2.34781,-0.94922 -6.43469,-0.94922 -3.84281,0 -9.480655,-0.51133 -9.161112,-0.83087 0.06013,-0.0601 0.578099,-0.14505 1.15104,-0.18871 1.351043,-0.10294 2.006537,-0.81079 0.952998,-1.02911 -2.913354,-0.60372 -7.044586,-0.49945 -5.99176,0.15124 0.281616,0.17404 0.122253,0.32573 -0.508548,0.48405 -0.766396,0.19235 -1.034988,0.0847 -1.620249,-0.64926 l -0.701555,-0.87984 -5.963242,0.11125 c -4.722401,0.0881 -5.963204,0.0251 -5.963063,-0.30278 9.6e-5,-0.22772 -0.179824,-0.39065 -0.399824,-0.36208 -0.772384,0.10029 -1.62472,-0.0258 -1.437786,-0.21277 0.103885,-0.10389 1.963885,-0.249 4.133335,-0.32248 2.169446,-0.0735 5.096451,-0.2729 6.504451,-0.44314 8.638791,-1.04457 10.009518,-1.09272 17.212175,-0.60461 2.7787,0.18831 5.42287,0.24934 5.87592,0.13563 0.79512,-0.19956 0.8041,-0.22846 0.25823,-0.83163 -0.31103,-0.34369 -0.8397,-0.62489 -1.1748,-0.62489 -1.13184,0 -0.27031,-0.56452 1.19744,-0.78462 1.36973,-0.2054 2.75392,0.10124 5.11104,1.13225 0.352,0.15397 1.79815,0.41896 3.21368,0.58886 1.41552,0.16991 2.99436,0.46886 3.50852,0.66435 0.575,0.21861 1.70988,0.27242 2.94835,0.13979 1.278,-0.13686 2.16454,-0.0903 2.42695,0.1275 0.40011,0.33207 0.88496,0.3761 4.15561,0.37741 1.36119,6.4e-4 1.5937,-0.10493 2.0733,-0.94059 0.81609,-1.42195 2.26014,-1.17289 4.25622,0.7341 0.85258,0.81452 1.76198,1.48095 2.0209,1.48095 0.8307,0 1.38628,0.87899 1.35088,2.13726 -0.0305,1.0844 -0.17179,1.28985 -1.24868,1.81591 -0.66785,0.32625 -1.70742,0.63901 -2.31015,0.69502 -0.60273,0.056 -1.25338,0.1992 -1.44589,0.31818 -0.19251,0.11898 -0.60908,-0.0181 -0.92571,-0.30467 -0.81494,-0.73751 -6.04741,-0.7768 -7.98422,-0.0599 -1.53045,0.56645 -6.00376,0.64584 -8.83976,0.15688 z m 13.00114,-3.34406 c 0.21432,-0.13246 -0.0656,-0.56973 -0.72619,-1.13431 -0.59122,-0.50532 -1.14695,-0.91392 -1.23495,-0.908 -0.088,0.006 -0.592,0.36756 -1.12,0.80365 -0.69736,0.57598 -0.84993,0.86292 -0.55767,1.04882 0.52033,0.33098 3.18547,0.47002 3.63881,0.18984 z m -20.56698,-0.73947 c 0.62652,-0.39698 0.12517,-0.59814 -2.12529,-0.85275 -1.28651,-0.14556 -1.98887,-0.10966 -1.98887,0.10163 0,0.39083 1.5008,0.81509 1.93471,0.54692 0.16791,-0.10377 0.30529,-0.0362 0.30529,0.15021 0,0.40551 1.26202,0.44186 1.87416,0.054 z m -85.714168,0.24797 c -1.496001,-0.32601 -3.728001,-0.57356 -4.960001,-0.55012 -1.232,0.0234 -3.055921,-0.0693 -4.053158,-0.20607 -1.589205,-0.21797 -1.935049,-0.1619 -2.8,0.454 l -0.986842,0.7027 V 90.095698 53.107811 l 0.800084,0.200807 c 0.469065,0.117728 1.362724,-0.02947 2.16,-0.355802 1.728142,-0.707325 2.833151,-0.843594 3.351599,-0.413322 0.432792,0.359188 0.575723,1.895946 0.168317,1.809706 -0.132,-0.02794 -0.492,0.04406 -0.8,0.16 -0.308,0.115943 -0.812,0.306368 -1.12,0.423165 -0.308,0.1168 -0.704,0.2248 -0.88,0.24 -0.398348,0.03441 -0.622685,2.102189 -0.26331,2.427015 0.144821,0.130896 0.658537,0.331136 1.141591,0.444976 0.652165,0.153689 1.016997,0.04497 1.417082,-0.422295 0.29634,-0.346099 0.657113,-0.55615 0.801718,-0.466781 0.144606,0.08937 0.262919,0.01 0.262919,-0.17639 0,-0.186387 -0.296498,-0.338886 -0.658885,-0.338886 -0.401943,0 -0.573139,-0.138743 -0.439004,-0.355776 0.120936,-0.195681 0.02143,-0.483681 -0.221114,-0.640001 -0.371114,-0.239184 -0.366634,-0.332032 0.02827,-0.58592 0.277899,-0.178662 0.610188,-0.184739 0.814829,-0.01491 0.396693,0.329226 4.365329,-0.156076 5.280166,-0.645683 0.944472,-0.505465 2.048034,-0.370822 2.641489,0.322282 0.301391,0.352 0.783026,0.64 1.070299,0.64 0.427997,0 0.450379,-0.08667 0.12395,-0.48 -0.330154,-0.397811 -0.295768,-0.478256 0.200817,-0.469824 0.867285,0.01472 1.830701,0.830499 1.538733,1.302912 -0.178408,0.288669 -0.0789,0.327389 0.367955,0.143177 0.693798,-0.286012 0.749312,-0.287353 2.612495,-0.06317 0.748,0.09 1.36,0.05999 1.36,-0.06668 0,-0.27585 4.09193,-0.177556 4.855012,0.116627 0.294256,0.11344 0.755347,0.238592 1.024646,0.278118 0.269302,0.03952 0.748547,0.303412 1.064992,0.586416 0.673232,0.602093 3.233213,1.440909 5.042247,1.652164 0.921606,0.107625 1.488502,0.417507 2.08,1.136989 0.896381,1.090339 1.230845,1.162924 2.778998,0.603107 0.797853,-0.288509 1.227674,-0.291162 1.782721,-0.01101 1.330662,0.671625 4.793683,1.392512 7.260707,1.511437 1.336874,0.06444 2.597834,0.126752 2.802132,0.138457 0.2043,0.01171 0.67431,0.646903 1.044467,1.41154 0.557936,1.152544 0.904784,1.458636 2.028544,1.790192 0.745546,0.219961 2.295101,0.746348 3.443459,1.169744 2.35561,0.868505 2.902817,0.931072 3.440516,0.393373 0.288585,-0.288586 0.514777,-0.251245 0.969197,0.16 0.326019,0.29504 0.898393,0.536438 1.271949,0.536438 0.373555,0 1.514217,0.218675 2.534803,0.485946 1.237523,0.32408 4.040691,0.537728 8.415613,0.641411 8.938439,0.21184 12.463908,0.403785 13.606715,0.740826 0.531689,0.156806 2.043691,0.219808 3.360001,0.139996 1.31631,-0.07981 3.04129,0.02083 3.83329,0.223639 0.792,0.202809 2.28444,0.561197 3.31653,0.796419 2.07241,0.47232 3.23242,1.283891 2.49064,1.742509 -0.23805,0.147181 -1.35826,0.362413 -2.48935,0.478298 -3.06916,0.314448 -3.95782,0.544563 -3.95782,1.024864 0,0.724608 1.77291,0.966339 10.08,1.374377 3.168,0.155613 6.30193,0.449709 6.9643,0.653552 0.66236,0.203844 1.33306,0.29104 1.49044,0.193773 0.15739,-0.09727 0.62345,-0.0417 1.03571,0.123488 0.97566,0.390938 0.82204,0.404224 -5.56643,0.48145 -2.94579,0.03561 -5.43711,0.145878 -5.53628,0.245043 -0.40347,0.403478 4.23384,0.944368 10.46944,1.221136 3.63945,0.161536 7.59945,0.452234 8.8,0.645994 1.20055,0.19376 4.26339,0.412429 6.80631,0.485926 2.54292,0.0735 5.06293,0.275392 5.6,0.44865 1.89597,0.611635 6.46654,1.24055 10.65651,1.466345 l 4.24,0.228493 v 16.12898 c 0,15.081572 -0.0364,16.140232 -0.56,16.302292 -0.308,0.0953 -0.82671,0.31721 -1.15268,0.49308 -0.32598,0.17587 -1.69398,0.29735 -3.04,0.26996 -1.34603,-0.0274 -4.29409,0.0311 -6.55126,0.12993 -3.63956,0.1594 -4.27991,0.27552 -5.65917,1.0262 -1.22572,0.66713 -1.79795,0.80093 -2.7008,0.63156 -0.76051,-0.14267 -1.92381,0.003 -3.46083,0.43423 -1.2734,0.35702 -2.87558,0.62785 -3.5604,0.60184 -0.87534,-0.0332 -1.37204,0.12625 -1.67241,0.53704 -0.40505,0.55393 -0.54572,0.55834 -2.70415,0.0847 -2.46222,-0.54029 -4.57314,-0.52686 -7.3383,0.0467 -2.58222,0.53559 -5.78797,0.43545 -6.24912,-0.19521 -0.2047,-0.27994 -1.36639,-0.78678 -2.58153,-1.12632 -4.85679,-1.35707 -5.39635,-1.54532 -6.39959,-2.23275 -0.5728,-0.39249 -0.9851,-0.80481 -0.91622,-0.91626 0.0689,-0.11146 -0.40998,-0.35791 -1.06415,-0.54767 -0.65417,-0.18976 -2.19739,-0.6394 -3.42939,-0.99919 -3.176124,-0.92755 -7.024448,-1.11195 -14.560007,-0.69769 -9.663088,0.53122 -11.119533,0.65206 -13.76,1.14165 -4.080593,0.75661 -5.92843,0.88126 -7.717348,0.52061 -0.947459,-0.19102 -3.018653,-0.41719 -4.602653,-0.50261 -1.584,-0.0854 -3.525575,-0.3116 -4.314608,-0.50262 -3.026705,-0.73276 -11.015742,-0.30635 -11.366094,0.60666 -0.234717,0.61166 0.893997,1.64278 1.798269,1.64278 0.333664,0 0.907123,0.34556 1.274352,0.7679 0.367229,0.42235 1.311024,1.0136 2.097325,1.3139 1.614669,0.61665 1.604256,0.85121 -0.04222,0.95117 -1.485654,0.0902 -1.644403,0.29813 -0.990064,1.29677 0.521382,0.79573 4.104544,2.71026 5.072423,2.71026 0.256227,0 1.802358,0.44043 3.435846,0.97874 1.633492,0.53831 3.675476,1.15929 4.537741,1.37996 0.862269,0.22067 1.524849,0.53624 1.472397,0.70126 -0.05245,0.16502 -0.167366,0.27753 -0.255366,0.25002 -0.088,-0.0275 -2.392,-0.28772 -5.12,-0.57824 -2.728001,-0.29051 -5.392001,-0.59182 -5.920001,-0.66957 -0.528,-0.0778 -1.782019,-0.20217 -2.786707,-0.27649 -1.409827,-0.10429 -2.030573,-0.32527 -2.72,-0.96826 -0.892,-0.83193 -0.899597,-0.83291 -5.249745,-0.67195 -2.396048,0.0887 -4.61567,0.26066 -4.932493,0.38224 -0.366992,0.14083 -0.500371,0.0986 -0.367523,-0.11634 0.124832,-0.20199 -0.360458,-0.48067 -1.20921,-0.69438 -1.85744,-0.46771 -2.110406,-0.45125 -1.890045,0.12301 0.101309,0.264 0.376288,0.48 0.611073,0.48 0.234784,0 0.528672,0.1647 0.653084,0.36601 0.166016,0.26861 -0.403718,0.31305 -2.141113,0.16697 -1.98502,-0.16689 -2.238129,-0.13655 -1.567322,0.18788 1.014187,0.4905 1.612934,1.2227 1.503939,1.83914 -0.04668,0.264 0.317831,0.912 0.810019,1.44 l 0.894887,0.96 -0.679872,0.56 c -0.910115,0.74964 -5.210834,0.69333 -8.928973,-0.11693 z m 5.025204,-5.86232 c 0.155689,-0.2782 0.887326,-0.49896 1.855901,-0.56 0.879391,-0.0554 1.578021,-0.24475 1.552508,-0.42075 -0.07682,-0.52989 -2.483113,-1.2372 -3.414097,-1.00354 -0.887756,0.22282 -1.164026,0.98733 -0.459516,1.27161 0.238957,0.0964 0.17454,0.17157 -0.16,0.18666 -0.670425,0.0302 -0.763382,0.98527 -0.0959,0.98527 0.255254,0 0.579752,-0.20666 0.721105,-0.45925 z m 100.436914,-5.33653 c 0.12093,-0.19568 0.0934,-0.44768 -0.0611,-0.56 -0.15455,-0.11232 -0.317,-0.38422 -0.361,-0.60422 -0.0912,-0.45589 1.69856,-0.56774 1.97323,-0.12331 0.0941,0.15217 0.49855,0.26017 0.89888,0.24 0.57271,-0.0289 0.73113,-0.22929 0.74309,-0.94012 0.0192,-1.14262 -0.46959,-1.4016 -3.54911,-1.88036 -2.21274,-0.34401 -2.48029,-0.32833 -2.75435,0.16138 -0.16695,0.29833 -0.44039,0.54241 -0.60764,0.54241 -0.53969,0 -1.46875,1.14581 -1.31353,1.62 0.32429,0.99072 1.50071,1.48246 4.43054,1.85194 0.20961,0.0264 0.48007,-0.11204 0.601,-0.30772 z m -15.39596,-4.89417 c 0.62402,-0.42347 1.38642,-0.7096 1.69422,-0.63584 0.72643,0.17408 1.50531,-0.33961 1.21851,-0.80366 -0.12271,-0.19854 -0.35715,-0.27815 -0.52099,-0.17689 -0.16384,0.10126 -0.29789,0.0324 -0.29789,-0.15313 0,-0.5644 -3.88774,-0.24988 -4.79674,0.38806 l -0.79674,0.55916 0.92651,0.79612 c 1.13705,0.97704 1.17144,0.97739 2.57312,0.0262 z m 28.73385,-10.619251 c 0.308,-0.09566 0.56,-0.357113 0.56,-0.581001 0,-0.479783 1.33151,-1.143677 2.33506,-1.164263 1.10762,-0.02272 3.60769,-1.434819 3.098,-1.749824 -0.73432,-0.45384 -2.95573,-0.857494 -5.13479,-0.933046 -1.15595,-0.04008 -2.24008,-0.158378 -2.40918,-0.262883 -0.4284,-0.264772 -4.18298,0.553785 -4.76831,1.039568 -0.63216,0.524643 -0.61633,1.80016 0.0254,2.046409 0.27839,0.106832 0.84261,0.194237 1.25382,0.194237 0.41121,0 0.97967,0.08903 1.26324,0.197847 0.46329,0.177779 0.45783,0.242067 -0.0538,0.633916 -0.47876,0.366653 -0.49709,0.483594 -0.11516,0.734571 0.44106,0.28983 2.81286,0.19634 3.94575,-0.155531 z M 75.520005,99.040006 c 0,-0.29655 -0.336327,-0.501683 -0.88,-0.536733 -4.368301,-0.281622 -5.015501,-0.196051 -4.049121,0.53536 0.875357,0.662522 4.929121,0.663652 4.929121,0.0013 z m 46.306575,-0.03926 c 0.14593,-0.438352 -1.11382,-0.817348 -1.36514,-0.410701 -0.27548,0.445747 0.17871,0.976944 0.74189,0.867677 0.277,-0.05374 0.55746,-0.259383 0.62325,-0.456976 z M 79.593339,98.046672 c -0.106336,-0.106333 -0.382336,-0.117699 -0.613334,-0.02525 -0.255274,0.10215 -0.17945,0.177977 0.193334,0.193331 0.337332,0.01389 0.526333,-0.06174 0.42,-0.16807 z m 8.976235,-0.470064 c 0.70912,-0.2472 1.170707,-0.244045 1.64775,0.01126 0.455027,0.243523 0.662682,0.248704 0.662682,0.01654 0,-0.478637 -1.058276,-0.860218 -3.980897,-1.435383 -1.397494,-0.275024 -2.774797,-0.711718 -3.060669,-0.970432 -0.421756,-0.381683 -1.184848,-0.432333 -4.046582,-0.268598 -3.557671,0.203555 -5.092637,0.697232 -4.380884,1.408985 0.366282,0.366282 3.752669,0.930423 5.549031,0.92442 0.999264,-0.0033 1.059632,-0.04957 0.56,-0.428845 -0.308,-0.233805 -0.56,-0.517226 -0.56,-0.629821 0,-0.296134 0.877155,-0.251286 1.524343,0.07794 1.233568,0.62752 2.941894,1.183364 4.907907,1.596897 0.105734,0.02224 0.63553,-0.11409 1.177319,-0.302961 z m 35.404256,0.149161 c 0.905,-0.34728 0.57653,-0.985245 -0.43112,-0.837353 -0.63965,0.09388 -0.88283,0.27952 -0.76576,0.584579 0.18885,0.492147 0.43669,0.54449 1.19688,0.252774 z M 73.840005,96.396233 c 1.117376,-0.157126 1.352425,-0.527865 0.533827,-0.84199 -0.780397,-0.299469 -3.973828,-0.22977 -3.973828,0.08673 0,0.48694 1.418525,1.295264 1.920001,1.094076 0.264,-0.105913 0.948,-0.258384 1.52,-0.338819 z m 26.320005,-0.350761 c 0,-0.150992 0.58467,-0.402992 1.29927,-0.56 0.7146,-0.157005 1.2546,-0.429466 1.2,-0.605466 -0.11855,-0.382131 -5.699274,-0.481555 -5.699274,-0.101539 0,0.143846 0.288,0.549539 0.64,0.901539 0.629738,0.629738 2.560004,0.905302 2.560004,0.365466 z m 25.6,-0.205466 c 0.3243,-0.390755 0.3082,-0.48 -0.0866,-0.48 -0.26672,0 -0.56783,0.216 -0.66914,0.48 -0.10131,0.264 -0.0623,0.48 0.0866,0.48 0.14892,0 0.45004,-0.216 0.66914,-0.48 z m -30.720004,-0.64 c 0.337648,-0.406838 0.264486,-0.48 -0.48,-0.48 -0.744487,0 -0.817648,0.07316 -0.48,0.48 0.219101,0.264 0.435101,0.48 0.48,0.48 0.0449,0 0.260899,-0.216 0.48,-0.48 z m 28.961464,0.157638 c 0.2856,-0.462112 2.72883,-1.597638 3.43753,-1.597638 0.32933,0 0.52634,0.117213 0.4378,0.260473 -0.22306,0.360912 5.89434,0.138666 6.68321,-0.242806 1.07983,-0.52217 4.66569,-1.073331 7.36,-1.131264 3.55785,-0.0765 3.68566,-0.09931 3.48514,-0.621862 -0.1001,-0.260848 0.10928,-0.607485 0.49004,-0.811258 0.89461,-0.478784 0.83686,-1.013501 -0.21518,-1.992192 -1.00604,-0.935901 -1.42787,-1.058218 -5.29529,-1.535472 -2.64264,-0.326112 -2.87264,-0.306586 -3.75037,0.318409 -0.81519,0.580468 -1.09867,0.621776 -2.2112,0.322205 -0.70186,-0.188995 -1.3627,-0.483712 -1.46851,-0.654928 -0.10583,-0.171219 -1.69138,-0.311306 -3.52347,-0.311306 -2.69779,0 -3.29892,0.0838 -3.16193,0.440788 0.23102,0.602019 -1.59974,0.844432 -6.58923,0.872486 -4.00127,0.0225 -5.56918,-0.165197 -6.32,-0.756579 -0.79469,-0.625933 -0.34834,-0.786896 2.72,-0.980909 3.73282,-0.236029 4.13691,-0.304698 4.61675,-0.784534 0.61196,-0.611962 -0.57963,-0.875549 -3.73675,-0.826592 -1.584,0.02458 -4.41886,0.05953 -6.29969,0.07769 -3.37079,0.03256 -4.52346,0.39632 -3.34524,1.055687 0.28871,0.161568 0.52493,0.502608 0.52493,0.757862 0,0.72713 -1.50627,0.701872 -3.76647,-0.06316 -0.75156,-0.254384 -1.50795,-0.375082 -1.68087,-0.268211 -0.46403,0.286787 0.23393,1.421536 1.063,1.728227 l 0.69382,0.256666 -0.7034,0.223251 c -0.47346,0.150269 -0.99478,0.01338 -1.59474,-0.418794 -1.05202,-0.757779 -4.256736,-1.01335 -4.997533,-0.398544 -0.358009,0.297124 -0.803702,0.305914 -1.871949,0.03693 C 94.210732,88.118093 92.864351,88.0044 91.989907,88.059613 L 90.400006,88.16 l 0.72,0.631117 c 0.396,0.347114 0.72,0.740906 0.72,0.875095 0,0.134185 -0.877008,0.15231 -1.948906,0.04027 -2.018282,-0.210954 -9.251095,0.464445 -9.251095,0.863862 0,0.365696 2.808215,1.045671 3.392512,0.821457 0.294067,-0.112845 1.320567,0.08887 2.281114,0.448259 1.474864,0.551817 2.401136,0.64391 5.956413,0.592201 3.255575,-0.04735 4.56248,0.06177 5.764977,0.481344 3.457819,1.206496 8.928709,1.332004 10.250329,0.235152 0.19665,-0.163206 1.57089,-0.462867 3.05386,-0.665913 2.11262,-0.289258 2.85699,-0.283184 3.43855,0.02806 1.08165,0.578877 0.92054,0.874982 -0.69775,1.282473 -2.66786,0.671773 -1.87972,0.856183 4.32,1.010801 2.00913,0.05011 3.12678,0.211459 3.2959,0.475817 0.3057,0.477847 2.02248,0.535658 2.30556,0.07764 z m -6.72146,-3.517638 c -0.1208,-0.195459 0.37001,-0.32 1.26111,-0.32 0.80239,0 1.45889,0.144 1.45889,0.32 0,0.176 -0.5675,0.32 -1.26112,0.32 -0.69361,0 -1.35011,-0.144 -1.45888,-0.32 z m 5.04582,0.05981 c -0.24002,-0.152464 0.3587,-0.417405 1.53096,-0.677472 2.05402,-0.455683 2.77543,-0.257542 1.76155,0.483821 -0.66665,0.487466 -2.64663,0.60392 -3.29251,0.193651 z m -70.485827,2.843213 c 0,-0.163338 -0.828,-0.39768 -1.84,-0.520768 -1.012,-0.123085 -2.211578,-0.412515 -2.665728,-0.643178 -0.479162,-0.243366 -2.127559,-0.445644 -3.927498,-0.481948 -1.705974,-0.03441 -3.782397,-0.203991 -4.614275,-0.376848 -0.831876,-0.172858 -3.6725,-0.356327 -6.3125,-0.407706 -2.64,-0.05138 -6.834051,-0.179114 -9.320114,-0.28385 -3.777744,-0.159152 -4.585099,-0.112124 -4.9158,0.286346 -0.217628,0.262227 -0.304258,0.715037 -0.192511,1.006243 0.175544,0.457459 0.55217,0.500362 2.769289,0.315463 2.016333,-0.168157 2.795137,-0.105328 3.635086,0.293254 0.875809,0.4156 1.697366,0.466666 4.546512,0.282605 4.624172,-0.29873 6.635164,-0.272922 13.017276,0.167072 2.958858,0.203987 5.622858,0.294282 5.920001,0.200656 0.297145,-0.09363 0.972262,-0.04089 1.500262,0.117197 1.293389,0.387241 2.4,0.408205 2.4,0.04546 z m 10.880001,-0.306915 c 0,-0.298723 -4.353543,-0.669331 -5.038164,-0.428887 -0.218988,0.07691 -0.318489,0.268749 -0.221113,0.426304 0.230237,0.372532 5.259277,0.374999 5.259277,0.0026 z m 11.233562,-2.776855 c 0.21913,-0.135427 1.270077,-0.24022 2.335444,-0.232873 1.904553,0.01312 3.390995,-0.389162 3.390995,-0.917751 0,-0.147747 -0.108,-0.271485 -0.24,-0.274973 -0.132,-0.0035 -1.248,-0.154041 -2.48,-0.334569 -2.434618,-0.356749 -14.337335,-0.474477 -14.867124,-0.14705 -0.179184,0.110743 -0.795383,-0.0079 -1.369335,-0.263609 -1.833283,-0.816829 -4.973421,-1.229239 -7.562099,-0.993162 -1.342794,0.122458 -2.573793,0.300662 -2.735549,0.396013 -0.723348,0.42639 2.941677,1.115177 7.334106,1.378339 7.660554,0.458966 9.575251,0.647091 9.978675,0.980445 0.208272,0.172096 0.874756,0.374432 1.481073,0.449632 0.606316,0.0752 1.731392,0.418346 2.500169,0.762538 1.35265,0.605596 1.404842,0.606713 1.616506,0.03453 0.120301,-0.3252 0.398013,-0.70208 0.617139,-0.837508 z M 26.240002,90.560006 c 0,-0.176 -0.224499,-0.32 -0.498886,-0.32 -0.274387,0 -0.409888,0.144 -0.301114,0.32 0.108774,0.176 0.333272,0.32 0.498885,0.32 0.165613,0 0.301115,-0.144 0.301115,-0.32 z M 78.631,87.64101 c 0.197447,-0.197446 0.280183,-0.564365 0.183863,-0.815373 -0.09632,-0.251008 0.0947,-0.653689 0.424502,-0.894841 0.329798,-0.241155 0.527859,-0.509763 0.440138,-0.596906 -0.183543,-0.182333 -4.729678,-0.232877 -8.479499,-0.09427 -1.408,0.05204 -4.194502,0.143206 -6.192224,0.202589 -2.639059,0.07845 -3.759687,0.235424 -4.098368,0.574105 -0.309159,0.309162 -1.43609,0.521447 -3.34633,0.630362 -4.652621,0.26528 -2.986323,0.829264 2.892071,0.978867 4.047657,0.103008 5.37087,0.02758 6.475968,-0.369091 1.773462,-0.636602 7.794032,-1.045885 8.100103,-0.55065 0.254521,0.411824 2.026045,1.230279 2.744781,1.268106 0.2728,0.01437 0.657545,-0.135443 0.854995,-0.332893 z m 4.889005,-0.611315 c 0,-0.383683 -1.318406,-0.946355 -1.695539,-0.723629 -0.140547,0.08301 -0.08692,0.354096 0.119184,0.602429 0.433216,0.521997 1.576355,0.609888 1.576355,0.1212 z m -14.720001,-2.82969 c 0,-0.379107 -1.64704,-0.682189 -3.64,-0.669824 -1.511626,0.0094 -1.591376,0.04695 -1.018838,0.48 0.678758,0.513389 4.658838,0.675555 4.658838,0.189824 z m 6.313335,-0.233334 c -0.106336,-0.106333 -0.382336,-0.117699 -0.613334,-0.02525 -0.255274,0.10215 -0.17945,0.177977 0.193334,0.193331 0.337331,0.01389 0.526333,-0.06174 0.42,-0.16807 z M 36.400002,83.173906 c 2.140871,-0.707949 1.785405,-1.025997 -1.572893,-1.407328 -1.210601,-0.137463 -2.022281,-0.07509 -2.443139,0.187741 -0.514371,0.321232 -0.842792,0.292733 -1.78633,-0.155005 -0.824995,-0.391488 -1.499978,-0.483427 -2.356863,-0.321031 -0.660426,0.125165 -1.688217,0.239754 -2.283979,0.254647 -0.987959,0.0247 -2.036271,0.854269 -1.613616,1.276922 0.806656,0.806656 9.745742,0.928288 12.05682,0.164054 z m 8.720001,-0.293901 c 0,-0.404611 -0.653911,-0.404611 -1.28,0 -0.374039,0.241722 -0.285741,0.31128 0.4,0.315101 0.484,0.0027 0.88,-0.139101 0.88,-0.315101 z m 67.284407,-6.305258 c -0.39358,-0.07596 -1.11358,-0.07792 -1.6,-0.0044 -0.48642,0.07355 -0.1644,0.135699 0.7156,0.138103 0.88,0.0022 1.27798,-0.05778 0.8844,-0.133735 z M 23.56806,75.007201 c 0.877961,-0.298073 2.713944,-0.532563 4.384628,-0.56 1.979673,-0.03251 2.915665,-0.171686 3.007425,-0.447196 0.102127,-0.306637 -0.899996,-0.403796 -4.293445,-0.416263 -2.434666,-0.009 -5.053716,-0.0961 -5.820109,-0.193696 -2.130444,-0.271283 -5.486558,0.166343 -5.486558,0.715427 0,0.249994 0.252,0.465908 0.56,0.479812 0.308,0.01389 1.568,0.216096 2.8,0.449315 2.986329,0.565322 3.104208,0.564656 4.848059,-0.02739 z m 74.98921,-2.927197 c -0.0048,-0.41902 -3.617763,-1.372009 -5.178378,-1.365888 -2.027174,0.008 -2.16487,0.450356 -0.330595,1.062173 1.548387,0.516461 5.513892,0.735082 5.508973,0.303715 z M 34.978393,61.276295 c 0.318115,-0.131382 0.50808,-0.422106 0.422144,-0.646054 -0.08594,-0.223946 0.121785,-0.479882 0.461609,-0.568746 0.954829,-0.249696 0.730144,-0.760903 -0.347904,-0.791555 -0.531168,-0.0151 -0.882669,0.106985 -0.781113,0.271302 0.101555,0.16432 -0.102151,0.298762 -0.452679,0.298762 -0.378493,0 -0.729446,-0.290269 -0.86417,-0.714746 l -0.226851,-0.714742 -0.264403,0.714742 c -0.145421,0.393111 -0.48504,0.714746 -0.754714,0.714746 -0.332505,0 -0.49031,0.311977 -0.49031,0.969328 0,0.947721 0.03032,0.966393 1.36,0.837587 0.748,-0.07246 1.620275,-0.239242 1.938391,-0.370624 z M 30.888699,59.50593 c 0.113558,-0.183737 -0.02634,-0.689379 -0.31088,-1.123645 -0.402804,-0.614755 -0.693595,-0.745337 -1.313384,-0.589779 -1.053179,0.26433 -4.534759,-0.172381 -4.001534,-0.501933 0.318437,-0.196806 0.321095,-0.302691 0.01239,-0.493481 -0.516997,-0.319524 -4.672755,-0.385492 -4.979645,-0.07905 -0.33012,0.329638 0.805791,1.521962 1.449954,1.521962 0.289522,0 0.691325,0.164921 0.892894,0.366489 0.27532,0.275322 0.726469,0.265703 1.813554,-0.03866 1.358379,-0.380323 1.531052,-0.354519 2.81751,0.421024 1.406053,0.847642 3.251859,1.111357 3.619144,0.517075 z m 2.071303,-1.265926 c 0.643114,-0.205962 0.674493,-0.258048 0.16,-0.26561 -0.352,-0.0052 -0.928,0.114349 -1.28,0.26561 -0.815432,0.350403 0.02587,0.350403 1.12,0 z m 31.360002,65.975426 c 0,-0.14552 0.432,-0.20118 0.96,-0.12368 0.528,0.0775 0.96,0.19655 0.96,0.26458 0,0.068 -0.432,0.12368 -0.96,0.12368 -0.528,0 -0.96,-0.11906 -0.96,-0.26458 z m -1.28,-63.968671 c -1.126122,-0.428675 -1.033827,-2.007024 0.117322,-2.006365 0.842579,6.4e-4 2.578745,1.440563 2.293392,1.902275 -0.219316,0.354861 -1.595812,0.414295 -2.410714,0.10409 z m 91.751876,-0.356285 c -0.31246,-0.123501 -0.78046,-0.63384 -1.04,-1.134086 -0.52251,-1.007156 -0.64165,-1.914266 -0.15187,-1.156384 0.18723,0.289708 0.31214,0.328617 0.3151,0.09814 0.008,-0.595101 -1.24624,-1.325776 -1.95641,-1.140061 -0.35195,0.09204 -0.86239,0.506883 -1.1343,0.921881 -0.27192,0.414996 -0.61526,0.679844 -0.76298,0.588548 -0.33094,-0.204535 -3.22739,0.4748 -3.64541,0.854995 -0.57366,0.52175 -1.38291,0.275705 -1.95253,-0.593645 -0.31358,-0.478576 -0.57014,-1.054576 -0.57014,-1.28 0,-0.481258 -0.15756,-0.51761 -2.37225,-0.547331 -1.34633,-0.01808 -1.67914,0.08064 -1.68,0.498288 -6.4e-4,0.286448 -0.18108,0.665398 -0.40108,0.842109 -0.66973,0.537945 -4.24837,0.819216 -10.8,0.848848 -3.432,0.01552 -6.42,0.144723 -6.64,0.28711 -0.22,0.142387 -0.4,0.123856 -0.4,-0.04118 0,-0.165036 -0.432,-0.479004 -0.96,-0.697708 -0.97262,-0.402874 -1.0234,-0.492701 -1.0853,-1.92 -0.0315,-0.726065 -0.19736,-0.818605 -1.7947,-1.001322 -0.968,-0.110727 -2.336,-0.428407 -3.04,-0.705955 -1.61793,-0.637856 -3.80073,-0.67841 -4.29749,-0.07984 -0.29113,0.350781 -0.60656,0.380381 -1.39919,0.131293 -0.56283,-0.176873 -1.67132,-0.469296 -2.46332,-0.64983 -0.792,-0.180531 -1.59113,-0.449283 -1.77584,-0.597226 -0.3932,-0.314921 -2.36897,-0.231936 -2.93419,0.123239 -0.21451,0.1348 -0.91038,0.286067 -1.54637,0.336153 -0.635994,0.05009 -1.277508,0.287104 -1.425588,0.526704 -0.217229,0.351479 -0.362723,0.358048 -0.753171,0.034 -0.376122,-0.312153 -0.640848,-0.317651 -1.188279,-0.02467 -0.387388,0.207325 -1.185584,0.298861 -1.773763,0.203412 -0.918288,-0.149018 -1.165094,-0.03918 -1.74641,0.7772 -0.495571,0.695968 -0.844572,0.897555 -1.302358,0.752259 -0.349651,-0.110976 -0.966211,0.02483 -1.398445,0.308051 -0.42519,0.278595 -1.274986,0.506538 -1.888432,0.506538 -0.613446,0 -1.230512,0.196489 -1.371258,0.436646 -0.140745,0.240157 -0.718733,0.673181 -1.284419,0.962279 -0.972749,0.497132 -1.084963,0.491305 -2.069575,-0.107472 -0.572582,-0.348208 -1.65775,-0.725584 -2.411485,-0.838615 -0.753731,-0.11303 -1.370422,-0.315689 -1.370422,-0.450352 0,-0.574342 -2.409811,-1.073786 -6.88,-1.425914 -0.528,-0.04159 -1.851309,-0.335529 -2.940685,-0.653193 -2.100381,-0.612474 -2.684061,-1.304829 -2.557265,-3.033396 0.04122,-0.56192 -0.126835,-0.825532 -0.582051,-0.913036 -0.352,-0.06766 -0.880822,-0.336359 -1.175161,-0.597104 -0.294343,-0.260746 -1.158343,-0.544922 -1.920001,-0.631504 -0.76166,-0.08658 -1.732403,-0.326375 -2.157203,-0.532881 -0.602861,-0.293065 -0.801837,-0.28768 -0.906666,0.02454 -0.21464,0.639271 -1.029865,0.466381 -2.114774,-0.448492 -0.553408,-0.466669 -1.474195,-1.044602 -2.046195,-1.284295 -0.572,-0.239689 -1.036129,-0.541869 -1.031399,-0.671507 0.0047,-0.129638 0.93753,-0.650621 2.07288,-1.157744 2.330266,-1.040842 4.021773,-1.000704 5.614231,0.133225 1.012102,0.720682 1.995366,0.810221 2.480336,0.225869 0.24624,-0.296697 1.696061,-0.392275 5.498624,-0.362489 4.904353,0.03842 5.247764,0.08287 6.824769,0.883449 0.913309,0.463645 2.072326,1.172983 2.575594,1.576301 l 0.915033,0.733309 -0.845145,1.004397 -0.845146,1.0044 1.047898,1.141789 c 1.008592,1.098963 1.799245,1.408205 2.305661,0.901789 0.132,-0.132 0.336,-0.252068 0.453331,-0.266813 1.716915,-0.215802 2.715757,-1.696023 1.815629,-2.690653 -0.501719,-0.554394 -0.498483,-0.611354 0.05148,-0.905687 1.53137,-0.819564 5.845751,-0.34183 7.057866,0.781524 0.443466,0.410989 1.294788,0.838889 1.891831,0.950896 0.597043,0.112006 1.191507,0.369661 1.32103,0.572566 0.540576,0.846842 2.419322,2.118167 3.130196,2.118167 0.767507,0 3.341307,-1.16825 3.692387,-1.675975 0.39891,-0.576896 6.39267,-0.965222 9.24737,-0.59912 1.52289,0.195303 4.94664,0.355095 7.60833,0.355095 3.21321,0 4.91353,0.119872 5.05991,0.356716 0.13536,0.219018 0.82205,0.298916 1.77889,0.206976 0.85713,-0.08236 1.55842,-0.0425 1.55842,0.08859 0,0.131085 0.396,0.348467 0.88,0.483069 0.484,0.134605 1.096,0.305597 1.36,0.379987 1.714,0.482967 2.16057,0.430176 3.10853,-0.367481 1.69797,-1.428746 5.48751,-1.011242 5.09287,0.561094 -0.25237,1.005565 0.0527,1.288067 2.1986,2.035597 2.3514,0.819133 6.88,0.992416 6.88,0.263258 0,-0.24752 -0.12739,-0.528762 -0.28308,-0.624986 -0.15569,-0.09622 -0.3818,-0.833347 -0.50248,-1.638058 -0.13309,-0.887497 -0.36435,-1.41479 -0.58783,-1.340297 -0.20264,0.06755 -0.71238,-0.221146 -1.13277,-0.641536 -0.42039,-0.420391 -0.95987,-0.689316 -1.19885,-0.597613 -0.63648,0.244243 -0.84622,-0.30784 -0.29176,-0.768 0.37874,-0.314324 0.68909,-0.309088 1.51648,0.02557 0.57216,0.231427 1.11229,0.511689 1.20029,0.622806 0.088,0.11112 0.772,0.541811 1.52,0.957095 0.748,0.415283 1.36,0.872544 1.36,1.016134 0,0.14359 0.3515,0.261075 0.78111,0.261075 0.42962,0 0.87284,0.14842 0.98496,0.329818 0.2086,0.337526 2.34243,0.104051 2.79513,-0.305831 0.40749,-0.36895 -0.51469,-1.298499 -1.3612,-1.37207 -1.16006,-0.100829 -1.87474,-0.93993 -1.54947,-1.819232 0.14523,-0.392592 0.41029,-0.623424 0.58902,-0.51296 0.17873,0.110461 0.40493,-0.0075 0.50265,-0.262195 0.11353,-0.29585 0.55512,-0.437744 1.22301,-0.392992 1.34101,0.08985 1.79479,0.381712 1.79479,1.154348 0,0.341613 0.252,0.873114 0.56,1.181114 0.3264,0.326403 0.53348,0.960451 0.49643,1.52 -0.15582,2.352797 0.72215,4.640001 1.78111,4.640001 0.19935,0 0.36246,0.07889 0.36246,0.175302 0,0.137187 -2.98088,3.092471 -3.02821,3.002205 -0.006,-0.01235 -0.26745,-0.123536 -0.57992,-0.247037 z M 49.156464,56.698996 c -0.283815,-0.459223 1.238973,-1.926349 2.256266,-2.173793 0.499001,-0.121376 1.191315,-0.4152 1.538477,-0.652944 0.347158,-0.23774 1.013574,-0.432256 1.480918,-0.432256 0.467347,0 1.366678,-0.216 1.998522,-0.48 1.578925,-0.659715 3.555181,-0.601283 6.039709,0.178576 2.500112,0.784752 3.028778,1.147914 3.297773,2.265367 0.192576,0.799994 0.130995,0.85104 -1.182483,0.980182 -0.762103,0.07493 -1.961642,-0.03301 -2.665642,-0.239878 -1.57144,-0.461751 -4.64,-0.771578 -4.64,-0.468493 0,0.439587 -2.436708,0.960848 -4.160001,0.889911 -0.968,-0.03985 -2.214291,0.04101 -2.769536,0.179676 -0.578057,0.144368 -1.088378,0.12456 -1.194003,-0.04635 z m 98.363546,-7.221671 c 0,-0.284074 1.29462,-0.432554 1.45857,-0.16728 0.0986,0.159478 -0.1893,0.289958 -0.63968,0.289958 -0.45039,0 -0.81889,-0.05521 -0.81889,-0.122678 z M 54.980003,47.141408 c 0.230999,-0.09244 0.506999,-0.08107 0.613335,0.02525 0.106333,0.106333 -0.08267,0.181965 -0.42,0.16807 -0.372784,-0.01536 -0.448608,-0.09118 -0.193335,-0.193331 z m -4.496269,-8.007729 c 0.398052,-0.07654 0.974052,-0.07364 1.28,0.0065 0.305949,0.08009 -0.01974,0.14272 -0.723731,0.139168 -0.704,-0.0036 -0.95432,-0.06909 -0.556269,-0.145625 z M 2.9540749,10.186076 C 2.4473313,9.6793318 2.439592,6.3284087 2.9440002,5.8240004 3.5219029,5.2460976 9.4085347,5.3037216 9.8968131,5.8920612 10.122453,6.1639409 10.233729,7.152412 10.175996,8.3720613 l -0.096,2.0279397 -3.3659257,0.09008 c -2.3451848,0.06276 -3.4854316,-0.02943 -3.7600004,-0.304 z M 6.750627,8.731006 C 7.2617825,8.4290591 7.6800005,8.1001067 7.6800005,8.0000005 c 0,-0.1963571 -1.7349915,-1.2800001 -2.0493736,-1.2800001 -0.1048445,0 -0.1906266,0.5760001 -0.1906266,1.2800001 0,1.4566932 0.042246,1.4802564 1.3106267,0.7310055 z m 7.550046,1.459768 C 13.541872,9.766128 13.556097,7.4873896 14.320001,7.0945 c 0.985813,-0.5070212 1.36,-0.083879 1.36,1.5379309 0,1.6295731 -0.414748,2.0981491 -1.379328,1.5583431 z m 0.739328,-1.5507735 c 0,-0.704 -0.144,-1.28 -0.32,-1.28 -0.176,0 -0.32,0.576 -0.32,1.28 0,0.7040001 0.144,1.2800001 0.32,1.2800001 0.176,0 0.32,-0.576 0.32,-1.2800001 z m -2.987232,0.08 c -0.108008,-0.836 -0.28886,-1.8440001 -0.401895,-2.2400001 -0.1144,-0.4007837 -0.06483,-0.72 0.111805,-0.72 0.174527,0 0.422395,0.468 0.550818,1.04 l 0.233497,1.0400001 0.295653,-1.0400001 c 0.162609,-0.572 0.447535,-1.04 0.63317,-1.04 0.185634,0 0.264212,0.18 0.174617,0.4 -0.0896,0.22 -0.346406,1.2280001 -0.570691,2.2400001 -0.224285,1.0120001 -0.502922,1.8400005 -0.619193,1.8400005 -0.116272,0 -0.299773,-0.6840004 -0.407781,-1.5200005 z m 4.267232,-0.074917 c 0,-0.8827956 0.144,-1.605083 0.32,-1.605083 0.176,0 0.32,0.6480001 0.32,1.4400001 0,0.7920001 0.144,1.4400001 0.32,1.4400001 0.176,0 0.32,-0.648 0.32,-1.4400001 0,-0.792 0.144,-1.4400001 0.32,-1.4400001 0.176,0 0.32,0.6893703 0.32,1.5319336 0,1.4725599 -0.03721,1.5347689 -0.96,1.6050829 -0.948794,0.0723 -0.96,0.05441 -0.96,-1.5319335 z m 2.88,-0.3091821 c 0,-1.4758391 -0.125952,-1.9774596 -0.56,-2.2302692 -0.445475,-0.2594657 -0.298229,-0.3229937 0.72,-0.3106378 0.704,0.00854 1.1,0.088164 0.88,0.176936 -0.261672,0.1055869 -0.4,0.8714855 -0.4,2.2147368 0,1.1555556 -0.139913,2.0533338 -0.32,2.0533338 -0.177481,0 -0.32,-0.8480333 -0.32,-1.9040996 z m 1.28,0.3040992 c 0,-0.88 0.144,-1.6000001 0.32,-1.6000001 0.176,0 0.32,0.6480001 0.32,1.4400001 0,0.7920001 0.144,1.4400001 0.32,1.4400001 0.176,0 0.32,-0.648 0.32,-1.4400001 0,-0.792 0.144,-1.4400001 0.32,-1.4400001 0.176,0 0.32,0.7200001 0.32,1.6000001 0,1.5644444 -0.02133,1.6000004 -0.96,1.6000004 -0.938666,0 -0.96,-0.03556 -0.96,-1.6000004 z m 2.56,-0.8 c 0,-1.3866667 0.135111,-2.4000002 0.32,-2.4000002 0.176,0 0.32,0.3754065 0.32,0.8342366 0,0.6062643 0.129836,0.7844138 0.475119,0.6519162 0.688849,-0.264336 1.22041,0.9443063 0.979673,2.2275425 -0.177093,0.9439883 -0.327662,1.0863053 -1.149292,1.0863053 h -0.9455 z m 1.280001,0.8 c 0,-0.704 -0.144,-1.28 -0.320001,-1.28 -0.176,0 -0.32,0.576 -0.32,1.28 0,0.7040001 0.144,1.2800001 0.32,1.2800001 0.176001,0 0.320001,-0.576 0.320001,-1.2800001 z m 1.493333,1.3866664 C 25.342412,9.5557443 25.599308,7.382875 26.160002,7.0945 c 0.858278,-0.4414279 1.36,-0.09754 1.36,0.9321671 0,0.72 -0.146286,0.9333335 -0.64,0.9333335 -0.355556,0 -0.64,0.2133334 -0.64,0.48 0,0.5786214 0.373374,0.6186264 0.896,0.096 0.298666,-0.2986666 0.384,-0.2631111 0.384,0.16 0,0.5437734 -1.25115,0.7861844 -1.706667,0.3306664 z m 1.066667,-2.0266664 c 0,-0.352 -0.144,-0.64 -0.32,-0.64 -0.176,0 -0.32,0.288 -0.32,0.64 0,0.352 0.144,0.64 0.32,0.64 0.176,0 0.32,-0.288 0.32,-0.64 z"
     style="fill:#515151;stroke-width:0.32000002" />
</svg>
