<?xml version="1.0" encoding="UTF-8" standalone="no"?>
<svg
   xmlns:dc="http://purl.org/dc/elements/1.1/"
   xmlns:cc="http://creativecommons.org/ns#"
   xmlns:rdf="http://www.w3.org/1999/02/22-rdf-syntax-ns#"
   xmlns:svg="http://www.w3.org/2000/svg"
   xmlns="http://www.w3.org/2000/svg"
   viewBox="0 0 290.23999 67.199997"
   height="67.199997"
   width="290.23999"
   id="svg64"
   version="1.1">
  <metadata
     id="metadata70">
    <rdf:RDF>
      <cc:Work
         rdf:about="">
        <dc:format>image/svg+xml</dc:format>
        <dc:type
           rdf:resource="http://purl.org/dc/dcmitype/StillImage" />
        <dc:title></dc:title>
      </cc:Work>
    </rdf:RDF>
  </metadata>
  <defs
     id="defs68" />
  <path
     id="path74"
     fill="#515151"
     d="M 34.071064,65.931373 C 29.240141,65.386695 24.093711,63.46786 19.78984,60.60665 16.974358,58.734922 12.985572,54.844513 11.293642,52.319998 9.8618729,50.183665 7.7466833,46.116372 7.2996701,44.639998 6.213619,41.053038 5.7238033,38.406667 5.5489588,35.181269 5.3088037,30.751077 5.7479534,27.313814 7.0716257,23.26322 7.9560554,20.55676 8.021432,20.003383 8.1154324,14.42796 8.1894708,10.036526 8.3580784,7.9824697 8.7597338,6.5787875 9.7192429,3.225548 9.8617437,3.0529005 11.760369,2.9433566 c 2.361914,-0.136274 4.945377,0.4092292 7.487621,1.5810253 l 2.184784,1.0070323 2.003613,-0.984495 C 32.33366,0.17515699 43.405349,0.22450088 52.274149,4.6754424 l 2.242604,1.1254857 2.201171,-1.0145846 c 2.912996,-1.3426877 5.097498,-1.8979262 7.485271,-1.9025456 2.337539,-0.00452 2.585075,0.2546791 3.510771,3.6762018 0.503225,1.8600066 0.608851,3.4071218 0.622646,9.1199993 0.01546,6.398388 0.07702,7.115206 0.879587,10.24 0.732995,2.853944 0.863034,4.024723 0.863386,7.773491 6.4e-4,6.668735 -1.050147,10.839497 -4.04776,16.066508 -3.581693,6.245484 -9.483424,11.392559 -16.09895,14.040377 -4.699209,1.880825 -10.805088,2.701139 -15.861811,2.130998 z m 12.142957,-4.496537 c 5.024374,-1.758355 8.578099,-3.862717 11.806905,-6.991536 1.751008,-1.696784 4.118349,-4.723651 4.994256,-6.385622 0.665459,-1.262666 1.944816,-8.698237 1.944816,-11.303212 0,-5.832644 -2.327818,-12.028908 -6.053894,-16.114467 -2.372,-2.600845 -4.237475,-4.025367 -4.978522,-3.801721 -0.356169,0.107491 -0.788157,0.214852 -0.959965,0.23858 -0.171811,0.02373 -0.507417,0.224465 -0.745798,0.446082 -0.238381,0.221618 -0.55351,0.328721 -0.700288,0.238007 -0.146778,-0.09072 -0.315168,-0.03084 -0.374202,0.133058 -0.05903,0.163897 -0.319904,0.344794 -0.579712,0.401994 -0.259811,0.0572 -0.667417,0.285324 -0.905798,0.506941 -0.238381,0.221618 -0.565808,0.32112 -0.727619,0.221115 -0.161811,-0.100005 -0.294202,-0.04341 -0.294202,0.125755 0,0.245659 -0.977785,0.716469 -2.24,1.078574 -0.088,0.02525 -0.344166,0.230068 -0.56926,0.455161 -0.225095,0.225093 -0.621095,0.327973 -0.88,0.228621 -0.258906,-0.09935 -0.47074,-0.02123 -0.47074,0.173597 0,0.19483 -0.288,0.354236 -0.64,0.354236 -0.351999,0 -0.639999,0.144 -0.639999,0.32 0,0.176 -0.288,0.32 -0.64,0.32 -0.352,0 -0.64,0.144 -0.64,0.32 0,0.176 -0.288,0.32 -0.64,0.32 -0.352,0 -0.64,0.144 -0.64,0.32 0,0.176 -0.226285,0.32 -0.502858,0.32 -0.27657,0 -0.718858,0.216 -0.982858,0.48 -1.128886,1.128887 -2.27127,0.697507 -15.695294,-5.926755 l -2.941011,-1.45128 -2.694957,2.729017 c -1.482226,1.50096 -3.093907,3.341018 -3.581513,4.089018 -0.487605,0.748 -1.019918,1.36 -1.182917,1.36 -0.162999,0 -0.21454,0.132391 -0.114536,0.294201 0.100005,0.161811 -0.0715,0.547526 -0.381114,0.857143 -0.309618,0.309618 -0.501452,0.573227 -0.426299,0.585799 0.07515,0.01257 -0.210041,1.246857 -0.633766,2.742857 -1.534685,5.418355 -0.680618,16.613535 1.525776,19.999999 2.695545,4.137235 7.193219,8.158076 11.577504,10.350086 3.51233,1.75606 3.759212,1.8463 7.233843,2.644179 2.038723,0.468153 3.472233,0.560518 7.04,0.453616 3.995532,-0.119719 4.788633,-0.242247 7.334022,-1.133043 z M 24.719999,46.495883 c -0.439635,-0.08573 -0.72,-0.373187 -0.72,-0.738224 0,-0.779421 2.563099,-4.797661 3.060266,-4.797661 0.210512,0 0.933179,0.864 1.605927,1.92 l 1.223178,1.92 h 8.232145 8.232144 l 1.166339,-1.92 c 0.641485,-1.056 1.34024,-1.92 1.552784,-1.92 0.55001,0 3.466074,4.417997 3.341898,5.063158 -0.09461,0.491562 -1.236531,0.540058 -13.539005,0.574983 -7.389621,0.02099 -13.759676,-0.02502 -14.155676,-0.102256 z m -9.68,-14.815884 c 0,-0.624198 0.213334,-0.64 8.64,-0.64 8.426665,0 8.64,0.0158 8.64,0.64 0,0.624198 -0.213335,0.64 -8.64,0.64 -8.426666,0 -8.64,-0.01581 -8.64,-0.64 z m 27.52,0 c 0,-0.624198 0.213334,-0.64 8.639999,-0.64 8.426666,0 8.64,0.0158 8.64,0.64 0,0.624198 -0.213334,0.64 -8.64,0.64 -8.426665,0 -8.639999,-0.01581 -8.639999,-0.64 z m 23.898594,-2.3 c -0.10215,-0.255275 -0.177978,-0.179449 -0.193331,0.193333 -0.01389,0.337333 0.06173,0.526333 0.16807,0.42 0.106333,-0.106333 0.117699,-0.382333 0.02525,-0.613333 z m -0.510525,-2.75731 c -0.191437,-0.06381 -0.34807,-0.680024 -0.34807,-1.369357 0,-0.689333 -0.144,-1.253333 -0.32,-1.253333 -0.176,0 -0.32,-0.72 -0.32,-1.6 0,-0.915456 0.145376,-1.6 0.339789,-1.6 0.367315,0 0.219187,-10.559772 -0.182384,-13.0019734 -0.262237,-1.5948051 -1.385149,-2.4244527 -2.41281,-1.7826681 -0.338752,0.2115533 -0.957971,0.3846422 -1.376048,0.3846422 -0.418073,0 -1.87992,0.576 -3.248547,1.28 -1.78343,0.9173686 -2.88385,1.2799999 -3.884205,1.2799999 -0.767686,0 -1.395795,-0.144 -1.395795,-0.32 0,-0.176 -0.288,-0.32 -0.64,-0.32 -0.352,0 -0.64,-0.144 -0.64,-0.32 0,-0.1759999 -0.288,-0.3199999 -0.64,-0.3199999 -0.352,0 -0.64,-0.144 -0.64,-0.32 0,-0.176 -0.279501,-0.32 -0.621113,-0.32 -0.341613,0 -0.694903,-0.1193914 -0.785088,-0.2653139 C 48.743611,6.6287632 47.864402,6.3161546 46.879998,6.0799997 45.895595,5.8438449 45.016386,5.5312362 44.9262,5.3853137 44.836014,5.2393911 43.987224,5.1199998 43.039999,5.1199998 c -0.947226,0 -1.811226,-0.144 -1.92,-0.32 -0.442583,-0.716111 -8.448519,-0.2121904 -10.56,0.6646822 -0.352,0.1461811 -1.288,0.4477731 -2.08,0.6702044 -0.792,0.2224311 -2.503893,0.9490762 -3.804206,1.6147667 -2.300481,1.1777231 -3.875794,1.5396034 -3.875794,0.8903465 0,-0.176 -0.288,-0.32 -0.64,-0.32 -0.352,0 -0.64,-0.144 -0.64,-0.32 0,-0.1759999 -0.288,-0.3199999 -0.64,-0.3199999 -0.352,0 -0.64,-0.144 -0.64,-0.32 0,-0.176 -0.279501,-0.32 -0.621114,-0.32 -0.341613,0 -0.710112,-0.144 -0.818886,-0.32 -0.108774,-0.176 -0.623226,-0.32 -1.143227,-0.32 -0.520001,0 -1.212428,-0.1667261 -1.538725,-0.3705027 -1.137104,-0.7101328 -1.886737,0.1256797 -2.886427,3.2182539 -0.416183,1.2874781 -0.457785,9.2693091 -0.0573,10.9939521 0.162548,0.7 0.159361,1.275677 -0.0076,1.378886 -0.488805,0.302098 -0.327479,1.632743 0.197952,1.632743 0.312157,0 0.42265,-0.195305 0.310464,-0.54877 -0.102524,-0.323026 0.0272,-0.626047 0.315363,-0.736624 C 12.259708,21.864619 12.48,21.579518 12.48,21.33438 c 0,-0.687813 5.722838,-6.294381 6.424915,-6.294381 0.338296,0 0.615084,-0.144 0.615084,-0.32 0,-0.176 0.432,-0.32 0.96,-0.32 0.528,0 0.96,0.144 0.96,0.32 0,0.176 0.366956,0.32 0.815458,0.32 0.448502,0 1.41155,0.288 2.140106,0.64 0.728555,0.352 1.5136,0.64 1.744541,0.64 0.230942,0 0.419895,0.144 0.419895,0.32 0,0.176 0.288,0.32 0.64,0.32 0.352,0 0.64,0.144 0.64,0.32 0,0.176 0.18,0.318809 0.4,0.317352 0.506099,-0.0034 5.80327,2.633089 5.946665,2.959697 0.05867,0.133623 0.382669,0.242951 0.72,0.242951 0.337335,0 0.613335,0.144 0.613335,0.32 0,0.176 0.288,0.32 0.64,0.32 0.352,0 0.64,0.144 0.64,0.32 0,0.176 0.432,0.32 0.96,0.32 0.528,0 0.96,-0.144 0.96,-0.32 0,-0.176 0.288,-0.32 0.64,-0.32 0.352,0 0.64,-0.144 0.64,-0.32 0,-0.176 0.288,-0.32 0.64,-0.32 0.352,0 0.64,-0.144 0.64,-0.32 0,-0.176 0.288,-0.32 0.64,-0.32 0.352,0 0.64,-0.144 0.64,-0.32 0,-0.176 0.288,-0.32 0.64,-0.32 0.351999,0 0.639999,-0.144 0.639999,-0.32 0,-0.176 0.288,-0.32 0.64,-0.32 0.352,0 0.641124,-0.108 0.642496,-0.24 0.0029,-0.28738 1.552589,-1.04 2.1413,-1.04 0.228912,0 0.416204,-0.144 0.416204,-0.32 0,-0.176 0.288,-0.32 0.64,-0.32 0.352,0 0.64,-0.144 0.64,-0.32 0,-0.176 0.288,-0.32 0.64,-0.32 0.352,0 0.64,-0.144 0.64,-0.32 0,-0.176 0.288,-0.32 0.64,-0.32 0.352,0 0.64,-0.144 0.64,-0.32 0,-0.176 0.288,-0.32 0.64,-0.32 0.352,0 0.64,-0.144 0.64,-0.32 0,-0.176 0.72,-0.32 1.6,-0.32 1.386666,0 1.6,0.08533 1.6,0.64 0,0.381633 0.213334,0.64 0.528445,0.64 0.290646,0 1.302573,0.786585 2.248726,1.747967 0.946154,0.961381 1.99784,1.942377 2.337082,2.17999 0.669305,0.4688 2.565747,3.857406 2.565747,4.584538 0,0.246128 0.144,0.447505 0.32,0.447505 0.176,0 0.32,0.288 0.32,0.64 0,0.352 0.144,0.64 0.32,0.64 0.176,0 0.32,0.288 0.32,0.64 0,0.352 0.134297,0.64 0.298435,0.64 0.164141,0 0.412864,0.324 0.552717,0.72 0.238781,0.676112 0.261312,0.662053 0.369635,-0.230643 0.06345,-0.522854 -0.04128,-1.002854 -0.232717,-1.066667 z M 237.43999,56.479997 c 0,-0.377436 0.44445,-0.48 2.08,-0.48 1.63556,0 2.08,-0.102563 2.08,-0.479999 0,-0.377437 -0.44444,-0.48 -2.08,-0.48 h -2.08 v -1.61346 -1.613462 l 2.45432,0.09346 c 1.60873,0.06126 2.49992,0.231271 2.58667,0.49346 0.0969,0.292896 -0.43174,0.4 -1.97432,0.4 -1.89333,0 -2.10667,0.06481 -2.10667,0.64 0,0.574358 0.21334,0.64 2.08,0.64 h 2.08 v 1.44 1.439999 h -2.56 c -2.06222,0 -2.56,-0.09333 -2.56,-0.48 z m 6.08,-2.093459 v -2.573462 l 2.48,0.09346 2.48,0.09346 0.0935,2.48 c 0.0764,2.028636 0.006,2.479999 -0.38473,2.479999 -0.36308,0 -0.50112,-0.48142 -0.57346,-1.999999 l -0.0953,-2 -1.52,-0.09753 -1.52,-0.09753 v 2.097533 c 0,1.651139 -0.10215,2.097532 -0.48,2.097532 -0.38688,0 -0.48,-0.499273 -0.48,-2.573459 z m 6.08,0 v -2.573462 l 2.48,0.09346 2.48,0.09346 0.0935,2.48 0.0935,2.479999 h -2.57346 -2.57346 z m 4.09753,0.09346 -0.0975,-1.52 -1.52,-0.09753 -1.52,-0.09753 v 1.617533 1.617532 h 1.61753 1.61754 z m 1.98247,-0.09346 v -2.573462 l 2.48,0.09346 2.48,0.09346 0.0985,1.362928 c 0.0726,1.003568 -0.0329,1.413369 -0.4,1.554236 -0.6374,0.244592 -0.65175,1.082835 -0.0185,1.082835 0.264,0 0.48,0.216 0.48,0.48 0,0.335239 -0.33778,0.48 -1.12,0.48 -1.03111,0 -1.12,-0.07619 -1.12,-0.96 0,-0.853334 -0.10666,-0.959999 -0.96,-0.959999 -0.85333,0 -0.96,0.106665 -0.96,0.959999 0,0.64 -0.16,0.96 -0.48,0.96 -0.38688,0 -0.48,-0.499273 -0.48,-2.573459 z m 4,-0.94654 c 0,-0.34561 -0.42557,-0.507309 -1.52,-0.577533 -1.36381,-0.08751 -1.52,-0.02816 -1.52,0.577533 0,0.605699 0.15619,0.665043 1.52,0.577532 1.09443,-0.07022 1.52,-0.231923 1.52,-0.577532 z m 2.08,0.96 c 0,-2.062221 0.0933,-2.56 0.48,-2.56 0.37744,0 0.48,0.444444 0.48,2.08 v 2.079999 h 2.08 c 1.63556,0 2.08,0.102564 2.08,0.48 0,0.386666 -0.49778,0.48 -2.56,0.48 h -2.56 z m 6.08,1.599999 c 0,-0.853334 0.10667,-0.959999 0.96,-0.959999 0.85334,0 0.96,0.106665 0.96,0.959999 0,0.853335 -0.10666,0.96 -0.96,0.96 -0.85333,0 -0.96,-0.106665 -0.96,-0.96 z m 2.88,-1.613459 v -2.573462 l 2.48,0.09346 2.48,0.09346 0.0935,2.48 c 0.0777,2.06158 0.0102,2.479999 -0.4,2.479999 -0.33495,0 -0.49346,-0.308361 -0.49346,-0.96 0,-0.938665 -0.0356,-0.959999 -1.6,-0.959999 -1.56444,0 -1.6,0.02134 -1.6,0.959999 0,0.64 -0.16,0.96 -0.48,0.96 -0.38688,0 -0.48,-0.499273 -0.48,-2.573459 z m 4,-0.94654 c 0,-0.34561 -0.42557,-0.507309 -1.52,-0.577533 -1.36381,-0.08751 -1.52,-0.02816 -1.52,0.577533 0,0.605699 0.15619,0.665043 1.52,0.577532 1.09443,-0.07022 1.52,-0.231923 1.52,-0.577532 z m 2.08,2.559999 c 0,-0.853334 0.10667,-0.959999 0.96,-0.959999 0.64,0 0.96,-0.16 0.96,-0.48 0,-0.32 -0.32,-0.48 -0.96,-0.48 -0.88381,0 -0.96,-0.08889 -0.96,-1.12 0,-0.782221 0.14476,-1.12 0.48,-1.12 0.264,0 0.48,0.216 0.48,0.48 0,0.362665 0.39111,0.48 1.6,0.48 1.24632,0 1.6,-0.112 1.6,-0.506666 0,-0.278669 0.18,-0.446669 0.4,-0.373334 0.22,0.07333 0.4,0.553334 0.4,1.066665 0,0.822685 -0.1256,0.945395 -1.05942,1.035059 -1.33664,0.12834 -1.18919,0.820954 0.20406,0.958551 0.88721,0.08762 1.01536,0.218877 1.01536,1.04 0,0.621977 -0.1623,0.939724 -0.48,0.939724 -0.264,0 -0.48,-0.216 -0.48,-0.48 0,-0.362665 -0.39111,-0.48 -1.6,-0.48 -1.20889,0 -1.6,0.117335 -1.6,0.48 0,0.264 -0.216,0.48 -0.48,0.48 -0.32,0 -0.48,-0.32 -0.48,-0.96 z M 85.846416,45.215006 c -0.39247,-0.07581 -2.08447,-1.358384 -3.76,-2.850166 l -3.046419,-2.712327 v -2.226255 -2.22626 h 2.225501 2.225498 l 0.211177,1.125661 c 0.155792,0.830445 0.684118,1.542611 2.014499,2.715475 l 1.803325,1.589811 4.052016,0.0045 4.052019,0.0045 1.947981,-1.627696 c 1.832758,-1.531417 1.947984,-1.709555 1.947984,-3.011555 0,-1.152448 -0.164637,-1.522393 -0.984554,-2.212307 l -0.98455,-0.828444 h -6.845226 -6.845222 l -2.410224,-2.102071 -2.410224,-2.10207 0.02339,-4.05793 0.02339,-4.057929 3.154077,-2.64 3.154073,-2.64 h 6.357347 6.357344 l 3.105182,2.735782 3.10518,2.735781 v 2.544218 2.544219 h -1.4 c -0.77,0 -1.85,-0.09 -2.4,-0.2 -0.910567,-0.182116 -0.999987,-0.30931 -0.999987,-1.422419 0,-1.097035 -0.183533,-1.371922 -1.789335,-2.68 l -1.789334,-1.457581 h -4.217725 -4.217728 l -1.828441,1.52 c -1.790019,1.488059 -1.828538,1.554706 -1.832941,3.171554 -0.004,1.454059 0.113239,1.750621 0.980058,2.48 l 0.98455,0.828446 h 6.87935 6.879347 l 2.367406,2 2.36739,2 0.009,3.865475 0.009,3.865478 -3.26415,2.774521 -3.264161,2.774525 -5.615847,-0.04358 c -3.088716,-0.02397 -5.936959,-0.105606 -6.32943,-0.181414 z M 108.08,45.217918 107.2,45.077489 V 30.218744 15.359999 h 2.22039 2.22039 l 0.19343,1.36 c 0.10638,0.748 0.15121,7.48 0.0996,14.96 l -0.0938,13.599999 -1.44,0.03917 c -0.792,0.02154 -1.836,-0.02403 -2.32,-0.101254 z m 8,-1.47e-4 -0.88,-0.140282 V 33.062312 21.047137 l 2.16,-2.843402 2.16,-2.843403 6.13817,-1.66e-4 6.13817,-1.67e-4 0.51566,2.32 c 0.28361,1.276 1.00069,4.624 1.59351,7.44 0.59281,2.816 1.09058,5.010622 1.10616,4.876939 0.0156,-0.133684 0.67633,-3.424064 1.46833,-7.311955 0.792,-3.887891 1.44,-7.126514 1.44,-7.196939 0,-0.07042 2.78118,-0.128045 6.1804,-0.128045 h 6.1804 l 2.1435,2.829671 2.14349,2.829671 -0.0839,12.126018 c -0.0954,13.784703 0.21147,12.545221 -3.00612,12.143209 l -1.71778,-0.214621 V 33.954571 22.835198 l -1.14493,-1.337599 -1.14494,-1.3376 h -2.69506 c -1.48229,0 -2.69506,0.04252 -2.69506,0.09449 0,0.163845 -3.82571,18.834971 -4.36002,21.278817 l -0.51015,2.333309 -2.26353,-0.09331 -2.26353,-0.09331 -2.31802,-11.308316 c -1.2749,-6.219574 -2.39601,-11.511574 -2.49134,-11.76 -0.13031,-0.339585 -0.84419,-0.451683 -2.87648,-0.451683 h -2.70316 l -0.98275,1.240826 -0.98275,1.240826 -0.0841,11.319173 -0.0841,11.319174 -1.6,0.03903 c -0.88,0.02147 -1.996,-0.0241 -2.48,-0.101254 z m 42.55999,1.47e-4 -0.88,-0.140429 V 30.218744 15.359999 h 10.49706 10.49705 l 1.07999,2.64 c 0.79732,1.949033 1.11472,3.268151 1.2127,5.04 l 0.13271,2.4 -2.5401,3.68 -2.5401,3.68 -6.76277,0.08635 -6.76276,0.08634 -0.0869,6.153657 -0.0869,6.153654 -1.44,0.03917 c -0.792,0.02154 -1.836,-0.02403 -2.32,-0.101254 z m 16.21526,-19.47325 c 1.56323,-2.236212 1.75315,-3.13874 0.97653,-4.64056 l -0.48822,-0.944109 h -6.39178 -6.39179 v 3.84 3.84 h 5.41526 5.41526 z m 13.68326,19.46668 c -0.47704,-0.09103 -1.4747,-1.131139 -2.79739,-2.916422 l -2.05592,-2.774928 -0.003,-12.079999 -0.003,-12.08 h 2.4 2.4 v 11.175123 11.175123 l 1.05585,1.384876 1.05585,1.384877 5.47663,0.08744 5.47664,0.08744 1.14751,-1.400397 1.14752,-1.400393 V 26.607041 15.359999 h 2.4 2.4 v 12.164839 12.16484 l -2.15358,2.875158 -2.15359,2.875162 -7.52641,-0.04358 c -4.13953,-0.02397 -7.86008,-0.107251 -8.2679,-0.185072 z m 33.31323,0.0044 -0.70826,-0.137139 -0.0917,-11.150038 -0.0917,-11.150031 -0.99349,-1.229246 -0.99349,-1.229247 -3.64651,-0.197901 c -2.00558,-0.108845 -3.68251,-0.216845 -3.72651,-0.24 -0.044,-0.02315 -0.08,-1.050099 -0.08,-2.282099 v -2.24 h 4.94372 4.94371 l 0.85427,1.12 c 0.46984,0.616 0.94517,1.119016 1.05628,1.117814 0.11111,-0.0012 0.54459,-0.505203 0.96327,-1.12 l 0.76125,-1.117814 h 5.07875 5.07875 v 2.4 2.4 l -3.76,0.0068 -3.76,0.0068 -0.96,1.353167 -0.96,1.353168 -0.0952,11.28 -0.0952,11.279999 -1.50475,-0.04358 c -0.82761,-0.02397 -1.82346,-0.105292 -2.213,-0.180716 z m 21.12554,0.0038 c -0.42536,-0.08444 -1.53046,-1.251225 -2.8,-2.956297 l -2.09729,-2.816784 V 30.239999 21.03357 l 2.11218,-2.836785 2.11217,-2.836786 h 7.50185 7.50184 l -0.094,2.32 -0.094,2.32 -6.08,0.09735 -6.08,0.09735 -1.04,1.4092 c -0.95617,1.295619 -1.04,1.60313 -1.04,3.81527 v 2.406069 l 5.68,0.08738 5.68,0.08738 v 2.4 2.4 l -5.68,0.08738 -5.68,0.08739 0.008,2.312614 c 0.007,2.131005 0.0955,2.431984 1.12311,3.832617 l 1.11517,1.52 h 6.09091 6.09091 l -0.094,2.32 -0.094,2.32 -6.72,0.03951 c -3.696,0.02173 -7.03621,-0.02326 -7.4227,-0.09999 z m 18.06271,-0.0016 -0.88,-0.140429 V 30.218744 15.359999 h 10.52642 10.52641 l 1.15359,2.882209 c 0.93663,2.340173 1.15358,3.299366 1.15358,5.100399 v 2.218191 l -2.56,3.66088 c -1.408,2.013484 -2.56,3.752541 -2.56,3.86457 0,0.112029 1.09147,2.731725 2.42548,5.821549 1.33401,3.08982 2.34653,5.823583 2.25004,6.07503 -0.18705,0.48744 -2.18656,0.618963 -3.97429,0.261417 -0.91714,-0.18343 -1.11359,-0.510838 -3.12007,-5.199999 -1.17771,-2.752336 -2.41419,-5.544247 -2.74773,-6.204247 l -0.60644,-1.199999 h -3.82673 -3.82673 l -0.0868,6.319999 -0.0868,6.32 -1.44,0.03917 c -0.792,0.02154 -1.836,-0.02403 -2.32,-0.101254 z M 277.2519,25.782657 c 1.57264,-2.203855 1.77066,-3.149335 0.97987,-4.678549 l -0.48821,-0.944109 h -6.39179 -6.39178 v 3.84 3.84 h 5.41191 5.41191 z"
     style="stroke-width:0.31999999" />
</svg>
