<svg
   xmlns="http://www.w3.org/2000/svg"
   viewBox="0 0 160.32001 160.32001"
   height="160.32001"
   width="160.32001">
  <path
     d="M 0,80.160005 V 0 h 77.120005 c 61.462465,0 77.127695,0.08121133 77.157895,0.40000002 0.0208,0.22000002 0.0173,0.51870353 -0.008,0.66378558 -0.0252,0.145082 0.0954,0.1764934 0.26805,0.069803 0.17263,-0.1066903 0.57033,0.2066062 0.88378,0.6962146 0.31344,0.4896083 0.75177,1.0804827 0.97405,1.3130541 0.22229,0.2325714 0.41517,0.5205714 0.42864,0.6400002 0.0887,0.7868401 0.2805,1.4253764 0.48249,1.6064648 0.12924,0.1158729 0.14457,-0.041322 0.034,-0.349322 -0.11052,-0.308 -0.0665,-0.56 0.0978,-0.56 0.37524,0 1.12034,1.315969 1.02225,1.8054606 -0.0403,0.2010032 0.18151,0.3450032 0.49287,0.32 0.42229,-0.033912 0.56609,0.1912982 0.56609,0.8865338 0,0.5125972 0.18,0.9925972 0.4,1.066667 0.22,0.07407 0.3978,0.3746723 0.3951,0.6680054 -0.004,0.461281 -0.0468,0.4684861 -0.31509,0.053333 -0.18639,-0.2884135 -0.31216,-0.3278826 -0.3151,-0.098885 -0.003,0.2096132 0.1391,0.4701114 0.3151,0.5788855 0.20763,0.1283194 0.32,6.9933374 0.32,19.5489294 0,17.872891 -0.0413,19.367012 -0.54081,19.558686 -0.30194,0.115865 -0.5964,0.04076 -0.66667,-0.170042 -0.0692,-0.207664 -0.32985,-0.377571 -0.57919,-0.377571 -0.30485,0 -0.45333,0.367226 -0.45333,1.121219 0,1.0609 0.0541,1.116848 1.00518,1.04 0.61875,-0.05 1.064,0.08585 1.15819,0.35336 0.11974,0.340068 -0.15107,0.394714 -1.24518,0.251268 -0.94459,-0.123847 -1.13866,-0.09836 -0.59819,0.07856 l 0.8,0.261872 -0.8,0.162701 c -0.44,0.08948 -0.188,0.101751 0.56,0.02726 1.11305,-0.110851 1.36,-0.03803 1.36,0.401034 0,0.459094 -0.24233,0.507798 -1.68,0.337654 -2.01364,-0.238307 -9.45348,-0.771593 -13.68,-0.980576 -3.04312,-0.15047 -19.87889,-1.551213 -25.6,-2.129933 -1.672,-0.169129 -3.76,-0.366886 -4.64,-0.439456 -0.88,-0.07257 -2.464,-0.209411 -3.52,-0.304086 -1.056,-0.09468 -3.72,-0.333152 -5.92,-0.529952 -2.27122,-0.203168 -4.10161,-0.516237 -4.2351,-0.724365 -0.16351,-0.254931 -0.2366,-0.231331 -0.24,0.07751 -0.004,0.354496 -0.37601,0.396275 -1.844904,0.207146 -1.012,-0.130301 -2.704,-0.287143 -3.76,-0.348538 -1.056,-0.06139 -4.296,-0.340825 -7.200001,-0.620966 -2.904,-0.280138 -5.784,-0.553575 -6.4,-0.607639 -0.616,-0.05406 -3.784,-0.333312 -7.04,-0.620553 -3.256001,-0.287239 -7.779025,-0.674519 -10.051169,-0.860621 -2.272141,-0.186099 -4.258397,-0.416992 -4.413895,-0.513098 -0.1555,-0.09611 -1.248477,-0.224953 -2.428832,-0.286336 -1.180358,-0.06138 -2.938106,-0.193952 -3.906106,-0.294605 -2.302557,-0.239424 -4.822611,-0.471219 -7.2,-0.662256 -1.056,-0.08486 -3.36,-0.297225 -5.12,-0.471926 -1.760001,-0.174704 -4.208001,-0.398227 -5.440001,-0.49672 -3.34343,-0.267293 -13.354292,-1.191853 -17.120001,-1.58113 -0.792,-0.08187 -2.664,-0.245802 -4.16,-0.364291 -1.496,-0.118487 -3.152,-0.253037 -3.68,-0.299002 -0.528,-0.04597 -2.6160005,-0.185421 -4.6400006,-0.309904 -2.0240001,-0.124486 -3.8240002,-0.245974 -4.0000003,-0.269977 -0.176,-0.024 -0.3344,0.412342 -0.352,0.969657 -0.036241,1.147581 -0.1020674,1.100484 11.0720009,7.92186 3.256,1.987674 11.467062,7.001274 18.246805,11.141335 6.779744,4.140061 13.547744,8.208871 15.04,9.041799 5.600135,3.125805 9.186308,5.092333 25.273198,13.858903 1.144001,0.623424 3.952001,2.208992 6.240001,3.523479 10.266449,5.898221 15.425012,8.004932 20.160001,8.233162 2.818714,0.135862 5.000624,-0.403107 8.745034,-2.160176 1.11378,-0.522637 2.095,-0.880295 2.1805,-0.794794 0.14304,0.143043 -2.07992,1.27273 -5.64553,2.868996 -2.22192,0.994716 -7.040148,0.958841 -10.400004,-0.07744 -1.408,-0.434269 -2.632,-0.866269 -2.72,-0.96 -0.088,-0.09373 -0.442752,-0.219796 -0.78834,-0.280141 -0.345587,-0.06035 -0.917625,-0.312346 -1.271203,-0.56 -0.353574,-0.247664 -0.886819,-0.450288 -1.184992,-0.450288 -0.298173,0 -0.590131,-0.108 -0.6488,-0.24 -0.212749,-0.478688 -2.395127,-1.284237 -3.23073,-1.192509 -0.517309,0.05679 -0.828621,-0.0528 -0.786185,-0.276739 0.04166,-0.219892 -0.255277,-0.332372 -0.729751,-0.276432 -0.581011,0.0685 -0.678931,0.01238 -0.357718,-0.205018 0.352169,-0.238349 0.303852,-0.34327 -0.237136,-0.514973 -0.37368,-0.118601 -0.860708,-0.111257 -1.082282,0.01632 -0.221574,0.127578 -0.293114,0.11112 -0.158973,-0.03657 0.279053,-0.307242 -2.641059,-2.113604 -3.029098,-1.87378 -0.140137,0.08661 -0.254793,0.01642 -0.254793,-0.15599 0,-0.172403 -0.422051,-0.406157 -0.937888,-0.519453 -0.51584,-0.113299 -1.12192,-0.427741 -1.346848,-0.698762 -0.352333,-0.424534 -1.707575,-1.110605 -2.195265,-1.111321 -0.088,-1.32e-4 -0.275155,-0.206007 -0.4159,-0.457504 -0.140746,-0.251498 -0.529591,-0.457271 -0.8641,-0.457271 -0.334508,0 -0.723353,-0.182025 -0.864099,-0.404505 -0.227798,-0.36008 -3.62207,-2.155495 -4.075018,-2.155495 -0.09867,0 -0.880934,-0.504 -1.738361,-1.12 -0.857424,-0.616 -1.757761,-1.131319 -2.00074,-1.145152 -0.242979,-0.01382 -1.089782,-0.445402 -1.881782,-0.95904 -0.792,-0.513635 -1.883463,-1.141997 -2.425476,-1.396359 -0.542009,-0.254361 -1.171641,-0.686793 -1.39918,-0.96096 -0.22754,-0.274169 -0.53441,-0.498489 -0.681933,-0.498489 -0.227658,0 -6.072161,-3.136193 -8.613412,-4.622007 -0.44,-0.257258 -1.457047,-0.823315 -2.260099,-1.257904 -0.803056,-0.434592 -1.648689,-1.017399 -1.879185,-1.295127 -0.230496,-0.277731 -0.618537,-0.504963 -0.862313,-0.504963 -0.243779,0 -2.134148,-1.054246 -4.20082,-2.342768 -2.066672,-1.288525 -4.400858,-2.692525 -5.187078,-3.12 -0.786223,-0.427479 -2.317015,-1.353232 -3.40176,-2.057232 -2.011444,-1.305428 -2.481793,-1.597242 -6.189408,-3.840001 -1.163817,-0.704 -3.336275,-2.086316 -4.827685,-3.071811 -1.491409,-0.985498 -3.071654,-1.979053 -3.511654,-2.207907 -0.44,-0.228851 -0.872,-0.502535 -0.96,-0.608186 -0.088,-0.105654 -0.808,-0.541357 -1.6,-0.96823 -0.792,-0.426874 -1.512109,-0.858874 -1.600242,-0.96 -0.164379,-0.188612 -1.8390727,-1.13096 -3.1172619,-1.754081 -0.3946269,-0.192384 -0.7186269,-0.457785 -0.72,-0.589785 -0.00138,-0.132 -0.1732157,-0.24 -0.3818724,-0.24 -0.2086566,0 -0.6766567,-0.273959 -1.04,-0.608797 -0.3632634,-0.33484 -1.2223873,-0.920648 -1.909084,-1.301801 l -1.2485396,-0.692998 0.2085673,3.301799 c 0.114712,1.815987 0.4945563,8.053795 0.8440984,13.861796 0.3495421,5.808 1.2103277,19.704001 1.912857,30.880002 0.702529,11.176004 1.5655416,25.288004 1.917805,31.360004 1.0010378,17.25497 0.8989047,16.32 1.7827281,16.32 0.4133382,0 1.2167051,-0.42488 1.7852601,-0.94417 1.63382,-1.49227 3.702526,-2.48707 4.179669,-2.00993 0.31117,0.31117 0.31154,0.47665 0.0018,0.78643 -0.309781,0.30979 -0.239081,0.51029 0.336,0.95289 l 0.728336,0.56055 -1.333334,0.007 c -0.733333,0.004 -1.406533,-0.14048 -1.496,-0.32088 -0.08947,-0.1804 -0.123479,-0.1444 -0.07558,0.08 0.135258,0.6337 9.199096,0.40332 40.664919,-1.03359 18.863268,-0.8614 30.629186,-1.10708 53.280003,-1.11249 27.38674,-0.007 48.32301,0.20422 51.52,0.51865 1.144,0.11251 -2.384,0.18451 -7.84,0.16 -7.36957,-0.0331 -9.90192,0.0508 -9.84968,0.32639 0.0387,0.20402 0.15222,0.83586 0.25233,1.40407 0.1001,0.56821 0.32553,1.30128 0.50094,1.62904 0.24044,0.44927 0.20873,0.59593 -0.12884,0.59593 -0.28869,0 -0.5185,-0.51614 -0.6469,-1.4529 -0.32538,-2.37387 -0.6323,-2.7071 -2.49335,-2.7071 -1.35324,0 -1.59047,0.0847 -1.42737,0.50973 0.10758,0.28035 0.25885,0.82035 0.33616,1.2 0.44705,2.19529 1.87405,8.44412 2.02108,8.85027 0.22437,0.61978 0.28733,0.9566 0.34689,1.85597 0.0456,0.68911 0.16588,0.72986 1.88874,0.64 1.75844,-0.0917 1.83507,-0.13143 1.72878,-0.89597 -0.0612,-0.44 -0.23993,-0.95725 -0.39723,-1.14944 -0.1573,-0.1922 -0.22464,-0.41081 -0.14964,-0.48581 0.075,-0.075 -0.1239,-1.10574 -0.44199,-2.29055 -0.31809,-1.1848 -0.4696,-2.15419 -0.33668,-2.15419 0.13293,0 0.55651,1.332 0.9413,2.96 0.38479,1.628 0.76887,3.20407 0.85351,3.50238 0.10525,0.37096 0.57869,0.58085 1.49792,0.66409 l 1.34403,0.12172 -1.39424,0.0559 c -1.12758,0.0452 -1.35709,0.15272 -1.2,0.56208 0.10683,0.2784 0.19424,0.7104 0.19424,0.96 0,0.33676 0.454,0.45383 1.76,0.45383 1.74222,0 1.76,-0.01 1.76,-0.96 0,-0.528 -0.12209,-0.96 -0.2713,-0.96 -0.14922,0 -0.28353,-0.43008 -0.29848,-0.95573 -0.0149,-0.52565 -0.13511,-1.13038 -0.26704,-1.34384 -0.13192,-0.21346 -0.27162,-0.68338 -0.31044,-1.04427 -0.0388,-0.36089 -0.3852,-1.89378 -0.76974,-3.40642 -0.6204,-2.44038 -0.77714,-2.74279 -1.39109,-2.68405 -0.40849,0.0391 -0.46252,0.01 -0.13191,-0.072 0.308,-0.076 0.5717,-0.38019 0.58599,-0.67595 0.037,-0.76589 0.90171,1.2109 0.91958,2.10226 0.008,0.396 0.12243,0.72 0.25443,0.72 0.132,0 0.25703,0.324 0.27785,0.72 0.0208,0.396 0.39689,2.088 0.83571,3.76 0.43882,1.672 0.99149,3.94 1.22815,5.04 0.42597,1.97982 0.44175,2.00051 1.5643,2.05121 l 1.13399,0.0512 -1.04,0.12907 c -1.10898,0.13762 -1.13572,0.17872 -0.83831,1.28851 0.16177,0.60366 0.43252,0.72903 1.67563,0.77591 l 1.48268,0.0559 -1.36,0.1225 c -1.40888,0.12689 -1.6656,0.5166 -1.07163,1.62673 0.22594,0.42228 0.64127,0.51498 1.91838,0.42819 1.58464,-0.1077 1.62422,-0.13441 1.42235,-0.96 -0.1142,-0.46708 -0.36547,-0.96819 -0.55837,-1.11359 -0.22849,-0.17223 -0.19041,-0.22102 0.10927,-0.14 0.253,0.0684 0.6523,0.76336 0.88734,1.54436 0.23503,0.781 0.55782,1.8221 0.71732,2.31356 l 0.28998,0.89356 -2.27836,-0.0936 -2.27836,-0.0936 -0.43071,-1.76 c -0.23689,-0.968 -0.5195,-1.976 -0.62803,-2.24 -0.24215,-0.58904 -0.30785,-0.91537 -0.37044,-1.84 -0.0391,-0.57795 -0.25392,-0.72946 -1.08874,-0.76795 -0.96798,-0.0446 -0.97906,-0.0572 -0.16,-0.18125 0.87431,-0.13245 1.05782,-0.53507 0.68576,-1.50463 -0.14389,-0.37498 -0.64152,-0.50617 -1.92,-0.50617 -0.94917,0 -1.72576,0.0604 -1.72576,0.13415 0,0.70358 1.11751,4.23984 1.39708,4.42095 0.26267,0.17016 0.2552,0.23645 -0.027,0.24 -0.36367,0.005 -0.34155,0.25211 0.14344,1.6049 0.0947,0.264 0.21574,0.984 0.2691,1.6 l 0.097,1.12 -0.30896,-1.04 c -0.16992,-0.572 -0.45734,-1.04 -0.63869,-1.04 -0.18135,0 -0.23568,-0.15219 -0.12072,-0.33819 0.11495,-0.186 0.12071,-0.69 0.0128,-1.12 -0.1786,-0.71156 -0.35576,-0.78181 -1.9717,-0.78181 -1.5395,0 -1.75387,0.0744 -1.61295,0.56 0.55601,1.91588 0.86332,3.36395 0.74007,3.4872 -0.0784,0.0784 -0.23464,-0.2241 -0.34713,-0.6723 -0.18393,-0.73287 -0.37303,-0.8207 -1.87843,-0.87258 l -1.6739,-0.0577 1.52,-0.11985 c 1.70255,-0.13425 1.72663,-0.19294 1.01919,-2.48479 -0.27163,-0.88 -0.54477,-1.96 -0.60698,-2.4 -0.0958,-0.6776 -0.50092,-2.55023 -1.29804,-6 -0.14761,-0.63886 -0.36403,-0.72 -1.92027,-0.72 -1.88894,0 -2.03573,0.17706 -1.44182,1.73917 0.17164,0.45146 0.19637,0.82083 0.055,0.82083 -0.3024,0 -1.0951,-3.21861 -0.85247,-3.46124 0.091,-0.091 0.16543,0.003 0.16543,0.2079 0,0.2392 0.63238,0.37334 1.76,0.37334 2.00535,0 2.03166,-0.0543 1.38504,-2.85559 -0.25473,-1.10355 -0.5369,-1.62598 -0.88,-1.62931 -0.3855,-0.004 -0.40729,-0.0669 -0.0921,-0.26691 0.33031,-0.20955 0.33758,-0.57689 0.0363,-1.83509 -0.20715,-0.86521 -0.45186,-1.7891 -0.54378,-2.0531 -0.0919,-0.264 -0.14232,-0.59384 -0.112,-0.73296 0.0303,-0.13913 -0.0959,-0.53513 -0.28046,-0.88 -0.26291,-0.49126 -0.67385,-0.62704 -1.89765,-0.62704 -0.95025,0 -1.6253,0.15667 -1.72348,0.4 -0.12913,0.32 -0.16646,0.32 -0.18667,0 -0.017,-0.26846 -0.60407,-0.4 -1.78526,-0.4 -1.96214,0 -2.00159,0.0661 -1.43278,2.4 0.17157,0.704 0.39837,1.784 0.50401,2.4 0.10563,0.616 0.27654,1.25749 0.3798,1.42553 0.10325,0.16804 0.23549,0.74404 0.29386,1.28 0.0584,0.53596 0.24854,1.02277 0.42261,1.0818 0.17407,0.059 0.22561,0.25438 0.11453,0.43411 -0.11108,0.17972 -0.0471,0.85142 0.14219,1.49266 0.18928,0.64125 0.42383,1.55324 0.52123,2.02666 0.14773,0.71807 0.3758,0.88155 1.37582,0.98621 l 1.19873,0.12544 -1.14458,0.0538 c -1.08641,0.0511 -1.13726,0.10362 -1.00065,1.03442 l 0.14392,0.98062 1.96066,-0.0711 c 1.07835,-0.0391 1.99563,0.0487 2.03838,0.195 0.0427,0.14635 -0.80492,0.23006 -1.88371,0.18603 -1.9122,-0.078 -1.95643,-0.0614 -1.7621,0.66437 0.10964,0.40943 0.20131,0.92442 0.20371,1.14442 0.003,0.26123 0.58722,0.42001 1.68437,0.45768 l 1.68,0.0577 -1.52,0.11985 c -1.17097,0.0923 -1.51888,0.24442 -1.5151,0.66232 0.009,0.98512 0.46897,1.29995 2.08128,1.42424 l 1.59382,0.12287 -1.6861,0.0577 c -1.66626,0.057 -1.68369,0.068 -1.48162,0.93768 0.11246,0.484 0.43073,1.06 0.70726,1.28 0.36006,0.28645 0.38398,0.4 0.0843,0.4 -0.26104,0 -0.35547,0.24096 -0.25101,0.64044 0.0921,0.35224 0.0369,0.55975 -0.12267,0.46112 -0.15959,-0.0986 -0.29016,-0.38683 -0.29016,-0.64045 0,-0.34943 -0.45774,-0.46111 -1.89004,-0.46111 -1.77819,0 -1.87937,0.0408 -1.7096,0.69004 0.12364,0.47278 0.0638,0.61796 -0.18996,0.46111 -0.20372,-0.12591 -0.37014,-0.40042 -0.36982,-0.61004 3.2e-4,-0.26505 -0.59125,-0.34774 -1.94289,-0.27153 -1.51082,0.0852 -1.90499,0.20984 -1.77062,0.56 0.13895,0.36209 -0.28912,0.45042 -2.18288,0.45042 -2.53217,0 -2.71742,-0.12481 -2.76995,-1.86617 -0.0142,-0.46961 -0.19416,-1.49628 -0.4,-2.2815 -0.28634,-1.09234 -0.56215,-1.47944 -1.17424,-1.6481 -0.75881,-0.20908 -0.76292,-0.22208 -0.08,-0.25233 0.81487,-0.0361 0.84662,-0.33922 0.2883,-2.7519 l -0.37026,-1.6 -1.83902,-0.096 c -1.93374,-0.10091 -2.03168,-0.0151 -1.64187,1.43861 0.14116,0.52642 0.48114,0.73363 1.35563,0.8262 l 1.16722,0.12357 -1.2,0.0538 c -0.66,0.0296 -1.2,0.18842 -1.2,0.35296 0,0.8625 0.69067,1.90808 1.34276,2.03274 l 0.73724,0.14093 -0.72,0.0436 c -0.82347,0.0498 -0.82445,0.0537 -0.41455,1.60645 0.168,0.63642 0.38486,1.54564 0.48191,2.02047 0.16054,0.78544 0.3279,0.87395 1.85455,0.98081 l 1.67809,0.11746 -1.69889,0.0592 c -1.03806,0.0362 -1.62196,0.18366 -1.50111,0.37919 0.10877,0.176 0.0453,0.32 -0.14112,0.32 -0.18638,0 -0.33888,-0.144 -0.33888,-0.32 0,-0.17778 -0.85334,-0.32 -1.92,-0.32 -1.06667,0 -1.92,0.14222 -1.92,0.32 0,0.21213 -19.093336,0.32 -56.640003,0.32 H 0 Z m 125.20055,78.692805 c 0.10296,-0.10297 0.0385,-0.6137 -0.14319,-1.13497 -0.31577,-0.90582 -0.40667,-0.94468 -2.05387,-0.87804 -1.40038,0.0567 -1.72348,0.17454 -1.72348,0.6288 0,1.30798 0.34549,1.57141 2.0609,1.57141 0.91984,0 1.75667,-0.0842 1.85964,-0.1872 z m 3.13932,-0.008 c 1.04393,-0.17272 1.12841,-0.26669 1.00368,-1.11648 -0.0749,-0.51035 -0.27234,-0.9279 -0.43875,-0.9279 -0.16641,0 -0.21562,-0.14068 -0.10936,-0.31262 0.10627,-0.17194 0.0572,-0.85594 -0.10902,-1.52 -0.16623,-0.66406 -0.39142,-1.60338 -0.50042,-2.08738 -0.18855,-0.83723 -0.28925,-0.88 -2.07167,-0.88 h -1.87349 l 0.21252,1.0391 c 0.16763,0.81965 0.41253,1.08197 1.15958,1.24214 l 0.94707,0.20304 -0.88,0.0379 c -0.99527,0.0428 -0.98981,0.0276 -0.57455,1.60073 0.168,0.63642 0.38674,1.55313 0.4861,2.03713 0.19392,0.94471 0.58547,1.04221 2.74831,0.68437 z m -2.01986,-2.27021 c 0.396,-0.0763 1.044,-0.0763 1.44,0 0.396,0.0763 0.072,0.13867 -0.72,0.13867 -0.792,0 -1.116,-0.0624 -0.72,-0.13867 z m -11.38525,0.35064 c 1.35417,-0.18561 1.41741,-0.24059 1.28834,-1.12 -0.13204,-0.89964 -0.18701,-0.92481 -2.01941,-0.92481 -1.96451,0 -2.065,0.0908 -1.68199,1.52 0.21094,0.78714 0.32236,0.81137 2.41306,0.52481 z m 17.40983,-0.76129 c 0.55587,-0.003 0.64153,-0.16055 0.52368,-0.96352 -0.12515,-0.85269 -0.27097,-0.96573 -1.30458,-1.01121 l -1.16368,-0.0512 1.07542,-0.13171 c 1.01997,-0.12491 1.06496,-0.18414 0.87275,-1.14879 -0.11146,-0.55939 -0.3443,-1.06538 -0.51741,-1.12441 -0.17311,-0.059 -0.23745,-0.23241 -0.14297,-0.38528 0.0945,-0.15288 0.0798,-0.64458 -0.0327,-1.09267 -0.17946,-0.71504 -0.38622,-0.82156 -1.68979,-0.87063 l -1.48531,-0.0559 1.39338,-0.12413 c 1.51356,-0.13483 1.48955,-0.063 0.8835,-2.64406 -0.10331,-0.44 -0.34551,-1.56284 -0.53821,-2.4952 l -0.35036,-1.6952 -1.81416,0.0952 c -1.89623,0.0995 -2.05447,0.3047 -1.43062,1.8552 0.34183,0.84956 0.36679,1.28 0.0742,1.28 -0.15707,0 -0.3513,-0.324 -0.43161,-0.72 -0.52934,-2.61015 -0.43058,-2.47638 -1.87227,-2.53591 l -1.3539,-0.0559 1.38667,-0.1238 c 0.91986,-0.0821 1.33649,-0.25459 1.23759,-0.51231 -0.082,-0.21368 -0.32163,-1.21965 -0.53251,-2.23549 l -0.38344,-1.84699 -1.81416,0.0952 c -1.73105,0.0908 -1.80906,0.13184 -1.70293,0.8952 0.0612,0.44 0.23993,0.95725 0.39723,1.14944 0.15729,0.19219 0.21412,0.42131 0.12628,0.50916 -0.0878,0.0878 0.21618,1.58659 0.6756,3.33055 0.45942,1.74397 0.8286,3.43467 0.8204,3.75712 -0.008,0.32245 0.12025,0.94178 0.28545,1.37629 0.27463,0.72234 0.43792,0.77899 1.90591,0.66131 0.88304,-0.0708 1.60382,-0.22212 1.60172,-0.33629 -0.002,-0.11417 -0.004,-0.56758 -0.004,-1.00758 0,-0.53895 -0.18274,-0.80824 -0.56,-0.82526 -0.33454,-0.0151 -0.39896,-0.0902 -0.16,-0.18667 0.22,-0.0888 0.40438,-0.40141 0.40973,-0.69474 0.0155,-0.8526 0.50608,0.19217 0.76374,1.62667 0.11854,0.66 0.3818,1.2 0.58503,1.2 0.27309,0 0.27583,0.0937 0.0105,0.35899 -0.34553,0.34554 -0.33054,0.57935 0.11543,1.80101 0.11244,0.308 0.2338,0.776 0.26969,1.04 0.0359,0.264 0.25807,1.32259 0.49374,2.35243 l 0.4285,1.87243 1.14182,-0.18891 c 0.628,-0.1039 1.44088,-0.19049 1.8064,-0.19243 z m -2.80458,-2.14212 c 0.231,-0.0924 0.507,-0.0811 0.61333,0.0252 0.10634,0.10634 -0.0827,0.18197 -0.42,0.16807 -0.37278,-0.0154 -0.44861,-0.0912 -0.19333,-0.19333 z m 0.64,-2.56 c 0.231,-0.0924 0.507,-0.0811 0.61333,0.0252 0.10634,0.10634 -0.0827,0.18197 -0.42,0.16807 -0.37278,-0.0154 -0.44861,-0.0912 -0.19333,-0.19333 z m -5.94,-4.48199 c 0.308,-0.0805 0.812,-0.0805 1.12,0 0.308,0.0805 0.056,0.14635 -0.56,0.14635 -0.616,0 -0.868,-0.0659 -0.56,-0.14635 z m -0.48,-2.24524 c 0.396,-0.0763 1.044,-0.0763 1.44,0 0.396,0.0763 0.072,0.13867 -0.72,0.13867 -0.792,0 -1.116,-0.0624 -0.72,-0.13867 z m -1.26,-4.79277 c 0.231,-0.0924 0.507,-0.0811 0.61333,0.0252 0.10633,0.10633 -0.0827,0.18197 -0.42,0.16807 -0.37278,-0.0154 -0.44861,-0.0912 -0.19333,-0.19333 z m 1.26,0.007 c 0.22,-0.0888 0.58,-0.0888 0.8,0 0.22,0.0888 0.04,0.1614 -0.4,0.1614 -0.44,0 -0.62,-0.0726 -0.4,-0.1614 z m 21.11504,15.49194 c -0.0844,-0.22 -0.33872,-1.228 -0.56516,-2.24 l -0.41172,-1.84 h -1.70908 c -1.77931,0 -1.88592,0.1075 -1.50739,1.52 0.16168,0.60329 0.43329,0.72935 1.67563,0.77768 l 1.48268,0.0577 -1.50349,0.11918 c -1.13142,0.0897 -1.46798,0.23379 -1.36,0.58232 0.0789,0.25473 0.21097,0.67914 0.29345,0.94314 0.11002,0.35218 0.63041,0.48 1.95423,0.48 1.31192,0 1.76241,-0.10915 1.65085,-0.4 z m -20.71994,-1.92 c -0.008,-1.19136 -0.40635,-1.47582 -2.24209,-1.60155 l -1.75301,-0.12006 1.78458,-0.0592 1.78457,-0.0592 -0.14089,-0.96 c -0.13864,-0.94458 -0.1718,-0.96 -2.06458,-0.96 h -1.92368 l 0.22477,1.04 c 0.12362,0.572 0.30458,1.58 0.40213,2.24 l 0.17737,1.2 h 1.87786 c 1.73554,0 1.8775,-0.0546 1.87297,-0.72 z m -8.9551,-1.94663 c 0,-0.23465 -0.16388,-1.24265 -0.36418,-2.24 l -0.36417,-1.81337 h -1.87583 c -1.73342,0 -1.87545,0.0547 -1.87092,0.72 0.008,1.14829 0.39049,1.46753 1.92035,1.60204 l 1.43475,0.12615 -1.46458,0.0559 c -1.43576,0.0548 -1.46181,0.0748 -1.32368,1.01591 0.13825,0.94199 0.17624,0.96 2.02458,0.96 1.35632,0 1.88368,-0.11944 1.88368,-0.42663 z m 7.99563,-2.53337 c -0.0141,-1.28856 -0.42141,-1.84159 -1.39295,-1.89121 l -1.00268,-0.0512 1.03595,-0.12876 1.03595,-0.12877 -0.44872,-1.07392 c -0.24679,-0.59067 -0.38475,-1.13789 -0.30657,-1.21607 0.0782,-0.0782 -0.14452,-1.27792 -0.49487,-2.6661 -0.35035,-1.38818 -0.79678,-3.35196 -0.99206,-4.36396 -0.3411,-1.76766 -0.39506,-1.84139 -1.37237,-1.87542 -1.0141,-0.0353 -2.567,0.0513 -2.67328,0.14918 -0.0308,0.0283 0.1546,0.91433 0.41198,1.96888 0.25737,1.05455 0.52759,2.31239 0.60049,2.79521 0.0729,0.48282 0.34974,1.77882 0.6152,2.88 0.26546,1.10118 0.65116,2.90215 0.85711,4.00215 l 0.37445,2 h 1.87837 c 1.29169,0 1.877,-0.12494 1.874,-0.4 z m -3.59563,-2.05193 c 0.22,-0.0888 0.58,-0.0888 0.8,0 0.22,0.0888 0.04,0.1614 -0.4,0.1614 -0.44,0 -0.62,-0.0726 -0.4,-0.1614 z m -0.16,-2.24866 c 0.308,-0.0805 0.812,-0.0805 1.12,0 0.308,0.0805 0.056,0.14635 -0.56,0.14635 -0.616,0 -0.868,-0.0659 -0.56,-0.14635 z m -0.8,-4.80524 c 0.396,-0.0763 1.044,-0.0763 1.44,0 0.396,0.0763 0.072,0.13867 -0.72,0.13867 -0.792,0 -1.116,-0.0624 -0.72,-0.13867 z m -4.82826,4.58965 c 0.0284,-0.0241 -0.0243,-0.43982 -0.1173,-0.92382 -0.16159,-0.84113 -0.25221,-0.88 -2.05175,-0.88 -2.01198,0 -2.27063,0.27721 -1.53724,1.64756 0.30466,0.56926 0.54086,0.61919 2,0.42278 0.91,-0.12249 1.67783,-0.24242 1.70629,-0.26652 z m 4.14156,-0.44382 c -0.2747,-0.90582 -0.87645,-3.68707 -1.00552,-4.6475 -0.18559,-1.38093 -0.38427,-1.5125 -2.28397,-1.5125 -1.7774,0 -1.7783,6.4e-4 -1.56956,0.88 0.11487,0.484 0.27356,1.312 0.35264,1.84 0.0791,0.528 0.30424,1.644 0.50036,2.48 l 0.35658,1.52 h 1.90965 c 1.67007,0 1.88834,-0.0702 1.73982,-0.56 z m -5.23973,-4.10024 c 0.0991,-0.0991 0.0773,-0.56714 -0.0486,-1.04 -0.17559,-0.65975 -0.48428,-0.90579 -1.32692,-1.05764 l -1.09809,-0.19787 1.04,-0.0421 c 1.11549,-0.0452 1.20302,-0.21167 0.74487,-1.41671 -0.27308,-0.71824 -0.42252,-0.76455 -2,-0.61972 -0.93768,0.0861 -1.72816,0.17403 -1.75662,0.19542 -0.0284,0.0214 0.0243,0.43489 0.11731,0.91889 0.099,0.51542 0.3856,0.89047 0.69174,0.90526 0.33177,0.016 0.37659,0.0842 0.1227,0.18667 -0.42821,0.17278 -0.52247,1.01658 -0.20577,1.8419 0.14284,0.37222 0.63683,0.50617 1.86667,0.50617 0.91984,0 1.75354,-0.0811 1.85267,-0.18024 z m 16.39294,-1.17976 c -0.12339,-0.572 -0.35173,-1.0883 -0.50742,-1.14733 -0.15569,-0.059 -0.20089,-0.24032 -0.10043,-0.40287 0.10045,-0.16254 0.0916,-0.58224 -0.0196,-0.93267 -0.16922,-0.53318 -0.48586,-0.63713 -1.94065,-0.63713 -1.95633,0 -1.95103,-0.01 -1.36347,2.53559 l 0.37496,1.62441 h 1.89046 1.89047 z m 26.38682,-87.805972 c 0.31737,-0.27143 -1.45953,-0.07395 -1.89333,0.21042 -0.3377,0.221372 -0.14797,0.253724 0.64,0.109132 0.616,-0.113033 1.18,-0.256832 1.25333,-0.319552 z m -8.81459,-4.142137 c 0.16605,-1.767204 0.15822,-1.796989 -0.1187,-0.451898 -0.52515,2.550813 -0.66325,3.758765 -0.34434,3.011898 0.1569,-0.367456 0.36527,-1.519456 0.46304,-2.56 z m -31.15874,-0.771898 c -0.62668,-0.404992 -1.0503,-0.404992 -0.8,0 0.10877,0.176 0.44127,0.317795 0.73888,0.315101 0.46633,-0.0042 0.47478,-0.04777 0.0611,-0.315101 z m -16.741409,-1.34 c -0.10215,-0.255274 -0.177977,-0.17945 -0.193331,0.193334 -0.01389,0.337331 0.06174,0.526333 0.168071,0.42 0.106332,-0.106336 0.117699,-0.382336 0.02525,-0.613334 z m 59.527239,-1.3 c -0.0763,-0.396 -0.13867,-0.072 -0.13867,0.72 0,0.792 0.0624,1.116 0.13867,0.72 0.0763,-0.396 0.0763,-1.044 0,-1.44 z m -60.29105,1.006784 c -0.243398,-0.243399 -0.413626,-0.227543 -0.588109,0.05478 -0.158291,0.256122 -0.114265,0.31618 0.123882,0.168996 0.203193,-0.125581 0.369443,-0.05183 0.369443,0.163891 0,0.215721 0.0984,0.293817 0.218666,0.173552 0.120269,-0.120266 0.06452,-0.372813 -0.123882,-0.561216 z m 49.251,-0.589885 c 0.0761,-0.518704 0.0205,-0.870205 -0.12368,-0.781114 -0.25656,0.158563 -0.38225,1.724215 -0.13842,1.724215 0.068,0 0.18597,-0.424394 0.2621,-0.943101 z M 77.0186,43.140003 c -0.10215,-0.255274 -0.177978,-0.17945 -0.193331,0.193334 -0.01389,0.337331 0.06173,0.526333 0.16807,0.42 0.106333,-0.106336 0.117699,-0.382336 0.02525,-0.613334 z m 37.54141,-0.26 c -0.264,-0.170612 -0.624,-0.310199 -0.8,-0.310199 -0.176,0 -0.104,0.139587 0.16,0.310199 0.264,0.170611 0.624,0.310198 0.8,0.310198 0.176,0 0.104,-0.139587 -0.16,-0.310198 z m -55.040006,-0.64 c 0,-0.176 -0.152499,-0.32 -0.338887,-0.32 -0.186387,0 -0.249888,0.144 -0.141113,0.32 0.108774,0.176 0.261273,0.32 0.338886,0.32 0.07761,0 0.141114,-0.144 0.141114,-0.32 z m -5.600001,-0.64 c 0.108775,-0.176 0.04527,-0.32 -0.141113,-0.32 -0.186387,0 -0.338887,0.144 -0.338887,0.32 0,0.176 0.0635,0.32 0.141114,0.32 0.07761,0 0.230112,-0.144 0.338886,-0.32 z m 26.080002,0.03732 c 0,-0.155472 -0.288,-0.35799 -0.64,-0.450041 -0.352,-0.09205 -0.64,-0.0474 -0.64,0.09922 0,0.146617 0.252,0.332432 0.56,0.412918 0.308,0.08049 0.596,0.16305 0.64,0.183466 0.044,0.02042 0.08,-0.09009 0.08,-0.245559 z M 48.756429,41.121839 c -0.100919,-0.262988 -0.327773,-0.388988 -0.504122,-0.28 -0.197152,0.12185 -0.15343,0.304109 0.113533,0.473264 0.582659,0.369191 0.60263,0.359309 0.390589,-0.193264 z m 1.003574,0.158164 c 0.108775,-0.176 0.04527,-0.32 -0.141114,-0.32 -0.186387,0 -0.338886,0.144 -0.338886,0.32 0,0.176 0.0635,0.32 0.141114,0.32 0.07761,0 0.230112,-0.144 0.338886,-0.32 z m 3.36,0.05137 c 0,-0.14775 -0.36,-0.432662 -0.8,-0.633142 -0.664509,-0.302772 -0.8,-0.281172 -0.8,0.127523 0,0.270611 0.134051,0.409177 0.297888,0.30792 0.16384,-0.101261 0.388339,-0.03776 0.498887,0.141113 0.24264,0.392599 0.803225,0.43209 0.803225,0.05659 z m 11.200001,-0.05137 c 0,-0.176 -0.324,-0.309879 -0.72,-0.297508 -0.687008,0.02147 -0.690675,0.03509 -0.08,0.297508 0.352,0.15126 0.676,0.285139 0.72,0.297507 0.044,0.01237 0.08,-0.121507 0.08,-0.297507 z m 3.642099,-0.176621 c 0.109277,-0.284775 0.05563,-0.413223 -0.125763,-0.301114 -0.173984,0.107527 -0.316336,0.331008 -0.316336,0.496621 0,0.460298 0.229367,0.358867 0.442099,-0.195507 z M 47.079712,40.234668 c -0.316039,-0.313683 -0.352794,-0.276928 -0.179136,0.179136 0.120169,0.315591 0.299101,0.493191 0.397625,0.394666 0.09853,-0.09853 2.05e-4,-0.356733 -0.218489,-0.573802 z m 3.343149,-0.09752 c -0.293335,-0.293335 -0.63425,-0.432416 -0.757594,-0.309075 -0.123341,0.123344 0.053,0.426998 0.391879,0.67479 0.798064,0.583555 1.056524,0.325095 0.365715,-0.365715 z m 8.934877,0.506522 c 0.112109,-0.181396 -0.01635,-0.23504 -0.301114,-0.125764 -0.554374,0.212733 -0.655804,0.4421 -0.195507,0.4421 0.165613,0 0.389095,-0.142352 0.496621,-0.316336 z m 3.164365,-0.180285 c 0.109277,-0.284775 0.05563,-0.413223 -0.125763,-0.301114 -0.173984,0.107527 -0.316336,0.331008 -0.316336,0.496621 0,0.460298 0.229366,0.358867 0.442099,-0.195507 z m -8.1221,-0.124493 c 0,-0.165613 -0.12,-0.37528 -0.266665,-0.465923 -0.146669,-0.09065 -0.266669,0.04485 -0.266669,0.301113 0,0.256256 0.12,0.465924 0.266669,0.465924 0.146665,0 0.266665,-0.135501 0.266665,-0.301114 z m 25.771029,-0.415898 c -0.296467,-0.16591 -0.624227,-0.216454 -0.728361,-0.11232 -0.104132,0.104131 -0.01283,0.189331 0.202886,0.189331 0.215722,0 0.30424,0.142353 0.196714,0.316337 -0.11488,0.185875 0.02374,0.232198 0.33614,0.11232 0.493623,-0.189418 0.493095,-0.225588 -0.0074,-0.505668 z m 67.914318,-2.002989 c 9.6e-4,-0.807148 -0.0411,-0.756201 -0.2637,0.32 -0.33529,1.62098 -0.32026,2.930749 0.0184,1.6 0.13435,-0.528 0.24475,-1.392 0.24534,-1.92 z m -102.843248,1.90338 c 0.109277,-0.284775 0.05563,-0.413223 -0.125763,-0.301114 -0.173984,0.107526 -0.316336,0.331008 -0.316336,0.496621 0,0.460298 0.229366,0.358867 0.442099,-0.195507 z m 12.155521,0.245193 c 0.08546,-0.138288 -0.111463,-0.25143 -0.437619,-0.25143 -0.326157,0 -0.523085,0.113142 -0.43762,0.25143 0.08546,0.138285 0.282394,0.251428 0.43762,0.251428 0.155225,0 0.352156,-0.113143 0.437619,-0.251428 z m 4.042381,-0.06857 c 0,-0.176 -0.0635,-0.32 -0.141114,-0.32 -0.07761,0 -0.230112,0.144 -0.338886,0.32 -0.108775,0.176001 -0.04527,0.320001 0.141113,0.320001 0.186388,0 0.338887,-0.144 0.338887,-0.320001 z m 2.72,-0.32 c 0.108774,-0.176 0.05377,-0.32 -0.12223,-0.32 -0.176,0 -0.408996,0.144 -0.51777,0.32 -0.108774,0.176 -0.05377,0.32 0.12223,0.32 0.176,0 0.408996,-0.144 0.51777,-0.32 z M 44.317737,39.363666 c 0.112109,-0.181395 -0.01635,-0.23504 -0.301113,-0.125763 -0.554375,0.212733 -0.655805,0.442099 -0.195508,0.442099 0.165613,0 0.389095,-0.142352 0.496621,-0.316336 z M 43.68847,38.781804 c -0.09853,-0.09853 -0.356733,-2.05e-4 -0.573802,0.21849 -0.313683,0.316038 -0.276928,0.352793 0.179136,0.179136 0.315591,-0.12017 0.493191,-0.299101 0.394666,-0.397626 z m 7.121719,0.208758 c -0.159197,-0.477593 -1.530186,-0.997472 -1.530186,-0.580249 0,0.170329 0.296499,0.309689 0.658887,0.309689 0.362387,0 0.569888,0.144 0.461113,0.32 -0.108774,0.176 -0.03327,0.32 0.167783,0.32 0.201052,0 0.310134,-0.166246 0.242403,-0.36944 z m -11.130187,-0.07632 c 0,-0.06917 -0.223478,-0.21152 -0.49662,-0.316336 -0.284775,-0.109277 -0.413223,-0.05563 -0.301114,0.125763 0.187923,0.304068 0.797734,0.449744 0.797734,0.190573 z m -2.24,-0.65535 c 0,-0.07761 -0.144,-0.230112 -0.32,-0.338887 -0.176,-0.108774 -0.32,-0.04527 -0.32,0.141114 0,0.186387 0.144,0.338886 0.32,0.338886 0.176,0 0.32,-0.0635 0.32,-0.141113 z m 33.600002,-0.178887 c -0.264,-0.170611 -0.624,-0.310198 -0.8,-0.310198 -0.176,0 -0.104,0.139587 0.16,0.310198 0.264,0.170612 0.624,0.310199 0.8,0.310199 0.176,0 0.104,-0.139587 -0.16,-0.310199 z m -43.261803,-0.80847 c -0.09852,-0.09853 -0.277456,0.07908 -0.397626,0.394666 -0.173659,0.456064 -0.136902,0.492819 0.179135,0.179136 0.218694,-0.217069 0.317015,-0.475277 0.218491,-0.573802 z m 23.634541,0.408467 c -3.2e-4,-0.226515 -0.428265,-0.413638 -0.986665,-0.431446 l -0.986074,-0.03146 0.96,0.417011 c 0.528,0.22936 0.972,0.423511 0.986666,0.43145 0.01466,0.0079 0.0264,-0.165568 0.02608,-0.385568 z M 39.821558,37.469846 c 0.09863,-0.159588 -0.108871,-0.214791 -0.461114,-0.122679 -0.747197,0.195395 -0.841648,0.412835 -0.179328,0.412835 0.253613,0 0.541811,-0.130569 0.640442,-0.290156 z m 25.772027,-0.197578 c -0.222631,-0.268253 -0.48809,-0.404423 -0.589914,-0.302598 -0.101824,0.10182 0.02669,0.319097 0.2856,0.482832 0.677431,0.428419 0.765946,0.375996 0.304314,-0.180234 z M 53.760003,37.120002 c 0,-0.176 -0.152499,-0.32 -0.338886,-0.32 -0.186387,0 -0.249888,0.144 -0.141114,0.32 0.108775,0.176 0.261274,0.32 0.338887,0.32 0.07761,0 0.141113,-0.144 0.141113,-0.32 z m 18.27971,-0.405334 c -0.316038,-0.313683 -0.352793,-0.276928 -0.179136,0.179136 0.12017,0.31559 0.299101,0.49319 0.397626,0.394666 0.09853,-0.09852 2.05e-4,-0.356733 -0.21849,-0.573802 z m -30.43971,0.08533 c 0,-0.176 -0.0635,-0.32 -0.141114,-0.32 -0.07761,0 -0.230112,0.144 -0.338886,0.32 -0.108775,0.176 -0.04527,0.32 0.141113,0.32 0.186387,0 0.338887,-0.144 0.338887,-0.32 z m 2.56,-0.498886 c 0,-0.274387 -0.146349,-0.408435 -0.325219,-0.297888 -0.178871,0.110547 -0.242375,0.335046 -0.141114,0.498886 0.274314,0.443853 0.466333,0.361091 0.466333,-0.200998 z m -1.6,-1.009587 c 0,-0.088 -0.216,-0.07711 -0.48,0.02419 -0.264,0.101305 -0.48,0.03621 -0.48,-0.14465 0,-0.180864 -0.114877,-0.257846 -0.25528,-0.171072 -0.140404,0.08677 -0.464404,0.02547 -0.72,-0.136214 -0.329287,-0.208311 -0.09169,-0.299828 0.81528,-0.314036 2.455574,-0.03846 4.485008,-0.298547 5.174237,-0.66311 0.517619,-0.273789 0.957168,-0.275552 1.72775,-0.0069 1.401514,0.48857 1.970663,0.430854 0.778013,-0.0789 -0.947395,-0.404925 -0.950851,-0.415226 -0.263181,-0.784419 0.383248,-0.205757 0.959248,-0.289037 1.28,-0.185066 0.384439,0.124614 0.450759,0.09293 0.194608,-0.09297 -0.284364,-0.206377 -0.139139,-0.517437 0.541504,-1.159854 0.511543,-0.482814 1.024282,-1.174658 1.139424,-1.537431 0.140122,-0.441491 0.402845,-0.608984 0.794554,-0.50655 0.410947,0.107465 0.532743,0.01631 0.409015,-0.30612 -0.09691,-0.252535 0.09387,-0.678915 0.423939,-0.947511 0.330077,-0.268596 0.401456,-0.385634 0.158624,-0.260083 -0.294295,0.152155 -0.389927,0.08004 -0.286803,-0.21627 0.08509,-0.244499 0.380915,-0.404724 0.657385,-0.356056 0.276467,0.04867 0.593008,-0.05768 0.703421,-0.236335 0.122102,-0.197564 -0.01437,-0.242268 -0.348365,-0.114106 -0.352643,0.135323 -0.472371,0.08654 -0.334624,-0.136334 0.117968,-0.190877 0.07377,-0.395348 -0.09822,-0.454381 -0.19554,-0.06712 -0.152877,-0.793312 0.113859,-1.938144 0.234611,-1.006947 0.363625,-1.893752 0.286701,-1.970678 -0.07693,-0.07693 -0.173856,-0.33306 -0.215402,-0.569187 C 52.813194,13.712784 39.992361,5.3841674 28.675788,5.3987322 c -4.952658,0.00637 -8.141061,1.2597028 -10.96549,4.310423 -3.844205,4.1522008 -4.74155,9.1995148 -2.452039,13.7920328 0.732769,1.469858 3.139495,4.338814 3.639769,4.338814 0.112625,0 0.468075,-0.583899 0.789889,-1.297554 l 0.585115,-1.297553 -1.096516,-2.142447 c -0.98255,-1.919774 -1.091793,-2.391888 -1.051086,-4.542447 0.03499,-1.848556 0.236896,-2.810364 0.878732,-4.185991 1.074232,-2.302365 3.412918,-4.6662721 5.61746,-5.6780376 1.49732,-0.6871895 2.193069,-0.7979169 4.960001,-0.7893777 3.854219,0.011894 6.826914,0.7620305 10.535084,2.6584413 3.122739,1.597017 3.930397,2.184366 6.593498,4.794965 3.617741,3.546415 4.461667,6.565944 3.028566,10.83604 -0.123523,0.368053 -0.233066,0.368053 -0.702554,0 -0.502384,-0.39384 -0.514038,-0.382237 -0.120412,0.119885 0.568633,0.725376 0.247923,1.571264 -0.50369,1.328495 -0.481312,-0.155463 -0.49593,-0.129213 -0.09211,0.165394 0.399184,0.291226 0.406688,0.397461 0.04458,0.630965 -0.239482,0.154428 -0.671482,0.247095 -0.96,0.205928 -0.288515,-0.04117 -0.344576,-0.01296 -0.124576,0.06268 0.615283,0.21156 0.475178,0.66362 -0.279952,0.903289 -0.423622,0.134453 -0.793424,0.05211 -0.98096,-0.218436 -0.213699,-0.308287 -0.245811,-0.236564 -0.110701,0.24727 0.158707,0.568341 -0.0281,0.768898 -1.124838,1.207732 -1.398381,0.55952 -4.770471,0.754378 -5.47882,0.316596 C 39.071343,31.0216 38.4843,30.94513 38.000194,30.99591 c -0.626844,0.06575 -0.880192,-0.05277 -0.880192,-0.411791 0,-0.277264 -0.152499,-0.504117 -0.338886,-0.504117 -0.186387,0 -0.256791,0.132833 -0.156451,0.295185 0.370243,0.599066 -2.240864,-0.36872 -2.812432,-1.042404 -0.323271,-0.38103 -0.492593,-0.476781 -0.376269,-0.212781 0.168969,0.383476 0.126291,0.377828 -0.212231,-0.02809 -0.233053,-0.279447 -0.603731,-0.447447 -0.823731,-0.373333 -0.22,0.07411 -0.4,-0.01673 -0.4,-0.20187 0,-0.185143 -0.216,-0.253737 -0.48,-0.15243 -0.264,0.101306 -0.48,0.05583 -0.48,-0.101049 0,-0.156883 -0.442013,-0.546346 -0.98225,-0.865472 -0.618604,-0.365418 -0.916135,-0.752523 -0.803666,-1.045614 0.09965,-0.259677 0.03902,-0.379128 -0.137165,-0.270241 -0.36486,0.225496 -1.799611,-1.29775 -2.111657,-2.241904 -0.116337,-0.352 -0.372114,-0.743901 -0.568392,-0.870891 -0.261616,-0.169263 -0.262149,-0.382794 -0.002,-0.8 0.428675,-0.68746 0.961528,-0.577354 0.831781,0.171875 -0.07739,0.446868 -0.0402,0.459949 0.217513,0.07652 0.266579,-0.396623 0.484983,-0.374226 1.533343,0.157243 0.672368,0.34086 1.438487,0.784872 1.702487,0.986694 0.264,0.201822 1.272001,0.768695 2.240001,1.259717 2.777542,1.40892 3.656662,2.090723 3.149565,2.442652 -0.292525,0.203012 -0.192554,0.231187 0.313366,0.08832 0.493091,-0.139249 0.950448,-0.02201 1.36,0.348634 0.339389,0.307141 0.621648,0.42812 0.627245,0.268842 0.0056,-0.159278 0.1856,-0.06467 0.4,0.210235 0.214403,0.274907 0.605824,0.585635 0.869824,0.690507 0.264,0.104871 1.284,0.551518 2.266666,0.992547 1.410909,0.633229 1.786669,0.703835 1.786669,0.335723 0,-0.256988 -0.191447,-0.392684 -0.426669,-0.302422 -0.562003,0.215662 -0.539469,-0.269832 0.06696,-1.44254 0.308947,-0.597442 0.638179,-0.867816 0.88,-0.722682 0.292304,0.175434 0.298992,0.119551 0.02746,-0.229537 -0.197398,-0.253785 -0.319603,-0.703457 -0.271568,-0.999271 0.05368,-0.330575 -0.073,-0.476315 -0.32873,-0.378184 -0.228835,0.08781 -0.501635,0.0212 -0.60622,-0.148021 -0.104586,-0.169224 0.162732,-0.39625 0.594044,-0.504502 1.728826,-0.433907 3.071585,-2.747722 2.770234,-4.773614 -0.42575,-2.862215 -5.37504,-7.264585 -10.490237,-9.331021 -2.871736,-1.160124 -6.725379,-1.309963 -8.392429,-0.326318 -1.941774,1.145746 -2.603684,3.219818 -1.743191,5.462228 0.121867,0.317579 -0.05763,0.457275 -0.587561,0.457275 -2.553162,0 -3.634083,3.849717 -2.041417,7.270539 0.822748,1.76715 4.206271,5.364465 6.224315,6.617608 1.126553,0.699554 5.003642,2.298958 7.551664,3.115269 0.704,0.225539 1.46,0.54167 1.68,0.702512 0.256116,0.187244 0.4,0.163235 0.4,-0.06675 0,-0.197549 0.231405,-0.359181 0.514237,-0.359181 0.322759,0 0.446503,0.176512 0.332327,0.474045 -0.127319,0.331789 0.126486,0.556694 0.845766,0.749459 0.972327,0.260579 1.827671,0.180096 1.827671,-0.171977 z M 37.50302,22.718764 c -2.98696,-1.061428 -6.616537,-3.377276 -7.844428,-5.005128 -0.302271,-0.400728 -0.633149,-1.146428 -0.735285,-1.657111 -0.15354,-0.767697 -0.02619,-1.042097 0.735294,-1.58432 0.794997,-0.566088 1.138547,-0.616578 2.511199,-0.369059 4.0181,0.72455 9.124667,4.049906 10.080702,6.564474 0.397481,1.04545 0.01731,2.037954 -0.848736,2.215882 -0.41897,0.08607 -1.085763,0.219903 -1.481764,0.297395 -0.396,0.07749 -1.483641,-0.130467 -2.416982,-0.462133 z m 8.256983,12.462352 c 0,-0.165613 -0.36,-0.301114 -0.8,-0.301114 -0.44,0 -0.8,0.130519 -0.8,0.290042 0,0.159523 0.310518,0.208838 0.690038,0.109593 0.51401,-0.134419 0.623847,-0.07335 0.430557,0.239399 -0.171885,0.278118 -0.134765,0.342771 0.109962,0.191523 0.203193,-0.125581 0.369443,-0.36383 0.369443,-0.529443 z m -8.881994,0.126291 c -0.221098,-0.08914 -0.320599,-0.29377 -0.221114,-0.454736 0.09948,-0.160966 0.02838,-0.292669 -0.158006,-0.292669 -0.379981,0 -0.450836,0.421386 -0.125552,0.746666 0.117331,0.117334 0.369331,0.201965 0.56,0.18807 0.191702,-0.01395 0.166973,-0.09771 -0.05533,-0.187331 z m 19.121994,-0.233168 c 0,-0.06917 -0.223478,-0.21152 -0.49662,-0.316336 -0.284775,-0.109277 -0.413223,-0.05563 -0.301114,0.125763 0.187923,0.304067 0.797734,0.449744 0.797734,0.190573 z M 35.364146,34.553295 c 0.111053,-0.179686 -0.307824,-0.539686 -0.930835,-0.8 -1.326442,-0.554221 -1.473309,-0.572035 -1.473309,-0.17872 0,0.162016 0.432,0.389459 0.96,0.505427 0.528,0.115968 0.96,0.343411 0.96,0.505427 0,0.389732 0.232973,0.374269 0.484144,-0.03213 z m 12.955857,0.0084 c -0.580058,-0.37696 -1.28,-0.416077 -1.28,-0.07153 0,0.137613 0.396,0.280192 0.88,0.316838 0.673808,0.05102 0.767533,-0.0065 0.4,-0.245305 z m 16.960001,-0.321738 c 0,-0.176 -0.144,-0.32 -0.32,-0.32 -0.176,0 -0.32,0.144 -0.32,0.32 0,0.176 0.144,0.32 0.32,0.32 0.176,0 0.32,-0.144 0.32,-0.32 z m -33.701406,-1.66 c -0.102152,-0.255274 -0.177978,-0.17945 -0.193333,0.193334 -0.01389,0.337332 0.06174,0.526333 0.16807,0.42 0.106334,-0.106336 0.117702,-0.382336 0.02526,-0.613334 z m -0.71932,0.09353 c 0.09738,-0.157556 -0.03079,-0.366224 -0.284817,-0.463703 -0.308088,-0.118224 -0.402621,-0.02285 -0.283926,0.286471 0.206274,0.537539 0.323487,0.574067 0.568743,0.177232 z m 21.300725,-0.67353 c 0,-0.176 -0.0635,-0.32 -0.141113,-0.32 -0.07761,0 -0.230112,0.144 -0.338887,0.32 -0.108774,0.176 -0.04527,0.32 0.141114,0.32 0.186387,0 0.338886,-0.144 0.338886,-0.32 z m 1.76,-0.64 c -0.108774,-0.176 -0.369273,-0.317795 -0.578886,-0.3151 -0.228995,0.0029 -0.189526,0.128713 0.09889,0.3151 0.614759,0.397288 0.725536,0.397288 0.48,0 z m -13.12,-0.96 c 0.108774,-0.176 0.05377,-0.32 -0.122231,-0.32 -0.176,0 -0.408995,0.144 -0.517769,0.32 -0.108775,0.176 -0.05377,0.32 0.12223,0.32 0.176,0 0.408995,-0.144 0.51777,-0.32 z m -5.120001,-0.64 c -0.108774,-0.176 -0.341769,-0.32 -0.517769,-0.32 -0.176,0 -0.231005,0.144 -0.122231,0.32 0.108775,0.176 0.34177,0.32 0.51777,0.32 0.176,0 0.231005,-0.144 0.12223,-0.32 z m 3.2,0 c 0.108775,-0.176 0.04527,-0.32 -0.141113,-0.32 -0.186387,0 -0.338887,0.144 -0.338887,0.32 0,0.176 0.0635,0.32 0.141114,0.32 0.07761,0 0.230112,-0.144 0.338886,-0.32 z m 111.172618,-1.76 c 0.01,-0.176 -0.122,-0.104 -0.29261,0.16 -0.17061,0.264 -0.30229,0.696 -0.29261,0.96 0.0186,0.506832 0.5519,-0.513849 0.58522,-1.12 z M 44.480003,28.994238 c 0,-0.06917 -0.223479,-0.21152 -0.496621,-0.316334 -0.284774,-0.109279 -0.413222,-0.05563 -0.301114,0.125763 0.187924,0.304065 0.797735,0.449743 0.797735,0.190571 z M 150.9386,21.060001 c -0.10215,-0.255274 -0.17797,-0.179448 -0.19333,0.193334 -0.0139,0.337333 0.0617,0.526333 0.16807,0.42 0.10634,-0.106334 0.1177,-0.382334 0.0252,-0.613334 z m 0.32,-2.24 c -0.10215,-0.255274 -0.17797,-0.179448 -0.19333,0.193334 -0.0139,0.337333 0.0617,0.526333 0.16807,0.42 0.10634,-0.106334 0.1177,-0.382334 0.0252,-0.613334 z m 0.66675,-3.3 c 9.6e-4,-0.80715 -0.0411,-0.7562 -0.2637,0.32 -0.33529,1.620981 -0.32026,2.93075 0.0184,1.6 0.13435,-0.528 0.24475,-1.392 0.24534,-1.92 z m 0.28659,-2.48 c -0.0888,-0.22 -0.16141,-0.04 -0.16141,0.4 0,0.44 0.0726,0.62 0.16141,0.4 0.0888,-0.22 0.0888,-0.58 0,-0.8 z m 0.32,-2.24 c -0.0888,-0.22 -0.16141,-0.04 -0.16141,0.4 0,0.44 0.0726,0.62 0.16141,0.4 0.0888,-0.22 0.0888,-0.58 0,-0.8 z m 0.64,-3.5200005 c -0.0888,-0.2200001 -0.16141,-0.04 -0.16141,0.4 0,0.44 0.0726,0.62 0.16141,0.4 0.0888,-0.22 0.0888,-0.58 0,-0.8 z M 137.95713,159.7789 c -0.0204,-0.38562 -0.18347,-0.79157 -0.36234,-0.90212 -0.17887,-0.11054 -0.24964,-0.32329 -0.15726,-0.47275 0.15991,-0.25874 -0.46686,-3.00462 -0.97869,-4.28768 -0.17201,-0.43119 -0.11915,-0.56311 0.185,-0.46173 0.2342,0.0781 0.45176,0.42172 0.48347,0.76366 0.0317,0.34195 0.30623,1.59044 0.61005,2.77441 0.30382,1.18398 0.48591,2.40798 0.40464,2.72 -0.11642,0.44702 -0.15562,0.41864 -0.18487,-0.13379 z m 18.28456,0.30583 c 1.47092,-0.11592 1.51481,-0.14869 1.31576,-0.98232 -0.30241,-1.26646 -0.42113,-1.38612 -1.18437,-1.19373 -0.65482,0.16506 -0.6526,0.15393 0.0401,-0.20178 0.48141,-0.24719 0.66438,-0.54998 0.53277,-0.88168 -0.11023,-0.27787 -0.26148,-1.00921 -0.33611,-1.62521 -0.11623,-0.95941 -0.095,-1.00529 0.14838,-0.32 0.3381,0.95224 0.90029,3.02061 1.1472,4.22076 0.14773,0.71807 0.3758,0.88155 1.37582,0.98621 0.6593,0.069 -0.0973,0.1237 -1.68127,0.12156 -1.584,-0.002 -2.19525,-0.0579 -1.35832,-0.12381 z m -20.36872,-1.31139 c -0.0906,-0.14666 0.0449,-0.26666 0.30112,-0.26666 0.25625,0 0.46592,0.12 0.46592,0.26666 0,0.14667 -0.1355,0.26667 -0.30112,0.26667 -0.16561,0 -0.37528,-0.12 -0.46592,-0.26667 z m 6.52704,-0.39222 c 0,-0.18638 0.144,-0.24988 0.32,-0.14111 0.176,0.10877 0.32,0.26127 0.32,0.33889 0,0.0776 -0.144,0.14111 -0.32,0.14111 -0.176,0 -0.32,-0.1525 -0.32,-0.33889 z m 5.04373,-0.20743 c 0.39805,-0.0765 0.97405,-0.0736 1.28,0.006 0.30595,0.0801 -0.0197,0.14272 -0.72373,0.13917 -0.704,-0.004 -0.95432,-0.0691 -0.55627,-0.14563 z m 11.2,-0.64 c 0.39805,-0.0765 0.97405,-0.0736 1.28,0.006 0.30595,0.0801 -0.0197,0.14272 -0.72373,0.13917 -0.704,-0.004 -0.95432,-0.0691 -0.55627,-0.14563 z m -40.64373,-0.63951 c 0.396,-0.0763 1.044,-0.0763 1.44,0 0.396,0.0763 0.072,0.13867 -0.72,0.13867 -0.792,0 -1.116,-0.0624 -0.72,-0.13867 z m 40.16,-1.59476 c 0.308,-0.0805 0.812,-0.0805 1.12,0 0.308,0.0805 0.056,0.14635 -0.56,0.14635 -0.616,0 -0.868,-0.0659 -0.56,-0.14635 z m 1.88795,-0.91324 c -0.0264,-0.35961 -0.39776,-1.87161 -0.82531,-3.36 -1.0788,-3.75559 -1.30082,-5.10617 -0.83937,-5.10617 0.20598,0 0.2896,0.13738 0.18582,0.30528 -0.10377,0.16791 -0.0966,0.67191 0.0158,1.12 0.1502,0.59843 0.4289,0.82629 1.04979,0.8583 0.75384,0.0389 0.7674,0.0586 0.12531,0.18225 -0.82307,0.15853 -0.86368,0.34427 -0.34832,1.59334 0.20442,0.49546 0.34063,1.0322 0.30268,1.19276 -0.0379,0.16057 0.0939,0.68509 0.29291,1.16561 0.19903,0.48051 0.3004,1.28514 0.22525,1.78806 -0.0847,0.56717 -0.15483,0.66611 -0.18457,0.26057 z m -21.40186,-0.68793 c 0.31135,-0.0811 0.74335,-0.0758 0.96,0.0119 0.21665,0.0877 -0.0381,0.15404 -0.56609,0.14752 -0.528,-0.007 -0.70526,-0.0782 -0.39391,-0.15937 z m 18.71391,-0.64407 c 0.396,-0.0763 1.044,-0.0763 1.44,0 0.396,0.0763 0.072,0.13867 -0.72,0.13867 -0.792,0 -1.116,-0.0624 -0.72,-0.13867 z m 0.32,-2.2261 c 0.22,-0.0888 0.58,-0.0888 0.8,0 0.22,0.0888 0.04,0.1614 -0.4,0.1614 -0.44,0 -0.62,-0.0726 -0.4,-0.1614 z m -21.97474,-0.61474 c 0.0154,-0.37278 0.0912,-0.4486 0.19333,-0.19333 0.0924,0.231 0.0811,0.507 -0.0252,0.61333 -0.10634,0.10634 -0.18197,-0.0827 -0.16807,-0.42 z m -2.49917,-3.55509 c 0.31135,-0.0811 0.74335,-0.0758 0.96,0.0119 0.21665,0.0877 -0.0381,0.15404 -0.56609,0.14752 -0.528,-0.007 -0.70526,-0.0782 -0.39391,-0.15937 z m 6.87391,0.01 c 0.22,-0.0888 0.58,-0.0888 0.8,0 0.22,0.0888 0.04,0.1614 -0.4,0.1614 -0.44,0 -0.62,-0.0726 -0.4,-0.1614 z m 4.64609,-0.32983 c 0.31135,-0.0811 0.74335,-0.0758 0.96,0.0119 0.21665,0.0877 -0.0381,0.15404 -0.56609,0.14752 -0.528,-0.007 -0.70526,-0.0782 -0.39391,-0.15937 z m 3.05391,0.003 c 0.231,-0.0924 0.507,-0.0811 0.61333,0.0252 0.10634,0.10633 -0.0827,0.18196 -0.42,0.16807 -0.37278,-0.0154 -0.4486,-0.0912 -0.19333,-0.19333 z m 11.5,-0.31334 c 0.22,-0.0888 0.58,-0.0888 0.8,0 0.22,0.0888 0.04,0.16141 -0.4,0.16141 -0.44,0 -0.62,-0.0726 -0.4,-0.16141 z m -26.32,-1.39076 -1.6,-0.18023 1.71064,-0.14854 c 0.94085,-0.0817 1.7712,-0.0505 1.84522,0.0693 0.23173,0.37518 -0.30099,0.44584 -1.95586,0.25942 z m 2.80609,-0.21906 c 0.31135,-0.0811 0.74335,-0.0758 0.96,0.0119 0.21665,0.0877 -0.0381,0.15404 -0.56609,0.14752 -0.528,-0.007 -0.70526,-0.0782 -0.39391,-0.15938 z m 22.75391,-1.41828 c 0.11,-0.55 0.2,-1.126 0.2,-1.28 0,-0.154 0.36,-0.28 0.8,-0.28 0.72,0 0.8,0.128 0.8,1.28 0,1.22026 -0.0467,1.28 -1,1.28 -0.94933,0 -0.98987,-0.0507 -0.8,-1 z m -24.58222,-0.45778 c -0.12048,-0.64219 -0.14705,-1.23962 -0.0591,-1.32762 0.088,-0.088 0.25857,0.36543 0.37905,1.00762 0.12047,0.64219 0.14704,1.23962 0.059,1.32762 -0.088,0.088 -0.25857,-0.36543 -0.37904,-1.00762 z m 5.18222,-0.68805 c 0.396,-0.0763 1.044,-0.0763 1.44,0 0.396,0.0763 0.072,0.13867 -0.72,0.13867 -0.792,0 -1.116,-0.0624 -0.72,-0.13867 z m 4.16373,-6.4e-4 c 0.39805,-0.0765 0.97405,-0.0736 1.28,0.006 0.30595,0.0801 -0.0197,0.14272 -0.72373,0.13917 -0.704,-0.004 -0.95432,-0.0691 -0.55627,-0.14563 z m -1.79321,-1.05353 c 0,-0.44 0.0726,-0.62 0.16141,-0.4 0.0888,0.22 0.0888,0.58 0,0.8 -0.0888,0.22 -0.16141,0.04 -0.16141,-0.4 z m -8.13997,-0.42617 c -0.1268,-0.3224 -0.22143,-0.8984 -0.21027,-1.28 0.0192,-0.65838 0.0362,-0.65398 0.3319,0.0862 0.17139,0.42903 0.26601,1.00503 0.21026,1.28 -0.0834,0.41131 -0.14223,0.39602 -0.33189,-0.0862 z m -2.85055,-0.43243 c 0.231,-0.0924 0.507,-0.0811 0.61333,0.0252 0.10634,0.10633 -0.0827,0.18197 -0.42,0.16807 -0.37278,-0.0154 -0.44861,-0.0912 -0.19333,-0.19333 z m 11.84,-0.32 c 0.231,-0.0924 0.507,-0.0811 0.61333,0.0252 0.10634,0.10633 -0.0827,0.18197 -0.42,0.16807 -0.37278,-0.0154 -0.4486,-0.0912 -0.19333,-0.19333 z m 17.52654,-0.0584 c -0.13784,-0.22304 -0.16421,-0.49195 -0.0586,-0.59758 0.28639,-0.28638 0.59864,0.13482 0.44396,0.59887 -0.10839,0.32517 -0.18377,0.32492 -0.38538,-0.001 z m -27.18654,-1.89823 c -0.0868,-0.1404 -0.0255,-0.4644 0.13621,-0.72 0.22954,-0.36283 0.29506,-0.30687 0.29889,0.25528 0.005,0.74017 -0.15754,0.91382 -0.4351,0.46472 z m -1.71391,-0.28648 c 0.31135,-0.0811 0.74335,-0.0758 0.96,0.0119 0.21665,0.0877 -0.0381,0.15404 -0.56609,0.14752 -0.528,-0.007 -0.70526,-0.0782 -0.39391,-0.15937 z m 3.03391,-0.004 c 0.396,-0.0763 1.044,-0.0763 1.44,0 0.396,0.0763 0.072,0.13868 -0.72,0.13868 -0.792,0 -1.116,-0.0624 -0.72,-0.13868 z m 3.84,0.0139 c 0.22,-0.0888 0.58,-0.0888 0.8,0 0.22,0.0888 0.04,0.1614 -0.4,0.1614 -0.44,0 -0.62,-0.0726 -0.4,-0.1614 z m -21.1,-50.5667 c 0.231,-0.09244 0.507,-0.08107 0.61333,0.02525 0.10633,0.106333 -0.0827,0.181965 -0.42,0.168071 -0.37278,-0.01536 -0.44861,-0.09118 -0.19333,-0.193332 z m 1.34,-1.061405 c 0,-0.176 0.216,-0.32 0.48,-0.32 0.264,0 0.48,-0.144 0.48,-0.32 0,-0.176 0.2795,-0.32 0.62111,-0.32 0.34161,0 0.70796,-0.140512 0.8141,-0.312253 0.27783,-0.449542 3.52767,-2.49256 6.40479,-4.026384 0.88,-0.469136 1.82734,-1.052864 2.10519,-1.297171 0.27786,-0.244304 0.65623,-0.444192 0.84082,-0.444192 0.18459,0 0.50388,-0.202736 0.70952,-0.450525 0.20565,-0.247786 0.83528,-0.683766 1.39919,-0.968845 0.5639,-0.285078 1.24128,-0.655539 1.50528,-0.823245 0.66883,-0.424876 8.01855,-4.818173 8.8,-5.260202 0.352,-0.19911 2.12939,-1.364432 3.94976,-2.5896 1.82037,-1.225171 3.90837,-2.611993 4.64,-3.08183 0.73163,-0.469834 1.47424,-0.973834 1.65024,-1.12 0.50538,-0.419712 4.98022,-3.447255 6.48,-4.38418 2.43459,-1.520909 1.43211,-0.34672 -1.28,1.499232 -2.39248,1.628407 -6.63295,4.620029 -8.59388,6.062922 -2.27802,1.676215 -12.8405,8.236273 -13.2614,8.236273 -0.0881,0 -0.88049,0.495504 -1.7609,1.101123 -0.88041,0.605616 -1.90987,1.199232 -2.28769,1.319146 -0.37781,0.119913 -0.96423,0.476371 -1.30316,0.792125 -0.33892,0.315753 -0.97923,0.665209 -1.42291,0.776566 -0.44368,0.111357 -1.32945,0.617782 -1.96838,1.125389 -0.63892,0.507606 -2.15624,1.437622 -3.3718,2.066701 -1.21557,0.629078 -2.39698,1.298857 -2.62536,1.488397 -0.38533,0.319788 -2.70454,1.570553 -2.91218,1.570553 -0.0508,0 -0.0923,-0.144 -0.0923,-0.32 z m 41.6,-77.7600045 c 0,-0.176 0.1525,-0.32 0.33889,-0.32 0.18638,0 0.24988,0.144 0.14111,0.32 -0.10877,0.176 -0.26127,0.32 -0.33889,0.32 -0.0776,0 -0.14111,-0.144 -0.14111,-0.32 z M 158.17408,4.1992278 C 157.08182,2.8332887 156.04139,1.3296691 155.862,0.85785103 L 155.53585,0 h 2.39208 2.39208 v 3.3600002 c 0,1.8480001 -0.036,3.3516197 -0.08,3.3413769 -0.044,-0.010243 -0.97367,-1.13621 -2.06593,-2.5021493 z"
     style="fill:#515151;stroke-width:0.32000002" />
</svg>
