<svg
   xmlns="http://www.w3.org/2000/svg"
   viewBox="0 0 160.32001 160.32001"
   height="160.32001"
   width="160.32001">
  <path
     d="M 0,128.3881 V 96.456201 l 0.65717822,-0.0495 c 0.36144798,-0.02723 0.73685448,0.158128 0.83423648,0.411904 0.097382,0.253773 0.5576519,0.4592 1.0228219,0.456506 0.6468797,-0.0037 0.7349991,-0.07495 0.3747316,-0.302787 -0.3998528,-0.252871 -0.3828834,-0.331712 0.112296,-0.521728 0.3593219,-0.137885 0.6919287,-0.05233 0.8661319,0.222784 0.1766214,0.278937 0.2846438,-0.586692 0.287704,-2.305495 l 0.0049,-2.752122 -2.08,-1.055757 L 0,89.504252 V 44.752128 0 h 80.161589 80.161591 l -0.007,41.280003 c -0.004,22.704001 -0.0671,41.280002 -0.14075,41.280002 -0.0737,0 -0.52202,-0.147549 -0.99635,-0.327888 -0.83425,-0.317181 -0.85625,-0.297107 -0.67386,0.614835 0.66103,3.305153 0.95364,9.498708 0.59524,12.599256 -0.30657,2.652201 -0.29469,3.812585 0.0625,6.111462 0.25026,1.61053 0.63034,2.96229 0.87889,3.12586 0.35785,0.23548 0.33552,0.34855 -0.12205,0.61823 -0.698,0.41138 -0.75585,2.16318 -0.08,2.42253 0.41907,0.16081 0.48,2.55262 0.48,18.84329 0,14.62786 -0.0864,18.69397 -0.4,18.8205 -0.32,0.12912 -0.32,0.16645 0,0.18667 0.30767,0.0194 0.4,1.72407 0.4,7.38526 v 7.36 h -14.4 c -9.03659,0 -14.4,-0.11499 -14.4,-0.30874 0,-0.16981 0.29203,-0.46503 0.64896,-0.65606 0.35693,-0.19102 0.56443,-0.48409 0.46111,-0.65125 -0.10331,-0.16718 0.0547,-0.30395 0.35104,-0.30395 1.11876,0 -0.20375,-3.61392 -1.38411,-3.78226 -0.58955,-0.0841 -0.717,0.05 -0.717,0.75424 0,0.59965 -0.13336,0.80532 -0.44472,0.68584 -0.29721,-0.11405 -0.50683,0.13993 -0.632,0.76576 -0.103,0.51503 -0.37088,0.93683 -0.59528,0.93734 -0.2244,6.4e-4 -0.69524,0.42963 -1.04632,0.95362 -0.73017,1.08979 -1.9982,1.7169 -3.0913,1.52883 -0.72582,-0.12489 -0.71951,-0.14199 0.19301,-0.52242 0.51886,-0.21632 1.42579,-0.89003 2.0154,-1.49713 0.58961,-0.6071 1.20301,-1.10382 1.36312,-1.10382 0.45278,0 1.84682,-2.59081 2.07949,-3.86469 0.18853,-1.03223 0.0955,-1.24444 -0.9473,-2.16 -0.636,-0.55842 -1.43936,-1.01531 -1.78524,-1.01531 -0.50422,0 -0.62886,-0.21988 -0.62886,-1.10934 0,-0.84313 -0.27132,-1.38064 -1.13067,-2.24 -0.62187,-0.62186 -1.33445,-1.13066 -1.58351,-1.13066 -0.24907,0 -0.8414,-0.3601 -1.31629,-0.80021 -1.03364,-0.95794 -1.3742,-0.76579 -2.36012,1.33167 -0.37716,0.80238 -0.76457,1.38005 -0.86091,1.28371 -0.0963,-0.0963 0.21234,-0.96716 0.68594,-1.93516 1.52438,-3.11573 1.33927,-5.20649 -0.55512,-6.26978 -0.69115,-0.38793 -0.99701,-0.41069 -1.4785,-0.10999 -0.59077,0.36895 -1.96082,0.23834 -1.96082,-0.18692 0,-0.11662 0.26671,-0.40427 0.5927,-0.63923 0.54251,-0.39102 0.55962,-0.58576 0.20203,-2.29934 -0.21487,-1.02968 -0.31338,-1.94944 -0.21889,-2.04393 0.24616,-0.24616 -0.59244,-1.71856 -1.58423,-2.78154 -0.89725,-0.96165 -1.53532,-1.11178 -2.50947,-0.59043 -1.00908,0.54004 -1.63097,-0.003 -2.75797,-2.40993 -0.88,-1.87912 -1.08417,-2.70282 -1.08417,-4.37393 0,-2.85874 -0.70237,-4.99974 -2.07742,-6.33249 -1.28743,-1.24782 -2.02209,-3.30424 -1.43372,-4.01318 0.2795,-0.33677 0.2526,-0.60471 -0.11311,-1.12683 l -0.47979,-0.68499 -0.35924,0.67125 c -0.45165,0.84392 -0.99906,0.85277 -1.70561,0.0276 -0.6895,-0.80528 -0.72391,-3.02462 -0.0711,-4.58699 0.5699,-1.36397 0.62172,-3.18661 0.1174,-4.12895 -0.30257,-0.56534 -0.24958,-0.76904 0.32,-1.23026 0.46737,-0.37845 0.6826,-0.91491 0.6826,-1.70144 0,-0.63178 0.13723,-1.148703 0.30496,-1.148703 0.53196,0 0.97135,-2.307255 0.97504,-5.120001 0.002,-1.496 0.13279,-3.224 0.29073,-3.84 0.15793,-0.616 0.3746,-1.510918 0.48147,-1.988704 0.13309,-0.594989 0.34313,-0.811603 0.66661,-0.687472 0.64045,0.245763 1.11512,-1.089312 1.16559,-3.278333 0.0451,-1.957181 -0.27438,-2.466048 -2.5217,-4.01625 -0.74651,-0.514947 -1.44351,-1.279766 -1.54888,-1.6996 -0.19099,-0.76097 -1.09382,-1.405363 -1.09382,-0.780704 0,0.652486 -0.66808,-0.105607 -1.44609,-1.640938 -0.90511,-1.786157 -1.00927,-3.018349 -0.31391,-3.713706 0.75749,-0.757497 0.5942,-2.62415 -0.33629,-3.84408 -0.44896,-0.588611 -1.016456,-1.070205 -1.261112,-1.070205 -0.244656,0 -0.53848,-0.151529 -0.652941,-0.336729 -0.223475,-0.361591 1.722093,-5.512884 2.148653,-5.689002 0.463,-0.191168 1.25016,-2.181191 1.36454,-3.449716 0.0617,-0.684505 0.12683,-1.332288 0.14468,-1.43952 0.0179,-0.107232 0.53507,-0.827232 1.14936,-1.6 0.61429,-0.772768 1.11829,-1.661552 1.12,-1.975075 0.002,-0.313527 0.21911,-0.652932 0.48311,-0.754237 0.264,-0.101309 0.48,-0.528787 0.48,-0.949959 0,-0.421168 0.13283,-0.765763 0.29518,-0.765763 0.16235,0 0.43441,-0.468 0.60457,-1.04 0.17016,-0.572 0.5522,-1.859952 0.84897,-2.862112 0.79027,-2.668631 0.78894,-5.245527 -0.003,-5.844388 -1.27932,-0.967395 -3.41559,-0.25359 -3.79773,1.268954 -0.30338,1.208778 -2.16384,2.437626 -3.76927,2.489635 -2.917884,0.09453 -5.698844,-1.376908 -5.698844,-3.015245 0,-0.919468 -2.735379,-0.844268 -3.743613,0.102919 -0.966464,0.907942 -1.538947,0.415913 -1.251776,-1.075859 0.300406,-1.560525 0.544672,-1.811466 2.458467,-2.525658 4.080829,-1.52289 5.402624,-1.864708 7.951943,-2.056394 1.482263,-0.111453 2.974793,-0.398598 3.316743,-0.638106 0.34194,-0.239507 0.79635,-0.368451 1.00979,-0.286547 0.21344,0.08191 0.77221,0.0029 1.2417,-0.175625 l 0.85362,-0.324548 -0.15971,-3.128513 c -0.0904,-1.769693 -0.008,-3.753956 0.1894,-4.568514 0.22702,-0.936381 0.25288,-2.167451 0.0739,-3.520001 -0.27334,-2.066088 -0.28156,-2.079304 -1.22784,-1.976013 -0.52396,0.05719 -1.17999,0.309192 -1.45785,0.56 -0.27786,0.250807 -0.74586,0.456013 -1.04,0.456013 -1.0558,0 -0.49455,-0.81488 1.10078,-1.598233 0.8941,-0.439028 1.77871,-1.087028 1.96581,-1.44 0.1871,-0.352972 0.60532,-0.829932 0.92939,-1.059912 0.32407,-0.22998 0.58922,-0.640968 0.58922,-0.913306 0,-0.425354 -0.37218,-0.46291 -2.64,-0.266391 -1.452,0.125822 -2.7974,0.355685 -2.98978,0.510804 -0.22601,0.182244 -0.47834,-1.41e-4 -0.71314,-0.515463 -0.32941,-0.722979 -0.29523,-0.797499 0.36578,-0.797499 0.73385,0 1.49714,-0.53206 1.49714,-1.043607 0,-0.151584 -0.63098,-0.180987 -1.40217,-0.06534 -1.660247,0.24897 -2.329962,-0.329111 -0.76063,-0.656556 1.39084,-0.290202 5.04294,-2.325599 5.04225,-2.810158 -3.2e-4,-0.246818 -0.6569,-0.407496 -1.8349,-0.449056 -1.0089,-0.03559 -1.88466,-0.215594 -1.94612,-0.4 -0.0615,-0.184406 -0.37018,-0.335283 -0.68602,-0.335283 -0.31584,0 -1.06751,-0.206097 -1.670385,-0.457993 -1.462294,-0.6109853 -3.668951,-0.328979 -3.88481,0.49647 -0.08893,0.340057 -0.440307,0.601523 -0.808374,0.601523 -0.35809,0 -0.740071,0.144 -0.848845,0.32 -0.108775,0.176 -0.483008,0.32 -0.831635,0.32 -0.777389,0 -2.905869,1.058136 -3.451885,1.716042 -0.220388,0.265551 -0.858752,0.582718 -1.418592,0.704816 -2.081802,0.45403 -7.377649,5.644375 -10.315182,10.109691 -1.684397,2.560436 -4.720096,5.660646 -7.199751,7.352751 -1.465529,1.000071 -2.114723,1.7716 -1.77584,2.110484 0.173095,0.173094 2.261005,0.712188 3.484845,0.899782 0.490579,0.0752 1.138579,0.263613 1.44,0.418698 0.301421,0.155088 1.340039,0.382947 2.308039,0.506355 0.968,0.123411 2.81488,0.646707 4.104179,1.16288 1.289299,0.516176 2.497424,0.938502 2.684724,0.938502 0.527248,0 1.189632,1.036941 1.200921,1.88 0.0092,0.690532 -0.08489,0.739834 -1.029824,0.539367 -2.355462,-0.499706 -3.001808,-0.535043 -3.847379,-0.210346 -0.731828,0.281018 -0.85298,0.477824 -0.69112,1.122714 0.285168,1.136205 -1.295012,1.878112 -4.013933,1.88457 -2.785249,0.0066 -4.348925,-0.891818 -5.655505,-3.249453 -0.338803,-0.611348 -1.209257,-1.40184 -2.0228,-1.83698 -1.834944,-0.981456 -3.849264,-2.833571 -3.849264,-3.539302 0,-0.302128 0.270838,-0.846602 0.601859,-1.209946 0.331024,-0.363344 0.699847,-1.344624 0.81961,-2.180624 0.180109,-1.257269 0.131389,-1.52 -0.281863,-1.52 -0.274784,0 -0.499606,0.144 -0.499606,0.32 0,0.176 -0.216,0.32 -0.48,0.32 -0.264,0 -0.48,0.132952 -0.48,0.295448 0,0.162496 -0.332688,0.702496 -0.739306,1.2 -0.406617,0.497502 -0.912627,1.503963 -1.124464,2.236578 -0.211837,0.732614 -0.566253,1.681088 -0.787593,2.107718 -0.371495,0.716061 -0.458234,0.527565 -1.128324,-2.452025 -1.756176,-7.80892 -3.247955,-11.06772 -5.066467,-11.06772 -1.451876,0 -2.230231,1.413075 -1.233847,2.240001 0.712951,0.591697 0.581268,1.028187 -0.169763,0.562711 -0.529894,-0.328419 -0.700138,-0.321777 -0.922813,0.036 -0.424525,0.682098 -0.355088,2.923504 0.126263,4.075532 0.239318,0.572774 0.673478,2.21002 0.964796,3.638325 0.291319,1.428304 0.878839,3.623504 1.305594,4.878221 0.426759,1.25472 0.775923,2.559363 0.775923,2.89921 0,1.137712 1.739719,2.918201 3.301322,3.378691 2.388346,0.704278 3.404938,-0.100589 2.429386,-1.923424 -0.3872,-0.723495 -0.11657,-2.825268 0.363792,-2.825268 0.168026,0 0.305501,0.221831 0.305501,0.492957 0,0.271127 0.324,0.931162 0.72,1.466743 0.531747,0.719174 0.729357,1.447881 0.755789,2.78704 0.01968,0.997293 0.130704,2.518589 0.246704,3.380656 0.16663,1.23832 0.09608,1.694285 -0.336029,2.17176 -0.625139,0.690775 -0.673239,0.996957 -0.754157,4.800845 -0.0427,2.007581 0.08352,3.065956 0.454278,3.809165 0.282378,0.566042 0.513415,1.169034 0.513415,1.339985 0,0.477609 1.639088,4.085622 2.464301,5.424493 0.701242,1.137734 0.984509,3.09088 0.516198,3.559193 -0.275072,0.275069 -2.020499,-1.602448 -2.020499,-2.173401 0,-0.231587 -0.209821,-0.595207 -0.466269,-0.808039 -0.406045,-0.336985 -0.447289,0.275472 -0.319334,4.741741 0.08082,2.820788 0.289865,5.504641 0.46456,5.964119 0.174691,0.459475 0.387273,1.389763 0.472403,2.067306 0.143712,1.143811 0.103792,1.219424 -0.558291,1.057453 -1.13009,-0.276471 -1.501876,-0.71416 -1.879076,-2.212154 -0.437558,-1.737702 -0.916108,-2.100835 -0.907654,-0.688746 0.01392,2.323837 0.680822,5.496954 1.565322,7.447674 l 0.932553,2.056701 -0.612109,2.801047 c -0.69918,3.199504 -0.755593,5.025504 -0.267344,8.653479 l 0.344762,2.561773 -1.254845,1.94149 c -0.690163,1.06781 -1.49983,2.81462 -1.799264,3.88179 -0.299434,1.06717 -0.878218,2.3396 -1.286189,2.82762 -0.407971,0.48802 -1.05335,1.46332 -1.434179,2.16732 -0.380826,0.704 -1.300506,2.11588 -2.043728,3.13752 -0.743226,1.02163 -2.215319,3.10963 -3.271319,4.64 -1.056,1.53036 -2.11271,2.98547 -2.348246,3.23358 -0.235533,0.24811 -0.793911,1.04011 -1.240836,1.76 -0.446924,0.71989 -1.370214,2.13527 -2.051753,3.14528 -0.681543,1.01001 -1.239165,1.92029 -1.239165,2.02286 0,0.3834 -0.965965,1.13484 -1.240621,0.96509 -0.157043,-0.097 -0.386727,-0.79023 -0.51041,-1.5404 -0.229373,-1.3912 -0.555142,-2.0383 -2.248969,-4.46727 -1.64706,-2.36192 -2.71378,-2.9454 -6.666449,-3.64645 -5.004512,-0.88762 -14.60031,-0.15968 -19.819082,1.50347 -2.734492,0.87145 -4.6264388,2.45496 -4.1025971,3.43376 0.1914691,0.35777 0.3481261,1.43309 0.3481261,2.3896 0,0.95652 0.213702,2.96458 0.474893,4.46237 0.261192,1.49778 0.495791,4.32464 0.521332,6.28191 0.02554,1.95727 0.171838,3.55868 0.325106,3.55868 0.153268,0 0.278669,0.1525 0.278669,0.33889 0,0.18638 -0.136356,0.25461 -0.303012,0.15161 -0.272174,-0.16822 -0.224682,1.98657 0.130886,5.93844 0.177285,1.97039 0.922757,4.91173 1.356929,5.35392 0.228358,0.23257 0.415197,0.64397 0.415197,0.91423 0,0.28618 0.184301,0.42066 0.44134,0.32202 0.752611,-0.2888 2.407096,1.75973 2.873545,3.55794 l 0.431363,1.66295 H 8.5931247 0 Z m 145.80915,26.90055 c 0.1096,-0.84075 0.34038,-1.70787 0.51283,-1.92693 0.17246,-0.21907 0.23141,-0.71244 0.13101,-1.09639 -0.1004,-0.38394 0.0131,-1.06871 0.25238,-1.5217 0.98757,-1.87014 1.76334,-8.27705 1.58281,-13.07208 -0.1021,-2.71186 -0.0227,-3.82731 0.31964,-4.4893 0.25053,-0.48446 0.52994,-1.81265 0.62093,-2.95154 0.091,-1.13888 0.41072,-2.97572 0.71053,-4.08185 0.29981,-1.10613 0.48174,-2.0745 0.4043,-2.15195 -0.0774,-0.0774 -2.00443,-0.66143 -4.28219,-1.29775 -3.564,-0.99565 -4.77147,-1.18119 -8.66082,-1.3308 -7.3037,-0.28094 -12.66133,0.84163 -13.13846,2.75288 -0.11516,0.46132 -0.61725,1.50269 -1.11574,2.31416 -0.4985,0.81147 -0.90636,1.6528 -0.90636,1.86964 0,0.21684 -0.37098,1.43925 -0.82441,2.71648 -0.76726,2.16124 -0.79192,2.39998 -0.35572,3.44393 0.25777,0.61695 1.2439,2.04261 2.19139,3.16814 0.9475,1.12553 2.65152,3.19842 3.78673,4.60642 1.13521,1.408 2.44512,2.92 2.91091,3.36 1.92066,1.8143 5.34784,4.78914 6.75331,5.86195 0.82594,0.63046 2.84183,2.44115 4.47975,4.02376 l 2.97804,2.87748 0.72494,-0.77296 c 0.44372,-0.47311 0.80223,-1.36593 0.9242,-2.30159 z m 7.23086,-9.58057 c -0.22,-0.0888 -0.58,-0.0888 -0.8,0 -0.22,0.0888 -0.04,0.1614 0.4,0.1614 0.44,0 0.62,-0.0726 0.4,-0.1614 z m 4.72,-0.10807 c 0,-0.41002 -3.20554,-0.41002 -3.84,0 -0.33616,0.21724 0.16729,0.31167 1.68,0.3151 1.22993,0.003 2.16,-0.13289 2.16,-0.3151 z m -47.00029,-26.96534 c -0.31604,-0.31368 -0.3528,-0.27693 -0.17914,0.17914 0.12017,0.31559 0.2991,0.49319 0.39763,0.39466 0.0985,-0.0985 2e-4,-0.35673 -0.21849,-0.5738 z m -5.90778,-17.91466 c -0.0888,-0.22 -0.16141,-0.04 -0.16141,0.4 0,0.44 0.0726,0.62 0.16141,0.4 0.0888,-0.22 0.0888,-0.58 0,-0.8 z m -2.60379,-35.338496 c -0.22295,-0.547404 -0.25124,-0.543974 -0.48245,0.05849 -0.29827,0.777216 -0.0568,1.299143 0.39291,0.849392 0.17951,-0.179504 0.2198,-0.588051 0.0895,-0.907882 z m 1.45896,-0.98151 c 0.1822,-0.484 0.70412,-1.645373 1.15983,-2.580829 0.7698,-1.580234 0.79113,-1.738246 0.30081,-2.228573 -0.43953,-0.439526 -0.52774,-0.448909 -0.52774,-0.05614 0,0.259376 -0.288,0.651456 -0.64,0.871283 -0.352,0.219828 -0.64,0.58402 -0.64,0.809312 0,0.225296 -0.27383,0.946724 -0.60851,1.603172 -0.64972,1.2744 -0.56592,2.461779 0.17375,2.461779 0.24783,0 0.59967,-0.396 0.78186,-0.88 z m -72.347108,-1.2 c 0,-0.264 -0.216,-0.48 -0.48,-0.48 -0.499704,0 -0.63487,0.378464 -0.266667,0.746666 0.368203,0.368204 0.746667,0.233036 0.746667,-0.266666 z m 18.473336,-5.473335 c -0.106336,-0.106333 -0.382337,-0.117699 -0.613335,-0.02525 -0.255274,0.102151 -0.17945,0.177978 0.193334,0.193331 0.337332,0.01389 0.526333,-0.06174 0.420001,-0.16807 z m 2.486665,-0.592771 c 0.704,-0.251056 1.255085,-0.575638 1.224631,-0.72129 -0.03046,-0.145651 0.509549,-0.210947 1.2,-0.1451 1.216662,0.116028 1.255369,0.08908 1.255369,-0.873892 0,-0.723341 0.152327,-1.000483 0.560001,-1.018877 0.360156,-0.01626 0.411568,-0.08476 0.144064,-0.191977 -0.228765,-0.09169 -0.978487,0.205565 -1.666052,0.660573 -0.687561,0.455008 -1.457827,0.74758 -1.711696,0.650163 -0.253869,-0.09742 -0.556643,-0.0233 -0.672835,0.164691 -0.116189,0.187997 -0.02275,0.349235 0.207632,0.358304 0.230387,0.0091 -0.121114,0.240471 -0.781114,0.514224 -0.66,0.273757 -1.2,0.626336 -1.2,0.783511 0,0.354073 -0.09022,0.365372 1.44,-0.18033 z M 15.009636,55.949559 c 0.347766,-0.997604 0.344096,-1.003076 -0.288696,-0.430407 -0.658837,0.59624 -0.865318,1.440852 -0.352243,1.440852 0.158783,0 0.447205,-0.454701 0.640939,-1.010445 z m 36.743702,0.17711 c -0.106336,-0.106333 -0.382336,-0.117699 -0.613335,-0.02525 -0.255273,0.102151 -0.179449,0.177978 0.193335,0.193331 0.337331,0.01389 0.526332,-0.06174 0.42,-0.16807 z m 6.67167,-0.64135 c 0.521005,0.199929 1.414996,-0.07558 1.414996,-0.436074 0,-0.350992 -2.999002,-0.226317 -3.258887,0.135478 -0.385152,0.536192 0.07594,0.828672 0.743312,0.471504 0.355072,-0.190028 0.850333,-0.266937 1.100579,-0.170908 z M 16.579662,54.067536 c 0.742512,-0.691753 0.874142,-1.122345 0.427482,-1.398397 -0.399871,-0.247133 -1.229909,0.501085 -1.476395,1.330864 -0.265907,0.895159 0.132995,0.920842 1.048913,0.06753 z m 42.126674,0.03458 c 0.101261,-0.16384 0.03776,-0.388339 -0.141113,-0.498886 -0.178871,-0.110547 -0.325219,0.02349 -0.325219,0.297888 0,0.56209 0.192019,0.644851 0.466332,0.200998 z M 13.062765,48.292739 c 0.367473,-0.588419 0.348643,-0.654157 -0.15935,-0.556326 -0.316836,0.06102 -0.624277,0.361286 -0.683203,0.667264 -0.147005,0.763337 0.336301,0.699699 0.842553,-0.110938 z M 144.64001,45.720822 c 0,-0.454243 -0.2342,-0.600819 -0.96,-0.600819 -0.73852,0 -0.96,0.14399 -0.96,0.624099 0,0.795715 0.96074,1.373648 1.51661,0.912317 0.22187,-0.184131 0.40339,-0.605149 0.40339,-0.935597 z M 32.320002,44.97126 c 0,-0.857052 -0.799953,-1.451257 -1.953766,-1.451257 -0.393712,0 -0.943179,-0.205008 -1.221037,-0.455575 -0.437219,-0.394272 -0.590364,-0.393113 -1.138131,0.0086 -0.82533,0.605284 -0.330041,1.474676 0.994439,1.745559 0.517233,0.105785 1.22349,0.356499 1.569459,0.557142 1.076049,0.624045 1.749036,0.468413 1.749036,-0.404477 z m 81.246858,-1.779513 c 0.73969,-1.419117 0.83359,-1.911744 0.3644,-1.911744 -0.40099,0 -1.0092,1.149417 -1.30709,2.470214 -0.29867,1.324253 0.0775,1.101386 0.94269,-0.55847 z m -12.5607,-2.108378 c 0.50986,-0.658797 0.16157,-1.721063 -0.66765,-2.036333 -0.991013,-0.376781 -3.422341,0.142886 -3.935458,0.841158 -0.383763,0.522241 -0.33296,0.679815 0.432199,1.340471 0.741443,0.640176 1.079923,0.71817 2.33592,0.538237 0.807859,-0.115731 1.633599,-0.423322 1.834989,-0.683533 z M 76.172754,40.3135 c 1.454483,-0.742022 1.521705,-0.944256 0.592988,-1.783901 -0.489113,-0.442205 -1.126179,-0.60295 -2.32,-0.585392 -2.23184,0.03282 -5.329718,0.45232 -5.308301,0.718823 0.0096,0.119334 0.693591,0.675555 1.52,1.236044 1.821962,1.235693 3.63801,1.372154 5.515313,0.414426 z M 29.90103,40.197001 c 0.643524,0.246944 2.098972,-0.458141 2.098972,-1.016835 0,-0.432045 -0.703682,-0.780164 -1.577008,-0.780164 -0.86718,0 -2.582992,0.954407 -2.582992,1.436772 0,0.546131 0.689064,0.804499 1.15944,0.434739 0.197693,-0.155402 0.603407,-0.188934 0.901588,-0.07451 z m 85.97346,-1.325482 c 0.73437,-0.972665 1.26165,-1.842057 1.17172,-1.931981 -0.44065,-0.440653 -1.94325,0.748599 -2.50564,1.983127 -0.70905,1.556458 -0.73818,1.717338 -0.31093,1.717338 0.1703,0 0.91048,-0.795818 1.64485,-1.768484 z m -90.652045,0.243783 c 0.122141,-0.85624 -0.698459,-1.282957 -1.379795,-0.717498 -0.354232,0.293987 -0.387147,0.54272 -0.134333,1.015107 0.434347,0.811584 1.382489,0.625223 1.514128,-0.297609 z m 91.102905,-4.252148 c 0.15673,-0.493795 0.31115,-0.571641 0.62207,-0.3136 0.31593,0.262202 0.53625,0.08476 0.93309,-0.751513 0.28572,-0.602119 0.5195,-1.408049 0.5195,-1.790951 0,-0.623962 -0.0896,-0.585745 -0.86394,0.368358 -0.47516,0.585504 -0.92688,1.136554 -1.00381,1.224554 -0.0769,0.088 -0.20416,-0.02 -0.28273,-0.24 -0.22384,-0.626742 -1.27704,-0.468202 -1.45683,0.219299 -0.16545,0.632676 0.53813,1.940701 1.04389,1.940701 0.15416,0 0.3741,-0.295581 0.48876,-0.656848 z M 28.29714,33.811845 c 0.260246,-0.41752 0.227202,-0.623792 -0.137138,-0.856051 -0.893027,-0.56929 -1.6,-0.36712 -1.6,0.457542 0,1.190897 1.087701,1.44042 1.737138,0.398509 z m 88.79805,-3.932975 c 1.01994,-1.296644 0.79145,-2.632966 -0.37375,-2.185839 -0.55031,0.211177 -1.52143,2.157382 -1.52143,3.049086 0,0.532631 0.10353,0.584996 0.61518,0.311167 0.33835,-0.18108 0.91435,-0.709567 1.28,-1.174414 z M 68.416487,28.497474 c 0.383261,-0.518389 0.619111,-1.145089 0.524106,-1.392665 -0.0998,-0.260069 0.17185,-0.675919 0.643338,-0.98485 0.448841,-0.294091 0.81696,-0.711392 0.818045,-0.927334 9.6e-4,-0.215943 0.21632,-0.803611 0.4783,-1.305928 0.790196,-1.515099 0.147677,-1.65085 -0.739782,-0.156301 -0.45383,0.764283 -1.013098,1.579891 -1.242819,1.812463 -0.229719,0.232571 -0.417671,0.641858 -0.417671,0.909526 0,0.267669 -0.288,0.852803 -0.64,1.300298 -0.653763,0.831127 -0.846678,1.687319 -0.380179,1.687319 0.142902,0 0.573398,-0.424137 0.956662,-0.942528 z M 65.116122,27.51372 c -0.179395,-0.290264 -0.298313,-0.281414 -0.495004,0.03684 -0.337383,0.545899 -0.0059,1.082237 0.411123,0.665208 0.176,-0.176 0.213744,-0.491921 0.08388,-0.702047 z m -36.63612,-4.614833 c 0,-0.509642 -0.580595,-0.984958 -0.860823,-0.70473 -0.263244,0.263245 0.147686,1.165844 0.53078,1.165844 0.181523,0 0.330043,-0.207501 0.330043,-0.461114 z m 38.434466,-2.84942 c 0.685043,-1.416586 1.245536,-2.745597 1.245536,-2.953356 0,-0.20776 0.216,-0.557009 0.48,-0.77611 0.264,-0.2191 0.48,-0.740733 0.48,-1.159182 0,-0.46295 -0.187926,-0.760818 -0.48,-0.760818 -0.264,0 -0.48,-0.1152 -0.48,-0.256 0,-0.460644 0.755197,-1.024 1.372708,-1.024 0.854806,0 1.806393,-1.266084 1.803833,-2.4 L 71.334305,9.7600006 70.8569,10.640001 c -0.262576,0.484 -0.750358,0.88 -1.083964,0.88 -0.917642,0 -2.017399,1.578024 -1.812778,2.601131 0.137248,0.686251 0.06457,0.824675 -0.374992,0.714214 -0.558432,-0.140351 -1.665162,1.395285 -1.665162,2.310588 0,0.249737 -0.117328,0.454067 -0.260733,0.454067 -0.501936,0 -1.339267,2.274234 -1.339267,3.637524 0,2.660898 0.941683,2.229683 2.594464,-1.188058 z m -41.507664,0.561657 c 0.258394,-0.673365 -0.02931,-1.091123 -0.751451,-1.091123 -0.715952,0 -1.057949,0.749403 -0.566345,1.241007 0.510185,0.510185 1.089801,0.44426 1.317796,-0.149884 z m 52.420132,-2.388822 c 1.267283,-1.267284 2.57792,-3.204117 2.333555,-3.448483 -0.217046,-0.217045 -2.678784,2.568556 -3.260038,3.688927 -0.51817,0.998772 -0.240733,0.92677 0.926483,-0.240444 z M 28.955914,17.286615 c 0.106527,-0.172363 0.03426,-0.611284 -0.160603,-0.975379 -0.261654,-0.488905 -0.537445,-0.60624 -1.054798,-0.448764 -0.921268,0.280425 -1.850217,1.11058 -1.63408,1.460296 0.235551,0.381129 2.610208,0.351 2.849481,-0.03615 z m -4.709246,-0.386614 c -0.197784,-0.593351 -0.886667,-0.691763 -0.886667,-0.126667 0,0.278667 0.228,0.506667 0.506667,0.506667 0.278667,0 0.449667,-0.171 0.38,-0.38 z m 82.256802,-1.963419 c 0.0569,-0.29512 -0.0317,-0.536581 -0.19685,-0.536581 -0.43179,0 -1.98661,1.27113 -1.98661,1.624143 0,0.511496 2.07436,-0.521722 2.18346,-1.087562 z M 5.2959309,9.3783558 C 5.8047904,8.8694962 5.7943437,8.8017039 5.123337,8.2583557 4.241054,7.5439262 3.7248214,7.5276296 3.169561,8.1966776 2.8019448,8.6396277 2.8470744,8.799445 3.4858297,9.3166777 4.4006806,10.057479 4.6096857,10.064601 5.2959309,9.3783558 Z M 23.601428,4.7200003 C 24.227766,4.0499081 24.48905,3.092389 24.36977,1.9042844 24.316485,1.373538 22.647348,0.64000004 21.49294,0.64000004 c -0.729916,0 -1.5861,0.40299216 -2.900396,1.36517106 -0.551079,0.4034373 -1.078277,0.5077132 -1.842272,0.364387 -0.853947,-0.1602015 -1.070271,-0.096568 -1.070271,0.314829 0,0.5417766 0.247317,0.6196579 1.671338,0.5263126 1.049906,-0.068822 2.739852,0.8683828 2.990637,1.6585377 0.276248,0.8703786 2.39718,0.7732698 3.259452,-0.1492371 z M 57.920004,159.71919 c 0,-0.33045 0.210422,-0.77545 0.467606,-0.9889 0.257184,-0.21344 0.562342,-0.69907 0.678131,-1.07918 0.258349,-0.84811 1.325239,-3.3705 1.745485,-4.12676 0.169827,-0.30561 0.308778,-0.84756 0.308778,-1.20434 0,-0.35678 0.141427,-0.89873 0.314285,-1.20434 0.172854,-0.30562 0.542908,-1.41966 0.822339,-2.47566 0.27943,-1.056 0.988038,-3.72 1.574685,-5.92 0.586643,-2.2 1.168246,-4.67936 1.292445,-5.50969 0.124201,-0.83033 0.414784,-1.66651 0.645734,-1.85819 0.334899,-0.27794 0.454563,-0.005 0.59105,1.34969 0.667798,6.62659 0.839462,9.97148 0.839462,16.35694 v 7.26125 h -4.64 c -4.325802,0 -4.64,-0.0407 -4.64,-0.60082 z m 21.278974,-9.55918 c 0.101113,-10.59086 0.471302,-17.25221 1.299158,-23.37773 l 0.488935,-3.61772 -0.764823,-0.90894 c -0.602541,-0.71608 -0.80296,-1.41318 -0.944553,-3.28536 -0.141156,-1.8664 -0.364464,-2.64617 -1.040506,-3.63333 -0.778243,-1.1364 -0.841418,-1.44102 -0.658864,-3.17692 0.111056,-1.056 0.286304,-2.78543 0.389443,-3.84318 l 0.187526,-1.92318 -1.628921,-1.58018 c -1.493524,-1.44884 -1.646493,-1.73547 -1.840288,-3.44839 -0.152938,-1.35178 -0.376487,-1.956571 -0.80872,-2.187896 -0.912704,-0.488464 -0.727239,-1.270637 0.798473,-3.367408 1.750653,-2.405914 2.382861,-2.812871 5.164167,-3.324237 2.527447,-0.464692 3.867642,-1.051175 4.671997,-2.044509 l 0.550327,-0.679626 1.228838,0.985082 c 0.675862,0.541792 1.814058,1.870937 2.529325,2.953654 1.270794,1.923626 1.309917,2.06681 1.713347,6.270826 0.227069,2.366234 0.314621,4.461194 0.194557,4.655464 -0.232531,0.37624 0.337661,6.6719 0.798237,8.81358 0.151398,0.704 0.359155,2 0.46168,2.88 0.358806,3.07967 0.728662,3.62207 3.260125,4.78101 1.877562,0.85958 2.119978,1.31955 0.933216,1.77076 l -0.778352,0.29593 0.88183,2.49615 c 0.485008,1.37288 1.282208,4.22415 1.771559,6.33615 0.489347,2.112 1.107472,4.704 1.373606,5.76 0.266138,1.056 0.550042,2.28 0.630903,2.72 0.0809,0.44 0.26092,1.088 0.40014,1.44 0.13923,0.352 0.42458,1.36 0.63412,2.24 0.20954,0.88 0.51678,1.648 0.68276,1.70666 0.16598,0.0587 0.30274,0.41867 0.3039,0.8 10e-4,0.38134 0.28821,1.12534 0.63789,1.65334 0.35136,0.53053 0.63672,1.50132 0.63789,2.17004 0.003,1.57245 0.49762,1.72451 2.31206,0.7104 1.2425,-0.69444 3.13005,-2.6019 3.13005,-3.16306 0,-0.38488 2.19058,-3.76214 2.44321,-3.76675 0.15223,-0.003 0.42562,-0.12857 0.60752,-0.27954 0.18253,-0.15148 0.52837,-0.15233 0.77179,-0.002 0.35963,0.22226 0.28014,0.6015 -0.43052,2.05404 -0.47937,0.97979 -1.18668,2.03689 -1.57179,2.3491 -1.09405,0.88695 -2.46021,2.64787 -2.46021,3.1711 0,0.26088 0.144,0.38534 0.32,0.27656 0.72631,-0.44888 0.22575,0.25302 -1.2693,1.77987 -1.39363,1.42328 -1.54174,1.69924 -1.20302,2.24162 0.21244,0.34018 0.71428,0.61851 1.11518,0.61851 1.11975,0 3.76309,-1.515 4.83705,-2.7723 0.93924,-1.09957 1.64009,-1.19783 1.64009,-0.22993 0,0.92213 0.50085,0.16186 0.5803,-0.88087 0.088,-1.1546 0.48117,-1.55412 1.31492,-1.3361 0.34146,0.0893 1.25269,-0.51172 2.44458,-1.61236 1.04511,-0.9651 1.94786,-1.70714 2.00612,-1.64899 0.19911,0.19876 -0.63775,1.49608 -1.78227,2.76293 -0.82896,0.91755 -1.04707,1.3622 -0.7929,1.61638 0.25418,0.25417 0.62679,0.11826 1.35449,-0.49406 0.55212,-0.46458 1.21388,-0.8447 1.47057,-0.8447 0.73366,0 0.0588,0.97562 -1.43885,2.08 -0.71601,0.528 -1.30982,1.176 -1.31958,1.44 -0.0136,0.3693 -0.12533,0.33779 -0.48425,-0.13664 -0.52233,-0.6904 -0.61891,-0.6515 -0.93494,0.37664 -0.16432,0.53456 -0.0921,0.72 0.28024,0.72 1.46056,0 0.003,1.56147 -3.52645,3.77771 l -1.62801,1.02232 h -16.021004 -16.021 z m 34.081032,6.8 c 0,-0.264 -0.216,-0.48 -0.48,-0.48 -0.264,0 -0.48,0.216 -0.48,0.48 0,0.264 0.216,0.48 0.48,0.48 0.264,0 0.48,-0.216 0.48,-0.48 z m 0.96,-2.25889 c 0,-0.25361 -0.144,-0.46111 -0.32,-0.46111 -0.176,0 -0.32,0.2965 -0.32,0.65889 0,0.36238 0.144,0.56988 0.32,0.46111 0.176,-0.10877 0.32,-0.40527 0.32,-0.65889 z m 2.78266,4.69262 c 2.24862,-1.6289 4.26334,-2.44046 4.25437,-1.71373 -0.005,0.38898 -4.16462,2.64 -4.87865,2.64 -0.51543,0 -0.38286,-0.19671 0.62428,-0.92627 z m 6.17734,-3.67949 c 0,-0.0692 0.216,-0.20865 0.48,-0.30996 0.264,-0.10131 0.48,-0.0447 0.48,0.12576 0,0.17048 -0.216,0.30996 -0.48,0.30996 -0.264,0 -0.48,-0.0566 -0.48,-0.12576 z m 1.28,-0.81535 c 0,-0.16562 0.144,-0.39012 0.32,-0.49889 0.176,-0.10877 0.32,0.0267 0.32,0.30111 0,0.27439 -0.144,0.49889 -0.32,0.49889 -0.176,0 -0.32,-0.1355 -0.32,-0.30111 z m -11.84,-14.42379 c -0.42667,-0.28009 -0.42667,-0.35011 0,-0.6302 0.69123,-0.45377 0.82285,-0.40337 0.82285,0.3151 0,0.71846 -0.13162,0.76887 -0.82285,0.3151 z m 1.28,-1.9151 c 0.6204,-0.40094 0.96,-0.40094 0.96,0 0,0.176 -0.324,0.31779 -0.72,0.3151 -0.58222,-0.004 -0.62815,-0.0643 -0.24,-0.3151 z m -13.56577,-33.78618 c -0.10683,-0.27839 -0.19423,-0.7893 -0.19423,-1.13534 0,-0.34605 -0.361607,-0.94628 -0.803565,-1.33383 l -0.803562,-0.70465 0.563562,-1.676545 c 0.309958,-0.922096 0.706243,-1.630534 0.880627,-1.57431 0.711848,0.229514 1.492898,2.179235 1.523138,3.802145 0.0468,2.5141 -0.62645,4.0285 -1.16597,2.62253 z M 90.167263,86.627423 c -1.360006,-0.917082 -2.476006,-1.745415 -2.48,-1.840746 -0.004,-0.09533 0.478995,-0.393728 1.073303,-0.663104 l 1.080563,-0.489773 1.308486,1.691114 c 0.895418,1.157261 1.640253,1.777085 2.359437,1.963447 1.313479,0.340355 1.362813,0.849744 0.09095,0.939062 -0.696832,0.04894 -1.637863,-0.38968 -3.432743,-1.6 z m 6.527671,0.492582 c 0.05955,-0.132 0.317235,-0.782102 0.572643,-1.444675 0.506295,-1.313408 1.06906,-1.419427 1.242061,-0.233987 0.0727,0.498118 -0.142928,0.945475 -0.64,1.327821 -0.774154,0.595472 -1.364605,0.771821 -1.174704,0.350841 z M 76.20172,86.752559 c -0.321133,-0.203434 -0.133917,-0.378099 0.700403,-0.653453 0.940093,-0.310256 1.309546,-0.287449 2.118288,0.130768 0.538778,0.278611 0.979594,0.574867 0.979594,0.658349 0,0.270285 -3.346131,0.150768 -3.798285,-0.135664 z M 93.29815,68.728801 c -0.661872,-0.944957 -0.628605,-1.293373 0.171197,-1.792858 0.57528,-0.359267 0.731241,-0.336358 1.109824,0.163024 0.49056,0.647095 0.55423,1.085309 0.266598,1.834864 -0.275578,0.718141 -0.964976,0.62681 -1.547619,-0.20503 z m 0.141856,-4.408797 c -0.310061,-0.579354 -0.242903,-0.640413 0.708742,-0.644368 0.578192,-0.0026 1.411258,-0.0823 1.851258,-0.177555 0.643344,-0.139271 0.603872,-0.08194 -0.201584,0.292771 -0.550874,0.256272 -1.09937,0.624173 -1.218887,0.817552 -0.328931,0.532224 -0.758534,0.423498 -1.139529,-0.2884 z M 80.960005,63.079185 c 0,-0.510061 0.869709,-1.013741 1.39944,-0.810464 0.660599,0.253494 0.666906,0.646653 0.0144,0.897046 -0.73089,0.280464 -1.41384,0.238643 -1.41384,-0.08658 z m 8.335277,-4.662919 -0.736281,-0.783738 0.920502,-0.205001 c 2.02378,-0.450711 3.059421,-0.877527 3.639156,-1.499796 l 0.607881,-0.652486 0.215869,0.860096 c 0.163555,0.651651 0.03776,1.04968 -0.519046,1.642378 -0.404205,0.430256 -0.989319,0.782285 -1.300253,0.782285 -0.310931,0 -0.65433,0.144 -0.763104,0.32 -0.346458,0.560579 -1.304599,0.345379 -2.064724,-0.463738 z m 0.685594,-6.675284 c -0.435984,-0.54295 -0.08102,-2.460979 0.45545,-2.460979 0.244022,0 0.445644,0.252 0.448048,0.56 0.0026,0.308 0.08601,0.864141 0.185782,1.235869 0.208803,0.77791 -0.60144,1.27264 -1.08928,0.66511 z m 8.409197,-35.437051 c -0.304067,-0.491995 0.112432,-0.80943 0.523149,-0.398714 0.229818,0.229817 0.235338,0.408808 0.01677,0.543886 -0.179174,0.110736 -0.422141,0.04541 -0.539926,-0.145172 z"
     style="fill:#515151;stroke-width:0.32000002" />
</svg>
