<svg
   xmlns="http://www.w3.org/2000/svg"
   viewBox="0 0 80 80"
   height="80"
   width="80">
  <path
     d="m 10.547939,79.411162 c 0.794463,-0.426077 1.222905,-0.963696 1.549998,-1.944973 l 0.452043,-1.356131 2.28501,0.199462 c 2.704189,0.236051 3.918831,0.516138 6.28501,1.449261 2.348175,0.926025 2.700496,0.936163 2.822101,0.08122 0.05633,-0.396 0.219609,-0.72 0.362851,-0.72 0.143241,0 0.339207,-0.324 0.435479,-0.72 0.09627,-0.396 0.312018,-1.25168 0.479435,-1.90151 0.292754,-1.136327 0.264222,-1.20057 -0.746097,-1.68 C 23.271682,72.248064 22.20817,72.173731 21.92,72.64 c -0.228402,0.369562 -1.758916,0.439043 -1.762187,0.08 -0.0029,-0.320864 -2.018257,-1.68 -2.491111,-1.68 -0.205532,0 -0.671127,0.583014 -1.034656,1.29559 -0.76385,1.497271 -1.266802,1.780992 -2.236846,1.26184 -0.996968,-0.533561 -2.095447,-0.147372 -2.524051,0.88737 -0.203427,0.491117 -0.640817,1.06215 -0.971978,1.268963 -0.504336,0.314963 -0.736652,0.241482 -1.4306404,-0.452505 C 9.0128387,74.845565 8.64,74.35865 8.64,74.219219 8.64,74.079792 8.4139997,73.739715 8.1377773,73.463491 7.7666442,73.092358 7.4797942,73.04463 7.0388144,73.280634 6.1094883,73.777994 5.9068493,73.686304 4.9801978,72.349146 4.2155475,71.245754 3.5401677,69.12 3.9542566,69.12 c 0.083976,0 0.7766224,0.266262 1.5392138,0.591693 1.2800534,0.546253 2.409504,0.830179 4.9065296,1.233427 1.521265,0.24567 1.42075,0.483024 -0.156869,0.370429 -1.145666,-0.08176 -1.4579787,0.0071 -1.5410248,0.438285 -0.1355939,0.704083 0.8699933,2.815545 1.4462138,3.036662 0.742335,0.284861 1.753728,-1.110957 1.805014,-2.491085 0.02567,-0.690685 0.208666,-1.256605 0.406666,-1.2576 0.198,-9.6e-4 0.846,-0.0834 1.44,-0.183113 0.948756,-0.159271 1.002225,-0.134093 0.44,0.207193 -0.352,0.213674 -0.699117,0.438375 -0.771372,0.499341 -0.248436,0.209619 1.030965,1.394768 1.50569,1.394768 0.26132,0 0.666422,-0.252 0.900227,-0.56 0.503614,-0.663427 0.579527,-1.68 0.125455,-1.68 -0.176,0 -0.32,-0.144 -0.32,-0.32 0,-0.176 0.26858,-0.32 0.596845,-0.32 0.764041,0 2.283155,-1.186483 2.283155,-1.783226 0,-0.251225 0.144,-0.456774 0.32,-0.456774 0.487628,0 0.381541,1.001603 -0.170722,1.61185 -0.44621,0.493052 -0.397328,0.647731 0.538879,1.705196 1.277551,1.443018 2.206171,1.49426 3.235863,0.178557 l 0.770405,-0.984393 0.540164,0.824393 c 0.912239,1.392253 2.755438,0.95136 3.36792,-0.805606 0.417311,-1.197101 0.206384,-1.66673 -0.629439,-1.40145 -0.995141,0.315847 -0.717134,-0.567757 0.43246,-1.374509 0.853021,-0.598624 1.052618,-0.64072 1.137934,-0.24 0.169406,0.79569 0.620163,0.550708 0.466429,-0.2535 -0.08304,-0.434375 0.07032,-0.915136 0.3717,-1.165261 0.442185,-0.366983 0.483503,-0.348781 0.299103,0.131757 -0.432602,1.127344 1.493539,1.353449 2.286906,0.268454 0.282661,-0.386563 0.466647,-0.380157 1.281227,0.0446 0.61511,0.320739 1.813257,0.496672 3.391171,0.497946 l 2.44,0.0019 0.256115,1.04 c 0.140861,0.572 0.295453,1.328 0.343536,1.68 0.04808,0.352 0.155815,0.928 0.239402,1.28 0.08359,0.352 0.162998,0.748 0.176464,0.88 0.04936,0.483865 0.658825,0.218169 1.445408,-0.630125 0.527389,-0.568765 0.698118,-0.978832 0.49295,-1.184 C 41.421245,69.773245 41.28,69.131024 41.28,68.518717 c 0,-0.966231 -0.317011,-1.419181 -2.4,-3.429143 -1.32,-1.273721 -2.4,-2.38478 -2.4,-2.469017 0,-0.08424 0.468,-0.0566 1.04,0.06141 0.572,0.118012 2.264,0.138848 3.76,0.0463 2.681875,-0.165904 2.721418,-0.180595 2.821254,-1.048262 l 0.101255,-0.88 h -2.154586 c -2.605203,0 -2.518009,-0.385718 0.09967,-0.440931 L 44,60.32 44.217606,58.347414 c 0.119684,-1.084921 0.443684,-2.409769 0.72,-2.944108 0.57017,-1.102586 0.650989,-2.810807 0.190314,-4.022474 -0.389504,-1.024474 -0.710256,-1.029069 -1.792925,-0.0257 l -0.857981,0.795149 0.681492,1.584173 c 1.031267,2.397238 0.871315,3.37198 -0.857476,5.225529 -0.673014,0.721584 -1.094726,0.88 -2.342608,0.88 -0.938019,0 -1.930784,-0.241283 -2.58783,-0.62895 -1.23608,-0.729306 -2.372794,-0.566314 -2.674237,0.383453 -0.278627,0.877868 0.310922,1.18351 2.423645,1.256502 1.580781,0.05461 1.623558,0.07318 0.420109,0.182317 -0.914935,0.08297 -1.371642,0.285827 -1.44,0.639603 -0.07827,0.405056 -0.327015,0.291158 -1.140109,-0.522032 -0.572,-0.572067 -1.04,-1.157824 -1.04,-1.30168 0,-0.339142 3.653539,-4.019968 6.893421,-6.944902 l 2.542883,-2.29569 -0.658678,-0.90431 c -1.255232,-1.723332 -1.310599,-1.915136 -0.376509,-1.304311 0.471001,0.308 0.915744,0.56 0.988317,0.56 0.07257,0 0.06125,-0.627232 -0.02515,-1.393846 -0.08641,-0.766615 6.4e-4,-2.129603 0.193539,-3.028858 0.4244,-1.978905 0.276339,-2.442659 -0.940813,-2.946819 -0.92687,-0.383923 -1.224195,-1.055213 -0.630022,-1.422432 0.168841,-0.104349 0.592787,-0.01123 0.942099,0.206909 0.529264,0.330531 0.742032,0.299881 1.276608,-0.183904 0.427104,-0.386522 1.197347,-0.595667 2.304723,-0.625795 2.149827,-0.05849 2.459802,0.596569 0.42657,0.901472 l -1.49074,0.223548 0.182749,1.334864 c 0.100512,0.734173 0.07593,1.073466 -0.05463,0.753984 -0.229328,-0.561168 -0.254621,-0.561168 -0.745415,0 -1.292944,1.47833 -1.530131,5.586976 -0.377744,6.54337 0.865908,0.71864 1.708903,2.791616 1.70177,4.184758 -0.0039,0.755012 -0.291866,2.000474 -0.64,2.767693 -0.784797,1.729536 -0.836515,4.77368 -0.116982,6.885395 0.568908,1.669652 0.327318,2.366135 -0.43,1.239661 C 43.794067,62.775824 42.24,63.976346 42.24,66.444035 c 0,2.529178 1.211533,3.468186 5.160419,3.999623 2.285952,0.307641 3.601383,0.269286 6.234327,-0.181773 0.998976,-0.171139 1.669648,0.331072 0.807536,0.604694 C 54.067027,70.985683 53.76,71.280925 53.76,71.522678 c 0,0.791357 0.580934,0.821504 1.389539,0.07211 0.610109,-0.56543 0.721773,-0.864297 0.482602,-1.291673 -0.442611,-0.790906 -0.04303,-1.765072 0.77231,-1.882842 0.856263,-0.123686 1.363533,-1.664512 1.067501,-3.242505 -0.249165,-1.328151 -1.17504,-1.716247 -1.97792,-0.829076 -0.514106,0.56808 -0.502835,0.613876 0.216563,0.88 l 0.758893,0.280733 -0.714742,0.226851 C 55.361635,65.861046 55.04,66.082019 55.04,66.227328 c 0,0.145309 -0.223478,0.349955 -0.496621,0.454771 -0.273139,0.104813 -0.416243,0.06052 -0.318006,-0.09843 0.09824,-0.158953 0.04167,-0.337302 -0.125706,-0.396336 C 53.932291,66.128298 53.662182,64.352 53.499421,62.24 c -0.162762,-2.112 -0.443133,-4.288714 -0.623047,-4.837146 -0.522915,-1.593993 0.03202,-1.889667 0.841952,-0.448592 0.476237,0.847351 0.780362,2.061021 0.90256,3.601856 0.239143,3.015399 0.461866,3.434679 1.214404,2.28616 0.554723,-0.846611 0.742812,-3.605772 0.29518,-4.330057 -0.09612,-0.15553 -0.2399,-0.676403 -0.31951,-1.157501 -0.108858,-0.657853 -0.06601,-0.755715 0.172813,-0.39472 0.174653,0.264 0.414237,1.128 0.532406,1.92 0.282775,1.895226 0.918631,3.669213 1.717085,4.790541 0.355706,0.499542 0.646736,1.378688 0.646736,1.953661 0,0.574972 0.220093,1.288604 0.489094,1.585849 0.368567,0.407261 0.413012,0.740563 0.180349,1.352509 -0.413616,1.087894 -0.518121,4.230246 -0.197747,5.94615 l 0.259283,1.388708 -1.885491,-0.268708 C 56.68847,75.480918 52.24,75.373386 47.84,75.389747 c -6.837216,0.02544 -8.503446,0.130285 -11.463741,0.721447 -4.55649,0.90992 -5.62261,1.508268 -5.646082,3.168806 -0.01378,0.975059 -0.532315,0.913165 -0.785022,-0.0937 C 29.83283,78.738762 29.518413,78.28721 29.246449,78.182845 28.82322,78.020438 26.845673,78.715702 24.884342,79.716474 24.57873,79.872413 23.042741,80 21.471032,80 18.74702,80 18.584434,79.96026 17.994405,79.150285 17.482585,78.447667 17.062474,78.274614 15.567642,78.150653 l -1.807789,-0.149917 -0.199927,0.999632 C 13.362204,79.988979 13.338447,80 11.404993,80 H 9.449985 Z M 28.347614,76.91248 c 0.442804,-0.290134 1.034414,-0.97097 1.314689,-1.51296 0.497026,-0.961142 0.516094,-0.967862 0.773332,-0.27248 0.307061,0.830064 1.681466,0.973414 2.693162,0.280896 0.347161,-0.237638 1.189062,-0.519482 1.870893,-0.626323 1.972176,-0.309037 2.403238,-0.901079 2.214608,-3.041651 -0.258989,-2.938935 -0.463431,-3.101504 -3.887108,-3.09098 -3.323755,0.01021 -3.369249,0.03611 -4.770831,2.715812 -0.507678,0.970636 -1.157267,2.122636 -1.443532,2.56 -0.286264,0.437363 -0.618163,1.407206 -0.737552,2.155206 -0.199153,1.247731 -0.159935,1.36 0.475085,1.36 0.380686,0 1.054451,-0.237382 1.497254,-0.52752 z M 30.72,73.340339 c 0,-0.372598 1.314595,-1.732409 1.497744,-1.549261 C 32.428128,72.001462 31.354836,73.6 31.003197,73.6 30.847439,73.6 30.72,73.483152 30.72,73.340339 Z m 26.667834,-0.962694 c 0.460876,-0.509264 0.469804,-0.659875 0.07114,-1.2 C 56.923809,70.452589 56.4733,70.762669 56.147956,72.08 c -0.260125,1.053261 0.410387,1.214224 1.239882,0.297645 z M 7.0366179,72.164074 C 7.6057664,71.478294 7.1927309,70.72 6.2500432,70.72 5.3645898,70.72 5.1308163,71.562816 5.824,72.256 c 0.5019766,0.501978 0.7343427,0.484362 1.2126179,-0.09193 z m 36.3406141,0.128044 c 0.118253,-0.191337 0.05315,-0.509737 -0.144669,-0.707555 C 42.96633,71.31833 42.689069,71.40871 42.165334,71.932445 L 41.457779,72.64 h 0.852224 c 0.468723,0 0.948976,-0.156547 1.067229,-0.347882 z M 46.24,72 c 0.108774,-0.176 -0.107226,-0.32 -0.48,-0.32 -0.372774,0 -0.588774,0.144 -0.48,0.32 0.108774,0.176 0.324774,0.32 0.48,0.32 0.155226,0 0.371226,-0.144 0.48,-0.32 z m -4.816685,-6.48 c 0.581949,-1.888986 0.527917,-2.071194 -0.671907,-2.265898 -0.731178,-0.118652 -1.384982,-0.03075 -1.768294,0.237725 -0.57658,0.403853 -0.545178,0.477447 0.604352,1.416349 1.344121,1.09784 1.654278,1.201206 1.835849,0.611824 z m -0.694121,-7.573078 c 0.423974,-0.161197 0.948694,-0.722407 1.166044,-1.24714 0.32896,-0.794182 0.3101,-1.118595 -0.11255,-1.93591 -0.333075,-0.644096 -0.671987,-0.918819 -0.985213,-0.798624 -0.572704,0.219766 -0.57087,0.199658 -0.110429,1.210218 0.55561,1.21943 -0.142784,1.902192 -1.692291,1.654416 -1.429872,-0.228647 -1.842201,0.212492 -0.848905,0.908224 0.818697,0.573436 1.483065,0.627139 2.583344,0.208816 z M 71.37777,79.541411 c -0.303492,-0.365686 -0.234448,-0.604733 0.340819,-1.18 0.461043,-0.461043 0.767126,-0.584262 0.848077,-0.341411 0.06967,0.208998 0.264688,0.38 0.433382,0.38 0.168691,0 0.615843,0.288 0.99367,0.64 1.113271,1.037168 1.725277,0.818816 2.122106,-0.757126 0.32248,-1.280692 0.452323,-1.413741 1.557987,-1.596477 C 79.724861,76.347411 80,76.413917 80,77.248694 c 0,0.566407 -0.252634,0.856768 -0.96,1.103357 -0.646054,0.225213 -0.96,0.549399 -0.96,0.991303 C 78.08,79.961229 77.893376,80 74.919181,80 72.565542,80 71.661171,79.88289 71.37777,79.541411 Z M 62.08,75.84 c 0,-0.176 0.144,-0.32 0.32,-0.32 0.176,0 0.32,0.144 0.32,0.32 0,0.176 -0.144,0.32 -0.32,0.32 -0.176,0 -0.32,-0.144 -0.32,-0.32 z M 24,70.08 c 0,-0.176 0.144,-0.32 0.32,-0.32 0.176,0 0.32,0.144 0.32,0.32 0,0.176 -0.144,0.32 -0.32,0.32 C 24.144,70.4 24,70.256 24,70.08 Z m 43.2,-1.12 c 0,-0.264 -0.252,-0.496096 -0.56,-0.51577 -3.420205,-0.21847 -4.122694,-0.762672 -1.254237,-0.971628 1.481501,-0.10792 1.564,-0.06937 1.984551,0.927398 0.241334,0.572 0.301744,1.04 0.13424,1.04 C 67.33705,69.44 67.2,69.224 67.2,68.96 Z M 54.573667,67.862112 c -0.310083,-0.501722 0.279847,-0.62359 0.718951,-0.148525 0.338905,0.366666 0.327987,0.446413 -0.06112,0.446413 -0.260551,0 -0.556576,-0.134051 -0.657834,-0.297888 z M 18.756826,67.259584 C 18.516622,66.870928 18.842114,65.92 19.215351,65.92 c 0.549261,0 0.683288,0.718506 0.220377,1.181414 -0.297069,0.297069 -0.555803,0.357351 -0.678902,0.15817 z M 47.36,66.54425 c -2.950067,-0.25418 -4.16,-0.539671 -4.16,-0.981572 0,-0.373171 0.170522,-0.35815 2.24,0.197322 0.968,0.259821 2.513258,0.474112 3.433904,0.476202 1.880464,0.0043 1.905907,-0.03244 2.104797,-3.036202 0.07633,-1.152848 0.122061,-0.91648 0.163619,0.845763 0.04648,1.971005 -0.04058,2.483469 -0.448493,2.64 -0.278393,0.106832 -0.530393,0.171424 -0.56,0.143539 C 50.104227,66.80143 48.856,66.673146 47.36,66.54425 Z M 29.76,65.28 c 0,-0.176 0.224499,-0.32 0.498885,-0.32 0.274387,0 0.409889,0.144 0.301115,0.32 -0.108774,0.176 -0.333272,0.32 -0.498885,0.32 C 29.895501,65.6 29.76,65.456 29.76,65.28 Z M 18.368754,64.513965 c -0.31998,-0.833856 -1.862884,-1.531139 -2.340111,-1.057568 -0.301268,0.298963 -0.33952,0.260041 -0.173365,-0.176397 0.224058,-0.588534 0.531972,-0.662208 1.584829,-0.3792 0.613591,0.164931 1.593416,1.692342 1.284071,2.00169 -0.08201,0.08201 -0.241953,-0.09282 -0.355424,-0.388525 z M 25.28,61.12 c 0,-0.176 0.152499,-0.32 0.338885,-0.32 0.186387,0 0.249889,0.144 0.141115,0.32 -0.108774,0.176 -0.261272,0.32 -0.338885,0.32 C 25.343501,61.44 25.28,61.296 25.28,61.12 Z m 0.96,-0.933827 c 0,-0.161607 -0.08376,-0.557607 -0.186123,-0.88 -0.170317,-0.536391 -0.143141,-0.533421 0.32,0.03499 C 26.953474,60.052496 27.023342,60.48 26.56,60.48 c -0.176,0 -0.32,-0.132224 -0.32,-0.293827 z M 21.6,59.922598 C 19.433733,59.588237 18.506601,59.05856 17.903824,57.810957 17.298449,56.557974 17.319468,54.08 17.935473,54.08 c 0.139522,0 0.348559,-0.432 0.464527,-0.96 0.252631,-1.150221 0.377582,-1.175398 1.191172,-0.24 0.599971,0.689798 0.601546,0.724909 0.03753,0.837018 -0.82252,0.163494 -1.058149,0.64046 -1.063806,2.153385 -0.0063,1.672663 0.721424,2.369597 2.474125,2.369597 1.646511,0 2.32597,-0.25464 2.118954,-0.794115 -0.287043,-0.748023 0.478812,-0.849095 1.173091,-0.154816 l 0.674414,0.674416 -0.711705,0.617257 C 23.902341,58.922234 23.470393,59.2 23.333894,59.2 c -0.136499,0 -0.438466,0.18481 -0.671037,0.410691 C 22.430286,59.83657 21.952,59.976928 21.6,59.922598 Z M 20.455516,56.56 c -0.197728,-0.646074 -0.203685,-1.392493 -0.01518,-1.90207 0.219339,-0.592928 0.31683,-0.563127 1.562598,0.477683 l 1.328664,1.110067 -0.985799,0.197162 C 21.323182,56.647363 20.497908,56.698515 20.455516,56.56 Z M 29.92,54.72 c -0.108774,-0.176 0.107226,-0.32 0.48,-0.32 0.372774,0 0.588774,0.144 0.48,0.32 -0.108774,0.176 -0.324774,0.32 -0.48,0.32 -0.155226,0 -0.371226,-0.144 -0.48,-0.32 z m -2.258335,-2.053837 c -0.341363,-0.249609 -0.536002,-0.538493 -0.432533,-0.641961 0.103469,-0.103469 0.44956,0.100758 0.769093,0.453836 0.679819,0.751191 0.540204,0.829232 -0.33656,0.188125 z M 33.2,52.139376 c 0.396,-0.451344 0.72,-1.058826 0.72,-1.349958 0,-0.322036 0.175299,-0.462061 0.447632,-0.357559 0.246198,0.09447 0.542694,0.01795 0.658886,-0.170045 C 35.142707,50.073818 35.407802,49.92 35.615616,49.92 c 0.350941,0 -0.38711,0.750013 -2.335616,2.373459 L 32.48,52.96 Z M 52.028595,51.68 c -0.110435,-0.44 -0.405545,-0.8 -0.655808,-0.8 -0.633149,0 -0.955549,-0.625238 -0.537808,-1.042979 0.249623,-0.249623 -0.05504,-1.109635 -1.083881,-3.059683 C 48.007654,43.472861 47.956531,42.955594 49.36,42.820275 L 50.4,42.72 50.47415,40.709888 c 0.04078,-1.105565 0.220784,-2.284096 0.4,-2.618963 C 51.05337,37.756058 51.2,35.957389 51.2,34.093888 V 30.7057 l 1.288371,-1.397717 c 0.708605,-0.768744 1.572605,-1.472045 1.92,-1.562892 0.58656,-0.153389 0.631629,0.0028 0.631629,2.188582 0,2.304212 0.02307,2.371354 1.096176,3.18985 1.779267,1.357114 2.239005,2.306483 2.477686,5.116477 0.119597,1.408 0.316749,3.028 0.438112,3.6 0.275408,1.298003 -0.102774,1.321258 -1.29247,0.07948 -0.90289,-0.942416 -0.912544,-0.990509 -0.512374,-2.551891 0.561212,-2.189735 0.06445,-3.572682 -1.937879,-5.3949 C 54.452045,33.192595 53.665174,32.213606 53.560656,31.797165 53.456134,31.380724 53.246253,31.04 53.09425,31.04 c -0.488621,0 -1.301536,3.422525 -1.085914,4.571891 0.112074,0.597411 0.03794,1.702077 -0.164755,2.45481 -0.61881,2.298086 -0.499063,3.07167 0.758032,4.896915 1.227571,1.782381 1.72064,3.58881 1.194377,4.375808 -0.263219,0.393632 -0.384217,0.395514 -0.844937,0.01315 -0.295751,-0.245451 -0.663159,-0.77619 -0.816467,-1.179422 C 51.856746,45.442384 51.2,45.152054 51.2,45.76 c 0,0.176 0.144,0.32 0.32,0.32 0.176,0 0.32217,0.252 0.324819,0.56 0.0026,0.308 0.21233,1.136 0.465952,1.84 0.514247,1.427418 0.645395,4 0.20392,4 -0.156921,0 -0.375664,-0.36 -0.486096,-0.8 z M 25.19673,50.38705 C 24.714529,49.939926 24.32,49.480986 24.32,49.367181 c 0,-0.113805 0.432,0.206963 0.96,0.712819 0.882131,0.845136 1.097294,1.12 0.87673,1.12 -0.0458,0 -0.477798,-0.365827 -0.96,-0.81295 z M 36.596845,48.936774 C 37.060579,48.572 37.44,48.068 37.44,47.816774 37.44,47.559734 37.747302,47.36 38.142774,47.36 c 0.650788,0 0.622474,0.08285 -0.382774,1.12 -0.59705,0.616 -1.292717,1.12 -1.54593,1.12 -0.277385,0 -0.125235,-0.263622 0.382775,-0.663226 z M 22.406418,47.847734 C 22.154018,47.54361 22.129742,47.36 22.341932,47.36 c 0.386738,0 0.837631,0.607104 0.615712,0.829024 -0.08054,0.08054 -0.328596,-0.07304 -0.551226,-0.34129 z M 39.28,46.82807 c 0.22,-0.08877 0.58,-0.08877 0.8,0 0.22,0.08877 0.04,0.161405 -0.4,0.161405 -0.44,0 -0.62,-0.07263 -0.4,-0.161405 z M 32.524278,45.92 c -0.101305,-0.264 -0.04471,-0.48 0.125764,-0.48 0.170476,0 0.309958,0.216 0.309958,0.48 0,0.264 -0.0566,0.48 -0.125763,0.48 -0.06917,0 -0.20865,-0.216 -0.309959,-0.48 z M 35.14,42.661405 c 0.230998,-0.09244 0.506998,-0.08107 0.613334,0.02525 0.106333,0.106333 -0.08267,0.181965 -0.42,0.16807 C 34.96055,42.839363 34.884726,42.763542 35.14,42.661392 Z M 36,39.257011 c -1.056,-0.181539 -2.012848,-0.468614 -2.12633,-0.637945 -0.187683,-0.280055 -5.09162,-0.148199 -7.377021,0.198355 -0.564524,0.0856 -0.927101,-0.03521 -1.047532,-0.349053 -0.219594,-0.572253 0.09087,-0.982186 0.408282,-0.539101 C 26.209005,38.42008 34.88,38.334291 34.88,37.84 c 0,-0.22 0.160794,-0.4 0.357322,-0.4 0.199776,0 0.283529,0.282179 0.189958,0.64 -0.142272,0.544051 -0.0098,0.64 0.883494,0.64 0.577975,0 1.230125,0.216 1.449226,0.48 0.219101,0.264 0.344733,0.459094 0.279181,0.433542 C 37.973632,39.60799 37.056,39.43855 36,39.257011 Z M 35.274899,36.16 35.36,35.04 37.640688,34.94677 c 1.798989,-0.07354 2.319834,0.0088 2.466026,0.389754 0.214489,0.55895 -0.283892,0.99345 -0.583488,0.508691 -0.230087,-0.372285 -2.70818,-0.433897 -3.230573,-0.08032 C 36.10161,35.894205 35.775315,36.288 35.567552,36.64 35.2328,37.207149 35.199488,37.152512 35.274899,36.16 Z M 15.68,32.47025 C 15.416,32.41105 14.696,32.280992 14.08,32.181229 12.192348,31.875512 10.628618,30.087502 10.099718,27.630068 9.8264778,26.360504 7.6411354,24.807018 6.2714221,24.908661 4.9115123,25.009577 3.4030896,24.420835 2.5716937,23.464646 1.9566378,22.757269 1.8705415,22.384899 2.0234782,21.093588 2.1678641,19.874475 2.0778168,19.400127 1.582454,18.770375 1.146527,18.216184 0.9569503,17.46677 0.94982291,16.269527 c -0.005911,-0.99299 -0.20710022,-1.969883 -0.48,-2.330689 C -0.1288275,13.147352 -0.12572344,12.8 0.48,12.8 c 0.29973859,0 0.49636557,-0.330479 0.5235783,-0.88 0.035598,-0.718861 0.068414,-0.752414 0.179211,-0.183239 0.074598,0.383219 0.3374736,0.864275 0.5841679,1.069013 0.346032,0.287181 0.4052328,0.933784 0.2590521,2.829418 -0.1571483,2.037857 -0.1004501,2.531057 0.3322538,2.89017 C 2.7280311,18.832242 2.88,19.485485 2.88,20.768065 c 0,1.479876 0.1312228,1.922584 0.72,2.429073 0.8974048,0.771982 4.1861702,1.028422 5.3347299,0.415973 C 9.8611654,23.119106 10.176486,22.4 9.4666666,22.4 9.1704138,22.4 8.96,22.129539 8.96,21.748741 8.96,21.196643 9.0574464,21.149634 9.6,21.44 c 0.3898592,0.208646 0.64,0.221475 0.64,0.03282 0,-0.610448 1.271515,-0.727022 1.830696,-0.167841 0.700814,0.700814 2.93159,1.718848 3.786474,1.72799 0.80724,0.0086 3.98283,-1.53944 3.98283,-1.941595 0,-0.473204 1.023577,-0.333033 1.639691,0.224543 0.532442,0.481853 0.584362,0.455442 0.786304,-0.4 0.246002,-1.042088 1.299926,-2.922786 2.037533,-3.63592 0.273204,-0.26414 0.547163,-1.184275 0.609192,-2.04607 0.062,-0.861338 0.385458,-2.013338 0.718804,-2.56 0.333346,-0.546661 0.606622,-1.17393 0.60728,-1.39393 0.0021,-0.709613 -0.961197,-0.424862 -1.334511,0.394472 l -0.361985,0.794472 -0.431154,-0.83105 C 23.53962,10.536262 23.567327,10.24 24.241884,10.24 c 0.689523,0 1.480498,-1.6700947 1.282219,-2.7073254 -0.100216,-0.5242461 -0.01805,-0.705842 0.269466,-0.5955136 0.41073,0.1576118 1.136928,-1.7143975 0.860275,-2.2176343 C 26.484816,4.412063 24.983427,5.491271 24.970056,5.9298438 24.964526,6.1112582 24.564,6.4251661 24.08,6.627417 22.917057,7.1133805 21.337129,8.0799181 21.051719,8.48 20.914617,8.6721862 18.486156,8.8071152 14.971719,8.8178141 11.753273,8.8276115 9.372,8.7810528 9.68,8.7143501 10.487339,8.5395072 10.372489,8.245464 9.2135014,7.52 8.651153,7.168 7.9628256,6.736 7.6838854,6.56 7.404945,6.384 6.757704,5.8498173 6.2455722,5.3729274 5.5467482,4.7221926 5.2103274,4.5922467 4.8972115,4.8521098 4.4229334,5.2457258 4.3496237,4.8613642 4.7718134,4.1946499 5.004577,3.8270742 5.2182477,3.8663782 5.9953338,4.4197123 6.5131629,4.788439 7.1314358,5.3245971 7.3692742,5.6111747 7.6071123,5.8977523 8.6595216,6.565248 9.707961,7.0944986 c 1.827601,0.9225696 2.087177,0.9637504 6.291127,0.9980601 l 4.384873,0.035787 1.624006,-1.0421219 C 22.90117,6.5130566 24.182779,5.4763066 24.855987,4.782335 26.299081,3.2947299 26.70596,3.2268429 27.30672,4.3734352 27.676907,5.0799629 27.684944,5.4881942 27.353409,6.744984 27.13315,7.5799466 26.838087,8.4489309 26.697713,8.6760608 26.364355,9.2154454 26.507685,11.593123 26.897121,11.984 27.087791,12.175375 27.2,11.749179 27.2,10.833596 27.2,9.7855894 27.378832,9.217351 27.84,8.8 c 0.397013,-0.3592918 0.64,-0.9855894 0.64,-1.6495962 0,-1.2782838 0.390473,-1.3490217 1.472701,-0.2667939 0.665192,0.665192 0.798215,1.092361 0.772291,2.48 -0.04174,2.2343971 0.127126,3.2137631 0.580184,3.3647821 0.409351,0.136451 0.524708,1.031608 0.13294,1.031608 -0.530195,0 -1.051557,1.883245 -0.857437,3.097205 0.150061,0.938424 0.07208,1.360235 -0.310104,1.67742 C 29.944394,18.805331 29.76,19.467981 29.76,20.36946 c 0,2.883457 -1.511936,4.59054 -4.065766,4.59054 -1.510759,0 -3.522053,1.22361 -3.944969,2.4 -0.872485,2.426919 -1.78584,3.81456 -2.869265,4.359218 -1.24555,0.626161 -2.472583,0.914142 -3.2,0.751032 z m 3.428535,-1.802622 C 19.553265,30.256432 20.165937,29.344 20.470028,28.64 c 0.665248,-1.540114 1.426485,-4.610154 1.19942,-4.837218 -0.224212,-0.224213 -0.997894,1.387711 -1.528335,3.184202 C 19.663616,28.604168 19.357744,28.841122 19.04,27.84 18.92828,27.488 18.718099,27.2 18.572932,27.2 c -0.145168,0 0.0085,-0.534448 0.341564,-1.187661 C 19.247523,25.359125 19.52,24.673271 19.52,24.48822 c 0,-0.185052 0.324,-0.478604 0.72,-0.652339 0.871401,-0.382304 1.161176,-1.899511 0.41731,-2.184959 -0.974103,-0.373798 -1.532759,0.128756 -1.328547,1.19513 0.136508,0.712827 0.101524,0.858189 -0.12369,0.513948 -0.272484,-0.416492 -0.481921,-0.384738 -1.582951,0.24 -1.554495,0.88204 -1.799514,0.887268 -3.322687,0.0709 C 13.633336,23.313889 12.951469,23.106387 12.784173,23.209781 12.616878,23.313176 12.48,23.044679 12.48,22.613122 c 0,-0.938221 -0.752271,-1.308274 -1.59265,-0.783449 -0.575519,0.359418 -0.579429,0.426561 -0.07462,1.281138 0.293002,0.496013 0.701843,0.836948 0.908536,0.757633 0.223994,-0.08595 0.461543,0.312816 0.588049,0.987152 0.264222,1.408425 2.364024,3.624404 3.434387,3.624404 0.414641,0 1.073933,-0.224165 1.465094,-0.498145 0.687554,-0.481581 0.711202,-0.466249 0.711202,0.461114 0,0.527593 0.163454,1.060281 0.363232,1.18375 0.527524,0.326027 -0.951012,1.068177 -2.155481,1.081942 -0.545736,0.0062 -1.439514,-0.144579 -1.986172,-0.335145 -0.861301,-0.300251 -0.944775,-0.425183 -0.625583,-0.93629 0.280278,-0.448797 0.273267,-0.798468 -0.02933,-1.46259 L 13.089,27.101852 12.584474,27.822165 c -0.49294,0.70377 -0.523395,0.664476 -1.326048,-1.710926 C 10.449459,23.717151 9.92,23.024899 9.92,24.361284 c 0,0.984284 1.547954,5.129027 2.181432,5.840921 1.480508,1.663776 5.427474,1.925939 7.007103,0.465423 z M 9.1785965,24.58 C 9.0764442,24.324725 9.0006179,24.400552 8.985263,24.773333 8.9713686,25.110667 9.047,25.299667 9.1533334,25.193333 9.2596666,25.087 9.2710352,24.811 9.1785974,24.58 Z M 22.72,24.96 c 0,-0.176 -0.0635,-0.32 -0.141115,-0.32 -0.07761,0 -0.230111,0.144 -0.338885,0.32 -0.108774,0.176 -0.04527,0.32 0.141115,0.32 0.186386,0 0.338885,-0.144 0.338885,-0.32 z m 5.453636,-1.923277 c 0.41404,-0.538895 0.614436,-1.320863 0.619248,-2.416383 0.005,-1.127932 0.187399,-1.813172 0.600934,-2.257049 0.642082,-0.689195 0.625339,-2.225833 -0.03901,-3.580703 -0.286473,-0.584227 -0.251636,-0.949839 0.167704,-1.76 C 29.880777,12.33042 30.009259,11.483005 29.920139,10.4 29.847729,9.52 29.782069,8.5894394 29.77424,8.3320877 c -0.0085,-0.2779693 -0.405876,-0.01817 -0.979017,0.64 -0.748007,0.8589779 -0.933559,1.3336933 -0.82582,2.1127803 0.110129,0.796364 -0.05487,1.190574 -0.795218,1.899869 -0.772317,0.739926 -0.93418,1.15513 -0.93418,2.39631 0,1.352528 -0.09133,1.539139 -0.92162,1.883055 -1.021776,0.423234 -2.771992,3.261911 -2.480121,4.022512 0.09678,0.252201 -0.127777,0.667899 -0.502615,0.930446 -0.553209,0.387482 -0.60521,0.561739 -0.283359,0.949546 0.485303,0.584754 1.252454,0.730852 3.648467,0.694821 1.587707,-0.02388 1.950575,-0.144892 2.472884,-0.824704 z M 25.71572,16.16 c -0.101306,-0.264 -0.240787,-0.48 -0.309956,-0.48 -0.06917,0 -0.125764,0.216 -0.125764,0.48 0,0.264 0.139481,0.48 0.309957,0.48 0.170476,0 0.22707,-0.216 0.125763,-0.48 z M 46.88,31.68 c 0.108774,-0.176 0.261274,-0.32 0.338886,-0.32 0.07761,0 0.141114,0.144 0.141114,0.32 0,0.176 -0.152499,0.32 -0.338886,0.32 C 46.834726,32 46.771226,31.856 46.88,31.68 Z m 12.525453,-1.52 c -0.614135,-2.181189 -0.532499,-4.24 0.168125,-4.24 0.167305,0 0.227299,0.124415 0.133321,0.276478 -0.09398,0.152063 0.127047,0.893105 0.491175,1.646759 0.526726,1.090201 0.591897,1.52424 0.318848,2.123522 -0.405965,0.890993 -0.891252,0.975365 -1.111469,0.193241 z m 7.348285,-2.030633 c -0.810349,-0.637419 -0.893101,-0.644077 -1.670919,-0.134431 -1.01328,0.663926 -1.38287,0.387011 -0.615373,-0.461065 0.554544,-0.612763 0.520173,-0.675765 -1.252496,-2.295884 -1.483161,-1.355526 -1.729616,-1.717916 -1.323056,-1.945438 0.681268,-0.381256 1.372455,0.04124 3.074551,1.879344 0.788454,0.851459 2.117555,1.90786 2.953555,2.347558 0.836,0.439697 1.52,0.907697 1.52,1.04 0,0.508762 -1.874186,0.208697 -2.686262,-0.430084 z m -7.809152,-3.788331 c -0.07856,-1.031028 0.226928,-1.394184 0.849251,-1.009567 0.49271,0.304512 0.154832,1.948531 -0.400461,1.948531 -0.207485,0 -0.40944,-0.422534 -0.44879,-0.938964 z M 8.2817978,19.352132 C 7.8688835,18.525351 7.1427002,17.658587 6.6490618,17.403316 5.9217853,17.027227 5.7583802,16.726692 5.7510976,15.751782 c -0.0061,-0.81682 -0.3081389,-1.587264 -0.96,-2.448786 C 4.1548419,12.462097 3.84,11.673421 3.84,10.920506 3.84,10.135096 3.5801824,9.5238288 2.9801308,8.8975101 1.9802097,7.8538173 1.7017301,7.7902912 1.5005842,8.56 1.3826236,9.0113898 1.3470415,8.9899773 1.3171204,8.4495962 1.2967044,8.0808739 1.5433387,7.5408739 1.865197,7.2495962 2.6157112,6.5703901 2.854001,6.5792256 2.6851596,7.2799992 2.5166812,7.979267 4.3733104,10.117615 5.0280618,9.9784056 c 0.2628073,-0.055877 0.6822665,-0.023146 0.9321318,0.072738 0.3606918,0.13841 0.377143,0.297879 0.079841,0.773935 -0.2962525,0.474376 -0.2643495,0.820325 0.1527529,1.656427 C 6.8104698,13.719679 6.9042355,16 6.3374666,16 c -0.2103936,0 0.135254,0.474275 0.7681059,1.053945 1.0422422,0.954656 2.3758457,3.331304 2.0513638,3.655785 -0.072305,0.07231 -0.4661177,-0.538614 -0.8751385,-1.357598 z M 4.9933334,11.286667 c -0.3252851,-0.325285 -0.5936793,0.164445 -0.3267897,0.596282 0.2016112,0.326213 0.2769846,0.326466 0.3853766,0.0013 0.07411,-0.222331 0.047746,-0.491239 -0.058587,-0.597572 z M 11.68,18.56 C 11.571226,18.384 11.140743,18.24 10.723371,18.24 10.180038,18.24 9.9354704,18.035511 9.8622563,17.52 9.7838826,16.96816 9.5171027,16.77658 8.72,16.699725 8.148,16.644574 7.68,16.489514 7.68,16.355147 7.68,16.22078 8.0971469,16.172068 8.606993,16.246897 9.5170973,16.380472 9.5366166,16.35177 9.6783821,14.671476 9.8046317,13.175086 9.7261066,12.869516 9.0535446,12.24 8.6304662,11.844 8.427583,11.52 8.6026934,11.52 c 0.3582717,0 2.9662576,2.171379 4.2204756,3.513918 0.762342,0.816027 0.986976,0.875606 3.04,0.806282 2.209115,-0.07459 2.222957,-0.08079 3.976831,-1.778751 1.674108,-1.620741 1.765227,-1.66577 1.867096,-0.922672 0.0589,0.429673 0.238903,0.918023 0.4,1.085223 0.161097,0.1672 0.292904,0.722811 0.292904,1.234691 0,0.826709 0.08719,0.908807 0.780389,0.734825 0.429214,-0.107726 0.869712,-0.05134 0.978885,0.12531 0.120179,0.194452 -0.306535,0.321174 -1.081503,0.321174 -1.401511,0 -1.898725,0.419994 -1.32113,1.115952 0.296029,0.356694 0.252761,0.442509 -0.212452,0.421362 C 21.222885,18.162708 20.528,18.2524 20,18.376629 l -0.96,0.22587 0.888148,-0.759768 c 0.488482,-0.417872 0.788482,-0.859434 0.666667,-0.981249 -0.491633,-0.491633 -1.414504,-0.168935 -2.076124,0.725953 -0.385257,0.521089 -0.834115,0.864835 -0.997462,0.763882 -0.175291,-0.108336 -0.154438,-0.326108 0.05089,-0.531435 C 18.439994,16.952006 17.929912,16.64 15.643197,16.64 h -2.276803 l 0.546594,0.834209 c 0.395432,0.603505 0.449858,0.930945 0.196803,1.184 C 13.856736,18.911264 13.76,18.863978 13.76,18.487226 13.76,17.838622 12.278514,16.64 11.476845,16.64 c -0.861446,0 -0.733665,0.603821 0.203155,0.96 0.44,0.167288 0.8,0.523724 0.8,0.79208 0,0.549877 -0.499181,0.654655 -0.8,0.16792 z m -0.922739,-3.12 c -0.07955,-0.484 -0.156475,-0.988 -0.170947,-1.12 -0.01447,-0.132 -0.139195,-0.24 -0.277161,-0.24 -0.137966,0 -0.232463,0.396 -0.209992,0.88 0.05758,1.24023 0.09913,1.36 0.471786,1.36 0.182763,0 0.266187,-0.394028 0.186314,-0.88 z M 21.76,15.2 c 0,-0.616 -0.144,-1.12 -0.32,-1.12 -0.176,0 -0.32,0.504 -0.32,1.12 0,0.616 0.144,1.12 0.32,1.12 0.176,0 0.32,-0.504 0.32,-1.12 z m -1.28,-0.32 c 0,-0.44 -0.144,-0.8 -0.32,-0.8 -0.176,0 -0.32,0.36 -0.32,0.8 0,0.44 0.144,0.8 0.32,0.8 0.176,0 0.32,-0.36 0.32,-0.8 z m -8.64,0.16 c 0,-0.176 -0.0635,-0.32 -0.141115,-0.32 -0.07761,0 -0.230111,0.144 -0.338885,0.32 -0.108774,0.176 -0.04527,0.32 0.141115,0.32 0.186386,0 0.338885,-0.144 0.338885,-0.32 z m 2.40205,-0.313543 c -0.110594,-0.348448 -0.05268,-0.888448 0.128705,-1.2 0.2691,-0.462223 0.331574,-0.345645 0.339514,0.633543 0.01075,1.326367 -0.16106,1.534232 -0.468219,0.566457 z M 16.664345,14.8 C 16.677735,14.668 16.88278,14.056 17.12,13.44 l 0.43131,-1.12 0.02435,1.36 c 0.01801,1.006376 -0.100465,1.36 -0.455656,1.36 -0.264,0 -0.469045,-0.108 -0.455655,-0.24 z m 6.746181,-1.68 c 0,-0.44 0.07263,-0.62 0.161404,-0.4 0.08877,0.22 0.08877,0.58 0,0.8 -0.08877,0.22 -0.161404,0.04 -0.161404,-0.4 z m -9.6,-0.96 c 0,-0.44 0.07263,-0.62 0.161404,-0.4 0.08877,0.22 0.08877,0.58 0,0.8 -0.08877,0.22 -0.161404,0.04 -0.161404,-0.4 z M 22.72,11.858885 c 0,-0.165613 0.144,-0.390111 0.32,-0.498885 0.176,-0.108774 0.32,0.02673 0.32,0.301115 0,0.274386 -0.144,0.498885 -0.32,0.498885 -0.176,0 -0.32,-0.135501 -0.32,-0.301115 z m 18.72,-2.2533 C 37.392,9.5045235 34.332,9.3899235 34.64,9.3509184 34.948,9.3119133 35.2,9.1462858 35.2,8.9828573 c 0,-0.1634288 0.202285,-0.4994291 0.449523,-0.7466675 0.316999,-0.3169965 0.482096,-1.502458 0.56,-4.0209943 C 36.273328,2.1525149 36.455187,0.62946314 36.64,0.60996509 36.816,0.59139693 36.6,0.46091264 36.16,0.32 35.686736,0.16843477 37.606774,0.05076755 40.861114,0.03189761 44.218861,0.01242808 46.439286,0.12467979 46.56,0.32 c 0.108774,0.176 0.486189,0.32 0.838701,0.32 0.352512,0 1.388013,0.34258749 2.301117,0.7613056 0.9131,0.418718 2.128182,0.95787 2.700182,1.1981156 0.572,0.2402456 1.04,0.545658 1.04,0.6786943 0,0.1330365 0.108,0.224832 0.24,0.2039898 1.1324,-0.1787997 1.269408,0.2280454 0.589181,1.7495334 -0.856522,1.9158032 -0.835514,2.7919962 0.08641,3.6042103 L 55.2,9.5797754 52.64,9.5942586 c -1.408,0.00796 -2.848,0.055116 -3.2,0.1047792 -0.352,0.049663 -3.952,0.00761 -8,-0.093451 z M 38.313334,0.44666666 C 38.206998,0.34033334 37.930998,0.32896493 37.7,0.42140362 c -0.255274,0.10215241 -0.17945,0.17797846 0.193334,0.19333331 0.337332,0.0138947 0.526333,-0.0617368 0.42,-0.16807027 z M 61.177021,9.6845715 C 60.012982,9.5805254 59.85488,9.4876474 60.178346,9.0978954 60.414896,8.8128682 60.499491,8.0744925 60.398378,7.177399 60.256486,5.9185334 60.305354,5.7495149 60.757053,5.9368624 61.044672,6.0561568 61.760218,6.2687558 62.347152,6.409305 63.401885,6.6618749 64.83712,7.1601667 66.08,7.7052928 66.432,7.85968 67.8,8.417143 69.12,8.9441002 l 2.4,0.9581033 -4.48,-0.047008 C 64.576,9.8293427 61.937658,9.7525603 61.177021,9.6845715 Z M 5.1146342,8.785887 C 4.5340051,7.2587165 4.427832,6.4700125 4.7740714,6.2560246 4.9773898,6.130367 5.12,6.3028634 5.12,6.674448 5.12,7.0221683 5.2607392,7.3546666 5.4327536,7.4133334 5.604768,7.472 5.838768,7.988 5.9527536,8.56 6.2053786,9.8277181 5.5753018,9.9975341 5.1146342,8.785887 Z M 75.891379,9.12 C 75.530365,8.5734733 74.285549,8 73.460243,8 73.026602,8 72.550925,7.7840064 72.403187,7.5200144 72.169715,7.1028214 69.057171,6.0412819 67.92,5.9910147 67.7,5.9812899 67.52,5.8533334 67.52,5.7066666 67.52,5.56 67.247405,5.44 66.914237,5.44 66.581066,5.44 66.219853,5.2090595 66.111539,4.9267987 66.003226,4.6445379 65.735062,4.482495 65.515619,4.566703 65.296176,4.650911 64.931712,4.5218518 64.705699,4.2799043 64.371069,3.9216816 64.371382,3.8348928 64.707299,3.812495 65.153325,3.782769 63.459066,3.1695257 62.8,3.1221106 62.58,3.1062831 62.4,2.9493333 62.4,2.7733333 62.4,2.5973333 62.30624,2.5470951 62.191642,2.6616927 62.077043,2.7762904 61.822259,2.6498431 61.625456,2.3806989 61.428653,2.1115546 60.946416,1.867149 60.553818,1.8375754 59.855443,1.7849687 59.777286,1.696061 59.712,0.88 59.6944,0.66 59.536,0.37420502 59.36,0.24490009 c -0.176,-0.12930495 0.676662,-0.23730495 1.894803,-0.24 1.547063,-0.00342276 2.378339,0.14309968 2.757235,0.4859937 1.425405,1.28997471 9.190823,1.38672501 11.757808,0.146492 C 76.495427,0.28682361 77.737776,0 78.530624,0 h 1.441539 l -0.01088,4.8013162 -0.01088,4.8013161 -1.923814,-0.081316 C 76.968477,9.4765923 76.007638,9.296 75.891379,9.12 Z M 53.06,0.10140351 c 0.230998,-0.0924386 0.506998,-0.08107018 0.613334,0.0252632 0.106333,0.10633333 -0.08267,0.18196491 -0.42,0.16807017 C 52.88055,0.279382 52.804726,0.20355596 53.06,0.10140351 Z"
     style="fill:#515151;stroke-width:0.31999999" />
</svg>
