<svg
   xmlns="http://www.w3.org/2000/svg"
   viewBox="0 0 80 80"
   height="80"
   width="80">
  <path
     d="M 0,40 V 0 h 40 40 l -0.03712,8.24 c -0.02042,4.532 -0.102976,7.988 -0.183466,7.68 C 79.618006,15.302342 77.76,15.101366 77.76,15.701564 c 0,0.19594 0.272861,0.254961 0.64,0.138436 0.367139,-0.116525 0.64,-0.0575 0.64,0.138436 0,0.18786 -0.1872,0.341564 -0.416,0.341564 -0.614589,0 -1.158682,0.653635 -0.964758,1.158994 0.09777,0.254774 0.627737,0.441006 1.254995,0.441006 H 80 v 7.84 7.84 h -2.4 -2.4 v 1.28 c 0,1.596851 0.865434,1.824829 1.019725,0.268624 0.06657,-0.671462 0.288486,-1.038368 0.660275,-1.091686 0.439594,-0.06304 0.56,0.154416 0.56,1.011376 0,1.389564 0.557574,1.429123 0.728512,0.05169 l 0.129066,-1.04 0.05121,1.04 c 0.02816,0.572 0.18609,1.04 0.350938,1.04 0.164848,0 0.357805,-0.468 0.428787,-1.04 l 0.129066,-1.04 0.05121,1.04 c 0.02816,0.572 0.195213,1.04 0.371213,1.04 0.199091,0 0.318147,1.783398 0.315101,4.72 -0.0046,4.442691 -0.247594,6.085882 -0.773987,5.234163 -0.32482,-0.525571 -0.7545,-0.429494 -0.920528,0.205837 -0.139376,0.533334 -0.148112,0.533334 -0.183466,0 -0.04187,-0.631616 -0.674426,-0.780013 -0.682019,-0.16 -0.0036,0.298666 -0.07363,0.291574 -0.276189,-0.028 -0.360515,-0.568762 -1.64425,-0.354458 -2.084595,0.347997 -0.789063,1.258742 1.318307,2.497341 2.221465,1.305657 0.413354,-0.545401 0.444564,-0.547168 0.454042,-0.02566 0.01309,0.72017 0.525085,0.72017 0.944544,0 0.305648,-0.524761 0.326784,-0.522608 0.335901,0.03424 0.0065,0.394912 0.170736,0.532451 0.489731,0.410042 0.40175,-0.154163 0.47791,0.218464 0.467187,2.285763 -0.01232,2.372538 -0.03165,2.435248 -0.490217,1.589958 -0.592151,-1.0915 -1.004144,-1.113843 -1.475194,-0.08 -0.20048,0.44 -0.462278,0.8 -0.581776,0.8 -0.119498,0 -0.381296,-0.36 -0.581776,-0.8 -0.200477,-0.44 -0.514678,-0.8 -0.698224,-0.8 -0.183546,0 -0.497747,0.36 -0.698224,0.8 -0.20048,0.44 -0.462278,0.8 -0.581776,0.8 -0.119498,0 -0.381296,-0.36 -0.581776,-0.8 -0.200477,-0.44 -0.514678,-0.8 -0.698224,-0.8 -0.183546,0 -0.497747,0.36 -0.698224,0.8 -0.20048,0.44 -0.462278,0.8 -0.581776,0.8 -0.119498,0 -0.381296,-0.36 -0.581776,-0.8 -0.200477,-0.44 -0.514678,-0.8 -0.698224,-0.8 -0.183546,0 -0.497747,0.36 -0.698224,0.8 -0.20048,0.44 -0.462278,0.8 -0.581776,0.8 -0.119498,0 -0.381296,-0.36 -0.581776,-0.8 -0.463229,-1.016675 -0.933219,-1.016675 -1.396448,0 -0.20048,0.44 -0.462278,0.8 -0.581776,0.8 -0.119498,0 -0.381296,-0.36 -0.581776,-0.8 -0.200477,-0.44 -0.514678,-0.8 -0.698224,-0.8 -0.183546,0 -0.497747,0.36 -0.698224,0.8 -0.458774,1.0069 -0.704778,1.0069 -1.163552,0 -0.200477,-0.44 -0.514678,-0.8 -0.698224,-0.8 -0.183546,0 -0.497747,0.36 -0.698224,0.8 -0.20048,0.44 -0.462278,0.8 -0.581776,0.8 -0.119498,0 -0.381296,-0.36 -0.581776,-0.8 -0.200477,-0.44 -0.514678,-0.8 -0.698224,-0.8 -0.183546,0 -0.497747,0.36 -0.698224,0.8 -0.20048,0.44 -0.462278,0.8 -0.581776,0.8 -0.119498,0 -0.381296,-0.36 -0.581776,-0.8 -0.200477,-0.44 -0.514678,-0.8 -0.698224,-0.8 -0.183546,0 -0.497747,0.36 -0.698224,0.8 -0.458774,1.0069 -0.704778,1.0069 -1.163552,0 -0.200477,-0.44 -0.514678,-0.8 -0.698224,-0.8 -0.183546,0 -0.497747,0.36 -0.698224,0.8 -0.20048,0.44 -0.462278,0.8 -0.581776,0.8 -0.119498,0 -0.381296,-0.36 -0.581776,-0.8 -0.200477,-0.44 -0.514678,-0.8 -0.698224,-0.8 -0.183546,0 -0.497747,0.36 -0.698224,0.8 -0.20048,0.44 -0.462278,0.8 -0.581776,0.8 -0.119498,0 -0.381296,-0.36 -0.581776,-0.8 -0.200477,-0.44 -0.514678,-0.8 -0.698224,-0.8 -0.183546,0 -0.497747,0.36 -0.698224,0.8 -0.20048,0.44 -0.462278,0.8 -0.581776,0.8 -0.119498,0 -0.381296,-0.36 -0.581776,-0.8 -0.200477,-0.44 -0.514678,-0.8 -0.698224,-0.8 -0.183546,0 -0.497747,0.36 -0.698224,0.8 -0.20048,0.44 -0.462278,0.8 -0.581776,0.8 -0.119498,0 -0.381296,-0.36 -0.581776,-0.8 -0.200477,-0.44 -0.514678,-0.8 -0.698224,-0.8 -0.183546,0 -0.497747,0.36 -0.698224,0.8 -0.20048,0.44 -0.462278,0.8 -0.581776,0.8 -0.119498,0 -0.381296,-0.36 -0.581776,-0.8 -0.200477,-0.44 -0.514678,-0.8 -0.698224,-0.8 -0.183546,0 -0.497747,0.36 -0.698224,0.8 -0.458774,1.0069 -0.704778,1.0069 -1.163552,0 -0.200477,-0.44 -0.514678,-0.8 -0.698224,-0.8 -0.183546,0 -0.497747,0.36 -0.698224,0.8 -0.458774,1.0069 -0.704778,1.0069 -1.163552,0 -0.200477,-0.44 -0.514678,-0.8 -0.698224,-0.8 -0.183546,0 -0.497747,0.36 -0.698224,0.8 -0.20048,0.44 -0.462278,0.8 -0.581776,0.8 -0.119498,0 -0.381296,-0.36 -0.581776,-0.8 -0.200477,-0.44 -0.514678,-0.8 -0.698224,-0.8 -0.183546,0 -0.497747,0.36 -0.698224,0.8 -0.20048,0.44 -0.462278,0.8 -0.581776,0.8 -0.119498,0 -0.381296,-0.36 -0.581776,-0.8 -0.200477,-0.44 -0.514678,-0.8 -0.698224,-0.8 -0.183546,0 -0.497747,0.36 -0.698225,0.8 C 31.741297,52.44 31.479499,52.8 31.36,52.8 31.240501,52.8 30.978703,52.44 30.778225,52 30.577748,51.56 30.263547,51.2 30.08,51.2 29.896453,51.2 29.582252,51.56 29.381775,52 29.181297,52.44 28.919499,52.8 28.8,52.8 28.680501,52.8 28.418703,52.44 28.218225,52 28.017748,51.56 27.703547,51.2 27.52,51.2 27.336453,51.2 27.022252,51.56 26.821775,52 26.621297,52.44 26.359499,52.8 26.24,52.8 26.120501,52.8 25.858703,52.44 25.658225,52 25.457748,51.56 25.143547,51.2 24.96,51.2 c -0.183547,0 -0.497748,0.36 -0.698225,0.8 -0.200478,0.44 -0.462276,0.8 -0.581775,0.8 -0.119499,0 -0.381297,-0.36 -0.581775,-0.8 -0.463229,-1.016675 -0.933221,-1.016675 -1.39645,0 -0.200478,0.44 -0.462276,0.8 -0.581775,0.8 -0.119499,0 -0.381297,-0.36 -0.581775,-0.8 -0.200477,-0.44 -0.514678,-0.8 -0.698225,-0.8 -0.183547,0 -0.497748,0.36 -0.698225,0.8 -0.200478,0.44 -0.462276,0.8 -0.581775,0.8 -0.119499,0 -0.381297,-0.36 -0.581775,-0.8 -0.480161,-1.053837 -0.893343,-1.009712 -1.498225,0.16 -0.418314,0.808931 -0.424995,0.96 -0.04245,0.96 0.24969,0 0.551072,-0.252 0.669738,-0.56 0.205482,-0.533334 0.230726,-0.533334 0.530137,0 0.172909,0.308 0.651819,0.56 1.064243,0.56 0.418629,0 0.845168,-0.247366 0.96562,-0.56 0.205482,-0.533334 0.230726,-0.533334 0.530137,0 0.407321,0.725552 1.750322,0.725552 2.029863,0 0.205482,-0.533334 0.230726,-0.533334 0.530137,0 0.172909,0.308 0.651819,0.56 1.064243,0.56 0.418629,0 0.845168,-0.247366 0.96562,-0.56 0.205482,-0.533334 0.230726,-0.533334 0.530137,0 0.172909,0.308 0.651819,0.56 1.064243,0.56 0.418629,0 0.845168,-0.247366 0.96562,-0.56 0.205482,-0.533334 0.230726,-0.533334 0.530137,0 0.172909,0.308 0.651819,0.56 1.064243,0.56 0.418629,0 0.845168,-0.247366 0.96562,-0.56 0.205482,-0.533334 0.230726,-0.533334 0.530137,0 0.407321,0.725552 1.750323,0.725552 2.029862,0 0.205482,-0.533334 0.230727,-0.533334 0.530138,0 0.407321,0.725552 1.750323,0.725552 2.029862,0 0.205482,-0.533334 0.230727,-0.533334 0.530138,0 0.407321,0.725552 1.750323,0.725552 2.029862,0 0.205482,-0.533334 0.230727,-0.533334 0.530138,0 0.172909,0.308 0.651817,0.56 1.064243,0.56 0.41863,0 0.845168,-0.247366 0.965619,-0.56 0.205482,-0.533334 0.230727,-0.533334 0.530138,0 0.172909,0.308 0.651817,0.56 1.064243,0.56 0.41863,0 0.845168,-0.247366 0.965619,-0.56 0.205482,-0.533334 0.230727,-0.533334 0.530138,0 0.172909,0.308 0.651817,0.56 1.064243,0.56 0.41863,0 0.845168,-0.247366 0.965619,-0.56 0.205482,-0.533334 0.230727,-0.533334 0.530138,0 0.172909,0.308 0.651817,0.56 1.064243,0.56 0.41863,0 0.845168,-0.247366 0.965619,-0.56 0.205482,-0.533334 0.230727,-0.533334 0.530138,0 0.407321,0.725552 1.750323,0.725552 2.029862,0 0.205482,-0.533334 0.230727,-0.533334 0.530138,0 0.407321,0.725552 1.750323,0.725552 2.029862,0 0.205482,-0.533334 0.230727,-0.533334 0.530138,0 0.172909,0.308 0.651817,0.56 1.064243,0.56 0.41863,0 0.845168,-0.247366 0.965619,-0.56 0.205482,-0.533334 0.230727,-0.533334 0.530138,0 0.172909,0.308 0.651817,0.56 1.064243,0.56 0.41863,0 0.845168,-0.247366 0.965619,-0.56 0.205482,-0.533334 0.230727,-0.533334 0.530138,0 0.172909,0.308 0.651817,0.56 1.064243,0.56 0.41863,0 0.845168,-0.247366 0.965619,-0.56 0.205482,-0.533334 0.230727,-0.533334 0.530138,0 0.172909,0.308 0.651817,0.56 1.064243,0.56 0.41863,0 0.845168,-0.247366 0.965619,-0.56 0.205482,-0.533334 0.230727,-0.533334 0.530138,0 0.407321,0.725552 1.750323,0.725552 2.029862,0 0.205482,-0.533334 0.230727,-0.533334 0.530138,0 0.407321,0.725552 1.750323,0.725552 2.029862,0 0.205482,-0.533334 0.230727,-0.533334 0.530138,0 0.407321,0.725552 1.750323,0.725552 2.029862,0 0.205482,-0.533334 0.230727,-0.533334 0.530138,0 0.407321,0.725552 1.750323,0.725552 2.029862,0 0.205482,-0.533334 0.230727,-0.533334 0.530138,0 0.172909,0.308 0.651817,0.56 1.064243,0.56 0.41863,0 0.845168,-0.247366 0.965619,-0.56 0.205482,-0.533334 0.230727,-0.533334 0.530138,0 0.386669,0.688765 1.745737,0.738166 2.001085,0.07274 0.158428,-0.412857 0.285808,-0.388428 0.834236,0.16 C 79.879133,53.319133 80,53.858294 80,55.68 c 0,1.28 -0.137142,2.24 -0.32,2.24 -0.176,0 -0.32,0.276224 -0.32,0.613827 0,0.905306 -0.34601,1.647869 -0.67353,1.44545 C 78.528912,59.881901 78.4,59.378726 78.4,58.861114 78.4,58.343501 78.256,57.92 78.08,57.92 c -0.176,0 -0.32,0.576 -0.32,1.28 0,1.249523 0.02666,1.28 1.12,1.28 H 80 l -0.0128,2.32 c -0.01235,2.239491 -0.02938,2.289462 -0.490218,1.44 -0.59215,-1.091501 -1.004144,-1.113843 -1.475193,-0.08 -0.20048,0.44 -0.462279,0.8 -0.581776,0.8 -0.119498,0 -0.381296,-0.36 -0.581776,-0.8 -0.200477,-0.44 -0.514679,-0.8 -0.698224,-0.8 -0.183546,0 -0.497747,0.36 -0.698224,0.8 -0.458775,1.006899 -0.704778,1.006899 -1.163552,0 -0.200477,-0.44 -0.514679,-0.8 -0.698224,-0.8 -0.183546,0 -0.497747,0.36 -0.698224,0.8 -0.20048,0.44 -0.462279,0.8 -0.581776,0.8 -0.119498,0 -0.381296,-0.36 -0.581776,-0.8 -0.463229,-1.016675 -0.933219,-1.016675 -1.396448,0 -0.20048,0.44 -0.462279,0.8 -0.581776,0.8 -0.119498,0 -0.381296,-0.36 -0.581776,-0.8 -0.200477,-0.44 -0.514679,-0.8 -0.698224,-0.8 -0.183546,0 -0.497747,0.36 -0.698224,0.8 -0.20048,0.44 -0.462279,0.8 -0.581776,0.8 -0.119498,0 -0.381296,-0.36 -0.581776,-0.8 -0.200477,-0.44 -0.514679,-0.8 -0.698224,-0.8 -0.183546,0 -0.497747,0.36 -0.698224,0.8 -0.20048,0.44 -0.462279,0.8 -0.581776,0.8 -0.119498,0 -0.381296,-0.36 -0.581776,-0.8 -0.200477,-0.44 -0.514679,-0.8 -0.698224,-0.8 -0.183546,0 -0.497747,0.36 -0.698224,0.8 -0.20048,0.44 -0.462279,0.8 -0.581776,0.8 -0.119498,0 -0.381296,-0.36 -0.581776,-0.8 -0.463229,-1.016675 -0.933219,-1.016675 -1.396448,0 -0.458775,1.006899 -0.704778,1.006899 -1.163552,0 -0.200477,-0.44 -0.514679,-0.8 -0.698224,-0.8 -0.183546,0 -0.497747,0.36 -0.698224,0.8 -0.20048,0.44 -0.462279,0.8 -0.581776,0.8 -0.119498,0 -0.381296,-0.36 -0.581776,-0.8 -0.200477,-0.44 -0.514679,-0.8 -0.698224,-0.8 -0.183546,0 -0.497747,0.36 -0.698224,0.8 -0.20048,0.44 -0.462279,0.8 -0.581776,0.8 -0.119498,0 -0.381296,-0.36 -0.581776,-0.8 -0.200477,-0.44 -0.514679,-0.8 -0.698224,-0.8 -0.183546,0 -0.497747,0.36 -0.698224,0.8 -0.20048,0.44 -0.462279,0.8 -0.581776,0.8 -0.119498,0 -0.381296,-0.36 -0.581776,-0.8 -0.200477,-0.44 -0.514679,-0.8 -0.698224,-0.8 -0.183546,0 -0.497747,0.36 -0.698224,0.8 -0.20048,0.44 -0.462279,0.8 -0.581776,0.8 -0.119498,0 -0.381296,-0.36 -0.581776,-0.8 -0.200477,-0.44 -0.514679,-0.8 -0.698224,-0.8 -0.183546,0 -0.497747,0.36 -0.698224,0.8 -0.20048,0.44 -0.462279,0.8 -0.581776,0.8 -0.119498,0 -0.381296,-0.36 -0.581776,-0.8 -0.200477,-0.44 -0.514679,-0.8 -0.698224,-0.8 -0.183546,0 -0.497747,0.36 -0.698224,0.8 -0.20048,0.44 -0.462279,0.8 -0.581776,0.8 -0.119498,0 -0.381296,-0.36 -0.581776,-0.8 -0.200477,-0.44 -0.514679,-0.8 -0.698224,-0.8 -0.183546,0 -0.497747,0.36 -0.698224,0.8 -0.20048,0.44 -0.462279,0.8 -0.581776,0.8 -0.119498,0 -0.381296,-0.36 -0.581776,-0.8 -0.200477,-0.44 -0.514679,-0.8 -0.698224,-0.8 -0.183546,0 -0.497747,0.36 -0.698224,0.8 -0.20048,0.44 -0.462279,0.8 -0.581776,0.8 -0.119498,0 -0.381296,-0.36 -0.581776,-0.8 -0.200477,-0.44 -0.514679,-0.8 -0.698224,-0.8 -0.183546,0 -0.497747,0.36 -0.698224,0.8 -0.458775,1.006899 -0.704778,1.006899 -1.163552,0 -0.200477,-0.44 -0.514679,-0.8 -0.698224,-0.8 -0.183546,0 -0.497747,0.36 -0.698224,0.8 -0.20048,0.44 -0.462279,0.8 -0.581776,0.8 -0.119498,0 -0.381296,-0.36 -0.581776,-0.8 -0.200477,-0.44 -0.514679,-0.8 -0.698224,-0.8 -0.183546,0 -0.497747,0.36 -0.698225,0.8 -0.200491,0.44 -0.462289,0.8 -0.581788,0.8 -0.119499,0 -0.381297,-0.36 -0.581775,-0.8 -0.200477,-0.44 -0.514678,-0.8 -0.698225,-0.8 -0.183547,0 -0.497748,0.36 -0.698225,0.8 -0.200478,0.44 -0.462276,0.8 -0.581775,0.8 -0.119499,0 -0.381297,-0.36 -0.581775,-0.8 -0.200477,-0.44 -0.514678,-0.8 -0.698225,-0.8 -0.183547,0 -0.497748,0.36 -0.698225,0.8 -0.200478,0.44 -0.462276,0.8 -0.581775,0.8 -0.119499,0 -0.381297,-0.36 -0.581775,-0.8 -0.200477,-0.44 -0.514678,-0.8 -0.698225,-0.8 -0.183547,0 -0.497748,0.36 -0.698225,0.8 -0.200478,0.44 -0.462276,0.8 -0.581775,0.8 -0.119499,0 -0.381297,-0.36 -0.581775,-0.8 -0.200477,-0.44 -0.514678,-0.8 -0.698225,-0.8 -0.183547,0 -0.497748,0.36 -0.698225,0.8 -0.200478,0.44 -0.462276,0.8 -0.581775,0.8 -0.119499,0 -0.381297,-0.36 -0.581775,-0.8 -0.200477,-0.44 -0.514678,-0.8 -0.698225,-0.8 -0.183547,0 -0.497748,0.36 -0.698225,0.8 -0.200478,0.44 -0.462276,0.8 -0.581775,0.8 -0.119499,0 -0.381297,-0.36 -0.581775,-0.8 -0.480161,-1.053837 -0.893343,-1.009712 -1.498225,0.16 -0.418314,0.808931 -0.424995,0.96 -0.04245,0.96 0.24969,0 0.551072,-0.252 0.669738,-0.56 0.205482,-0.533334 0.230726,-0.533334 0.530137,0 0.172909,0.308 0.651819,0.56 1.064243,0.56 0.418629,0 0.845168,-0.247366 0.96562,-0.56 0.205482,-0.533334 0.230726,-0.533334 0.530137,0 0.172909,0.308 0.651819,0.56 1.064243,0.56 0.418629,0 0.845168,-0.247366 0.96562,-0.56 0.205482,-0.533334 0.230726,-0.533334 0.530137,0 0.172909,0.308 0.651819,0.56 1.064243,0.56 0.418629,0 0.845168,-0.247366 0.96562,-0.56 0.205482,-0.533334 0.230726,-0.533334 0.530137,0 0.172909,0.308 0.651819,0.56 1.064243,0.56 0.418629,0 0.845168,-0.247366 0.96562,-0.56 0.205482,-0.533334 0.230726,-0.533334 0.530137,0 0.172909,0.308 0.651819,0.56 1.064243,0.56 0.418629,0 0.845168,-0.247366 0.96562,-0.56 0.205482,-0.533334 0.230726,-0.533334 0.530137,0 0.172909,0.308 0.651819,0.56 1.064243,0.56 0.418629,0 0.845168,-0.247366 0.965619,-0.56 0.205482,-0.533334 0.230727,-0.533334 0.530138,0 0.172909,0.308 0.651817,0.56 1.064243,0.56 0.41863,0 0.845168,-0.247366 0.965619,-0.56 0.205482,-0.533334 0.230727,-0.533334 0.530138,0 0.172909,0.308 0.651817,0.56 1.064243,0.56 0.41863,0 0.845168,-0.247366 0.965619,-0.56 0.205482,-0.533334 0.230727,-0.533334 0.530138,0 0.172909,0.308 0.651817,0.56 1.064243,0.56 0.41863,0 0.845168,-0.247366 0.965619,-0.56 0.205482,-0.533334 0.230727,-0.533334 0.530138,0 0.172909,0.308 0.651817,0.56 1.064243,0.56 0.41863,0 0.845168,-0.247366 0.965619,-0.56 0.205482,-0.533334 0.230727,-0.533334 0.530138,0 0.172909,0.308 0.651817,0.56 1.064243,0.56 0.41863,0 0.845168,-0.247366 0.965619,-0.56 0.205482,-0.533334 0.230727,-0.533334 0.530138,0 0.172909,0.308 0.651817,0.56 1.064243,0.56 0.41863,0 0.845168,-0.247366 0.965619,-0.56 0.205482,-0.533334 0.230727,-0.533334 0.530138,0 0.172909,0.308 0.651817,0.56 1.064243,0.56 0.41863,0 0.845168,-0.247366 0.965619,-0.56 0.205482,-0.533334 0.230727,-0.533334 0.530138,0 0.172909,0.308 0.651817,0.56 1.064243,0.56 0.41863,0 0.845168,-0.247366 0.965619,-0.56 0.205482,-0.533334 0.230727,-0.533334 0.530138,0 0.172909,0.308 0.651817,0.56 1.064243,0.56 0.41863,0 0.845168,-0.247366 0.965619,-0.56 0.205482,-0.533334 0.230727,-0.533334 0.530138,0 0.172909,0.308 0.651817,0.56 1.064243,0.56 0.41863,0 0.845168,-0.247366 0.965619,-0.56 0.205482,-0.533334 0.230727,-0.533334 0.530138,0 0.407321,0.725552 1.750323,0.725552 2.029862,0 0.205482,-0.533334 0.230727,-0.533334 0.530138,0 0.172909,0.308 0.651817,0.56 1.064243,0.56 0.41863,0 0.845168,-0.247366 0.965619,-0.56 0.205482,-0.533334 0.230727,-0.533334 0.530138,0 0.172909,0.308 0.651817,0.56 1.064243,0.56 0.41863,0 0.845168,-0.247366 0.965619,-0.56 0.205482,-0.533334 0.230727,-0.533334 0.530138,0 0.407321,0.725552 1.750323,0.725552 2.029862,0 0.205482,-0.533334 0.230727,-0.533334 0.530138,0 0.172909,0.308 0.651817,0.56 1.064243,0.56 0.41863,0 0.845168,-0.247366 0.965619,-0.56 0.205482,-0.533334 0.230727,-0.533334 0.530138,0 0.172909,0.308 0.651817,0.56 1.064243,0.56 0.41863,0 0.845168,-0.247366 0.965619,-0.56 0.205482,-0.533334 0.230727,-0.533334 0.530138,0 0.172909,0.308 0.651817,0.56 1.064243,0.56 0.41863,0 0.845168,-0.247366 0.965619,-0.56 0.205482,-0.533334 0.230727,-0.533334 0.530138,0 0.386669,0.688765 1.745737,0.738166 2.001085,0.07274 0.158428,-0.412857 0.285808,-0.388428 0.834236,0.16 C 79.964064,65.564064 80,65.999754 80,72.8 V 80 H 40 0 Z M 9.92,65.28 C 9.92,64 9.7828573,63.04 9.6,63.04 c -0.1828573,0 -0.32,0.96 -0.32,2.24 0,1.28 0.1371427,2.24 0.32,2.24 0.1828573,0 0.32,-0.96 0.32,-2.24 z m 0,-6.08 c 0,-1.28 -0.1371427,-2.24 -0.32,-2.24 -0.1828573,0 -0.32,0.96 -0.32,2.24 0,1.28 0.1371427,2.24 0.32,2.24 0.1828573,0 0.32,-0.96 0.32,-2.24 z M 2.9399085,60.140275 C 3.1929709,59.381088 2.7948961,57.28 2.3979969,57.28 2.0541501,57.28 0.64,59.225296 0.64,59.698291 0.64,59.77623 0.91950157,59.84 1.2611146,59.84 c 0.341613,0 0.7101114,0.144 0.8188854,0.32 0.2591652,0.419338 0.7170551,0.408835 0.8599085,-0.01971 z M 1.28,59.399181 C 1.28,59.332733 1.496,59.099101 1.76,58.88 2.1531225,58.553738 2.24,58.575603 2.24,59.000819 2.24,59.286368 2.024,59.52 1.76,59.52 1.496,59.52 1.28,59.465632 1.28,59.399181 Z M 21.12,58.72 c 0,-0.968 -0.144,-1.76 -0.32,-1.76 -0.176,0 -0.32,0.216 -0.32,0.48 0,0.264 -0.282933,0.48 -0.628741,0.48 -0.345808,0 -0.782874,0.288 -0.971259,0.64 -0.519392,0.970493 0.119181,1.92 1.291259,1.92 0.936656,0 0.948741,-0.02242 0.948741,-1.76 z m -1.452716,1.04 c -0.118666,-0.308 -0.118666,-0.812 0,-1.12 0.205482,-0.533334 0.230726,-0.533334 0.530137,0 0.205841,0.366659 0.205841,0.753341 0,1.12 -0.299411,0.533334 -0.324655,0.533334 -0.530137,0 z M 23.28,60.259414 c -0.395913,-0.103462 -0.56,-0.467641 -0.56,-1.242876 0,-0.931303 -0.108496,-1.09273 -0.72,-1.071274 -0.396,0.01389 -0.54,0.09789 -0.32,0.186666 0.22,0.08877 0.4,0.569404 0.4,1.06807 0,0.498666 -0.18,0.979299 -0.4,1.06807 -0.22,0.08877 0.176,0.156068 0.88,0.149546 0.704,-0.0065 1.028,-0.07771 0.72,-0.158202 z m 2.443945,-0.549686 c 0.106329,-0.423648 0.281346,-0.999648 0.388927,-1.28 0.10758,-0.280349 0.04819,-0.509728 -0.131969,-0.509728 -0.180163,0 -0.465815,0.396 -0.634782,0.88 l -0.307213,0.88 -0.234145,-0.88 c -0.128779,-0.484 -0.430014,-0.88 -0.66941,-0.88 -0.239397,0 -0.372059,0.18 -0.294804,0.4 0.629034,1.791325 0.840142,2.16 1.23684,2.16 0.249277,0 0.540226,-0.346621 0.646556,-0.770272 z m 5.506803,0.534352 c -0.129755,-0.129754 -0.477755,-0.237754 -0.773333,-0.24 C 30.098594,60.001357 29.92,59.734144 29.92,59.2 c 0,-0.534144 0.178594,-0.801357 0.537415,-0.80408 0.295578,-0.0022 0.655371,-0.122038 0.79954,-0.266208 0.144169,-0.14417 -0.241667,-0.214333 -0.857415,-0.15592 -0.889238,0.08436 -1.141203,0.259107 -1.224846,0.849482 C 29.003145,60.034102 29.34458,60.48 30.44329,60.48 c 0.562857,0 0.917213,-0.106163 0.787458,-0.23592 z M 33.52,60.259408 c -0.437754,-0.114397 -0.56,-0.490499 -0.56,-1.722877 0,-1.429078 -0.06734,-1.574176 -0.72,-1.551273 -0.396,0.01389 -0.54,0.09789 -0.32,0.186665 0.233629,0.09427 0.4,0.738154 0.4,1.548071 0,0.809916 -0.166371,1.453798 -0.4,1.54807 -0.22,0.08877 0.176,0.156067 0.88,0.149546 0.704,-0.0065 1.028,-0.07771 0.72,-0.158202 z m 2.955632,-0.339414 c -0.01117,-1.430074 -0.385302,-2 -1.312954,-2 -0.507472,0 -0.922678,0.153702 -0.922678,0.341564 0,0.19594 0.272861,0.25496 0.64,0.138436 0.367139,-0.116525 0.64,-0.0575 0.64,0.138435 0,0.187862 -0.1872,0.341565 -0.416,0.341565 -0.614589,0 -1.158682,0.653635 -0.964758,1.158995 0.09777,0.254774 0.627737,0.441005 1.254995,0.441005 0.82239,0 1.084704,-0.135837 1.081395,-0.56 z M 34.88,59.698886 C 34.88,59.424499 35.024,59.2 35.2,59.2 c 0.176,0 0.32,0.135501 0.32,0.301114 0,0.165612 -0.144,0.390112 -0.32,0.498886 -0.176,0.108774 -0.32,-0.02672 -0.32,-0.301114 z m 3.84,0.131072 c 0,-0.357526 -0.216,-0.732931 -0.48,-0.834236 -0.264,-0.101309 -0.48,-0.308269 -0.48,-0.459914 0,-0.151648 0.216,-0.192835 0.48,-0.09153 0.264,0.101309 0.48,0.0248 0.48,-0.170041 0,-0.470957 -1.499187,-0.45624 -1.792029,0.0176 -0.129312,0.209232 0.07233,0.616473 0.461114,0.931293 0.865225,0.700617 0.887629,1.042444 0.05091,0.776883 -0.367139,-0.116525 -0.64,-0.0575 -0.64,0.138435 0,0.187862 0.432,0.341565 0.96,0.341565 0.75161,0 0.96,-0.141107 0.96,-0.650042 z m 2.56,0 c 0,-0.357526 -0.216,-0.732931 -0.48,-0.834236 -0.264,-0.101309 -0.48,-0.308269 -0.48,-0.459914 0,-0.151648 0.216,-0.192835 0.48,-0.09153 0.264,0.101309 0.48,0.0248 0.48,-0.170041 0,-0.470957 -1.499187,-0.45624 -1.792029,0.0176 -0.129312,0.209232 0.07233,0.616473 0.461114,0.931293 0.865225,0.700617 0.887629,1.042444 0.05092,0.776883 -0.367139,-0.116525 -0.64,-0.0575 -0.64,0.138435 0,0.187862 0.432,0.341565 0.96,0.341565 0.75161,0 0.96,-0.141107 0.96,-0.650042 z M 47.739725,59.44 C 47.794877,58.868 47.984,58.4 48.16,58.4 c 0.176,0 0.365123,0.468 0.420275,1.04 0.09496,0.984902 0.671085,1.493488 0.724989,0.64 0.02022,-0.32 0.05754,-0.32 0.186666,0 0.08877,0.22 0.653404,0.4 1.254736,0.4 1.152963,0 1.302208,-0.307984 0.891641,-1.84 -0.143529,-0.535581 -0.429283,-0.72 -1.115629,-0.72 -0.507472,0 -0.922678,0.153702 -0.922678,0.341565 0,0.195939 0.272861,0.25496 0.64,0.138435 0.90593,-0.28753 0.792,0.247213 -0.145251,0.681754 -0.688871,0.319385 -0.791651,0.281904 -0.877504,-0.32 -0.07272,-0.509818 -0.35953,-0.707044 -1.137245,-0.782029 -1.019155,-0.09827 -1.04,-0.07421 -1.04,1.2 0,1.545641 0.555856,1.752403 0.699725,0.260275 z M 50.24,59.698886 C 50.24,59.424499 50.384,59.2 50.56,59.2 c 0.176,0 0.32,0.135501 0.32,0.301114 0,0.165612 -0.144,0.390112 -0.32,0.498886 -0.176,0.108774 -0.32,-0.02672 -0.32,-0.301114 z m 3.643946,0.01085 c 0.106329,-0.423648 0.281344,-0.999648 0.388924,-1.28 0.107581,-0.280348 0.0482,-0.509728 -0.131968,-0.509728 -0.180163,0 -0.465814,0.396 -0.63478,0.88 l -0.307213,0.88 -0.234144,-0.88 c -0.128781,-0.484 -0.430016,-0.88 -0.669411,-0.88 -0.239399,0 -0.372061,0.18 -0.294807,0.4 0.629037,1.791325 0.840144,2.16 1.236842,2.16 0.249277,0 0.540227,-0.34662 0.646557,-0.770272 z m 5.409388,0.370272 c 0.117332,-0.32 0.231466,-0.32 0.570666,0 1.128538,1.064656 2.544166,0.01808 2.056,-1.52 -0.230845,-0.727331 -1.395341,-0.863264 -2.056,-0.24 -0.3392,0.32 -0.453334,0.32 -0.570666,0 -0.08067,-0.22 -0.422668,-0.4 -0.76,-0.4 C 58.196,57.92 57.92,57.704 57.92,57.44 c 0,-0.264 -0.144,-0.48 -0.32,-0.48 -0.176,0 -0.32,0.792 -0.32,1.76 0,1.731046 0.01536,1.76 0.933334,1.76 0.513332,0 0.999332,-0.18 1.08,-0.4 z m -1.226051,-0.32 c -0.118665,-0.308 -0.118665,-0.812 0,-1.12 0.205482,-0.533334 0.230727,-0.533334 0.530138,0 0.20584,0.36666 0.20584,0.753341 0,1.12 -0.299411,0.533335 -0.324656,0.533335 -0.530138,0 z m 2.536221,-0.05972 c -0.252122,-0.657014 0.102973,-1.555853 0.514237,-1.30168 C 61.294982,58.508144 61.44,58.868774 61.44,59.2 c 0,0.788365 -0.590442,1.141488 -0.836496,0.500282 z M 63.296,60.096 c 0.298666,-0.298666 0.384,-0.298666 0.384,0 0,0.2112 0.212912,0.384 0.473139,0.384 0.387037,0 0.407594,-0.143859 0.112954,-0.790525 -0.275415,-0.604464 -0.264576,-0.905725 0.04604,-1.28 C 64.648336,58.004381 64.628864,57.92 64.199181,57.92 63.913632,57.92 63.68,58.081632 63.68,58.279181 c 0,0.245632 -0.154192,0.231216 -0.487734,-0.0456 -0.636538,-0.528279 -1.003111,-0.15321 -0.473703,0.484688 0.338429,0.407782 0.309879,0.604109 -0.163997,1.127734 C 62.097299,60.35128 62.075338,60.48 62.446403,60.48 c 0.25608,0 0.638397,-0.1728 0.849597,-0.384 z m 7.407862,-0.176 c 0.316256,-0.527616 0.363248,-0.524339 0.812596,0.05664 0.26231,0.339152 0.570288,0.52328 0.684393,0.409178 C 72.537206,60.049462 71.634486,57.28 71.188493,57.28 70.880256,57.28 69.76,59.708739 69.76,60.377005 c 0,0.334957 0.660995,0.01491 0.943862,-0.457005 z m 3.949472,0.16 c 0.117332,-0.32 0.231466,-0.32 0.570666,0 1.128538,1.064656 2.544166,0.01808 2.056,-1.52 -0.230845,-0.727331 -1.395341,-0.863264 -2.056,-0.24 -0.3392,0.32 -0.453334,0.32 -0.570666,0 -0.08067,-0.22 -0.422668,-0.4 -0.76,-0.4 C 73.556,57.92 73.28,57.704 73.28,57.44 c 0,-0.264 -0.144,-0.48 -0.32,-0.48 -0.176,0 -0.32,0.792 -0.32,1.76 0,1.731046 0.01536,1.76 0.933334,1.76 0.513332,0 0.999332,-0.18 1.08,-0.4 z m -1.226051,-0.32 c -0.118665,-0.308 -0.118665,-0.812 0,-1.12 0.205482,-0.533334 0.230727,-0.533334 0.530138,0 0.20584,0.366659 0.20584,0.753341 0,1.12 -0.299411,0.533334 -0.324656,0.533334 -0.530138,0 z m 2.536221,-0.05972 C 75.711382,59.043265 76.066477,58.144427 76.477741,58.3986 76.654982,58.508144 76.8,58.868774 76.8,59.2 c 0,0.788365 -0.590442,1.141488 -0.836496,0.500282 z M 17.947758,59.5521 17.175517,58.958433 17.895165,58.573288 c 1.028562,-0.550468 0.551638,-0.816596 -0.604904,-0.33754 -1.15066,0.476618 -1.244875,1.054007 -0.250261,1.533693 1.20484,0.581072 1.770242,0.445699 0.907758,-0.217341 z m 50.868133,0.11968 C 69.335152,59.403264 69.76,59.11896 69.76,59.04 c 0,-0.155894 -1.7768,-1.12 -2.064109,-1.12 -0.493731,0 -0.08043,0.627213 0.544109,0.825712 l 0.72,0.228842 -0.72,0.321622 c -0.396,0.176896 -0.72,0.443619 -0.72,0.592723 0,0.378371 0.213523,0.342599 1.295891,-0.217117 z M 56.48,59.52 c 0.115696,-0.1872 -0.216304,-0.32 -0.8,-0.32 -0.583696,0 -0.915696,0.1328 -0.8,0.32 0.108774,0.176 0.468774,0.32 0.8,0.32 0.331226,0 0.691226,-0.144 0.8,-0.32 z M 43.763731,59.300134 c -0.305949,-0.08009 -0.881949,-0.083 -1.28,-0.0065 -0.398051,0.07654 -0.147731,0.142074 0.556269,0.145626 0.704,0.0036 1.02968,-0.05907 0.723731,-0.139168 z m 0,-0.64 c -0.305949,-0.08009 -0.881949,-0.083 -1.28,-0.0065 -0.398051,0.07654 -0.147731,0.142074 0.556269,0.145626 0.704,0.0036 1.02968,-0.05907 0.723731,-0.139168 z M 46.4,57.72 c 0,-0.256 -0.334544,-0.44 -0.8,-0.44 -0.465456,0 -0.8,0.184 -0.8,0.44 0,0.256 0.334544,0.44 0.8,0.44 0.465456,0 0.8,-0.184 0.8,-0.44 z m 20.48,0 c 0,-0.256 -0.334544,-0.44 -0.8,-0.44 -0.465456,0 -0.8,0.184 -0.8,0.44 0,0.256 0.334544,0.44 0.8,0.44 0.465456,0 0.8,-0.184 0.8,-0.44 z M 22.72,57.28 c 0,-0.176 -0.144,-0.32 -0.32,-0.32 -0.176,0 -0.32,0.144 -0.32,0.32 0,0.176 0.144,0.32 0.32,0.32 0.176,0 0.32,-0.144 0.32,-0.32 z M 9.92,53.12 c 0,-1.28 -0.1371427,-2.24 -0.32,-2.24 -0.1828573,0 -0.32,0.96 -0.32,2.24 0,1.28 0.1371427,2.24 0.32,2.24 0.1828573,0 0.32,-0.96 0.32,-2.24 z m 0,-6.08 c 0,-1.28 -0.1371427,-2.24 -0.32,-2.24 -0.1828573,0 -0.32,0.96 -0.32,2.24 0,1.28 0.1371427,2.24 0.32,2.24 0.1828573,0 0.32,-0.96 0.32,-2.24 z m -7.0516335,0.814016 c 0.2185179,-0.263296 0.2746522,-0.646064 0.1290556,-0.88 C 2.8557006,46.746307 2.7816091,46.236 2.8327743,45.84 2.9116651,45.229414 2.7764361,45.12 1.942901,45.12 1.4023054,45.12 0.96,45.279405 0.96,45.474237 c 0,0.194829 0.2113884,0.27312 0.469752,0.173974 0.2583636,-0.09914 0.5554906,-0.04153 0.6602822,0.128026 0.1047917,0.169555 -0.038829,0.396297 -0.3191568,0.503869 -0.4599832,0.176512 -0.4571936,0.233968 0.028606,0.589193 C 2.4222249,47.324659 2.127662,48.0596 1.429752,47.791789 1.1713884,47.692643 0.96,47.770934 0.96,47.965763 c 0,0.518122 1.4564006,0.432839 1.9083665,-0.111747 z M 21.12,46.56 c 0,-0.968 -0.144,-1.76 -0.32,-1.76 -0.176,0 -0.32,0.216 -0.32,0.48 0,0.264 -0.282933,0.48 -0.628741,0.48 -0.345808,0 -0.782874,0.288 -0.971259,0.64 -0.519392,0.970493 0.119181,1.92 1.291259,1.92 0.936656,0 0.948741,-0.02242 0.948741,-1.76 z m -1.452716,1.04 c -0.118666,-0.308 -0.118666,-0.812 0,-1.12 0.205482,-0.533334 0.230726,-0.533334 0.530137,0 0.205841,0.366659 0.205841,0.753341 0,1.12 -0.299411,0.533334 -0.324655,0.533334 -0.530137,0 z M 23.28,48.099414 c -0.395913,-0.103462 -0.56,-0.467641 -0.56,-1.242876 0,-0.931303 -0.108496,-1.09273 -0.72,-1.071274 -0.396,0.01389 -0.54,0.09789 -0.32,0.186666 0.22,0.08877 0.4,0.569404 0.4,1.06807 0,0.498666 -0.18,0.979299 -0.4,1.06807 -0.22,0.08877 0.176,0.156068 0.88,0.149546 0.704,-0.0065 1.028,-0.07771 0.72,-0.158202 z m 2.443945,-0.549686 c 0.106329,-0.423648 0.281346,-0.999648 0.388927,-1.28 0.10758,-0.280349 0.04819,-0.509728 -0.131969,-0.509728 -0.180163,0 -0.465815,0.396 -0.634782,0.88 l -0.307213,0.88 -0.234145,-0.88 c -0.128779,-0.484 -0.430014,-0.88 -0.66941,-0.88 -0.239397,0 -0.372059,0.18 -0.294804,0.4 0.629034,1.791325 0.840142,2.16 1.23684,2.16 0.249277,0 0.540226,-0.346621 0.646556,-0.770272 z m 5.506803,0.534352 c -0.129755,-0.129754 -0.477755,-0.237754 -0.773333,-0.24 C 30.098594,47.841357 29.92,47.574144 29.92,47.04 c 0,-0.534144 0.178594,-0.801357 0.537415,-0.80408 0.295578,-0.0022 0.655371,-0.122038 0.79954,-0.266208 0.144169,-0.14417 -0.241667,-0.214333 -0.857415,-0.15592 -0.889238,0.08436 -1.141203,0.259107 -1.224846,0.849482 C 29.003145,47.874102 29.34458,48.32 30.44329,48.32 c 0.562857,0 0.917213,-0.106163 0.787458,-0.23592 z M 33.52,48.099408 c -0.437754,-0.114397 -0.56,-0.490499 -0.56,-1.722877 0,-1.429078 -0.06734,-1.574176 -0.72,-1.551273 -0.396,0.01389 -0.54,0.09789 -0.32,0.186665 0.233629,0.09427 0.4,0.738154 0.4,1.548071 0,0.809916 -0.166371,1.453798 -0.4,1.54807 -0.22,0.08877 0.176,0.156067 0.88,0.149546 0.704,-0.0065 1.028,-0.07771 0.72,-0.158202 z m 2.955632,-0.339414 c -0.01117,-1.430074 -0.385302,-2 -1.312954,-2 -0.507472,0 -0.922678,0.153702 -0.922678,0.341564 0,0.19594 0.272861,0.25496 0.64,0.138436 0.367139,-0.116525 0.64,-0.0575 0.64,0.138435 0,0.187862 -0.1872,0.341565 -0.416,0.341565 -0.614589,0 -1.158682,0.653635 -0.964758,1.158995 0.09777,0.254774 0.627737,0.441005 1.254995,0.441005 0.82239,0 1.084704,-0.135837 1.081395,-0.56 z M 34.88,47.538886 C 34.88,47.264499 35.024,47.04 35.2,47.04 c 0.176,0 0.32,0.135501 0.32,0.301114 0,0.165612 -0.144,0.390112 -0.32,0.498886 -0.176,0.108774 -0.32,-0.02672 -0.32,-0.301114 z m 3.84,0.131072 c 0,-0.357526 -0.216,-0.732931 -0.48,-0.834236 -0.264,-0.101309 -0.48,-0.308269 -0.48,-0.459914 0,-0.151648 0.216,-0.192835 0.48,-0.09153 0.264,0.101309 0.48,0.0248 0.48,-0.170041 0,-0.470957 -1.499187,-0.45624 -1.792029,0.0176 -0.129312,0.209232 0.07233,0.616473 0.461114,0.931293 0.865225,0.700617 0.887629,1.042444 0.05091,0.776883 -0.367139,-0.116525 -0.64,-0.0575 -0.64,0.138435 0,0.187862 0.432,0.341565 0.96,0.341565 0.75161,0 0.96,-0.141107 0.96,-0.650042 z m 2.56,0 c 0,-0.357526 -0.216,-0.732931 -0.48,-0.834236 -0.264,-0.101309 -0.48,-0.308269 -0.48,-0.459914 0,-0.151648 0.216,-0.192835 0.48,-0.09153 0.264,0.101309 0.48,0.0248 0.48,-0.170041 0,-0.470957 -1.499187,-0.45624 -1.792029,0.0176 -0.129312,0.209232 0.07233,0.616473 0.461114,0.931293 0.865225,0.700617 0.887629,1.042444 0.05092,0.776883 -0.367139,-0.116525 -0.64,-0.0575 -0.64,0.138435 0,0.187862 0.432,0.341565 0.96,0.341565 0.75161,0 0.96,-0.141107 0.96,-0.650042 z M 47.739725,47.28 C 47.794877,46.708 47.984,46.24 48.16,46.24 c 0.176,0 0.365123,0.468 0.420275,1.04 0.09496,0.984902 0.671085,1.493488 0.724989,0.64 0.02022,-0.32 0.05754,-0.32 0.186666,0 0.08877,0.22 0.653404,0.4 1.254736,0.4 1.152963,0 1.302208,-0.307984 0.891641,-1.84 -0.143529,-0.535581 -0.429283,-0.72 -1.115629,-0.72 -0.507472,0 -0.922678,0.153702 -0.922678,0.341565 0,0.195939 0.272861,0.25496 0.64,0.138435 0.90593,-0.28753 0.792,0.247213 -0.145251,0.681754 -0.688871,0.319385 -0.791651,0.281904 -0.877504,-0.32 -0.07272,-0.509818 -0.35953,-0.707044 -1.137245,-0.782029 -1.019155,-0.09827 -1.04,-0.07421 -1.04,1.2 0,1.545641 0.555856,1.752403 0.699725,0.260275 z M 50.24,47.538886 c 0,-0.274387 0.144,-0.498886 0.32,-0.498886 0.176,0 0.32,0.135501 0.32,0.301114 0,0.165612 -0.144,0.390112 -0.32,0.498886 -0.176,0.108774 -0.32,-0.02672 -0.32,-0.301114 z m 3.643946,0.01085 c 0.106329,-0.423648 0.281344,-0.999648 0.388924,-1.28 0.107581,-0.280348 0.0482,-0.509728 -0.131968,-0.509728 -0.180163,0 -0.465814,0.396 -0.63478,0.88 l -0.307213,0.88 -0.234144,-0.88 c -0.128781,-0.484 -0.430016,-0.88 -0.669411,-0.88 -0.239399,0 -0.372061,0.18 -0.294807,0.4 0.629037,1.791325 0.840144,2.16 1.236842,2.16 0.249277,0 0.540227,-0.34662 0.646557,-0.770272 z m 5.409388,0.370272 c 0.117332,-0.32 0.231466,-0.32 0.570666,0 1.128538,1.064656 2.544166,0.01808 2.056,-1.52 -0.230845,-0.727331 -1.395341,-0.863264 -2.056,-0.24 -0.3392,0.32 -0.453334,0.32 -0.570666,0 -0.08067,-0.22 -0.422668,-0.4 -0.76,-0.4 C 58.196,45.76 57.92,45.544 57.92,45.28 c 0,-0.264 -0.144,-0.48 -0.32,-0.48 -0.176,0 -0.32,0.792 -0.32,1.76 0,1.731046 0.01536,1.76 0.933334,1.76 0.513332,0 0.999332,-0.18 1.08,-0.4 z m -1.226051,-0.32 c -0.118665,-0.308 -0.118665,-0.812 0,-1.12 0.205482,-0.533334 0.230727,-0.533334 0.530138,0 0.20584,0.36666 0.20584,0.753341 0,1.12 -0.299411,0.533335 -0.324656,0.533335 -0.530138,0 z m 2.536221,-0.05972 c -0.252122,-0.657014 0.102973,-1.555853 0.514237,-1.30168 C 61.294982,46.348144 61.44,46.708774 61.44,47.04 c 0,0.788365 -0.590442,1.141488 -0.836496,0.500282 z M 63.296,47.936 c 0.298666,-0.298666 0.384,-0.298666 0.384,0 0,0.2112 0.212912,0.384 0.473139,0.384 0.387037,0 0.407594,-0.143859 0.112954,-0.790525 -0.275415,-0.604464 -0.264576,-0.905725 0.04604,-1.28 C 64.648336,45.844381 64.628864,45.76 64.199181,45.76 63.913632,45.76 63.68,45.921632 63.68,46.119181 c 0,0.245632 -0.154192,0.231216 -0.487734,-0.0456 -0.636538,-0.528279 -1.003111,-0.15321 -0.473703,0.484688 0.338429,0.407782 0.309879,0.604109 -0.163997,1.127734 C 62.097299,48.19128 62.075338,48.32 62.446403,48.32 c 0.25608,0 0.638397,-0.1728 0.849597,-0.384 z M 72.16,46.72 c 0,-1.433011 -0.0058,-1.440483 -1.2,-1.539318 -1.102918,-0.09128 -1.2,-0.03236 -1.2,0.728217 0,0.813376 -0.01616,0.819181 -0.944109,0.339319 C 67.717763,45.680355 67.52,45.651392 67.52,46.058435 c 0,0.164141 0.324,0.401415 0.72,0.527277 l 0.72,0.228842 -0.72,0.321622 c -0.396,0.176896 -0.72,0.443619 -0.72,0.592723 0,0.378371 0.213523,0.342599 1.295891,-0.217117 0.899783,-0.465296 0.944109,-0.456876 0.944109,0.179319 0,0.575696 0.165094,0.653869 1.2,0.568217 1.194176,-0.09884 1.2,-0.106307 1.2,-1.539318 z m -1.44,0.67671 c 0,-0.460195 0.147638,-0.599971 0.493523,-0.467241 0.546173,0.209587 0.478992,0.799693 -0.113523,0.997197 -0.211027,0.07034 -0.38,-0.165312 -0.38,-0.529956 z m 0,-1.466668 c 0,-0.285466 0.187712,-0.397924 0.478163,-0.286468 0.262989,0.100919 0.39849,0.3124 0.301114,0.469956 C 71.220038,46.565347 70.72,46.447606 70.72,45.930042 Z M 73.659725,47.28 c 0.05515,-0.572 0.268275,-1.04 0.473609,-1.04 0.205332,0 0.481332,-0.108 0.613332,-0.24 0.132,-0.132 -0.288,-0.24 -0.933332,-0.24 -1.155555,0 -1.173334,0.01939 -1.173334,1.28 0,1.616592 0.867315,1.820723 1.019725,0.24 z m -55.711967,0.112102 -0.772241,-0.593667 0.719648,-0.385145 c 1.028562,-0.550468 0.551638,-0.816596 -0.604904,-0.33754 -1.15066,0.476618 -1.244875,1.054007 -0.250261,1.533693 1.20484,0.581072 1.770242,0.445699 0.907758,-0.217341 z M 56.48,47.36 c 0.115696,-0.1872 -0.216304,-0.32 -0.8,-0.32 -0.583696,0 -0.915696,0.1328 -0.8,0.32 0.108774,0.176 0.468774,0.32 0.8,0.32 0.331226,0 0.691226,-0.144 0.8,-0.32 z M 43.763731,47.140134 c -0.305949,-0.08009 -0.881949,-0.083 -1.28,-0.0065 -0.398051,0.07654 -0.147731,0.142074 0.556269,0.145626 0.704,0.0036 1.02968,-0.05907 0.723731,-0.139168 z m 0,-0.64 c -0.305949,-0.08009 -0.881949,-0.083 -1.28,-0.0065 -0.398051,0.07654 -0.147731,0.142074 0.556269,0.145626 0.704,0.0036 1.02968,-0.05907 0.723731,-0.139168 z M 46.4,45.56 c 0,-0.256 -0.334544,-0.44 -0.8,-0.44 -0.465456,0 -0.8,0.184 -0.8,0.44 0,0.256 0.334544,0.44 0.8,0.44 0.465456,0 0.8,-0.184 0.8,-0.44 z m 20.48,0 c 0,-0.256 -0.334544,-0.44 -0.8,-0.44 -0.465456,0 -0.8,0.184 -0.8,0.44 0,0.256 0.334544,0.44 0.8,0.44 0.465456,0 0.8,-0.184 0.8,-0.44 z M 22.72,45.12 c 0,-0.176 -0.144,-0.32 -0.32,-0.32 -0.176,0 -0.32,0.144 -0.32,0.32 0,0.176 0.144,0.32 0.32,0.32 0.176,0 0.32,-0.144 0.32,-0.32 z M 9.92,40.96 c 0,-1.28 -0.1371427,-2.24 -0.32,-2.24 -0.1828573,0 -0.32,0.96 -0.32,2.24 0,1.28 0.1371427,2.24 0.32,2.24 0.1828573,0 0.32,-0.96 0.32,-2.24 z m 0,-6.08 c 0,-1.28 -0.1371427,-2.24 -0.32,-2.24 -0.1828573,0 -0.32,0.96 -0.32,2.24 0,1.28 0.1371427,2.24 0.32,2.24 0.1828573,0 0.32,-0.96 0.32,-2.24 z M 2.6354108,35.933565 C 1.9312914,35.798221 1.9258652,35.768819 2.4433348,34.892813 2.7362171,34.397002 2.8868016,33.759286 2.7779672,33.47567 2.5648538,32.920304 0.96,32.747574 0.96,33.28 c 0,0.176 0.288,0.32 0.64,0.32 0.8206266,0 0.8206266,0.697344 0,1.44 -0.9353487,0.84648 -0.79021357,1.125456 0.56,1.076422 0.7519534,-0.0273 0.9294586,-0.09558 0.4754108,-0.182857 z M 21.12,34.4 c 0,-0.968 -0.144,-1.76 -0.32,-1.76 -0.176,0 -0.32,0.216 -0.32,0.48 0,0.264 -0.282933,0.48 -0.628741,0.48 -0.345808,0 -0.782874,0.288 -0.971259,0.64 -0.519392,0.970493 0.119181,1.92 1.291259,1.92 0.936656,0 0.948741,-0.02242 0.948741,-1.76 z m -1.452716,1.04 c -0.118666,-0.308 -0.118666,-0.812 0,-1.12 0.205482,-0.533334 0.230726,-0.533334 0.530137,0 0.205841,0.366659 0.205841,0.753341 0,1.12 -0.299411,0.533334 -0.324655,0.533334 -0.530137,0 z M 23.28,35.939414 c -0.395913,-0.103462 -0.56,-0.467641 -0.56,-1.242876 0,-0.931303 -0.108496,-1.09273 -0.72,-1.071274 -0.396,0.01389 -0.54,0.09789 -0.32,0.186666 0.22,0.08877 0.4,0.569404 0.4,1.06807 0,0.498666 -0.18,0.979299 -0.4,1.06807 -0.22,0.08877 0.176,0.156068 0.88,0.149546 0.704,-0.0065 1.028,-0.07771 0.72,-0.158202 z m 2.443945,-0.549686 c 0.106329,-0.423648 0.281346,-0.999648 0.388927,-1.28 C 26.220452,33.829379 26.161067,33.6 25.980903,33.6 c -0.180163,0 -0.465815,0.396 -0.634782,0.88 l -0.307213,0.88 -0.234145,-0.88 c -0.128779,-0.484 -0.430014,-0.88 -0.66941,-0.88 -0.239397,0 -0.372059,0.18 -0.294804,0.4 0.629034,1.791325 0.840142,2.16 1.23684,2.16 0.249277,0 0.540226,-0.346621 0.646556,-0.770272 z m 5.506803,0.534352 c -0.129755,-0.129754 -0.477755,-0.237754 -0.773333,-0.24 C 30.098594,35.681357 29.92,35.414144 29.92,34.88 c 0,-0.534144 0.178594,-0.801357 0.537415,-0.80408 0.295578,-0.0022 0.655371,-0.122038 0.79954,-0.266208 0.144169,-0.14417 -0.241667,-0.214333 -0.857415,-0.15592 -0.889238,0.08436 -1.141203,0.259107 -1.224846,0.849482 C 29.003145,35.714102 29.34458,36.16 30.44329,36.16 c 0.562857,0 0.917213,-0.106163 0.787458,-0.23592 z M 33.52,35.939408 c -0.437754,-0.114397 -0.56,-0.490499 -0.56,-1.722877 0,-1.429078 -0.06734,-1.574176 -0.72,-1.551273 -0.396,0.01389 -0.54,0.09789 -0.32,0.186665 0.233629,0.09427 0.4,0.738154 0.4,1.548071 0,0.809916 -0.166371,1.453798 -0.4,1.54807 -0.22,0.08877 0.176,0.156067 0.88,0.149546 0.704,-0.0065 1.028,-0.07771 0.72,-0.158202 z m 2.955632,-0.339414 c -0.01117,-1.430074 -0.385302,-2 -1.312954,-2 -0.507472,0 -0.922678,0.153702 -0.922678,0.341564 0,0.19594 0.272861,0.25496 0.64,0.138436 0.367139,-0.116525 0.64,-0.0575 0.64,0.138435 0,0.187862 -0.1872,0.341565 -0.416,0.341565 -0.614589,0 -1.158682,0.653635 -0.964758,1.158995 0.09777,0.254774 0.627737,0.441005 1.254995,0.441005 0.82239,0 1.084704,-0.135837 1.081395,-0.56 z M 34.88,35.378886 C 34.88,35.104499 35.024,34.88 35.2,34.88 c 0.176,0 0.32,0.135501 0.32,0.301114 0,0.165612 -0.144,0.390112 -0.32,0.498886 -0.176,0.108774 -0.32,-0.02672 -0.32,-0.301114 z m 3.84,0.131072 c 0,-0.357526 -0.216,-0.732931 -0.48,-0.834236 -0.264,-0.101309 -0.48,-0.308269 -0.48,-0.459914 0,-0.151648 0.216,-0.192835 0.48,-0.09153 0.264,0.101309 0.48,0.0248 0.48,-0.170041 0,-0.470957 -1.499187,-0.45624 -1.792029,0.0176 -0.129312,0.209232 0.07233,0.616473 0.461114,0.931293 0.865225,0.700617 0.887629,1.042444 0.05091,0.776883 -0.367139,-0.116525 -0.64,-0.0575 -0.64,0.138435 0,0.187862 0.432,0.341565 0.96,0.341565 0.75161,0 0.96,-0.141107 0.96,-0.650042 z m 2.56,0 c 0,-0.357526 -0.216,-0.732931 -0.48,-0.834236 -0.264,-0.101309 -0.48,-0.308269 -0.48,-0.459914 0,-0.151648 0.216,-0.192835 0.48,-0.09153 0.264,0.101309 0.48,0.0248 0.48,-0.170041 0,-0.470957 -1.499187,-0.45624 -1.792029,0.0176 -0.129312,0.209232 0.07233,0.616473 0.461114,0.931293 0.865225,0.700617 0.887629,1.042444 0.05092,0.776883 -0.367139,-0.116525 -0.64,-0.0575 -0.64,0.138435 0,0.187862 0.432,0.341565 0.96,0.341565 0.75161,0 0.96,-0.141107 0.96,-0.650042 z M 47.739725,35.12 C 47.794877,34.548 47.984,34.08 48.16,34.08 c 0.176,0 0.365123,0.468 0.420275,1.04 0.09496,0.984902 0.671085,1.493488 0.724989,0.64 0.02022,-0.32 0.05754,-0.32 0.186666,0 0.08877,0.22 0.653404,0.4 1.254736,0.4 1.152963,0 1.302208,-0.307984 0.891641,-1.84 C 51.494778,33.784419 51.209024,33.6 50.522678,33.6 50.015206,33.6 49.6,33.753702 49.6,33.941565 c 0,0.195939 0.272861,0.25496 0.64,0.138435 0.90593,-0.28753 0.792,0.247213 -0.145251,0.681754 -0.688871,0.319385 -0.791651,0.281904 -0.877504,-0.32 -0.07272,-0.509818 -0.35953,-0.707044 -1.137245,-0.782029 -1.019155,-0.09827 -1.04,-0.07421 -1.04,1.2 0,1.545641 0.555856,1.752403 0.699725,0.260275 z M 50.24,35.378886 c 0,-0.274387 0.144,-0.498886 0.32,-0.498886 0.176,0 0.32,0.135501 0.32,0.301114 0,0.165612 -0.144,0.390112 -0.32,0.498886 -0.176,0.108774 -0.32,-0.02672 -0.32,-0.301114 z m 3.643946,0.01085 c 0.106329,-0.423648 0.281344,-0.999648 0.388924,-1.28 0.107581,-0.280348 0.0482,-0.509728 -0.131968,-0.509728 -0.180163,0 -0.465814,0.396 -0.63478,0.88 l -0.307213,0.88 -0.234144,-0.88 c -0.128781,-0.484 -0.430016,-0.88 -0.669411,-0.88 -0.239399,0 -0.372061,0.18 -0.294807,0.4 0.629037,1.791325 0.840144,2.16 1.236842,2.16 0.249277,0 0.540227,-0.34662 0.646557,-0.770272 z m 5.409388,0.370272 c 0.117332,-0.32 0.231466,-0.32 0.570666,0 0.660659,0.623264 1.825155,0.487332 2.056,-0.24 0.488166,-1.53808 -0.927462,-2.584656 -2.056,-1.52 -0.3392,0.32 -0.453334,0.32 -0.570666,0 -0.08067,-0.22 -0.422668,-0.4 -0.76,-0.4 C 58.196,33.6 57.92,33.384 57.92,33.12 c 0,-0.264 -0.144,-0.48 -0.32,-0.48 -0.176,0 -0.32,0.792 -0.32,1.76 0,1.731046 0.01536,1.76 0.933334,1.76 0.513332,0 0.999332,-0.18 1.08,-0.4 z m -1.226051,-0.32 c -0.118665,-0.308 -0.118665,-0.812 0,-1.12 0.205482,-0.533334 0.230727,-0.533334 0.530138,0 0.20584,0.36666 0.20584,0.753341 0,1.12 -0.299411,0.533335 -0.324656,0.533335 -0.530138,0 z m 2.536221,-0.05972 c -0.252122,-0.657014 0.102973,-1.555853 0.514237,-1.30168 C 61.294982,34.188144 61.44,34.548774 61.44,34.88 c 0,0.788365 -0.590442,1.141488 -0.836496,0.500282 z M 63.296,35.776 c 0.298666,-0.298666 0.384,-0.298666 0.384,0 0,0.2112 0.212912,0.384 0.473139,0.384 0.387037,0 0.407594,-0.143859 0.112954,-0.790525 -0.275415,-0.604464 -0.264576,-0.905725 0.04604,-1.28 C 64.648336,33.684381 64.628864,33.6 64.199181,33.6 63.913632,33.6 63.68,33.761632 63.68,33.959181 c 0,0.245632 -0.154192,0.231216 -0.487734,-0.0456 -0.636538,-0.528279 -1.003111,-0.15321 -0.473703,0.484688 0.338429,0.407782 0.309879,0.604109 -0.163997,1.127734 C 62.097299,36.03128 62.075338,36.16 62.446403,36.16 c 0.25608,0 0.638397,-0.1728 0.849597,-0.384 z m 8.064,-0.880099 c 0,-0.866317 0.176221,-1.366736 0.56,-1.590269 0.439872,-0.256202 0.251098,-0.32617 -0.88,-0.32617 -1.131098,0 -1.319872,0.06997 -0.88,0.32617 0.383779,0.223533 0.56,0.723952 0.56,1.590269 0,0.695254 0.144,1.264099 0.32,1.264099 0.176,0 0.32,-0.568845 0.32,-1.264099 z m 3.2,0.93007 c 0,-0.183715 -0.237062,-0.291715 -0.526803,-0.24 C 73.743456,35.637686 73.443456,35.5 73.366531,35.28 c -0.08906,-0.25472 0.168899,-0.4 0.710266,-0.4 1.169104,0 0.975833,-1.080816 -0.21801,-1.219178 C 72.777024,33.53545 72.116854,34.542496 72.64,35.52 c 0.355491,0.66424 1.92,0.913558 1.92,0.305971 z m -1.116774,-1.59119 c 0.110547,-0.178871 0.335046,-0.242375 0.498886,-0.141114 0.443853,0.274314 0.361091,0.466333 -0.200998,0.466333 -0.274388,0 -0.408436,-0.146349 -0.297888,-0.325219 z m -55.495468,0.997321 -0.772241,-0.593667 0.719648,-0.385145 c 1.028562,-0.550468 0.551638,-0.816596 -0.604904,-0.33754 -1.15066,0.476618 -1.244875,1.054007 -0.250261,1.533693 1.20484,0.581072 1.770242,0.445699 0.907758,-0.217341 z m 50.868133,0.11968 C 69.335152,35.083264 69.76,34.79896 69.76,34.72 c 0,-0.155894 -1.7768,-1.12 -2.064109,-1.12 -0.493731,0 -0.08043,0.627213 0.544109,0.825712 l 0.72,0.228842 -0.72,0.321622 c -0.396,0.176896 -0.72,0.443619 -0.72,0.592723 0,0.378371 0.213523,0.342599 1.295891,-0.217117 z M 56.48,35.2 c 0.115696,-0.1872 -0.216304,-0.32 -0.8,-0.32 -0.583696,0 -0.915696,0.1328 -0.8,0.32 0.108774,0.176 0.468774,0.32 0.8,0.32 0.331226,0 0.691226,-0.144 0.8,-0.32 z M 43.763731,34.980134 c -0.305949,-0.08009 -0.881949,-0.083 -1.28,-0.0065 -0.398051,0.07654 -0.147731,0.142074 0.556269,0.145626 0.704,0.0036 1.02968,-0.05907 0.723731,-0.139168 z m 0,-0.64 c -0.305949,-0.08009 -0.881949,-0.083 -1.28,-0.0065 -0.398051,0.07654 -0.147731,0.142074 0.556269,0.145626 0.704,0.0036 1.02968,-0.05907 0.723731,-0.139168 z M 46.4,33.4 c 0,-0.256 -0.334544,-0.44 -0.8,-0.44 -0.465456,0 -0.8,0.184 -0.8,0.44 0,0.256 0.334544,0.44 0.8,0.44 0.465456,0 0.8,-0.184 0.8,-0.44 z m 20.48,0 c 0,-0.256 -0.334544,-0.44 -0.8,-0.44 -0.465456,0 -0.8,0.184 -0.8,0.44 0,0.256 0.334544,0.44 0.8,0.44 0.465456,0 0.8,-0.184 0.8,-0.44 z M 22.72,32.96 c 0,-0.176 -0.144,-0.32 -0.32,-0.32 -0.176,0 -0.32,0.144 -0.32,0.32 0,0.176 0.144,0.32 0.32,0.32 0.176,0 0.32,-0.144 0.32,-0.32 z M 9.92,28.8 c 0,-1.28 -0.1371427,-2.24 -0.32,-2.24 -0.1828573,0 -0.32,0.96 -0.32,2.24 0,1.28 0.1371427,2.24 0.32,2.24 0.1828573,0 0.32,-0.96 0.32,-2.24 z M 2.56,28.48 C 2.56,26.801047 2.0872175,26.387363 1.28,27.36 1.0047666,27.691636 0.99265565,27.84 1.2408177,27.84 1.438368,27.84 1.6,28.344 1.6,28.96 c 0,0.782222 0.1447619,1.12 0.48,1.12 0.3626667,0 0.48,-0.391111 0.48,-1.6 z M 9.28,18.4 c 0,-0.264 0.276,-0.48 0.6133334,-0.48 0.3373336,0 0.6793336,-0.18 0.7599996,-0.4 0.117334,-0.32 0.231467,-0.32 0.570667,0 0.66066,0.623265 1.825154,0.487332 2.056,-0.24 0.488168,-1.538081 -0.927464,-2.584657 -2.056,-1.52 -0.3392,0.32 -0.453333,0.32 -0.570667,0 -0.08067,-0.22 -0.566666,-0.4 -1.0799996,-0.4 C 8.6553536,15.36 8.64,15.388952 8.64,17.12 c 0,0.968 0.144,1.76 0.32,1.76 0.176,0 0.32,-0.216 0.32,-0.48 z m 0.1472835,-1.2 c -0.1186659,-0.308 -0.1186659,-0.812 0,-1.12 0.2054823,-0.533333 0.2307267,-0.533333 0.5301373,0 0.2058412,0.36666 0.2058412,0.75334 0,1.12 -0.2994106,0.533333 -0.324655,0.533333 -0.5301373,0 z M 11.963503,17.14028 C 11.711383,16.483268 12.066476,15.584428 12.47774,15.838603 12.654983,15.948145 12.8,16.308774 12.8,16.64 c 0,0.788364 -0.590443,1.141489 -0.836497,0.500282 z M 34.88,18.4 c 0,-0.264 0.278298,-0.48 0.618435,-0.48 0.705383,0 1.121959,-0.97354 0.821565,-1.92 -0.142294,-0.448333 -0.48417,-0.64 -1.141565,-0.64 -0.924163,0 -0.938435,0.02677 -0.938435,1.76 0,0.968 0.144,1.76 0.32,1.76 0.176,0 0.32,-0.216 0.32,-0.48 z m 0.147283,-1.2 c -0.118665,-0.308 -0.118665,-0.812 0,-1.12 0.205482,-0.533333 0.230727,-0.533333 0.530138,0 0.20584,0.36666 0.20584,0.75334 0,1.12 -0.299411,0.533333 -0.324656,0.533333 -0.530138,0 z M 3.2,17.6 c 0,-0.176 -0.36,-0.32 -0.8,-0.32 -0.6755556,0 -0.8,-0.149333 -0.8,-0.96 0,-0.810667 0.1244444,-0.96 0.8,-0.96 0.44,0 0.8,-0.144 0.8,-0.32 0,-0.176 -0.4355641,-0.32 -0.9679203,-0.32 -1.1705113,0 -1.76099608,1.114052 -1.2720797,2.4 0.2319111,0.609972 0.534074,0.8 1.2720797,0.8 C 2.7644359,17.92 3.2,17.776 3.2,17.6 Z m 2.265263,-0.08 c 0.020211,-0.32 0.057544,-0.32 0.1866669,0 0.3045344,0.754716 0.7480922,0.399551 0.7992819,-0.64 l 0.051212,-1.04 0.129063,1.04 c 0.1671309,1.346757 0.713408,1.346757 0.7797251,0 l 0.051212,-1.04 0.129063,1.04 C 7.7743018,18.353142 8.32,18.173368 8.32,16.64 V 15.36 H 7.04 c -0.797193,0 -1.289529,0.150877 -1.305263,0.4 -0.020211,0.32 -0.057544,0.32 -0.1866669,0 C 5.3425994,15.25079 4.0874352,15.240565 3.584,15.744 c -0.4914923,0.491492 -0.4914923,1.300508 0,1.792 0.5055789,0.505579 1.8490429,0.494153 1.881263,-0.016 z M 4.2835034,17.140282 C 4.0313834,16.483268 4.3864755,15.584428 4.7977398,15.838603 4.974983,15.948145 5.12,16.308774 5.12,16.64 c 0,0.788364 -0.5904426,1.141489 -0.8364966,0.500282 z M 14.459725,16.88 C 14.514876,16.308 14.704,15.84 14.88,15.84 c 0.176,0 0.365124,0.468 0.420275,1.04 0.103619,1.074693 0.692202,1.472914 0.709456,0.48 0.0093,-0.533333 0.02526,-0.533333 0.335901,0 0.348969,0.599144 1.894368,0.783489 1.894368,0.225972 0,-0.183715 -0.237061,-0.291715 -0.526802,-0.24 C 17.423457,17.397687 17.123457,17.26 17.046531,17.04 c -0.08907,-0.254721 0.168901,-0.4 0.710266,-0.4 0.636975,0 0.823369,-0.140411 0.743398,-0.56 -0.142248,-0.746341 -1.55742,-0.926998 -2.044421,-0.260986 -0.335744,0.459158 -0.401992,0.462703 -0.567885,0.03039 C 15.7765,15.559131 15.305392,15.36 14.730043,15.36 13.81166,15.36 13.76,15.428166 13.76,16.64 c 0,1.530528 0.556879,1.721532 0.699725,0.24 z m 2.663501,-0.88522 c 0.110548,-0.178871 0.335047,-0.242372 0.498885,-0.141114 0.443854,0.274316 0.361092,0.466334 -0.200996,0.466334 -0.274387,0 -0.408437,-0.146349 -0.297889,-0.32522 z M 19.579725,16.88 C 19.634876,16.308 19.824,15.84 20,15.84 c 0.176,0 0.365124,0.468 0.420275,1.04 0.05515,0.572 0.243843,1.04 0.419317,1.04 0.175473,0 0.274349,-0.54 0.219725,-1.2 -0.09067,-1.095545 -0.189844,-1.208728 -1.139317,-1.300275 -1.019155,-0.09826 -1.04,-0.07421 -1.04,1.2 0,1.545641 0.555857,1.752402 0.699725,0.260275 z M 23.12,17.70807 c -0.643052,-0.259477 -0.505611,-2.023306 0.16,-2.053333 0.446059,-0.02013 0.462336,-0.06244 0.08,-0.207982 -0.264,-0.100496 -0.577025,-0.331868 -0.695611,-0.51416 -0.398164,-0.612065 -1.144513,0.371456 -0.993673,1.309437 0.240136,1.493247 0.36578,1.678778 1.119241,1.652705 C 23.191481,17.880843 23.34,17.796842 23.12,17.70807 Z m 5.12,0 c -0.643052,-0.259477 -0.505611,-2.023306 0.16,-2.053333 0.446059,-0.02013 0.462336,-0.06244 0.08,-0.207982 -0.264,-0.100496 -0.577025,-0.331868 -0.695611,-0.51416 -0.398164,-0.612065 -1.144513,0.371456 -0.993673,1.309437 0.240136,1.493247 0.36578,1.678778 1.119241,1.652705 C 28.311481,17.880842 28.46,17.796842 28.24,17.70807 Z m 2.8,-0.122098 c 0,-0.183715 -0.237061,-0.291715 -0.526802,-0.24 C 30.223457,17.397687 29.923457,17.26 29.846531,17.04 c -0.08842,-0.252868 0.164208,-0.4 0.686802,-0.4 0.613334,0 0.826667,0.165161 0.826667,0.64 0,1.077904 0.636577,0.709521 0.691213,-0.4 l 0.05121,-1.04 0.129066,1.04 c 0.07098,0.572 0.263939,1.04 0.428787,1.04 0.164848,0 0.322771,-0.468 0.350938,-1.04 l 0.05121,-1.04 0.129066,1.04 C 33.373805,18.349142 33.92,18.175258 33.92,16.648073 v -1.271926 l -2.244307,0.02101 c -1.868214,0.01749 -2.299097,0.123387 -2.571259,0.631926 C 28.639085,16.898597 29.258558,17.92 30.251259,17.92 30.685067,17.92 31.04,17.769687 31.04,17.585972 Z M 29.923226,15.99478 c 0.110548,-0.178871 0.335047,-0.242372 0.498885,-0.141114 0.443854,0.274316 0.361092,0.466334 -0.200996,0.466334 -0.274387,0 -0.408437,-0.146349 -0.297889,-0.32522 z M 38.64,17.699416 c -0.437754,-0.114397 -0.56,-0.4905 -0.56,-1.72288 0,-1.429078 -0.06734,-1.574173 -0.72,-1.551273 -0.396,0.01389 -0.54,0.0979 -0.32,0.186667 0.233629,0.09427 0.4,0.738152 0.4,1.54807 0,0.809918 -0.166371,1.453798 -0.4,1.54807 -0.22,0.08877 0.176,0.156068 0.88,0.149546 0.704,-0.0065 1.028,-0.07771 0.72,-0.1582 z M 41.595632,17.36 c -0.01116,-1.430073 -0.385302,-2 -1.312954,-2 -0.507472,0 -0.922678,0.153704 -0.922678,0.341564 0,0.19594 0.272861,0.254961 0.64,0.138436 0.367139,-0.116525 0.64,-0.0575 0.64,0.138436 0,0.18786 -0.1872,0.341564 -0.416,0.341564 -0.614589,0 -1.158682,0.653635 -0.964758,1.158994 0.09777,0.254774 0.627737,0.441006 1.254995,0.441006 0.82239,0 1.084704,-0.135838 1.081395,-0.56 z M 40,17.138885 C 40,16.864499 40.144,16.64 40.32,16.64 c 0.176,0 0.32,0.135501 0.32,0.301115 0,0.165613 -0.144,0.390111 -0.32,0.498885 C 40.144,17.548774 40,17.413274 40,17.138885 Z m 3.6,0.569185 c -0.643053,-0.259477 -0.50561,-2.023306 0.16,-2.053333 0.446058,-0.02013 0.462336,-0.06244 0.08,-0.207982 -0.264,-0.100496 -0.577024,-0.331868 -0.69561,-0.51416 -0.398166,-0.612065 -1.144515,0.371456 -0.993673,1.309437 0.240134,1.493247 0.365779,1.678778 1.119241,1.652705 C 43.671482,17.880843 43.82,17.796842 43.6,17.70807 Z m 2.8,-0.122098 c 0,-0.183715 -0.237062,-0.291715 -0.526803,-0.24 C 45.583456,17.397687 45.283456,17.26 45.206531,17.04 c -0.08906,-0.254721 0.168899,-0.4 0.710266,-0.4 1.169104,0 0.975833,-1.080815 -0.21801,-1.219178 C 44.617024,15.295448 43.956854,16.302494 44.48,17.28 c 0.355491,0.664239 1.92,0.91356 1.92,0.305972 z M 45.283226,15.99478 c 0.110547,-0.178871 0.335046,-0.242372 0.498886,-0.141114 0.443853,0.274316 0.361091,0.466334 -0.200998,0.466334 -0.274388,0 -0.408436,-0.146349 -0.297888,-0.32522 z M 51.52,17.269957 c 0,-0.357524 -0.216,-0.73293 -0.48,-0.834237 -0.264,-0.101306 -0.48,-0.308267 -0.48,-0.459913 0,-0.151647 0.216,-0.192834 0.48,-0.09153 0.264,0.101306 0.48,0.02479 0.48,-0.170044 0,-0.470954 -1.499187,-0.45624 -1.792029,0.01759 -0.129312,0.209231 0.07233,0.616472 0.461114,0.931293 0.865225,0.700617 0.887629,1.042444 0.05092,0.776882 -0.367139,-0.116525 -0.64,-0.0575 -0.64,0.138436 0,0.187861 0.432,0.341565 0.96,0.341565 0.75161,0 0.96,-0.141106 0.96,-0.650043 z M 52.859725,16.88 C 52.914877,16.308 53.104,15.84 53.28,15.84 c 0.176,0 0.365123,0.468 0.420275,1.04 0.09247,0.959024 0.699725,1.528335 0.699725,0.656 0,-0.298667 0.08533,-0.298667 0.384,0 1.068422,1.068421 2.497123,-0.02012 2.016,-1.536 -0.22031,-0.694133 -1.563587,-0.896688 -1.937232,-0.292118 -0.154822,0.25051 -0.312374,0.25051 -0.562886,0 C 54.108547,15.516547 53.6928,15.36 53.376,15.36 c -0.3168,0 -0.576,-0.216 -0.576,-0.48 0,-0.264 -0.144,-0.48 -0.32,-0.48 -0.176,0 -0.32,0.792 -0.32,1.76 0,1.890632 0.533888,2.439989 0.699725,0.72 z m 2.623779,0.260282 C 55.231382,16.483268 55.586477,15.584428 55.997741,15.838603 56.174982,15.948145 56.32,16.308774 56.32,16.64 c 0,0.788364 -0.590442,1.141489 -0.836496,0.500282 z M 59.52,16.64 c 0,-0.704 -0.144,-1.28 -0.32,-1.28 -0.176,0 -0.32,0.276223 -0.32,0.613828 0,0.905305 -0.34601,1.647868 -0.67353,1.445448 C 58.048912,17.3219 57.92,16.818728 57.92,16.301115 57.92,15.783501 57.776,15.36 57.6,15.36 c -0.176,0 -0.32,0.576 -0.32,1.28 0,1.249524 0.02666,1.28 1.12,1.28 1.093334,0 1.12,-0.03048 1.12,-1.28 z m 2.16,1.059416 c -0.437754,-0.114397 -0.56,-0.4905 -0.56,-1.72288 0,-1.429078 -0.06734,-1.574173 -0.72,-1.551273 -0.396,0.01389 -0.54,0.0979 -0.32,0.186667 0.233629,0.09427 0.4,0.738152 0.4,1.54807 0,0.809918 -0.166371,1.453798 -0.4,1.54807 -0.22,0.08877 0.176,0.156068 0.88,0.149546 0.704,-0.0065 1.028,-0.07771 0.72,-0.1582 z M 64.64,16.16 c 0,-0.968 -0.144,-1.76 -0.32,-1.76 -0.176,0 -0.32,0.216 -0.32,0.48 0,0.264 -0.282934,0.48 -0.628742,0.48 -0.345808,0 -0.782874,0.288 -0.971258,0.64 -0.519392,0.970492 0.119181,1.92 1.291258,1.92 0.936656,0 0.948742,-0.02242 0.948742,-1.76 z m -1.452717,1.04 c -0.118665,-0.308 -0.118665,-0.812 0,-1.12 0.205482,-0.533333 0.230727,-0.533333 0.530138,0 0.20584,0.36666 0.20584,0.75334 0,1.12 -0.299411,0.533333 -0.324656,0.533333 -0.530138,0 z m 6.443466,0.484081 c -0.129757,-0.129755 -0.477757,-0.237755 -0.773335,-0.24 C 68.498595,17.441356 68.32,17.174143 68.32,16.64 c 0,-0.534143 0.178595,-0.801356 0.537414,-0.804081 0.295578,-0.0022 0.655373,-0.122038 0.79954,-0.266207 0.144169,-0.14417 -0.241668,-0.214333 -0.857415,-0.155919 -0.889238,0.08436 -1.141203,0.259107 -1.224845,0.849479 -0.171548,1.21083 0.169885,1.656728 1.268596,1.656728 0.562857,0 0.917212,-0.106164 0.787459,-0.235919 z M 72.16,17.28 c 0.319994,-1.008206 -0.115754,-1.92 -0.917565,-1.92 -0.837606,0 -1.482435,0.556772 -1.482435,1.28 0,1.267904 2.028986,1.808967 2.4,0.64 z M 70.843504,17.140282 C 70.591382,16.483268 70.946477,15.584428 71.357741,15.838603 71.534982,15.948145 71.68,16.308774 71.68,16.64 c 0,0.788364 -0.590442,1.141489 -0.836496,0.500282 z M 73.339725,16.88 C 73.394877,16.308 73.584,15.84 73.76,15.84 c 0.176,0 0.365123,0.468 0.420275,1.04 0.05515,0.572 0.243843,1.04 0.419315,1.04 0.175476,0 0.274352,-0.54 0.219728,-1.2 -0.09067,-1.095545 -0.189846,-1.208728 -1.139318,-1.300275 -1.019155,-0.09826 -1.04,-0.07421 -1.04,1.2 0,1.545641 0.555856,1.752402 0.699725,0.260275 z M 76.88,17.70807 c -0.643053,-0.259477 -0.50561,-2.023306 0.16,-2.053333 0.446058,-0.02013 0.462336,-0.06244 0.08,-0.207982 -0.264,-0.100496 -0.577024,-0.331868 -0.69561,-0.51416 -0.398166,-0.612065 -1.144515,0.371456 -0.993673,1.309437 0.240134,1.493247 0.365779,1.678778 1.119241,1.652705 C 76.951482,17.880843 77.1,17.796842 76.88,17.70807 Z M 27.2,6.24 C 27.2,5.976 27.478296,5.76 27.818436,5.76 28.523819,5.76 28.940395,4.7864602 28.64,3.84 28.497705,3.3916672 28.155829,3.2 27.498436,3.2 26.574271,3.2 26.56,3.2267651 26.56,4.96 c 0,0.968 0.144,1.76 0.32,1.76 0.176,0 0.32,-0.216 0.32,-0.48 z m 0.147284,-1.2 c -0.118666,-0.308 -0.118666,-0.812 0,-1.12 0.205482,-0.5333334 0.230726,-0.5333334 0.530137,0 0.205841,0.3666605 0.205841,0.7533395 0,1.12 -0.299411,0.5333334 -0.324655,0.5333334 -0.530137,0 z M 41.54521,5.9773197 C 41.616931,5.5989619 41.418867,5.3327162 40.980378,5.2180483 40.424666,5.0727267 40.383488,4.9775814 40.74783,4.6807286 40.991338,4.482328 41.281642,4.0589546 41.392954,3.7398989 41.565178,3.2462563 41.440685,3.1747171 40.55767,3.2598989 39.786272,3.3343136 39.508202,3.5242272 39.474016,4 39.372083,5.4186768 39.266349,5.5467936 39.077875,4.48 38.904672,3.4996406 38.750333,3.3474979 37.84,3.2597254 c -1.019155,-0.098265 -1.04,-0.074213 -1.04,1.2 0,1.545641 0.555856,1.7524016 0.699725,0.2602746 0.12327,-1.2784963 0.702246,-1.3719094 0.843833,-0.1361453 0.155412,1.3564666 1.003815,2.1792071 2.133821,2.0692794 0.626122,-0.060909 0.995597,-0.2947443 1.067831,-0.6758144 z M 39.853667,6.1021114 C 39.617011,5.7191987 40.218986,5.3397987 40.645219,5.6032259 41.003094,5.8244048 40.768154,6.4 40.32,6.4 40.164774,6.4 39.954925,6.2659501 39.853667,6.1021114 Z M 40,4 c 0,-0.264 0.144,-0.48 0.32,-0.48 0.176,0 0.32,0.216 0.32,0.48 0,0.264 -0.144,0.48 -0.32,0.48 C 40.144,4.48 40,4.264 40,4 Z M 52.8,6.24 C 52.8,5.976 53.078298,5.76 53.418435,5.76 54.123818,5.76 54.540394,4.7864602 54.24,3.84 54.097706,3.3916672 53.75583,3.2 53.098435,3.2 52.174272,3.2 52.16,3.2267651 52.16,4.96 c 0,0.968 0.144,1.76 0.32,1.76 0.176,0 0.32,-0.216 0.32,-0.48 z m 0.147283,-1.2 c -0.118665,-0.308 -0.118665,-0.812 0,-1.12 0.205482,-0.5333334 0.230727,-0.5333334 0.530138,0 0.20584,0.3666605 0.20584,0.7533395 0,1.12 -0.299411,0.5333334 -0.324656,0.5333334 -0.530138,0 z M 2.5837245,5.4792758 C 1.5284408,5.1843782 1.3852186,4.5438061 2.2932007,4.1798854 L 3.04,3.8805674 2.2933333,3.8602835 C 1.3415009,3.8344266 1.5415805,3.1319497 2.5837245,2.8407242 3.2280624,2.660665 3.1560453,2.6183738 2.16,2.5918976 L 0.96,2.56 v 1.6 1.6 L 2.16,5.728102 C 3.1560453,5.7016256 3.2280624,5.659335 2.5837245,5.4792758 Z M 4.5397254,4.72 C 4.5948765,4.148 4.808,3.68 5.0133334,3.68 5.2186666,3.68 5.4946666,3.572 5.6266666,3.44 5.7586666,3.308 5.3386666,3.2 4.6933334,3.2 3.5377779,3.2 3.52,3.2193939 3.52,4.48 c 0,1.616593 0.8673152,1.8207219 1.0197254,0.24 z m 2.56,0 C 7.1548765,4.148 7.368,3.68 7.5733334,3.68 7.7786666,3.68 8.0546666,3.572 8.1866666,3.44 8.3186666,3.308 7.8986666,3.2 7.2533334,3.2 6.0977779,3.2 6.08,3.2193939 6.08,4.48 c 0,1.616593 0.8673152,1.8207219 1.0197254,0.24 z M 10.72,5.12 C 11.039992,4.1117936 10.604248,3.2 9.8024358,3.2 8.9648278,3.2 8.32,3.7567725 8.32,4.48 c 0,1.2679043 2.028984,1.8089667 2.4,0.64 z M 9.4035034,4.9802822 C 9.1513834,4.3232675 9.5064755,3.4244278 9.9177398,3.6786032 10.094983,3.7881453 10.24,4.1487741 10.24,4.48 10.24,5.2683635 9.6495574,5.6214886 9.4035034,4.9802822 Z M 12.219725,4.72 c 0.05515,-0.572 0.268275,-1.04 0.473608,-1.04 0.205334,0 0.481334,-0.108 0.613334,-0.24 0.132,-0.132 -0.288,-0.24 -0.933334,-0.24 C 11.217778,3.2 11.2,3.2193939 11.2,4.48 c 0,1.616593 0.867315,1.8207219 1.019725,0.24 z M 15.68,5.1099568 C 15.68,4.7524333 15.464,4.3770269 15.2,4.2757203 14.936,4.1744141 14.72,3.9674531 14.72,3.8158067 c 0,-0.1516464 0.216,-0.1928336 0.48,-0.091527 0.264,0.1013062 0.48,0.024787 0.48,-0.1700432 0,-0.4709549 -1.499187,-0.4562408 -1.792029,0.017587 -0.129312,0.209231 0.07233,0.6164726 0.461114,0.9312937 C 15.21431,5.203735 15.236713,5.5455622 14.4,5.28 14.03286,5.1634746 13.76,5.222496 13.76,5.4184358 13.76,5.6062963 14.192,5.76 14.72,5.76 c 0.751611,0 0.96,-0.1411062 0.96,-0.6500432 z m 5.310748,0.4141245 C 20.860993,5.3943261 20.512993,5.2863261 20.217415,5.2840813 19.858594,5.2813562 19.68,5.0141434 19.68,4.48 c 0,-0.5341434 0.178594,-0.8013562 0.537415,-0.8040813 0.295578,-0.00224 0.655371,-0.1220377 0.79954,-0.266207 C 21.161124,3.2655424 20.775288,3.1953791 20.15954,3.253793 19.270302,3.338152 19.018337,3.5128995 18.934694,4.1032723 18.763145,5.3141021 19.10458,5.76 20.20329,5.76 c 0.562857,0 0.917213,-0.1061635 0.787458,-0.2359187 z M 23.385263,5.36 c 0.02021,-0.32 0.05754,-0.32 0.186667,0 0.304534,0.7547158 0.748092,0.3995507 0.799282,-0.64 l 0.05121,-1.04 0.129063,1.04 c 0.07098,0.572 0.263939,1.04 0.428788,1.04 0.164849,0 0.32277,-0.468 0.350937,-1.04 l 0.05121,-1.04 0.129063,1.04 C 25.694302,6.1931421 26.24,6.0133683 26.24,4.48 V 3.2 h -1.28 c -0.797193,0 -1.289529,0.1508771 -1.305263,0.4 -0.02021,0.32 -0.05754,0.32 -0.186667,0 C 23.262599,3.0907896 22.007435,3.0805646 21.504,3.584 c -0.491492,0.4914922 -0.491492,1.3005078 0,1.792 0.505579,0.5055789 1.849043,0.494153 1.881263,-0.016 z M 22.203503,4.9802822 C 21.951383,4.3232675 22.306476,3.4244278 22.71774,3.6786032 22.894983,3.7881453 23.04,4.1487741 23.04,4.48 c 0,0.7883635 -0.590443,1.1414886 -0.836497,0.5002822 z M 30.96,5.5394157 C 30.564087,5.435953 30.4,5.0717734 30.4,4.2965363 30.4,3.3652355 30.291504,3.2038067 29.68,3.225263 c -0.396,0.013894 -0.54,0.097895 -0.32,0.1866669 0.22,0.088772 0.4,0.5694035 0.4,1.0680701 0,0.4986666 -0.18,0.9792982 -0.4,1.0680701 -0.22,0.088772 0.176,0.1560678 0.88,0.1495462 0.704,-0.00652 1.028,-0.077712 0.72,-0.1582006 z m 2.56,0 C 33.082246,5.4250192 32.96,5.0489162 32.96,3.8165363 c 0,-1.4290786 -0.06734,-1.5741734 -0.72,-1.5512731 -0.396,0.013895 -0.54,0.097895 -0.32,0.1866666 0.233629,0.094272 0.4,0.7381521 0.4,1.5480702 0,0.8099181 -0.166371,1.4537984 -0.4,1.5480701 -0.22,0.088772 0.176,0.1560678 0.88,0.1495462 0.704,-0.00652 1.028,-0.077712 0.72,-0.1582006 z m 2.56,0 C 35.684086,5.435953 35.52,5.0717734 35.52,4.2965363 35.52,3.3652355 35.411504,3.2038067 34.8,3.225263 c -0.396,0.013894 -0.54,0.097895 -0.32,0.1866669 0.22,0.088772 0.4,0.5694035 0.4,1.0680701 0,0.4986666 -0.18,0.9792982 -0.4,1.0680701 -0.22,0.088772 0.176,0.1560678 0.88,0.1495462 0.704,-0.00652 1.028,-0.077712 0.72,-0.1582006 z m 10.08,0.00866 C 45.516947,5.2885946 45.65439,3.5247661 46.32,3.4947386 46.766058,3.4746138 46.782336,3.4322979 46.4,3.2867565 46.136,3.1862609 45.822976,2.9548888 45.70439,2.7725962 45.306224,2.1605316 44.559875,3.1440523 44.710717,4.0820336 44.950851,5.575281 45.076496,5.7608118 45.829958,5.7347386 46.231482,5.7208442 46.38,5.6368438 46.16,5.5480717 Z m 2.8,-0.1220995 c 0,-0.1837152 -0.237062,-0.2917152 -0.526803,-0.24 C 48.143456,5.2376874 47.843456,5.1 47.766531,4.88 c -0.08842,-0.2528682 0.164208,-0.4 0.686803,-0.4 0.613332,0 0.826666,0.1651613 0.826666,0.64 0,1.0779037 0.636576,0.709521 0.691213,-0.4 l 0.05121,-1.04 0.129066,1.04 c 0.07098,0.572 0.263939,1.04 0.428787,1.04 0.164848,0 0.322771,-0.468 0.350938,-1.04 l 0.05121,-1.04 0.129066,1.04 C 51.293805,6.1891424 51.84,6.0152579 51.84,4.4880733 V 3.2161466 l -2.244307,0.021011 C 47.727478,3.254649 47.296595,3.360545 47.024435,3.8690845 46.559085,4.7385968 47.17856,5.76 48.171258,5.76 48.605066,5.76 48.96,5.6096874 48.96,5.4259722 Z M 47.843226,3.8347802 C 47.953773,3.6559094 48.178272,3.5924077 48.342112,3.6936656 48.785965,3.9679824 48.703203,4.16 48.141114,4.16 47.866726,4.16 47.732678,4.0136512 47.843226,3.8347802 Z M 56.56,5.5394157 C 56.122246,5.4250192 56,5.0489162 56,3.8165363 56,2.3874577 55.932656,2.2423629 55.28,2.2652632 c -0.396,0.013895 -0.54,0.097895 -0.32,0.1866666 0.233629,0.094272 0.4,0.7381521 0.4,1.5480702 0,0.8099181 -0.166371,1.4537984 -0.4,1.5480701 -0.22,0.088772 0.176,0.1560678 0.88,0.1495462 0.704,-0.00652 1.028,-0.077712 0.72,-0.1582006 z M 59.515632,5.2 C 59.504474,3.769927 59.13033,3.2 58.202678,3.2 57.695206,3.2 57.28,3.3537037 57.28,3.5415642 57.28,3.737504 57.552861,3.7965254 57.92,3.68 58.287139,3.5634746 58.56,3.622496 58.56,3.8184358 58.56,4.0062963 58.3728,4.16 58.144,4.16 57.529411,4.16 56.985318,4.8136352 57.179242,5.3189936 57.277008,5.573768 57.806979,5.76 58.434237,5.76 c 0.82239,0 1.084704,-0.1358381 1.081395,-0.56 z M 57.92,4.9788854 C 57.92,4.7044986 58.064,4.48 58.24,4.48 c 0.176,0 0.32,0.1355014 0.32,0.3011146 C 58.56,4.9467277 58.416,5.1712259 58.24,5.28 58.064,5.3887741 57.92,5.253274 57.92,4.9788854 Z m 3.6,0.5691847 C 60.876947,5.288593 61.01439,3.5247645 61.68,3.494737 62.126058,3.4746122 62.142336,3.4322963 61.76,3.2867549 61.496,3.1862593 61.182976,2.9548872 61.06439,2.7725946 60.666224,2.16053 59.919875,3.1440507 60.070717,4.082032 60.310851,5.5752794 60.436496,5.7608102 61.189958,5.734737 61.591482,5.7208426 61.74,5.6368422 61.52,5.5480701 Z m 2.8,-0.1220979 c 0,-0.1837152 -0.237062,-0.2917152 -0.526803,-0.24 C 63.503456,5.2376874 63.203456,5.1 63.126531,4.88 63.037466,4.6252787 63.29543,4.48 63.836797,4.48 65.005901,4.48 64.81263,3.3991853 63.618787,3.2608218 62.537024,3.1354482 61.876854,4.1424944 62.4,5.12 c 0.355491,0.6642387 1.92,0.9135597 1.92,0.3059722 z M 63.203226,3.8347802 C 63.313773,3.6559094 63.538272,3.5924077 63.702112,3.6936656 64.145965,3.9679824 64.063203,4.16 63.501114,4.16 63.226726,4.16 63.092678,4.0136512 63.203226,3.8347802 Z M 66.24,5.44 c 0,-0.176 -0.144,-0.32 -0.32,-0.32 -0.176,0 -0.32,0.144 -0.32,0.32 0,0.176 0.144,0.32 0.32,0.32 0.176,0 0.32,-0.144 0.32,-0.32 z m 0,-1.92 c 0,-0.176 -0.144,-0.32 -0.32,-0.32 -0.176,0 -0.32,0.144 -0.32,0.32 0,0.176 0.144,0.32 0.32,0.32 0.176,0 0.32,-0.144 0.32,-0.32 z M 30.4,2.56 c 0,-0.176 -0.144,-0.32 -0.32,-0.32 -0.176,0 -0.32,0.144 -0.32,0.32 0,0.176 0.144,0.32 0.32,0.32 0.176,0 0.32,-0.144 0.32,-0.32 z m 5.12,0 c 0,-0.176 -0.144,-0.32 -0.32,-0.32 -0.176,0 -0.32,0.144 -0.32,0.32 0,0.176 0.144,0.32 0.32,0.32 0.176,0 0.32,-0.144 0.32,-0.32 z m 40.443504,44.980282 c -0.252122,-0.657015 0.102973,-1.555853 0.514237,-1.30168 C 76.654982,46.348144 76.8,46.708774 76.8,47.04 c 0,0.788365 -0.590442,1.141488 -0.836496,0.500282 z M 78.4,17.138885 C 78.4,16.864499 78.544,16.64 78.72,16.64 c 0.176,0 0.32,0.135501 0.32,0.301115 0,0.165613 -0.144,0.390111 -0.32,0.498885 -0.176,0.108774 -0.32,-0.02673 -0.32,-0.301115 z"
     style="fill:#515151;stroke-width:0.31999999" />
</svg>
