<svg
   xmlns="http://www.w3.org/2000/svg"
   viewBox="0 0 160.32001 160.32001"
   height="160.32001"
   width="160.32001">
  <path
     d="m 0.00178462,158.48001 c 0.00224905,-2.31885 0.55334879,-4.45287 1.02748628,-3.97873 0.185901,0.1859 0.3380019,0.92316 0.3380019,1.63836 0,1.50077 0.7006287,1.79469 1.1927274,0.50037 0.1672877,-0.44 0.388222,-0.8 0.4909651,-0.8 0.1027432,0 0.082685,0.16847 -0.044574,0.37438 -0.1592137,0.25761 -0.051181,0.30523 0.3463766,0.15268 0.4676413,-0.17946 0.5070887,-0.13656 0.2069731,0.22505 -0.4971128,0.59899 -0.1180489,1.48789 0.6344957,1.48789 0.33317,0 0.6057636,0.216 0.6057636,0.48 0,0.58157 -0.5176007,0.63577 -0.7640228,0.08 -0.097546,-0.22 -0.1455456,-0.112 -0.1066665,0.24 0.038879,0.352 0.3586893,0.8149 0.7106893,1.02866 0.5362199,0.32564 0.2119075,0.3905 -2.0000001,0.4 L 0,160.32001 Z m 5.55234628,0.16 c 0.07725,-0.9484 -0.014826,-1.86658 -0.2114365,-2.10845 -0.2622166,-0.32257 -0.2339197,-0.41205 0.1145146,-0.36208 0.8364282,0.11993 1.2627914,-0.004 1.2627914,-0.36678 0,-0.20306 -0.3264637,-0.29489 -0.7562503,-0.21273 -0.6340653,0.1212 -0.7284071,0.0381 -0.5839158,-0.51445 0.094784,-0.36245 0.2310966,-0.48272 0.3029171,-0.26726 0.1813123,0.54394 0.7192746,0.48911 1.4196132,-0.14469 0.4378317,-0.39623 0.6865165,-0.44268 0.9514833,-0.17771 0.2649667,0.26496 0.1478067,0.41166 -0.4482621,0.56126 -0.7555668,0.18964 -0.7875681,0.27742 -0.502225,1.37772 0.1676192,0.64634 0.3028841,1.42717 0.3005888,1.73517 -0.0023,0.308 0.096238,0.56 0.2189635,0.56 0.4767124,0 1.0178062,-1.32572 0.8362849,-2.04896 -0.2212932,-0.8817 0.3684458,-1.44062 0.6285373,-0.59569 0.095597,0.31056 0.1038989,1.11026 0.018448,1.77711 -0.08545,0.66686 -0.00423,1.49486 0.1804851,1.84 0.3177879,0.59379 0.2227722,0.62754 -1.7667639,0.62754 H 5.4172909 Z m 1.0729873,0.40424 c -0.07656,-1.09021 -0.7411578,-1.57906 -0.6943924,-0.51077 0.029603,0.67628 0.3708512,1.46653 0.6332778,1.46653 0.070528,0 0.098029,-0.43009 0.061115,-0.95576 z m 3.7793828,0.94524 c 0.09726,-0.15737 -0.126044,-0.58903 -0.4962405,-0.95922 -0.5323326,-0.53233 -0.5942036,-0.76813 -0.2958717,-1.1276 0.2074669,-0.24998 0.2936214,-0.67234 0.191455,-0.93859 -0.2362589,-0.61568 0.089934,-1.49681 0.4676882,-1.26335 0.157558,0.0974 0.297837,0.70855 0.311732,1.35817 0.01389,0.64961 0.0952,1.0092 0.180674,0.79909 0.08548,-0.21012 0.361429,-0.30297 0.613229,-0.20634 0.371728,0.14264 0.420922,-0.0935 0.261613,-1.25579 -0.218636,-1.59512 0.356732,-2.43467 0.708372,-1.03363 0.175789,0.7004 0.362658,0.81367 1.209382,0.73309 0.829996,-0.079 1.018975,0.028 1.103723,0.62469 0.05624,0.396 0.296241,0.72 0.533334,0.72 0.237092,0 0.495362,0.18 0.573934,0.4 0.07857,0.22 0.266401,0.28417 0.417399,0.1426 0.150998,-0.14157 0.115371,-0.35757 -0.07917,-0.48 -0.194543,-0.12243 -0.407214,-0.5106 -0.472602,-0.8626 -0.06539,-0.352 -0.442047,-0.78215 -0.837019,-0.95588 -0.71244,-0.31338 -0.97819,-0.80412 -0.435452,-0.80412 0.155473,0 0.357992,-0.288 0.450042,-0.64 0.231567,-0.88552 0.757423,-0.80127 0.998686,0.16 0.112539,0.44839 0.432515,0.8 0.728024,0.8 0.28998,0 0.442995,0.0842 0.340033,0.1872 -0.364543,0.36455 0.463412,2.09715 0.918674,1.92244 0.25763,-0.0989 0.441863,0.0354 0.441863,0.32197 0,0.34583 0.189624,0.43133 0.639752,0.28847 0.485088,-0.15396 0.712402,-0.012 0.940261,0.58735 0.165281,0.43472 0.453392,0.88489 0.640249,1.00037 0.93941,0.58059 -0.10654,0.7399 -4.945434,0.75324 -3.029016,0.008 -5.20968,-0.10757 -5.108328,-0.27156 z m 10.808401,-1.11171 c -0.0358,-0.79077 0.0722,-1.43777 0.24,-1.43777 0.167805,0 0.305099,0.21148 0.305099,0.46996 0,0.26865 0.189613,0.39719 0.442666,0.30009 0.313332,-0.12024 0.481547,0.16318 0.575744,0.97004 0.121843,1.04367 0.06421,1.13972 -0.682666,1.13768 -0.743255,-0.002 -0.821529,-0.12998 -0.880843,-1.44 z m 5.579348,0.40223 c -0.193853,-1.27284 -0.04018,-1.49454 0.512253,-0.73905 0.394527,0.53955 0.481306,0.54247 1.436694,0.0484 0.559243,-0.2892 1.016805,-0.46017 1.016805,-0.37994 0,0.0802 0.444977,0.0183 0.988838,-0.13771 0.747119,-0.21427 0.951403,-0.18604 0.835693,0.1155 -0.09528,0.24829 0.165886,0.42462 0.691162,0.46665 0.464368,0.0372 0.988307,0.25897 1.164307,0.49291 0.176,0.23393 0.788,0.51801 1.36,0.63127 0.917683,0.18172 1.04,0.12408 1.04,-0.49006 0,-0.52718 0.08985,-0.60615 0.370439,-0.32556 0.280582,0.28058 0.271078,0.49016 -0.03918,0.864 -0.303194,0.36532 -1.002218,0.487 -2.690436,0.4683 -1.254451,-0.0139 -2.094809,-0.0999 -1.867463,-0.19112 0.492462,-0.1976 -0.08461,-1.06362 -0.708742,-1.06362 -0.558023,0 -2.099231,0.7625 -2.102118,1.04 -0.0014,0.132 -0.418152,0.24 -0.926177,0.24 -0.796276,0 -0.945527,-0.14345 -1.082071,-1.04 z m 29.472998,0.82466 c -0.293014,-0.0776 -0.619465,-0.36706 -0.725449,-0.64325 -0.17376,-0.45282 -0.119549,-0.45423 0.55174,-0.0144 0.678353,0.44447 0.81377,0.43449 1.52545,-0.11251 0.879287,-0.67583 1.261015,-0.76498 1.261015,-0.29453 0,0.176 -0.231405,0.32 -0.514237,0.32 -0.325629,0 -0.446679,0.17605 -0.330042,0.48 0.185719,0.48398 -0.533795,0.59166 -1.768477,0.26466 z m 5.172756,-0.11092 c 0,-0.17944 0.377667,-0.25777 0.839261,-0.17407 1.238969,0.22467 1.334873,0.50033 0.174073,0.50033 -0.557334,0 -1.013334,-0.14682 -1.013334,-0.32626 z m 5.590067,-0.01 c -0.293907,-0.47556 -0.06016,-0.64391 0.453364,-0.32653 0.275113,0.17003 0.307843,0.33494 0.09284,0.46782 -0.182627,0.11287 -0.428422,0.0493 -0.546208,-0.14129 z m 9.449934,0.0161 c 0,-0.176 0.144,-0.32 0.32,-0.32 0.176,0 0.32,0.144 0.32,0.32 0,0.176 -0.144,0.32 -0.32,0.32 -0.176,0 -0.32,-0.144 -0.32,-0.32 z m 13.760001,0 c 0,-0.176 0.144,-0.32 0.32,-0.32 0.176,0 0.32,0.144 0.32,0.32 0,0.176 -0.144,0.32 -0.32,0.32 -0.176,0 -0.32,-0.144 -0.32,-0.32 z m 10.240004,-0.016 c 0,-0.12321 0.45,-0.31401 1,-0.42401 1.39611,-0.27922 1.56131,-0.25537 1.38534,0.2 -0.15971,0.41331 -2.38534,0.62232 -2.38534,0.22402 z m 7.5,-0.20972 c -0.35303,-0.35303 -0.41759,-0.58843 -0.18286,-0.66667 0.19957,-0.0665 0.36286,-0.57695 0.36286,-1.13429 0,-0.91342 0.095,-1.01333 0.96353,-1.01333 0.67346,0 0.91405,0.12898 0.79914,0.42843 -0.0904,0.23563 0.11888,0.78856 0.46512,1.22873 l 0.62951,0.8003 0.76804,-0.82873 c 0.42243,-0.45579 0.88833,-0.82872 1.03535,-0.82872 0.14702,0 0.0945,0.1728 -0.11669,0.384 -0.46501,0.465 -0.50963,1.536 -0.064,1.536 0.176,0 0.3222,-0.252 0.3249,-0.56 0.004,-0.47767 0.0498,-0.48943 0.30998,-0.08 0.22872,0.35987 0.28756,0.24848 0.2351,-0.44505 -0.0385,-0.50878 0.10265,-0.98632 0.31365,-1.06121 0.26462,-0.0939 0.36106,0.26748 0.31089,1.16505 -0.04,0.71566 0.0297,1.30121 0.15481,1.30121 0.36357,0 0.65152,-1.22417 0.4427,-1.88211 -0.11845,-0.37317 -0.0126,-0.6706 0.27838,-0.78226 0.27864,-0.10692 0.52509,0.0403 0.60626,0.36211 0.0752,0.29824 0.0833,-0.34868 0.0181,-1.43762 -0.0671,-1.11801 0.0214,-2.0665 0.20328,-2.17888 0.18235,-0.1127 0.322,0.13914 0.322,0.58069 0,0.42884 0.21778,0.96044 0.48395,1.18134 0.3497,0.29023 0.38998,0.51487 0.14518,0.80983 -0.2501,0.30135 -0.121,0.62594 0.49329,1.24022 0.45762,0.45762 0.74994,0.96489 0.64959,1.12725 -0.10035,0.16236 -0.0361,0.38566 0.14277,0.4962 0.18685,0.11548 0.32522,-0.13608 0.32522,-0.59122 0,-0.43572 0.18,-0.87622 0.4,-0.97888 0.32,-0.14934 0.32,-0.224 0,-0.37334 -0.22,-0.10266 -0.4,-0.46981 -0.4,-0.81589 0,-0.88879 0.89735,-2.51744 1.38706,-2.51744 0.59249,0 1.64262,0.83199 1.68191,1.33252 0.0185,0.23511 0.0555,0.81896 0.0823,1.29744 0.037,0.66008 0.17345,0.8221 0.56567,0.67159 0.41101,-0.15772 0.47216,-0.0573 0.29844,0.49004 -0.25557,0.80523 -0.005,0.88328 0.67035,0.20841 0.264,-0.264 0.64971,-0.4778 0.85714,-0.4751 0.22108,0.003 0.17852,0.13326 -0.10286,0.3151 -0.34602,0.22362 -0.0781,0.30121 0.96,0.27798 0.792,-0.0177 1.152,-0.10301 0.8,-0.18954 -0.98278,-0.24157 -1.34417,-0.65002 -1.57101,-1.77562 -0.16782,-0.83277 -0.27233,-0.93985 -0.53952,-0.55282 -0.25741,0.37285 -0.28618,0.31927 -0.12886,-0.24 0.17475,-0.62127 0.0789,-0.72309 -0.69904,-0.74249 -0.79221,-0.0198 -0.82393,-0.0558 -0.26157,-0.29751 0.96839,-0.41613 1.44,-0.36991 1.44,0.14111 0,0.25362 0.1314,0.54233 0.292,0.64158 0.1606,0.0993 0.25321,-0.17283 0.20581,-0.60464 -0.0749,-0.6823 0.0334,-0.77678 0.82737,-0.72157 0.50673,0.0352 0.91384,0.25006 0.91419,0.48241 3.2e-4,0.23038 -0.12705,0.33997 -0.28311,0.24352 -0.15605,-0.0965 -0.45007,0.0251 -0.65335,0.26999 -0.28237,0.34023 -0.27205,0.48451 0.0437,0.61122 0.31631,0.12692 0.31945,0.17178 0.0133,0.19112 -0.45503,0.0287 -0.5475,1.17633 -0.11626,1.44285 0.15606,0.0965 0.44936,-0.0242 0.65177,-0.26808 0.20241,-0.24389 0.65073,-0.36951 0.99626,-0.27915 0.43299,0.11323 0.62823,0.004 0.62823,-0.35304 0,-0.6077 0.83327,-0.69923 1.06807,-0.11732 0.12413,0.30763 0.16724,0.30327 0.18667,-0.0189 0.0139,-0.23039 0.17557,-0.32599 0.35928,-0.21245 0.18371,0.11354 0.51362,0.0574 0.73313,-0.1248 0.29559,-0.24532 0.41201,-0.16008 0.44882,0.32862 0.0579,0.7689 0.3148,1.10342 0.61601,0.8022 0.11659,-0.11659 0.0446,-0.57936 -0.16,-1.02839 -0.49463,-1.08559 -0.47944,-2.15776 0.028,-1.97769 0.22,0.0781 0.3657,0.45007 0.32378,0.82667 -0.0552,0.4956 0.0995,0.68473 0.56,0.68473 0.3522,0 0.63622,-0.21429 0.63622,-0.48 0,-0.264 -0.15031,-0.48 -0.33402,-0.48 -0.18372,0 -0.31066,-0.18 -0.28209,-0.4 0.1224,-0.9426 -0.0248,-1.27762 -0.42389,-0.96453 -0.22,0.17262 -0.868,0.2766 -1.44,0.23106 -1.07136,-0.0853 -1.40993,0.28303 -0.56,0.60919 0.78136,0.29983 0.5468,0.87512 -0.31002,0.76037 -1.07182,-0.14353 -2.56162,-1.54217 -2.0134,-1.89019 0.22188,-0.14086 0.72742,-0.25831 1.12342,-0.261 0.73095,-0.005 0.99933,-0.49846 0.38284,-0.70396 -0.22981,-0.0766 -0.23627,-0.36529 -0.0203,-0.90667 l 0.31688,-0.79427 0.0203,0.74103 c 0.0304,1.11199 0.60502,1.97897 1.31155,1.97897 0.52019,0 0.62874,-0.22098 0.62874,-1.28 0,-0.92445 0.13333,-1.28 0.48,-1.28 0.264,0 0.498,-0.144 0.52,-0.32 0.0786,-0.62906 0.14157,-0.80843 0.50435,-1.43734 0.20221,-0.35053 0.46487,-0.54011 0.58369,-0.42129 0.11883,0.11883 0.0936,0.40563 -0.056,0.63734 -0.14962,0.2317 -0.27204,1.2589 -0.27204,2.28264 0,1.85605 10e-4,1.85839 0.42486,0.82133 0.32991,-0.80761 0.48971,-0.93752 0.71509,-0.58135 0.15964,0.25227 0.29245,0.77417 0.29515,1.15978 0.005,0.75198 0.48986,1.24862 0.77236,0.79153 0.0944,-0.15279 -0.0282,-1.19914 -0.27245,-2.32522 -0.24427,-1.12608 -0.4738,-1.75942 -0.51005,-1.40742 -0.0363,0.352 -0.19349,-0.35422 -0.34941,-1.56936 -0.25502,-1.98742 -0.097,-3.23267 0.27717,-2.18391 0.0798,0.2237 0.58499,0.63421 1.12263,0.91224 l 0.97754,0.5055 -0.19056,-0.9528 c -0.11348,-0.56741 -0.022,-1.18334 0.22619,-1.52274 0.38559,-0.52733 0.43271,-0.50635 0.63021,0.28056 0.22717,0.9051 0.84127,1.17556 0.84127,0.37051 0,-0.89443 0.56609,-0.48628 0.77672,0.56 0.21796,1.08268 0.23873,1.49456 0.17982,3.56455 -0.0195,0.68451 0.1139,1.39388 0.2964,1.57639 0.22911,0.2291 0.22299,0.46297 -0.0197,0.75544 -0.25619,0.3087 -0.25413,0.42362 0.008,0.42362 0.19755,0 0.35919,-0.144 0.35919,-0.32 0,-0.65783 0.6354,-0.28974 0.82859,0.48 0.11043,0.44 0.29317,0.80074 0.4061,0.80165 0.32535,0.003 0.27919,4.61606 -0.0484,4.83839 -0.46055,0.31257 0.0531,1.49059 0.62905,1.44277 0.28368,-0.0236 0.57965,0.13827 0.6577,0.35959 0.11277,0.31977 -3.01131,0.39827 -15.21288,0.38225 -14.91707,-0.0196 -15.35942,-0.0379 -15.51709,-0.6408 -0.17034,-0.65138 -1.0651,-1.16848 -1.41552,-0.81805 -0.11268,0.11267 -0.0345,0.37526 0.1738,0.58353 0.20826,0.20826 0.37866,0.49386 0.37866,0.63466 0,0.4652 -1.22437,0.26592 -1.78,-0.28972 z m 17.14,-0.47185 c 0,-0.41472 -1.68187,-0.19027 -1.82394,0.24341 -0.0708,0.21611 0.25008,0.29252 0.85532,0.20368 0.53274,-0.0782 0.96862,-0.27938 0.96862,-0.44709 z m 5.44,-0.90243 c 0,-0.176 -0.2245,-0.32 -0.49889,-0.32 -0.27439,0 -0.40989,0.144 -0.30111,0.32 0.10877,0.176 0.33327,0.32 0.49888,0.32 0.16562,0 0.30112,-0.144 0.30112,-0.32 z m 5.92,0 c 0.10877,-0.176 0.0453,-0.32 -0.14112,-0.32 -0.18638,0 -0.33888,0.144 -0.33888,0.32 0,0.176 0.0635,0.32 0.14111,0.32 0.0776,0 0.23011,-0.144 0.33889,-0.32 z m -16.16,-1.28 c 0,-0.64 -0.16,-0.96 -0.48,-0.96 -0.50242,0 -0.61485,0.55626 -0.28577,1.41383 0.32071,0.83575 0.76577,0.57199 0.76577,-0.45383 z m 13.76,0.32 c 0,-0.352 -0.13052,-0.64 -0.29004,-0.64 -0.15953,0 -0.21473,0.288 -0.12268,0.64 0.0921,0.352 0.22257,0.64 0.29004,0.64 0.0675,0 0.12268,-0.288 0.12268,-0.64 z m 2.01272,-1.28 c -0.0921,-0.352 -0.29457,-0.64 -0.45004,-0.64 -0.43305,0 -0.33581,0.88523 0.11732,1.06807 0.22,0.0888 0.42252,0.17277 0.45004,0.18667 0.0275,0.0139 -0.0253,-0.26274 -0.11732,-0.61474 z m -0.21939,-4.39333 c -0.32528,-0.32529 -0.59368,0.16444 -0.32679,0.59628 0.20161,0.32621 0.27699,0.32646 0.38538,0.001 0.0741,-0.22234 0.0478,-0.49124 -0.0586,-0.59758 z m 0.60667,-1.36667 c 0.10877,-0.176 0.0453,-0.32 -0.14112,-0.32 -0.18638,0 -0.33888,0.144 -0.33888,0.32 0,0.176 0.0635,0.32 0.14111,0.32 0.0776,0 0.23011,-0.144 0.33889,-0.32 z m 7.5682,8.08 c -0.5453,-1.55529 -0.67899,-1.72859 -0.86399,-1.12 -0.12037,0.396 -0.41806,0.72 -0.66153,0.72 -0.60537,0 -0.55523,-0.43011 0.15196,-1.30345 0.5758,-0.71108 0.58291,-2.06878 0.009,-1.71407 -0.15599,0.0964 -0.28362,0.0348 -0.28362,-0.13693 0,-0.17172 0.12497,-0.36022 0.2777,-0.41888 0.15274,-0.0587 0.37094,-0.40702 0.48488,-0.7741 0.15011,-0.48357 -0.0586,-0.94558 -0.7577,-1.67709 -1.02313,-1.07061 -1.18136,-1.631 -0.61924,-2.19312 0.24543,-0.24543 0.24764,-0.70053 0.008,-1.56982 -0.2406,-0.87138 -0.23814,-1.28591 0.009,-1.43836 0.24352,-0.1505 0.2454,-0.27669 0.006,-0.42443 -0.1871,-0.11564 -0.25444,-0.43371 -0.14963,-0.70683 0.15402,-0.40137 0.24243,-0.41474 0.46112,-0.0697 0.21729,0.34277 0.27354,0.3323 0.28565,-0.0532 0.0115,-0.36706 0.12562,-0.33384 0.4849,0.14116 0.78242,1.03446 0.5355,-0.008 -0.81018,-3.41918 -1.35871,-3.4446 -1.66615,-4.74691 -0.63085,-2.67225 0.343,0.68735 0.71708,1.33535 0.83127,1.44 0.47834,0.43834 -0.18344,-2.53041 -0.92345,-4.14261 -0.44106,-0.96092 -0.67481,-1.79512 -0.51945,-1.85379 0.59579,-0.22497 0.22573,-1.2923 -1.31752,-3.8 -0.88,-1.42995 -1.6,-2.76443 -1.6,-2.96551 0,-0.20108 -0.15943,-0.26706 -0.35428,-0.14663 -0.23388,0.14454 -0.28672,0.006 -0.15548,-0.40743 0.13089,-0.41239 -0.0273,-0.83099 -0.46299,-1.2253 -0.4274,-0.38679 -0.62928,-0.90897 -0.56997,-1.47432 0.0568,-0.54174 -0.17121,-1.17792 -0.59828,-1.66909 -0.37956,-0.43653 -0.94322,-1.63324 -1.25259,-2.65937 -0.56273,-1.86651 -1.74037,-3.77321 -1.25113,-2.02568 0.21936,0.7835 0.21392,0.78633 -0.26364,0.13733 -0.29252,-0.39753 -0.44862,-1.15409 -0.39015,-1.89094 0.12103,-1.52545 -0.6329,-3.27498 -2.71169,-6.29258 -0.87439,-1.26928 -1.5898,-2.44125 -1.5898,-2.60439 0,-0.16313 -0.40202,-0.89349 -0.89338,-1.62302 -1.47057,-2.18336 -1.55871,-2.35878 -0.92805,-1.84722 0.33397,0.2709 0.54143,0.30586 0.54143,0.0913 0,-0.19136 -0.288,-0.50206 -0.64,-0.69044 -0.352,-0.18839 -0.64,-0.56195 -0.64,-0.83015 0,-0.26819 -0.14535,-0.3978 -0.32299,-0.28801 -0.17764,0.10979 -0.57364,-0.26383 -0.88,-0.83027 -0.30636,-0.56644 -1.56501,-2.05207 -2.79701,-3.301391 -1.232,-1.249325 -2.73692,-2.904442 -3.34427,-3.678036 -0.60735,-0.773597 -1.15515,-1.253888 -1.21734,-1.067315 -0.16813,0.504381 -1.61958,-0.339415 -2.73124,-1.587799 -0.5177,-0.581369 -0.82457,-0.841033 -0.68193,-0.577033 0.14264,0.264 -0.23668,0.08087 -0.84294,-0.406963 -0.60625,-0.487834 -1.89428,-1.279834 -2.86228,-1.760001 -0.968,-0.480169 -1.976,-1.104438 -2.24,-1.38726 -0.264,-0.282826 -0.804,-0.616529 -1.2,-0.741565 -0.396,-0.125037 -0.72,-0.361636 -0.72,-0.525776 0,-0.164138 -0.216,-0.298436 -0.48,-0.298436 -0.264,0 -0.48,-0.141257 -0.48,-0.313904 0,-0.172646 -0.396,-0.400352 -0.88,-0.506009 -1.33164,-0.290701 -2.64,-0.82968 -2.64,-1.087546 0,-0.126397 -0.36,-0.393837 -0.8,-0.594317 -0.6168,-0.28103 -0.802333,-0.274473 -0.81018,0.02864 -0.006,0.231971 -0.184448,0.163568 -0.43528,-0.166861 -0.233805,-0.308003 -0.661225,-0.560003 -0.949821,-0.560003 -0.288598,0 -0.524723,-0.142301 -0.524723,-0.316227 0,-0.173926 -0.320147,-0.281926 -0.71144,-0.24 -0.443146,0.04748 -0.714669,-0.10048 -0.72,-0.392349 -0.0055,-0.30175 -0.350339,-0.474265 -0.96856,-0.48456 -0.709638,-0.01181 -0.94841,-0.160841 -0.915555,-0.571424 0.0484,-0.604893 -0.367658,-0.74801 -0.684445,-0.23544 -0.108775,0.176 -0.441274,0.30863 -0.738887,0.294736 -0.333174,-0.01555 -0.387401,-0.08729 -0.141113,-0.186666 0.22,-0.08877 0.4,-0.425404 0.4,-0.74807 0,-0.322666 0.169494,-0.643165 0.376656,-0.712218 0.210678,-0.07023 0.26863,-0.300345 0.13151,-0.522208 -0.172544,-0.27918 -0.363888,-0.298102 -0.646099,-0.06389 -0.220525,0.183018 -0.488848,0.244868 -0.596272,0.137444 -0.278109,-0.278112 -1.094941,0.61119 -1.234019,1.3435 -0.07944,0.418272 -0.425959,0.64698 -1.074512,0.709188 -0.730359,0.07005 -0.843488,0.01533 -0.477264,-0.230932 0.344428,-0.23159 0.13926,-0.268 -0.726423,-0.128905 -0.999158,0.160541 -1.174086,0.109568 -1.018186,-0.296701 0.103533,-0.269798 0.03442,-0.585606 -0.153577,-0.701798 -0.203888,-0.12601 -0.341815,0.08044 -0.341815,0.511632 0,0.562246 -0.08533,0.637552 -0.384,0.338886 -0.2112,-0.2112 -0.7152,-0.384 -1.12,-0.384 -0.4048,0 -0.736,-0.160787 -0.736,-0.357306 0,-0.209472 0.334151,-0.293427 0.807639,-0.202915 0.444198,0.08491 0.873341,0.04808 0.953645,-0.08186 0.182726,-0.295657 -2.071232,-0.681907 -2.485434,-0.425917 -0.173344,0.107133 -0.117434,0.313703 0.129987,0.480253 0.268432,0.180695 -0.481971,0.214323 -1.965837,0.08809 -4.657363,-0.396195 -6.119616,-0.658938 -6.47504,-1.163462 -0.231552,-0.328692 -0.328023,-0.332263 -0.455987,-0.0169 -0.08987,0.221475 -0.685985,0.394281 -1.335639,0.387187 l -1.173334,-0.0128 0.88,-0.477405 c 0.919526,-0.498855 1.28623,-1.872768 0.410118,-1.536573 -0.258435,0.09917 -0.438435,0.338099 -0.4,0.530954 0.03843,0.192851 -0.218118,0.411849 -0.570118,0.486662 -0.352,0.07481 -0.731901,0.281815 -0.844224,0.460003 -0.289338,0.459005 -0.922279,-0.0087 -0.721133,-0.532902 0.100893,-0.262928 0.432457,-0.36489 0.839997,-0.258314 0.51575,0.134871 0.628419,0.05909 0.481478,-0.32383 -0.124906,-0.325498 0.02419,-0.556397 0.427344,-0.661824 0.408931,-0.106938 0.552774,-0.334963 0.423622,-0.671533 -0.107558,-0.280288 -0.03615,-0.509613 0.158679,-0.509613 0.194832,0 0.354237,0.152499 0.354237,0.338887 0,0.186387 0.131702,0.257488 0.292668,0.158006 0.160967,-0.09949 0.34785,-0.01533 0.415297,0.187002 0.09072,0.272147 0.316601,0.26407 0.868025,-0.03104 0.48337,-0.258692 0.815463,-0.28616 0.944704,-0.07815 0.109619,0.176429 0.559306,0.371296 0.999306,0.433037 0.44,0.06174 0.8,0.280263 0.8,0.485597 0,0.587341 0.404944,0.843939 0.98224,0.622413 0.429827,-0.164944 0.455238,-0.29321 0.134618,-0.679533 -0.33458,-0.403155 -0.251725,-0.476227 0.539961,-0.476227 0.514349,0 1.091728,-0.156547 1.283063,-0.347882 0.250512,-0.250512 0.408064,-0.250512 0.562886,0 0.305783,0.494765 0.817232,0.430829 0.817232,-0.10216 0,-0.296621 0.224346,-0.391373 0.658099,-0.277945 0.390458,0.102108 0.589751,0.350204 0.490042,0.610041 -0.09243,0.240871 -0.02858,0.437946 0.141901,0.437946 0.170477,0 0.309958,-0.305632 0.309958,-0.679181 0,-0.502381 0.104128,-0.595053 0.4,-0.355994 0.477012,0.385412 3.133671,0.676183 2.912801,0.318804 -0.325127,-0.526068 0.948217,-0.656036 1.328752,-0.135623 0.543948,0.743895 1.438448,0.67673 1.438448,-0.108006 0,-0.352 0.144,-0.64 0.32,-0.64 0.303427,0 0.371277,0.266918 0.447379,1.76 0.02675,0.524893 0.256829,0.64 1.27921,0.64 0.965161,0 1.266774,0.133043 1.33599,0.589321 0.118103,0.778538 0.07171,0.753367 1.817421,0.986052 0.959059,0.127833 1.52,0.08119 1.52,-0.126387 0,-0.180941 0.279501,-0.328986 0.621114,-0.328986 0.341613,0 0.716179,-0.153818 0.832368,-0.341814 0.116192,-0.188001 0.412688,-0.264519 0.658882,-0.170045 0.2462,0.09448 0.44764,0.01466 0.44764,-0.177367 0,-0.230307 0.16337,-0.213552 0.48,0.04923 0.31106,0.258154 0.62078,0.292234 0.88,0.09682 0.22,-0.165846 1.01463,-0.495398 1.76585,-0.732333 1.25575,-0.396064 1.40359,-0.381363 1.83392,0.182359 0.3459,0.453123 0.53557,0.511421 0.72671,0.223373 0.14226,-0.214378 0.721,-0.425008 1.28609,-0.468068 0.76743,-0.05848 1.02743,-0.231683 1.02743,-0.684457 0,-0.434778 0.1511,-0.548186 0.53441,-0.401095 0.29411,0.112858 0.65385,0.02032 0.8,-0.205763 0.21164,-0.327385 0.32662,-0.315923 0.56605,0.05644 0.25736,0.40024 0.39508,0.381648 0.96,-0.129597 0.36751,-0.332589 0.65954,-0.433223 0.65954,-0.227277 0,0.20328 0.4235,0.369597 0.94111,0.369597 0.51761,0 1.03908,0.158505 1.15881,0.352237 0.30835,0.498921 1.93728,0.107097 2.76652,-0.665456 0.38183,-0.355732 0.88308,-0.646781 1.1139,-0.646781 0.23081,0 0.41966,-0.206464 0.41966,-0.45881 0,-0.317117 0.25194,-0.413123 0.81579,-0.310877 0.44869,0.08136 0.98869,0.03988 1.2,-0.09219 0.21131,-0.132067 0.5346,-0.263088 0.71841,-0.291152 0.18381,-0.02806 1.04451,-0.374608 1.91266,-0.770099 0.86816,-0.395488 2.01377,-0.740182 2.5458,-0.765987 0.84395,-0.04093 0.98013,-0.178547 1.06761,-1.0789 0.0552,-0.56759 0.24365,-1.031984 0.41889,-1.031984 0.17523,0 0.23602,-0.133632 0.13508,-0.29696 -0.10095,-0.163331 0.10655,-0.389033 0.46111,-0.501564 0.35456,-0.112532 0.64465,-0.356532 0.64465,-0.542221 0,-0.219296 0.15824,-0.206291 0.45151,0.0371 0.32402,0.268918 0.51278,0.275593 0.66849,0.02365 0.15331,-0.248064 0.363,-0.229888 0.71464,0.06195 0.4294,0.356368 0.4684,0.3208 0.28429,-0.259284 -0.13596,-0.428374 -0.0366,-0.819027 0.27384,-1.076672 0.4165,-0.345661 0.48723,-0.274793 0.48723,0.488154 0,0.947123 0.31079,0.914474 0.45197,-0.04748 0.1026,-0.699104 0.82803,-1.005856 0.82803,-0.350137 0,0.258422 0.35693,0.703731 0.79317,0.989571 0.76598,0.501888 0.80009,0.492179 0.99469,-0.283197 0.25779,-1.027107 0.49458,-1.011498 1.1695,0.07709 0.30009,0.484 0.54944,0.71942 0.55412,0.523155 0.005,-0.196266 -0.29948,-0.748404 -0.67593,-1.226976 -0.53468,-0.679741 -0.74932,-0.776704 -0.98096,-0.443152 -0.2079,0.299363 -0.24088,0.227206 -0.11036,-0.241437 0.12994,-0.466583 -0.15266,-1.094634 -0.93594,-2.08 -0.61714,-0.776375 -1.12348,-1.643495 -1.12518,-1.926935 -0.002,-0.28344 -0.35877,-1.03944 -0.79347,-1.68 -0.56258,-0.829008 -0.6621,-1.164659 -0.34534,-1.164659 0.33705,0 0.27061,-0.329933 -0.2739,-1.36 -0.3954,-0.748 -0.87212,-1.936 -1.05937,-2.64 -0.90694,-3.409729 -2.06302,-6.453553 -4.24046,-11.164584 -0.88581,-1.916518 -1.61057,-3.726867 -1.61057,-4.022995 0,-0.296128 -0.428,-1.104064 -0.9511,-1.795418 -0.5231,-0.691353 -0.96101,-1.401005 -0.97312,-1.577005 -0.0491,-0.713033 -2.51041,-3.006227 -4.08072,-3.801965 -0.92129,-0.466848 -1.67506,-0.995456 -1.67506,-1.174685 0,-0.211145 0.23496,-0.200121 0.66741,0.03133 1.35986,0.727777 0.92832,0.0026 -0.72255,-1.214432 -2.24784,-1.656934 -3.07551,-2.077294 -3.55148,-1.803731 -0.21636,0.124357 -0.28615,0.107781 -0.15509,-0.03683 0.25668,-0.283216 -1.4128,-1.535395 -2.50567,-1.879351 -0.36705,-0.115523 -1.34925,-0.279039 -2.18266,-0.363369 -1.42042,-0.143729 -1.51001,-0.108365 -1.43091,0.56486 0.0464,0.395004 -0.15368,1.167984 -0.44463,1.717733 -0.63846,1.206313 -2.86061,3.640446 -3.32343,3.640446 -0.18249,0 -0.59244,0.288 -0.91099,0.64 -0.31856,0.352 -0.74573,0.64 -0.94926,0.64 -0.20353,0 -0.65105,0.261779 -0.994475,0.581728 -0.343427,0.319952 -1.558579,1.178701 -2.700343,1.908333 -1.14176,0.729632 -2.26592,1.490864 -2.498131,1.691629 -0.232214,0.200768 -1.312214,0.896381 -2.4,1.545815 -5.111914,3.05192 -9.916746,4.466425 -18.137796,5.339622 -2.552001,0.271063 -6.008001,0.70698 -7.680001,0.968704 -1.672,0.261725 -3.948288,0.613322 -5.058419,0.781325 -1.110128,0.168003 -2.478129,0.547088 -3.040001,0.84241 -0.809539,0.425501 -1.961478,0.541465 -5.54985,0.558694 -2.490547,0.01197 -4.462048,0.129741 -4.381113,0.261741 0.08093,0.132 0.318656,0.240803 0.528268,0.241786 1.031476,0.0048 2.781114,0.717776 2.781114,1.133254 0,0.763351 -1.450765,0.565434 -8.36897,-1.141702 -3.581066,-0.883668 -6.82496,-1.675882 -7.208653,-1.760484 -0.992656,-0.218867 -1.755117,-1.082569 -1.543703,-1.748678 0.111837,-0.352371 -0.01661,-0.643987 -0.338016,-0.767319 -0.701353,-0.269132 -1.100659,0.02701 -1.100659,0.816266 0,0.434055 -0.153142,0.596583 -0.453517,0.481319 -0.249433,-0.09572 -0.552891,0.06888 -0.674348,0.365763 -0.197322,0.482333 -0.248844,0.471664 -0.483991,-0.100205 -0.234122,-0.569376 -0.265643,-0.576122 -0.285653,-0.06111 -0.01237,0.318388 -0.146258,0.502394 -0.297529,0.408903 -0.268696,-0.166064 -1.081313,0.636371 -2.527035,2.495366 -0.760248,0.977575 -1.012352,1.899271 -0.333927,1.220845 0.474747,-0.474745 0.896,-0.495958 0.896,-0.04511 0,0.186387 -0.144,0.249888 -0.32,0.141113 -0.176,-0.108774 -0.32,-0.05727 -0.32,0.114448 0,0.171722 0.163618,0.366759 0.363597,0.433418 0.544446,0.181481 -0.391483,1.532134 -1.061687,1.532134 -0.299277,0 -0.639203,0.153818 -0.755393,0.341815 -0.11619,0.188 -0.376688,0.278333 -0.578886,0.200742 -0.220561,-0.08464 -0.367631,0.202477 -0.367631,0.717703 0,0.81118 0.04392,0.835993 0.792411,0.44767 0.902567,-0.468259 1.482288,-0.11687 1.166191,0.706867 -0.133191,0.347088 -0.431964,0.478823 -0.842491,0.371466 -0.7915,-0.206983 -0.882308,0.65935 -0.100556,0.959334 1.136659,0.43618 2.221331,2.014404 1.384445,2.014404 -0.176,0 -0.32,-0.1525 -0.32,-0.338887 0,-0.186387 -0.155668,-0.242675 -0.345929,-0.125088 -0.190261,0.117587 -0.262508,0.546167 -0.16055,0.9524 0.111595,0.444634 0.02639,0.802775 -0.214071,0.899828 -0.253688,0.10239 -0.2094,0.170438 0.121367,0.186483 0.648103,0.03142 1.410355,0.874515 0.935002,1.034144 -0.415994,0.139699 0.617028,2.51112 1.093877,2.51112 0.184994,0 0.516213,0.288 0.736041,0.64 0.219827,0.352 0.626231,0.64 0.90312,0.64 0.276888,0 1.126909,0.510893 1.888938,1.135315 0.892733,0.73153 1.463296,1.009447 1.604231,0.781408 0.120297,-0.194649 0.745056,-0.3032 1.388349,-0.241222 0.918793,0.08852 1.191555,0.26407 1.271881,0.818592 0.06621,0.457062 0.326682,0.705907 0.738887,0.705907 0.350144,0 0.553782,-0.134051 0.452525,-0.297888 -0.101261,-0.16384 -0.02166,-0.398288 0.176889,-0.520998 0.198547,-0.122707 0.470899,-0.04529 0.605219,0.172054 0.175655,0.284211 0.306276,0.294759 0.465232,0.03757 0.15642,-0.253094 0.422708,-0.21632 0.911201,0.125837 0.379606,0.265885 0.995836,0.48343 1.369398,0.48343 0.626918,0 1.738394,0.885652 1.738394,1.385197 0,0.118141 -0.213258,0.214803 -0.473904,0.214803 -0.724247,0 -0.933863,1.43785 -0.373402,2.561322 0.428157,0.858259 0.43231,1.015219 0.03091,1.169245 -0.254989,0.09785 -0.463619,0.330499 -0.463619,0.517005 0,0.186502 0.08914,0.249952 0.198096,0.141001 0.10895,-0.108953 0.407238,0.01104 0.662857,0.266666 0.661924,0.661923 1.612452,0.575002 2.432426,-0.222435 0.551255,-0.536103 0.583495,-0.64385 0.146621,-0.490045 -0.409254,0.144083 -0.56,0.02922 -0.56,-0.426704 0,-0.656365 1.191818,-1.156262 2.4,-1.006662 0.480064,0.05944 0.531501,0.0057 0.205837,-0.215072 -0.596614,-0.404445 -0.09217,-0.638244 1.154163,-0.534938 1.083485,0.08981 1.406007,-0.270461 0.539719,-0.602887 -1.002836,-0.384822 -0.136496,-0.784016 1.012803,-0.466681 0.63112,0.174262 1.22999,0.234342 1.330819,0.133513 0.100829,-0.100832 -0.06867,-0.183328 -0.376675,-0.183328 -0.308,0 -0.50072,-0.18 -0.428269,-0.4 0.216819,-0.658361 1.356618,-0.6327 1.969325,0.04433 0.314826,0.347879 0.77488,0.55481 1.022346,0.45985 0.247462,-0.09496 0.449933,-0.0084 0.449933,0.192246 0,0.572647 2.328739,2.75506 2.81976,2.642583 0.521331,-0.119421 2.926435,0.971091 4.500061,2.040397 0.91295,0.620365 1.016675,0.794349 0.574688,0.963955 -0.296631,0.113827 -1.042243,0.112611 -1.656919,-0.0026 -0.966652,-0.181347 -1.11759,-0.125315 -1.11759,0.41488 0,0.455782 -0.164096,0.581629 -0.607287,0.465731 -0.334006,-0.08734 -0.903065,-6.4e-4 -1.264576,0.192963 -0.499504,0.267328 -0.753017,0.2493 -1.056057,-0.07511 -0.332199,-0.355619 -0.548442,-0.352208 -1.295421,0.02045 -0.493162,0.246023 -0.896659,0.561927 -0.896659,0.70201 0,0.31265 -4.892119,0.959645 -8.795755,1.163267 -4.601222,0.24001 -5.653149,0.414947 -6.206416,1.032144 -0.62912,0.701811 -3.228307,1.938132 -4.621383,2.198186 -1.070588,0.199856 -4.829383,2.477555 -6.456448,3.912381 -1.739743,1.534195 -3.123527,2.363453 -5.094716,3.053104 -1.069906,0.374327 -2.125284,0.792311 -2.345284,0.928855 -0.617462,0.383232 -0.474897,0.795257 0.31426,0.908237 0.643279,0.09209 0.571727,0.218467 -0.72,1.271651 -0.78883,0.643008 -2.514248,1.735808 -3.834248,2.428285 -1.710254,0.897206 -2.4,1.434809 -2.4,1.870608 0,0.336355 -0.54,1.020013 -1.2,1.519238 -1.308337,0.989629 -1.650205,1.998341 -0.56,1.652321 0.989764,-0.31414 0.764073,0.1524 -0.665796,1.37632 -0.718187,0.61474 -1.436886,1.4625 -1.597107,1.88392 -0.160221,0.42141 -0.7004728,1.00103 -1.2005589,1.28804 -0.9170167,0.52629 -3.6286824,4.41254 -3.7751308,5.41035 -0.043453,0.29607 -0.7964096,1.2725 -1.6732366,2.16984 -0.8768265,0.89734 -2.0383671,2.11476 -2.58120095,2.70537 L 0,116.54769 V 98.764982 80.982274 L 0.98237689,79.86341 C 1.5226842,79.248034 2.4662585,78.434597 3.0792087,78.055771 3.692159,77.676949 4.1281119,77.301451 4.0479932,77.22133 3.8610505,77.034389 2.7226522,77.676165 1.2000001,78.826895 L 0,79.733784 V 78.372091 C 0,77.539883 0.21775163,76.753886 0.56000003,76.350715 1.0977221,75.717278 1.0966394,75.709186 0.53278433,76.147288 -0.00928733,76.568469 -0.04618879,76.53341 0.0527843,75.691275 c 0.086431,-0.735418 0.4484071,-1.094374 1.8672158,-1.851648 2.0085099,-1.072022 2.576948,-1.519622 1.9298744,-1.519622 -0.2409693,0 -1.2057693,0.433232 -2.1440002,0.962736 -2.06710759,1.166601 -2.38983513,0.558291 -0.4258742,-0.802736 0.704,-0.487873 1.2800001,-0.957021 1.2800001,-1.042551 0,-0.08553 -0.3240001,0.07686 -0.7200001,0.360867 C 0.17480935,72.992581 0,73.034363 0,72.238113 c 0,-0.581817 0.38810774,-0.940925 1.7769348,-1.64415 0.9773141,-0.494861 2.0575128,-0.826371 2.4004418,-0.736695 0.3429286,0.08968 0.5504109,0.04478 0.4610714,-0.09978 C 4.5491088,69.612939 4.6569088,69.421736 4.8780064,69.3326 5.099103,69.24346 4.848,69.160568 4.3200003,69.148395 3.7920002,69.136235 2.6040002,69.478225 1.6800001,69.908408 L 0,70.690561 v -6.865277 c 0,-5.951671 0.06521334,-6.86528 0.49004317,-6.86528 0.83149313,0 0.87165793,-0.821984 0.17787345,-3.640231 C 0.24779707,51.61319 0.00638444,49.618521 0.01720874,47.943302 l 0.01720874,-2.663299 0.63339447,1.92 c 0.74729855,2.265277 2.71028745,9.108282 3.39642955,11.840001 0.265242,1.056 0.6277092,2.496 0.805483,3.2 0.4496752,1.780755 0.9296957,2.72 1.390113,2.72 0.4259687,0 0.9167229,-0.892912 0.8221466,-1.495869 -0.1158477,-0.738573 0.5712602,-0.740352 1.9541505,-0.0051 1.4419254,0.766682 1.4437874,0.774077 0.6027617,2.393949 -0.495905,0.955146 -0.1927293,1.451831 0.6205247,1.016589 0.488842,-0.261626 0.62058,-0.227846 0.62058,0.15913 0,0.271148 0.275359,0.491257 0.614574,0.491257 0.425851,0 0.680866,-0.301824 0.830451,-0.982883 0.118733,-0.540582 0.310174,-0.888583 0.425426,-0.773331 0.212432,0.212432 0.248031,0.353568 0.342074,1.356214 0.03594,0.383171 0.186704,0.256867 0.477458,-0.4 0.233713,-0.528 0.893162,-1.300944 1.465442,-1.717651 0.805992,-0.586883 0.941796,-0.821818 0.602542,-1.042352 -0.546088,-0.354992 0.560154,-1.332151 2.362955,-2.087232 1.476748,-0.618522 2.208956,-1.551735 5.988733,-7.632766 1.640941,-2.64 3.081066,-4.872 3.200278,-4.96 0.119213,-0.088 0.309727,-0.412 0.423366,-0.72 0.113638,-0.308 0.391135,-0.569971 0.616659,-0.58216 0.563159,-0.03043 3.470376,-3.686909 3.743552,-4.708356 0.269915,-1.009248 -0.29853,-3.32528 -1.281997,-5.223283 -0.946003,-1.825699 -1.266691,-4.199507 -0.838424,-6.206202 0.641636,-3.006458 5.227645,-8.523541 8.485466,-10.208225 0.474627,-0.245439 1.150301,-0.763764 1.501498,-1.151833 0.3512,-0.388069 1.610857,-1.283223 2.799245,-1.989231 1.606265,-0.954265 2.160704,-1.461302 2.160704,-1.975979 0,-0.380781 0.224342,-1.012623 0.498537,-1.404092 0.274199,-0.39147 0.402468,-0.867213 0.285044,-1.057206 -0.117421,-0.189993 0.174044,-0.749944 0.647702,-1.244336 0.544711,-0.568557 0.733955,-0.977534 0.514957,-1.112883 -0.615575,-0.380444 -0.370343,-0.758629 0.726704,-1.120686 0.590118,-0.194757 1.418118,-0.7240033 1.84,-1.1761026 0.995562,-1.0668727 2.177667,-1.8966059 3.118704,-2.1890539 0.636996,-0.1979609 1.012404,0.048835 2.461143,1.6179707 l 1.709494,1.8515618 3.618858,-1.4659925 c 4.64848,-1.883091 6.489524,-2.2415121 11.774638,-2.2923329 3.968483,-0.03816 4.442685,0.020538 5.764221,0.7135242 0.792,0.4153078 2.031222,1.299122 2.753827,1.9640308 0.722608,0.6649094 1.649296,1.3884614 2.059309,1.6078944 0.669063,0.358071 0.834179,0.2997 1.610736,-0.569418 0.640979,-0.7173804 0.921831,-1.4558499 1.083524,-2.8490199 0.120051,-1.0343479 0.531996,-3.1739237 0.915436,-4.7546128 0.653204,-2.69274642 0.75242,-2.8803422 1.573344,-2.97486657 0.962589,-0.11083582 0.971706,0.02227053 0.229047,3.34387657 -0.162688,0.7276445 -0.390381,2.5534686 -0.505981,4.0573868 -0.17664,2.2980059 -0.12632,2.8182579 0.315286,3.2598679 0.289012,0.289008 0.525473,0.731184 0.525473,0.982613 0,0.547732 0.205542,0.55998 8,0.476705 5.416494,-0.05787 6.188424,0.0059 9.076034,0.749302 1.73581,0.446903 3.79466,1.186819 4.57523,1.644259 l 1.4192,0.831708 1.30242,-1.302416 c 0.71632,-0.716328 1.47915,-1.302415 1.69517,-1.302415 0.21601,0 0.66707,-0.307138 1.00235,-0.682529 0.6043,-0.676601 0.60334,-0.680582 -0.1104,-0.458435 -0.42143,0.131164 -0.72,0.0892 -0.72,-0.101187 0,-0.411633 1.85815,-1.8163256 2.76713,-2.0918398 0.47714,-0.1446243 0.63886,-0.39284 0.52919,-0.8122177 -0.12987,-0.4966237 0.0892,-0.6540547 1.23287,-0.8859367 0.9952,-0.2017811 1.36675,-0.4247203 1.30623,-0.7837706 -0.0649,-0.3851475 0.29392,-0.5381475 1.54384,-0.6582483 0.99272,-0.095388 1.96264,-0.4235684 2.48457,-0.8406804 1.08097,-0.8638641 4.19971,-2.510908 5.02845,-2.6555769 0.34524,-0.060269 0.80518,-0.2767606 1.02209,-0.4810932 0.2169,-0.2043326 0.68567,-0.2953371 1.04171,-0.2022323 0.35603,0.093105 0.82656,0.021397 1.04562,-0.1593497 0.58657,-0.4839734 3.4383,-0.093291 3.4383,0.4710411 0,0.2500914 0.50148,0.6642422 1.11439,0.920335 0.78263,0.3270017 1.16904,0.7270286 1.29794,1.3436715 0.18822,0.9004365 1.00233,2.6965179 1.99351,4.3980486 0.77119,1.3238964 1.36884,3.0773524 1.16262,3.4110324 -0.0942,0.152485 0.1065,1.031383 0.4461,1.953106 0.33959,0.921724 0.55649,1.8461 0.48201,2.054169 -0.0745,0.208069 0.0893,0.812918 0.36399,1.344109 0.27469,0.531191 0.50457,1.440953 0.51084,2.021693 0.0168,1.557693 0.78552,4.509519 1.43083,5.494387 0.30997,0.47308 0.60823,1.395951 0.66279,2.050825 0.0546,0.654874 0.23072,1.706884 0.39147,2.3378 0.21069,0.826967 0.17716,1.304522 -0.12014,1.711103 -0.22681,0.310192 -0.35028,0.765988 -0.27437,1.012881 0.44905,1.460493 0.4985,1.541165 0.72251,1.178717 0.12653,-0.204733 0.23005,0.185773 0.23005,0.867792 0,0.967555 -0.0895,1.165763 -0.40727,0.902029 -0.57664,-0.478573 -0.54179,0.94024 0.0584,2.376656 0.25611,0.612954 0.53778,1.512208 0.62593,1.998342 0.2246,1.238577 0.40275,1.325773 1.44764,0.708538 0.50574,-0.298749 1.11751,-0.543178 1.35948,-0.543178 0.65696,0 2.80009,-2.20406 3.02866,-3.114774 0.12409,-0.49441 0.0431,-0.890429 -0.21467,-1.049741 -0.33199,-0.205184 -0.3089,-0.477155 0.11669,-1.374016 0.29184,-0.615005 0.53062,-1.305229 0.53062,-1.533831 0,-0.28702 0.1027,-0.312934 0.33189,-0.08375 0.22919,0.229187 0.22472,0.613783 -0.0145,1.242839 -0.25101,0.660205 -0.24734,1.149955 0.0133,1.779248 0.28841,0.696281 0.2549,1.070883 -0.16915,1.890899 -0.51498,0.995872 -0.39296,1.855219 0.1408,0.991575 0.20445,-0.3308 0.32005,-0.267802 0.48976,0.266883 0.26398,0.831734 0.96783,0.71392 0.96783,-0.162 0,-0.693251 0.6438,-1.227642 1.12253,-0.93177 0.48154,0.297597 0.37959,0.798435 -0.16251,0.798435 -0.53908,0 -0.64502,0.50024 -0.16833,0.794855 0.17142,0.105942 -0.18931,0.679146 -0.80162,1.273782 -0.95025,0.922813 -1.06979,1.195597 -0.81623,1.862519 0.85505,2.248938 4.80526,0.436944 4.4547,-2.043399 -0.0741,-0.524198 -0.28617,-0.737929 -0.66852,-0.673728 -0.308,0.05172 -0.56,-0.05628 -0.56,-0.24 0,-0.183715 0.1537,-0.334029 0.34156,-0.334029 0.39346,0 0.0511,-1.379612 -0.38386,-1.546665 -0.15273,-0.05867 -0.2777,-0.262669 -0.2777,-0.453335 0,-0.190665 0.0948,-0.251916 0.21056,-0.136108 0.1158,0.115804 0.39567,0.05692 0.62193,-0.130858 0.31174,-0.258723 0.40035,-0.19503 0.36585,0.262976 -0.0647,0.858531 0.73905,2.671014 1.08862,2.45497 0.16097,-0.09949 0.20401,-0.709658 0.0956,-1.355933 l -0.19703,-1.175047 0.66511,0.96 c 0.61973,0.894503 0.66525,1.401693 0.66721,7.433905 l 0.002,6.473904 -0.80416,0.201831 c -0.44228,0.111004 -1.00076,0.03865 -1.24107,-0.160784 -0.30754,-0.255236 -0.68872,-0.266877 -1.28726,-0.03931 -0.67369,0.256137 -0.88897,0.22263 -1.0363,-0.16129 -0.14331,-0.373482 -0.28744,-0.400362 -0.62858,-0.117238 -0.69817,0.57943 -0.52496,1.293571 0.59367,2.447709 0.81024,0.835955 0.94065,1.12831 0.5978,1.340204 -0.33724,0.208423 -0.22553,0.406266 0.4837,0.856666 0.50721,0.322109 1.4622,1.009975 2.1222,1.528589 l 1.2,0.942931 V 73.49356 c 0,12.870733 -0.14874,15.820215 -0.71252,14.128874 -0.083,-0.24912 -0.33706,-0.284035 -0.74667,-0.10263 -0.81452,0.360736 -1.74081,0.450893 -1.74081,0.169437 0,-0.40762 -2.25899,-0.176957 -2.52766,0.258096 -0.14514,0.235033 -0.3558,0.415033 -0.46812,0.4 -0.11232,-0.01504 -0.19192,0.06457 -0.17689,0.176893 0.0576,0.430537 -0.81879,0.709424 -1.06496,0.338883 -0.1908,-0.287187 -0.35316,-0.261399 -0.64845,0.103008 -0.21666,0.267363 -0.75392,0.666387 -1.19392,0.886723 -0.74896,0.375046 -0.71583,0.392262 0.51923,0.269802 0.72558,-0.07194 1.51758,-0.0052 1.76,0.148377 0.36458,0.230925 0.3578,0.280877 -0.0392,0.288983 -0.264,0.0054 -0.696,0.151593 -0.96,0.324899 -0.42666,0.280089 -0.42666,0.350112 0,0.630202 0.41093,0.269756 0.39942,0.315804 -0.08,0.32 -0.95194,0.0083 -0.60997,0.828684 0.63566,1.524899 0.88013,0.491929 1.47552,0.518777 1.188,0.05357 -0.11775,-0.190535 0.25057,-0.106141 0.8185,0.187549 0.56793,0.293686 1.32262,0.458134 1.67709,0.36544 0.35447,-0.09269 0.85682,0.0438 1.11634,0.303315 0.25952,0.25952 0.72439,0.391699 1.03305,0.293734 0.30866,-0.09797 0.79749,-0.08745 1.08628,0.02336 0.48191,0.184992 0.52495,2.887076 0.52495,32.967266 v 32.76577 h -7.81333 -7.81334 z m 8.15522,-64.561975 c -1.16033,-0.605156 -1.5104,-0.599101 -0.70226,0.01216 0.34164,0.258403 0.84564,0.468937 1.12,0.467852 0.27436,-9.6e-4 0.0864,-0.217084 -0.41774,-0.48 z m -0.68342,-1.118029 c 0.10877,-0.176 -0.0352,-0.32 -0.32,-0.32 -0.28477,0 -0.42877,0.144 -0.32,0.32 0.10877,0.176 0.25277,0.32 0.32,0.32 0.0672,0 0.21123,-0.144 0.32,-0.32 z M 1.6408178,81.040005 c 0.3980386,-0.507539 0.3867201,-0.518858 -0.1208177,-0.120819 -0.308,0.241552 -0.56000004,0.493552 -0.56000004,0.56 0,0.263373 0.26277934,0.09386 0.68081774,-0.439181 z M 95.360006,80.498891 c 0,-0.337753 -0.614115,-0.479651 -0.796775,-0.184105 -0.110547,0.17887 0.02349,0.325219 0.297889,0.325219 0.274387,0 0.498886,-0.0635 0.498886,-0.141114 z m -1.6,-2.098886 c -0.620403,-0.400935 -0.96,-0.400935 -0.96,0 0,0.176 0.324,0.317795 0.72,0.315101 0.582221,-0.004 0.628147,-0.06426 0.24,-0.315101 z m -16.640001,-0.48 c 0,-0.264 -0.216,-0.48 -0.48,-0.48 -0.264,0 -0.48,0.216 -0.48,0.48 0,0.264 0.216,0.48 0.48,0.48 0.264,0 0.48,-0.216 0.48,-0.48 z m 14.080001,0.16 c 0,-0.176 -0.216,-0.32 -0.48,-0.32 -0.264,0 -0.48,0.144 -0.48,0.32 0,0.176 0.216,0.32 0.48,0.32 0.264,0 0.48,-0.144 0.48,-0.32 z m 20.480004,-0.64 c 0,-0.352 -0.144,-0.64 -0.32,-0.64 -0.176,0 -0.32,0.06022 -0.32,0.133827 0,0.07361 -0.0874,0.361606 -0.19424,0.64 -0.12746,0.332157 -0.0174,0.506173 0.32,0.506173 0.3009,0 0.51424,-0.265507 0.51424,-0.64 z m 1.6,0 c 0,-0.176 -0.144,-0.32 -0.32,-0.32 -0.176,0 -0.32,0.144 -0.32,0.32 0,0.176 0.144,0.32 0.32,0.32 0.176,0 0.32,-0.144 0.32,-0.32 z M 8.3097132,73.49132 C 7.8640552,73.111096 7.2880552,72.52443 7.0297131,72.187614 6.5941585,71.619758 6.6065419,71.600401 7.2000004,71.921457 c 0.3520001,0.190429 0.9640001,0.651613 1.3600001,1.024858 0.5636087,0.531216 0.7200001,0.572326 0.7200001,0.189264 0,-0.522416 -2.7676226,-2.714359 -3.4440146,-2.727642 -0.2540071,-0.005 -0.090406,0.497024 0.4406272,1.352067 0.8658752,1.394189 2.3976091,2.86841 2.6833874,2.582634 0.088,-0.088 -0.2046292,-0.471094 -0.6502874,-0.851318 z m 33.4502898,0.4064 c 0,-0.246922 -0.252,-0.497482 -0.56,-0.556797 -0.551597,-0.106227 -0.779629,0.572784 -0.34,1.012416 0.335427,0.335424 0.9,0.04962 0.9,-0.455619 z m 93.433447,-2.617716 c -0.26873,-1.992259 -0.46701,-2.411936 -0.83167,-1.760326 -0.25358,0.453117 0.52644,3.440327 0.89834,3.440327 0.088,0 0.058,-0.756 -0.0667,-1.680001 z m -2.09593,0 c 0.0124,-0.132 -0.12151,-0.24 -0.29751,-0.24 -0.176,0 -0.30988,0.396 -0.29751,0.88 0.0199,0.779789 0.0538,0.807121 0.29751,0.240001 0.15126,-0.352001 0.28514,-0.748001 0.29751,-0.880001 z m 0.56108,0.02 c -0.10215,-0.255273 -0.17797,-0.179449 -0.19333,0.193335 -0.0139,0.337331 0.0617,0.526333 0.16807,0.42 0.10634,-0.106336 0.1177,-0.382336 0.0252,-0.613335 z m -0.85859,-0.9 c 0,-0.176 -0.1525,-0.32 -0.33889,-0.32 -0.18639,0 -0.24989,0.144 -0.14111,0.32 0.10877,0.176 0.26127,0.32 0.33888,0.32 0.0776,0 0.14112,-0.144 0.14112,-0.32 z m -92.000007,-0.32 c 0.108774,-0.176 -0.02672,-0.32 -0.301114,-0.32 -0.274387,0 -0.498887,0.144 -0.498887,0.32 0,0.176 0.135501,0.32 0.301114,0.32 0.165613,0 0.390112,-0.144 0.498887,-0.32 z M 12.468742,69.461041 c 0.182192,-0.340429 0.31989,-0.808429 0.305996,-1.04 -0.01756,-0.292701 -0.0816,-0.274726 -0.210086,0.05896 -0.101653,0.264 -0.472318,0.732 -0.8237,1.04 -0.531605,0.465972 -0.551951,0.56 -0.121173,0.56 0.284737,0 0.666771,-0.278534 0.848963,-0.618963 z M 8.4779509,64.633546 c -0.2930534,-0.923331 -0.6661991,-0.77471 -0.6187898,0.246458 0.065401,1.408698 0.1402807,1.554387 0.4900849,0.953543 0.1813811,-0.311553 0.2392982,-0.851553 0.1287049,-1.200001 z M 132.80001,62.080004 c -0.41223,-0.770256 -0.51418,-0.789437 -0.7621,-0.143379 -0.10481,0.273139 -0.0582,0.41479 0.10365,0.31478 0.16182,-0.100012 0.38468,-0.03549 0.49522,0.14338 0.37097,0.600243 0.50973,0.332656 0.16323,-0.314781 z M 0.99970813,57.514669 C 0.68367105,57.200986 0.6469147,57.237741 0.82057378,57.693805 0.94074383,58.009396 1.1196752,58.186996 1.2181991,58.088471 1.316723,57.989946 1.218402,57.731738 0.99970813,57.514669 Z M 154.4169,51.547334 c -0.0995,-0.160966 2e-5,-0.357254 0.22112,-0.436192 0.22109,-0.07893 0.29159,-0.261635 0.15666,-0.405996 -0.33603,-0.359511 -0.99954,0.353926 -0.7319,0.786976 0.11825,0.191334 0.287,0.347881 0.375,0.347881 0.088,0 0.0786,-0.131702 -0.0209,-0.292669 z m -0.49689,-1.307331 c 0,-0.176 -0.0635,-0.32 -0.14111,-0.32 -0.0776,0 -0.23012,0.144 -0.33889,0.32 -0.10877,0.176 -0.0453,0.32 0.14111,0.32 0.18639,0 0.33889,-0.144 0.33889,-0.32 z m -0.256,-1.024 c -0.79981,-0.799805 -0.4422,-1.23287 0.84773,-1.026602 1.50061,0.239959 2.91448,-0.407779 3.57206,-1.63647 0.42857,-0.800803 0.40767,-0.904976 -0.29592,-1.474707 -0.4711,-0.381476 -1.01219,-0.5417 -1.43247,-0.424173 -1.79294,0.501363 -2.4086,0.910381 -2.78978,1.853405 -0.22511,0.556899 -0.50605,1.084547 -0.62432,1.172547 -0.11827,0.088 -0.31244,0.472288 -0.43147,0.853974 -0.15978,0.512311 -0.0664,0.732954 0.35687,0.84288 1.01924,0.26473 1.18869,0.230541 0.7973,-0.160854 z m -1.664,-0.918858 c 0,-0.188569 -0.216,-0.558857 -0.48,-0.822857 -0.49839,-0.498391 -0.62127,-0.214781 -0.28576,0.659542 0.21913,0.571043 0.76576,0.687626 0.76576,0.163315 z m 0,-2.07703 c 0,-0.253063 -0.144,-0.460112 -0.32,-0.460112 -0.176,0 -0.32,-0.202519 -0.32,-0.450042 0,-0.292496 0.22404,-0.391453 0.64,-0.282678 0.45969,0.120211 0.64,0.0098 0.64,-0.391827 0,-0.459802 -0.19803,-0.527056 -1.11414,-0.378394 -1.21232,0.196733 -1.93248,-0.349722 -0.83806,-0.63592 0.43608,-0.114038 0.65916,-0.415578 0.63508,-0.858461 -0.0282,-0.517933 -0.0717,-0.551165 -0.18057,-0.137715 -0.0789,0.299731 -0.42663,0.634845 -0.77275,0.744698 -0.53124,0.168611 -0.59633,0.382854 -0.4177,1.375033 0.11637,0.646419 0.32849,1.324035 0.47137,1.505815 0.40413,0.514141 1.57677,0.491533 1.57677,-0.0304 z m 7.65636,-1.551623 c 0.22112,-0.266432 0.25209,-0.527299 0.0756,-0.6364 -0.16454,-0.101689 -0.37405,0.101488 -0.46558,0.451511 -0.19718,0.754035 -0.11476,0.79311 0.39002,0.184889 z m -9.44481,-2.453043 c 1.15664,-1.374589 1.10359,-2.030474 -0.14407,-1.780944 -0.53489,0.106979 -1.3077,0.447331 -1.71736,0.756339 -0.6861,0.51753 -0.70745,0.618899 -0.27068,1.285495 0.63791,0.973565 1.14567,0.911433 2.13211,-0.26089 z m 2.26845,0.02455 c 0.10877,-0.176 0.0538,-0.32 -0.12223,-0.32 -0.176,0 -0.409,0.144 -0.51777,0.32 -0.10877,0.176 -0.0538,0.32 0.12223,0.32 0.176,0 0.409,-0.144 0.51777,-0.32 z m 0.16,-0.96 c 0,-0.176 -0.216,-0.32 -0.48,-0.32 -0.264,0 -0.48,0.144 -0.48,0.32 0,0.176 0.216,0.32 0.48,0.32 0.264,0 0.48,-0.144 0.48,-0.32 z m 0.8,-0.32 c 0.10877,-0.176 0.0453,-0.32 -0.14111,-0.32 -0.18639,0 -0.33889,0.144 -0.33889,0.32 0,0.176 0.0635,0.32 0.14111,0.32 0.0776,0 0.23012,-0.144 0.33889,-0.32 z m 6.24,-0.141114 c 0,-0.07761 -0.144,-0.230112 -0.32,-0.338886 -0.176,-0.108775 -0.32,-0.04527 -0.32,0.141113 0,0.186387 0.144,0.338887 0.32,0.338887 0.176,0 0.32,-0.0635 0.32,-0.141114 z m -7.5173,-0.494522 c -0.11652,-0.188528 0.18701,-0.271149 0.75374,-0.205161 0.69694,0.08114 0.90452,-0.005 0.78195,-0.324365 -0.2094,-0.54568 -0.73673,-0.570394 -0.74329,-0.03484 -0.003,0.267034 -0.10522,0.241328 -0.30667,-0.07732 -0.22811,-0.360804 -0.39197,-0.38714 -0.67122,-0.107882 -0.33235,0.332346 -0.1806,1.065207 0.22056,1.065207 0.088,0 0.0722,-0.142036 -0.0351,-0.315636 z M 97.534832,30.094555 c -0.214829,-0.343996 -0.45257,-0.563476 -0.528314,-0.487733 -0.137149,0.13715 0.560237,1.11318 0.795383,1.11318 0.06794,0 -0.05224,-0.281451 -0.267069,-0.625447 z m -21.75083,-1.224972 c -0.03146,-0.955928 0.55062,-5.298913 0.893024,-6.663154 0.152643,-0.608177 0.108384,-0.795178 -0.150352,-0.635271 -0.201668,0.124638 -0.366669,0.352741 -0.366669,0.506897 0,0.154155 -0.152269,0.680778 -0.338375,1.170272 -0.270892,0.712508 -0.397545,0.79643 -0.635097,0.420832 -0.252391,-0.399056 -0.29746,-0.390598 -0.301629,0.05661 -0.0026,0.28917 0.198192,0.603698 0.446419,0.69895 0.366099,0.140486 0.387664,0.433955 0.114215,1.554237 -0.185405,0.759577 -0.535969,1.612225 -0.779031,1.894772 -0.460419,0.535212 -0.253645,1.694987 0.247027,1.385554 0.157559,-0.09738 0.286471,0.05595 0.286471,0.340724 0,0.284774 0.137833,0.432584 0.306301,0.328467 0.168464,-0.104118 0.293427,-0.580616 0.277696,-1.058886 z m 69.689338,0.337085 c -0.32528,-0.325284 -0.59368,0.164446 -0.32679,0.596283 0.20161,0.326213 0.27699,0.326466 0.38538,0.0013 0.0741,-0.222332 0.0478,-0.491239 -0.0586,-0.597573 z M 64.552209,28.240002 c 0.0741,0.308 0.350723,0.56 0.614723,0.56 0.784506,0 0.344301,-1.108949 -0.487104,-1.227093 -0.950086,-0.135008 -1.47505,0.369912 -1.170262,1.125583 0.209664,0.519833 0.270249,0.49666 0.571232,-0.21849 0.27648,-0.656932 0.360784,-0.699852 0.471411,-0.24 z m -5.032205,-0.4 c 0,-0.176 -0.152499,-0.32 -0.338887,-0.32 -0.186387,0 -0.249888,0.144 -0.141113,0.32 0.108774,0.176 0.261273,0.32 0.338886,0.32 0.07761,0 0.141114,-0.144 0.141114,-0.32 z m 1.193334,0.126666 c -0.106336,-0.106333 -0.382336,-0.117701 -0.613334,-0.02526 -0.255274,0.102153 -0.17945,0.177979 0.193334,0.193334 0.337331,0.01389 0.526333,-0.06174 0.42,-0.168071 z m 1.206666,-1.086666 c 0.108774,-0.176 0.04527,-0.32 -0.141114,-0.32 -0.186387,0 -0.338886,0.144 -0.338886,0.32 0,0.176 0.0635,0.32 0.141113,0.32 0.07761,0 0.230112,-0.144 0.338887,-0.32 z m -1.12,-0.282696 c 0,-0.387034 1.553536,-0.656696 1.675491,-0.29083 0.05677,0.170313 0.482925,0.14704 1.015546,-0.05546 1.108131,-0.421311 1.030054,-0.530707 -0.647837,-0.907704 -1.141671,-0.256516 -1.382176,-0.204864 -1.990871,0.427568 -0.757008,0.786529 -0.865302,1.109124 -0.372329,1.109124 0.176,0 0.32,-0.127213 0.32,-0.282696 z m 14.2021,-0.533925 c 0.109277,-0.284776 0.05563,-0.413223 -0.125763,-0.301114 -0.173984,0.107528 -0.316336,0.331007 -0.316336,0.49662 0,0.460298 0.229366,0.358868 0.442099,-0.195506 z M 63.961002,24.670879 c 0.242548,-0.153628 0.343872,-0.436474 0.225162,-0.628547 -0.22936,-0.371114 -1.46616,0.197992 -1.46616,0.674645 0,0.325702 0.694739,0.299896 1.240998,-0.0461 z m 1.159002,-0.990878 c -0.109555,-0.177261 0.124678,-0.32 0.525114,-0.32 0.522784,0 0.626102,-0.09679 0.373241,-0.349645 -0.25286,-0.25286 -0.536313,-0.249743 -1.024,0.01126 -0.790691,0.423166 -0.890269,0.978387 -0.175469,0.978387 0.274388,0 0.409888,-0.144 0.301114,-0.32 z m 7.971284,-0.481413 c 0.485481,-0.449928 0.765245,-0.962401 0.637881,-1.168477 -0.158774,-0.256905 -0.344889,-0.205641 -0.620166,0.170818 -0.344426,0.471031 -0.41665,0.477056 -0.58111,0.04848 -0.10329,-0.269172 -0.552321,-0.489405 -0.997847,-0.489405 -0.825571,0 -1.08055,0.435046 -0.474502,0.809604 0.490905,0.303397 -0.268874,1.115892 -0.838935,0.897139 -0.661277,-0.253756 -0.560253,-1.308755 0.162359,-1.695484 0.340428,-0.182192 1.096428,-0.340386 1.68,-0.351542 1.001942,-0.01916 1.018352,-0.03736 0.294659,-0.326845 -0.989939,-0.395989 -1.782237,-0.129771 -2.763607,0.928591 -1.334909,1.439641 -1.017449,1.908247 1.323258,1.953274 0.980634,0.01886 1.532301,-0.177726 2.17801,-0.77615 z m 47.068722,0.161413 c 0.10877,-0.176 -0.0987,-0.32 -0.46112,-0.32 -0.36238,0 -0.65888,0.144 -0.65888,0.32 0,0.176 0.2075,0.32 0.46111,0.32 0.25361,0 0.55011,-0.144 0.65889,-0.32 z m -53.120006,-0.96 c 0.108775,-0.176 0.05377,-0.32 -0.12223,-0.32 -0.176,0 -0.408995,0.144 -0.51777,0.32 -0.108774,0.176 -0.05377,0.32 0.122231,0.32 0.176,0 0.408995,-0.144 0.517769,-0.32 z m 1.6,-0.96 c 0.108775,-0.176 -0.02672,-0.32 -0.301113,-0.32 -0.274388,0 -0.498887,0.144 -0.498887,0.32 0,0.176 0.135501,0.32 0.301114,0.32 0.165613,0 0.390112,-0.144 0.498886,-0.32 z m 20.320002,-2.24 C 88.706201,19.04314 88.42654,18.9868 88.33854,19.0748 c -0.088,0.088 0.04766,0.28834 0.301466,0.445201 0.253804,0.156861 0.533465,0.213202 0.621465,0.125202 0.088,-0.088 -0.04766,-0.288341 -0.301465,-0.445202 z m -32.000002,-0.32 c 0.388147,-0.25084 0.34222,-0.311137 -0.24,-0.3151 -0.396,-0.0027 -0.720001,0.1391 -0.720001,0.3151 0,0.400935 0.339597,0.400935 0.960001,0 z M 85.943365,17.11313 c -0.657625,-0.497523 -1.025104,-0.418444 -0.676518,0.145581 0.116013,0.18771 0.454432,0.33671 0.752045,0.331113 0.475088,-0.0089 0.465872,-0.0671 -0.07553,-0.476694 z m -10.74336,-4.953129 c 0,-0.176 -0.396,-0.317795 -0.88,-0.3151 -0.685741,0.0038 -0.774039,0.07338 -0.4,0.3151 0.626089,0.404611 1.28,0.404611 1.28,0 z m -1.92,-0.96 c 0,-0.176 -0.0635,-0.32 -0.141114,-0.32 -0.07761,0 -0.230112,0.144 -0.338886,0.32 -0.108775,0.176 -0.04527,0.32 0.141113,0.32 0.186387,0 0.338887,-0.144 0.338887,-0.32 z M 123.52001,7.0400004 c 0,-0.176 -0.0635,-0.32 -0.14112,-0.32 -0.0776,0 -0.23011,0.144 -0.33888,0.32 -0.10878,0.1760001 -0.0453,0.3200001 0.14111,0.3200001 0.18639,0 0.33889,-0.144 0.33889,-0.3200001 z m 11.2,-2.5600001 c 0,-0.176 -0.144,-0.32 -0.32,-0.32 -0.176,0 -0.32,0.144 -0.32,0.32 0,0.176 0.144,0.32 0.32,0.32 0.176,0 0.32,-0.144 0.32,-0.32 z m -0.88,-1.81193 c -0.22,-0.088772 -0.58,-0.088772 -0.8,0 -0.22,0.088772 -0.04,0.1614036 0.4,0.1614036 0.44,0 0.62,-0.072632 0.4,-0.1614036 z M 23.416754,159.46541 c 0.05679,-0.2928 0.283247,-0.5923 0.503247,-0.66555 0.588372,-0.1959 0.48832,0.77779 -0.103247,1.00479 -0.350938,0.13467 -0.472,0.032 -0.4,-0.33924 z m 14.170279,0.13619 c -0.313229,-0.81626 -0.04242,-1.36669 0.406361,-0.82595 0.229908,0.27703 0.262288,0.6201 0.08552,0.90612 -0.240003,0.38834 -0.316905,0.3758 -0.491878,-0.0802 z m 21.932971,0.0784 c 0,-0.176 0.144,-0.32 0.32,-0.32 0.176,0 0.32,0.144 0.32,0.32 0,0.176 -0.144,0.32 -0.32,0.32 -0.176,0 -0.32,-0.144 -0.32,-0.32 z m 39.186844,-0.0213 c -0.11601,-0.18771 -0.14512,-0.4071 -0.06468,-0.48753 0.22319,-0.2232 1.197843,0.21868 1.197843,0.54306 0,0.40057 -0.877859,0.35755 -1.133158,-0.0555 z M 24.99535,159.38187 c -0.283035,-0.17493 -0.310749,-0.33164 -0.08349,-0.4721 0.624779,-0.38614 -0.0036,-1.14976 -0.946097,-1.14976 -0.50917,0 -0.925764,-0.13999 -0.925764,-0.31109 0,-0.17232 0.783897,-0.27938 1.757294,-0.24 1.907931,0.0772 2.051449,0.26687 1.19011,1.57294 -0.382247,0.57961 -0.707123,0.77609 -0.992055,0.6 z m 23.644653,-0.0219 c 0,-0.176 0.144,-0.32 0.32,-0.32 0.176,0 0.32,0.144 0.32,0.32 0,0.176 -0.144,0.32 -0.32,0.32 -0.176,0 -0.32,-0.144 -0.32,-0.32 z m 93.120007,-0.16 c 0,-0.264 0.144,-0.48 0.32,-0.48 0.176,0 0.32,0.216 0.32,0.48 0,0.264 -0.144,0.48 -0.32,0.48 -0.176,0 -0.32,-0.216 -0.32,-0.48 z m -107.840008,-0.64 c 0,-0.30776 0.309018,-0.48 0.861162,-0.48 0.825904,0 0.835731,0.0192 0.24,0.46982 -0.799389,0.60463 -1.101162,0.60742 -1.101162,0.0102 z m 47.220576,-0.0662 c -0.173658,-0.45606 -0.136903,-0.49282 0.179136,-0.17913 0.218694,0.21706 0.317014,0.47527 0.218489,0.5738 -0.09852,0.0985 -0.277456,-0.0791 -0.397625,-0.39467 z m -44.579872,-0.0938 c 0.07118,-0.264 0.478148,-0.50659 0.904362,-0.53908 0.611037,-0.0466 0.639574,-0.0219 0.134934,0.11701 -0.352,0.0969 -0.758963,0.33945 -0.904361,0.53909 -0.174676,0.23983 -0.220452,0.20013 -0.134935,-0.11702 z m 70.056784,-0.0907 c -0.21904,-0.26393 -0.23304,-0.57846 -0.0392,-0.88 0.26427,-0.41105 0.34079,-0.40972 0.6168,0.0107 0.66492,1.0129 0.16544,1.76459 -0.57762,0.86926 z m 34.16984,-0.054 c 0.37479,-0.4516 0.67331,-1.67645 0.68614,-2.81528 0.009,-0.76052 0.51599,-0.7094 0.76563,0.0771 0.23987,0.75575 -0.0664,1.37794 -0.53548,1.08801 -0.20965,-0.12957 -0.2565,0.0331 -0.12703,0.44106 0.12659,0.39885 0.008,0.84306 -0.30857,1.16007 -0.64067,0.64067 -1.00233,0.67753 -0.48069,0.049 z M 27.718921,157.20001 c 0.28653,-1.19436 0.433181,-1.29933 0.651095,-0.46603 0.101546,0.38832 0.383835,0.70603 0.627308,0.70603 0.243473,0 0.442678,0.144 0.442678,0.32 0,0.176 -0.434744,0.32 -0.966097,0.32 -0.891769,0 -0.949854,-0.0677 -0.754984,-0.88 z m 12.601082,0.56 c 0,-0.176 0.144,-0.32 0.32,-0.32 0.176,0 0.32,0.144 0.32,0.32 0,0.176 -0.144,0.32 -0.32,0.32 -0.176,0 -0.32,-0.144 -0.32,-0.32 z m 57.776896,0.0273 c -0.103034,-0.16671 -0.05093,-0.38741 0.115776,-0.49044 0.16671,-0.10303 0.387408,-0.0509 0.490438,0.11578 0.103034,0.16671 0.05093,0.3874 -0.115776,0.49043 -0.16671,0.10304 -0.387408,0.0509 -0.490438,-0.11577 z m 4.303111,-0.82733 c 0,-0.264 0.144,-0.48 0.32,-0.48 0.176,0 0.32,0.216 0.32,0.48 0,0.264 -0.144,0.48 -0.32,0.48 -0.176,0 -0.32,-0.216 -0.32,-0.48 z m -63.360008,-0.8 c 0,-0.176 0.216,-0.32 0.48,-0.32 0.264,0 0.48,0.144 0.48,0.32 0,0.176 -0.216,0.32 -0.48,0.32 -0.264,0 -0.48,-0.144 -0.48,-0.32 z m 75.370118,-0.28813 c -0.1174,-0.3699 -0.47871,-0.81451 -0.80292,-0.98802 -0.3722,-0.1992 -0.53023,-0.542 -0.42874,-0.93008 0.1558,-0.5958 0.17865,-0.59666 0.74691,-0.0284 0.93459,0.93459 1.37814,1.93913 1.01607,2.3012 -0.21048,0.21048 -0.38997,0.0906 -0.53132,-0.35469 z m -96.490119,-0.0319 c 0,-0.176 0.152499,-0.32 0.338886,-0.32 0.186386,0 0.249888,0.144 0.141114,0.32 -0.108774,0.176 -0.261272,0.32 -0.338885,0.32 -0.07761,0 -0.141115,-0.144 -0.141115,-0.32 z m 100.000009,-0.32 c 0.10877,-0.176 0.26127,-0.32 0.33888,-0.32 0.0776,0 0.14112,0.144 0.14112,0.32 0,0.176 -0.1525,0.32 -0.33889,0.32 -0.18639,0 -0.24989,-0.144 -0.14111,-0.32 z M 9.1175407,155.11929 c -0.1246093,-0.30839 -0.1372515,-0.91655 -0.028093,-1.35147 0.164794,-0.65659 0.1027812,-0.75735 -0.365489,-0.59386 -0.5314467,0.18556 -0.5326006,0.1636 -0.020016,-0.38103 0.4437201,-0.47146 0.632755,-0.50423 1.0259825,-0.17788 0.2651235,0.22003 0.6083508,0.32199 0.7627268,0.22659 0.154377,-0.0954 0.282051,1.9e-4 0.283721,0.21245 0.0017,0.21225 0.107374,0.70992 0.234897,1.10592 0.250362,0.77745 -0.09475,0.94852 -0.697512,0.34575 -0.28566,-0.28565 -0.4447128,-0.19098 -0.6719493,0.4 -0.260065,0.67636 -0.3263482,0.70336 -0.5242656,0.21353 z m 97.3824693,0.18212 c 0.231,-0.0924 0.507,-0.0811 0.61333,0.0252 0.10633,0.10634 -0.0827,0.18197 -0.42,0.16807 -0.37278,-0.0154 -0.44861,-0.0912 -0.19333,-0.19333 z m 20.48,0 c 0.231,-0.0924 0.507,-0.0811 0.61333,0.0252 0.10634,0.10634 -0.0827,0.18197 -0.42,0.16807 -0.37278,-0.0154 -0.44861,-0.0912 -0.19333,-0.19333 z M 12.880001,154.64953 c -0.22,-0.0786 -0.4,-0.37771 -0.4,-0.66476 0,-0.47503 0.04859,-0.47332 0.540952,0.019 0.578514,0.57852 0.512872,0.87923 -0.140952,0.64572 z m 97.360009,-0.40952 c -0.10878,-0.176 -0.0453,-0.32 0.14111,-0.32 0.18639,0 0.33889,0.144 0.33889,0.32 0,0.176 -0.0635,0.32 -0.14112,0.32 -0.0776,0 -0.23011,-0.144 -0.33888,-0.32 z m 6.72388,0.006 c -0.12986,-0.21012 -0.0759,-0.5423 0.12,-0.73816 0.19586,-0.19587 0.35612,-0.23769 0.35612,-0.0929 0,0.14475 0.21948,0.081 0.48773,-0.1416 0.58933,-0.4891 0.88126,-0.27782 0.60627,0.43878 -0.11059,0.28818 -0.34608,0.43434 -0.52331,0.3248 -0.17724,-0.10953 -0.43215,-0.0213 -0.56647,0.19601 -0.18786,0.30396 -0.29872,0.30699 -0.48034,0.0131 z m 3.99612,-0.46738 c 0,-0.27439 -0.216,-0.49889 -0.48,-0.49889 -0.264,0 -0.48,-0.12 -0.48,-0.26667 0,-0.14666 0.468,-0.26666 1.04,-0.26666 0.572,0 0.86809,0.0573 0.65798,0.12734 -0.21012,0.07 -0.3083,0.31947 -0.21819,0.5543 0.0901,0.23482 0.01,0.52202 -0.17798,0.63821 -0.18799,0.11619 -0.34181,-0.0132 -0.34181,-0.28763 z M 11.273334,153.22001 c 0.193397,-0.58019 0.78,-0.66208 0.78,-0.10889 0,0.26889 -0.204,0.48889 -0.453333,0.48889 -0.249334,0 -0.396334,-0.171 -0.326667,-0.38 z m 2.806667,-0.56874 c 0,-0.16981 0.294585,-0.4664 0.654634,-0.65909 0.604593,-0.32357 0.62317,-0.29997 0.243025,0.30874 -0.432466,0.69249 -0.897659,0.87405 -0.897659,0.35035 z m 106.905269,-0.83793 c 0.0154,-0.37278 0.0912,-0.4486 0.19333,-0.19333 0.0924,0.231 0.0811,0.507 -0.0252,0.61333 -0.10633,0.10634 -0.18196,-0.0827 -0.16807,-0.42 z m 17.87296,-1.13403 c -0.22527,-0.42092 -0.24788,-0.75675 -0.0592,-0.88 0.16778,-0.10961 0.39394,-0.4153 0.50259,-0.6793 0.10864,-0.264 0.10985,0.0832 0.003,0.77162 -0.16697,1.07256 -0.1197,1.22278 0.33045,1.05004 0.28891,-0.11087 0.52529,-0.0621 0.52529,0.10838 0,0.57948 -0.93588,0.31295 -1.30178,-0.37074 z m 1.48848,-0.8051 c -0.26789,-0.69813 0.0878,-1.02263 0.4658,-0.42493 0.37841,0.59835 0.38647,0.95073 0.0217,0.95073 -0.15718,0 -0.37656,-0.23661 -0.48754,-0.5258 z m -10.2667,-0.1142 c 0.10877,-0.176 0.40527,-0.32 0.65888,-0.32 0.25362,0 0.46112,0.144 0.46112,0.32 0,0.176 -0.2965,0.32 -0.65889,0.32 -0.36239,0 -0.56989,-0.144 -0.46111,-0.32 z m 9.12,-3.2 c 0,-0.176 0.1525,-0.32 0.33889,-0.32 0.18638,0 0.24988,0.144 0.14111,0.32 -0.10878,0.176 -0.26127,0.32 -0.33889,0.32 -0.0776,0 -0.14111,-0.144 -0.14111,-0.32 z m 1.29017,-0.0189 c -0.006,-0.27436 0.20125,-0.77836 0.45965,-1.12 0.37561,-0.49659 0.47187,-0.52113 0.48,-0.12232 0.006,0.27436 -0.20124,0.77836 -0.45965,1.12 -0.3756,0.49659 -0.47186,0.52112 -0.48,0.12232 z M 0,118.24001 c 0,-0.264 0.1394806,-0.48 0.30995688,-0.48 0.1704763,0 0.22706991,0.216 0.1257636,0.48 -0.10130632,0.264 -0.24078692,0.48 -0.30995689,0.48 C 0.05659362,118.72001 0,118.50401 0,118.24001 Z M 63.680004,78.213339 c 0,-0.278669 0.170998,-0.449667 0.38,-0.38 0.59335,0.197783 0.691763,0.886666 0.126666,0.886666 -0.278666,0 -0.506666,-0.228 -0.506666,-0.506666 z m -2.88,-0.133334 c 0,-0.176 0.152499,-0.32 0.338886,-0.32 0.186387,0 0.249888,0.144 0.141114,0.32 -0.108775,0.176 -0.261274,0.32 -0.338887,0.32 -0.07761,0 -0.141113,-0.144 -0.141113,-0.32 z m 5.653335,0.106665 c -0.117335,-0.117331 -0.213335,-0.362131 -0.213335,-0.544 0,-0.200512 0.149047,-0.181619 0.378666,0.048 0.208269,0.208269 0.304269,0.453069 0.213334,0.544 -0.09093,0.09094 -0.261334,0.06934 -0.378665,-0.048 z M 42.880003,71.661118 c 0,-0.186387 0.144,-0.249888 0.32,-0.141114 0.176,0.108775 0.32,0.261274 0.32,0.338887 0,0.07761 -0.144,0.141113 -0.32,0.141113 -0.176,0 -0.32,-0.152499 -0.32,-0.338886 z m 2.4,-0.621114 c -0.403405,-0.17335 -0.462554,-0.275017 -0.16,-0.275017 0.264,0 0.768,0.123757 1.12,0.275017 0.403405,0.173351 0.462554,0.275018 0.16,0.275018 -0.264,0 -0.768,-0.123757 -1.12,-0.275018 z m 87.840007,-3.84 c 0,-0.176 0.144,-0.32 0.32,-0.32 0.176,0 0.32,0.144 0.32,0.32 0,0.176 -0.144,0.32 -0.32,0.32 -0.176,0 -0.32,-0.144 -0.32,-0.32 z M 66.240004,57.926679 C 57.28297,57.78313 55.840003,57.693405 55.840003,57.280004 c 0,-0.410666 0.924445,-0.48 6.400001,-0.48 4.951114,0 16.075252,0.308566 17.120001,0.474883 0.582608,0.09275 -1.245917,0.950467 -1.901162,0.891792 -0.450361,-0.04033 -5.498839,-0.148327 -11.218839,-0.24 z m -7.52,-2.246676 c -0.120141,-0.378528 -0.146436,-0.76023 -0.05844,-0.84823 0.088,-0.088 0.258295,0.149702 0.378436,0.52823 0.12014,0.378528 0.146435,0.760231 0.05843,0.848231 -0.088,0.088 -0.258295,-0.149703 -0.378435,-0.528231 z m 100.480006,-0.96 c -0.10877,-0.176 -0.0453,-0.32 0.14111,-0.32 0.18639,0 0.33889,0.144 0.33889,0.32 0,0.176 -0.0635,0.32 -0.14111,0.32 -0.0776,0 -0.23012,-0.144 -0.33889,-0.32 z m -130.880008,-0.64 c 0.108774,-0.176 0.261272,-0.32 0.338885,-0.32 0.07761,0 0.141115,0.144 0.141115,0.32 0,0.176 -0.152499,0.32 -0.338886,0.32 -0.186387,0 -0.249888,-0.144 -0.141114,-0.32 z m 1.145263,-0.506665 c 0.01535,-0.372784 0.09118,-0.448608 0.193333,-0.193335 0.09244,0.230999 0.08107,0.506999 -0.02526,0.613335 -0.106333,0.106333 -0.181965,-0.08267 -0.16807,-0.42 z m 66.214741,-0.453335 c -0.264,-0.170611 -0.399379,-0.312406 -0.300845,-0.315101 0.09853,-0.0026 2.978535,-0.28335 6.399999,-0.623683 11.52394,-1.146278 15.67608,-1.413984 16.05494,-1.035126 0.6122,0.612205 -0.95245,0.923581 -5.83409,1.161017 -2.552,0.124128 -6.8,0.428112 -9.44,0.675524 -5.683402,0.532624 -6.250858,0.543955 -6.880004,0.137369 z M 154.11536,37.497206 c -0.11255,-0.182119 0.0963,-0.42664 0.46412,-0.543383 0.82042,-0.26039 1.19155,0.04316 0.6792,0.555514 -0.29156,0.291555 -0.3798,0.271923 -0.38357,-0.08534 -0.004,-0.382336 -0.0533,-0.387587 -0.28,-0.02982 -0.17673,0.278909 -0.34828,0.315757 -0.47975,0.10304 z m 5.08465,-1.081335 c -0.352,-0.20057 -0.9045,-0.664189 -1.22777,-1.030269 -0.58026,-0.657101 -0.57399,-0.667878 0.49087,-0.84399 0.59325,-0.09811 1.25375,-0.286611 1.46777,-0.418883 0.2557,-0.158032 0.38913,-0.02221 0.38913,0.396131 0,0.404909 -0.26206,0.688182 -0.72,0.778262 l -0.72,0.141632 0.72,0.237946 c 0.396,0.13087 0.72,0.437152 0.72,0.680624 0,0.530902 -0.26655,0.544838 -1.12,0.05855 z m -3.99073,-4.72337 c -0.57819,-0.365656 -0.4951,-0.435645 1.11073,-0.935584 0.704,-0.219175 1.46,-0.473143 1.68,-0.564374 0.22,-0.09123 0.4,0.03545 0.4,0.281524 0,0.24607 -0.50889,0.69007 -1.13086,0.986667 -1.30169,0.620737 -1.4232,0.634407 -2.05987,0.231767 z m 3.67073,-1.612499 c -0.10877,-0.176 0.0267,-0.32 0.30111,-0.32 0.27439,0 0.49889,0.144 0.49889,0.32 0,0.176 -0.1355,0.32 -0.30111,0.32 -0.16562,0 -0.39012,-0.144 -0.49889,-0.32 z"
     style="fill:#515151;stroke-width:0.32000002" />
</svg>
