<?xml version="1.0" encoding="UTF-8" standalone="no"?>
<svg
   xmlns:dc="http://purl.org/dc/elements/1.1/"
   xmlns:cc="http://creativecommons.org/ns#"
   xmlns:rdf="http://www.w3.org/1999/02/22-rdf-syntax-ns#"
   xmlns:svg="http://www.w3.org/2000/svg"
   xmlns="http://www.w3.org/2000/svg"
   viewBox="0 0 64 64"
   height="64"
   width="64"
   id="svg150"
   version="1.1">
  <metadata
     id="metadata156">
    <rdf:RDF>
      <cc:Work
         rdf:about="">
        <dc:format>image/svg+xml</dc:format>
        <dc:type
           rdf:resource="http://purl.org/dc/dcmitype/StillImage" />
        <dc:title></dc:title>
      </cc:Work>
    </rdf:RDF>
  </metadata>
  <defs
     id="defs154" />
  <path
     id="path160"
     d="M 28.119602,63.687325 C 15.444107,62.092566 4.681433,52.836864 1.2957829,40.619334 0.11804536,36.369328 -0.185297,32.047578 0.40669427,27.952396 0.69034349,25.990213 1.3169968,23.254213 1.7992571,21.872396 2.6221506,19.514564 2.6782584,19.005642 2.7112744,13.6 2.7417236,8.6146227 2.8453445,7.4957232 3.4817866,5.28 3.8862189,3.872 4.4899277,2.438339 4.8233613,2.0940868 5.3919661,1.5070331 5.5924787,1.4919128 8.0530368,1.8505427 9.7650208,2.1000669 11.519265,2.6284115 13.102298,3.3712832 l 2.425829,1.1383715 2.810077,-1.3168464 C 23.004118,1.006287 26.530877,0.24542803 32,0.24542803 c 3.972189,0 5.097274,0.11994026 7.817158,0.83335317 1.747437,0.4583443 4.51401,1.4836929 6.147936,2.2785526 l 2.970781,1.4451993 1.852061,-0.9325504 C 53.049917,2.7310315 55.417488,2.017684 57.848464,1.7426501 60.108198,1.4869906 60.493357,1.8249348 61.332982,4.8 c 0.483114,1.7118336 0.59232,3.3261014 0.616973,9.12 0.02765,6.496686 0.09324,7.274798 0.849907,10.082398 4.566663,16.94446 -5.813776,34.536165 -22.942928,38.88133 -3.33783,0.84671 -8.555399,1.20393 -11.737332,0.803597 z M 38.24,60.649782 c 1.408,-0.298499 3.064,-0.757152 3.68,-1.019228 3.241824,-1.379226 5.474157,-2.556234 7.2,-3.796244 3.720666,-2.673273 8.131558,-7.911904 8.822595,-10.478224 C 59.25961,40.465069 59.581949,33.50585 58.691546,29.186509 58.13889,26.505588 56.57383,22.820999 55.169696,20.895086 53.906966,19.16313 49.20567,14.4 48.758928,14.4 c -0.433472,0 -3.415709,1.36704 -11.394115,5.222995 l -5.67519,2.742812 -8.19846,-3.982904 C 18.98201,16.192307 15.090266,14.4 14.842844,14.4 c -0.762398,0 -5.5003909,4.779988 -7.0531384,7.115653 -3.497993,5.261733 -4.369359,11.908078 -2.6606307,20.293963 0.7388339,3.625958 1.2158147,4.784512 2.9931449,7.270147 C 12.730995,55.525238 19.813746,59.823027 28,61.141533 c 2.319095,0.373523 7.283005,0.135142 10.24,-0.491751 z M 18.459705,44.24 c -0.168454,-0.292826 2.369714,-4.56 2.712344,-4.56 0.134257,0 0.830835,0.864 1.547951,1.92 l 1.303847,1.92 h 8.293139 c 9.326966,0 8.195555,0.287078 10.014748,-2.541085 0.389546,-0.605597 0.842423,-1.109597 1.006394,-1.12 0.386915,-0.02454 3.336666,4.066019 3.159248,4.381085 -0.07433,0.132 -6.38215,0.24 -14.017376,0.24 -7.635226,0 -13.944359,-0.108 -14.020295,-0.24 z m 3.933179,-0.96 c -0.0039,-0.132 -0.270644,-0.582707 -0.592735,-1.001574 l -0.58562,-0.761572 -0.527264,0.752775 C 19.934991,43.343648 20.018589,43.52 21.28,43.52 c 0.616,0 1.116798,-0.108 1.112884,-0.24 z M 44.48,43.271203 c 0,-0.136841 -0.23727,-0.587549 -0.527264,-1.001574 L 43.425472,41.516854 42.83985,42.278426 C 42.016218,43.349523 42.087638,43.52 43.36,43.52 c 0.616,0 1.12,-0.111958 1.12,-0.248797 z M 9.4672397,30.764075 C 9.3585162,30.588156 9.4435181,30.336711 9.6561328,30.205308 10.343228,29.78066 28.48745,29.31945 28.88454,29.71654 c 0.828893,0.828893 0.233742,0.892686 -10.85208,1.163202 -5.452805,0.133059 -8.4364002,0.09277 -8.5652203,-0.115667 z M 43.68,30.708397 c -3.52,-0.115004 -6.436,-0.231441 -6.48,-0.258748 -0.044,-0.02731 -0.08,-0.285278 -0.08,-0.573269 0,-0.475389 0.655837,-0.504405 7.12,-0.315006 9.993392,0.292804 12.4,0.493965 12.4,1.036475 0,0.487302 -1.132803,0.496965 -12.96,0.110548 z M 5.5620982,22.22338 C 5.671377,21.938604 5.6177299,21.810157 5.4363347,21.922265 5.2623507,22.029793 5.12,22.253272 5.12,22.418885 c 0,0.460299 0.2293651,0.358868 0.4420982,-0.195505 z M 9.1740301,9.7583581 C 9.2329155,9.5814547 8.850247,9.2460042 8.3236557,9.0129123 7.7970643,8.7798202 6.9773104,8.1770614 6.5019802,7.673448 5.5334675,6.6473069 5.12,6.7027869 5.12,7.8588854 c 0,0.5299799 0.1800445,0.7816256 0.56,0.782704 0.308,8.64e-4 0.992,0.3577972 1.52,0.7931616 0.9618739,0.793117 1.7734582,0.926162 1.9740301,0.3236071 z"
     style="fill:#000000;stroke-width:0.31999999" />
</svg>
