<?xml version="1.0" encoding="UTF-8" standalone="no"?>
<svg
   xmlns:dc="http://purl.org/dc/elements/1.1/"
   xmlns:cc="http://creativecommons.org/ns#"
   xmlns:rdf="http://www.w3.org/1999/02/22-rdf-syntax-ns#"
   xmlns:svg="http://www.w3.org/2000/svg"
   xmlns="http://www.w3.org/2000/svg"
   viewBox="0 0 200 200"
   height="200"
   width="200"
   id="svg389"
   version="1.1">
  <metadata
     id="metadata395">
    <rdf:RDF>
      <cc:Work
         rdf:about="">
        <dc:format>image/svg+xml</dc:format>
        <dc:type
           rdf:resource="http://purl.org/dc/dcmitype/StillImage" />
        <dc:title></dc:title>
      </cc:Work>
    </rdf:RDF>
  </metadata>
  <defs
     id="defs393" />
  <path
     id="path11183"
     d="m 84.25,199.31067 c 0.9625,-0.25152 2.5375,-0.25152 3.5,0 0.9625,0.25153 0.175,0.45733 -1.75,0.45733 -1.925,0 -2.7125,-0.2058 -1.75,-0.45733 z m 30.75,-0.0209 c 1.375,-0.24399 2.9275,-0.85899 3.45,-1.36667 0.5225,-0.50768 1.90618,-0.92305 3.07485,-0.92305 5.96351,0 25.77723,-8.7565 36.25279,-16.02161 17.09178,-11.85364 32.22929,-33.31876 37.71373,-53.47839 0.89777,-3.3 2.03576,-6.9 2.52887,-8 0.49311,-1.1 1.08652,-2.9 1.3187,-4 0.23218,-1.1 0.27173,-0.17667 0.0879,2.05184 -0.57415,6.95992 -5.38889,20.53443 -10.97701,30.94816 -11.91009,22.19502 -31.76882,38.84853 -56.52108,47.39852 -4.63581,1.60131 -10.90374,3.11922 -13.92874,3.37314 -3.025,0.25392 -4.375,0.26205 -3,0.0181 z M 75.5,198.32319 C 74.4,198.07854 69.42891,196.33123 64.453133,194.44027 48.963938,188.55386 34.181983,178.23648 23.613455,165.93533 13.771053,154.47935 3.3796793,133.25505 2.4064731,122.62023 1.939495,117.51728 1.9444414,117.52362 3.872149,124.5 11.911171,153.59323 29.964555,175.95227 55.96464,189.01634 62.203266,192.15101 76.496655,197 79.498123,197 80.874155,197 82,197.45 82,198 c 0,1.00711 -2.799122,1.14628 -6.5,0.32319 z M 90.454545,159.54545 C 87.424279,156.51519 87.220169,151.77983 90,149 c 2.702734,-2.70273 6.572447,-2.51846 9.545455,0.45455 3.340225,3.34023 3.264075,7.76351 -0.180314,10.47287 -3.460164,2.72177 -5.911964,2.61667 -8.910596,-0.38197 z m -2.807819,-29.65129 c -1.624903,-15.54623 -0.270742,-24.67325 3.898076,-26.27298 0.890325,-0.34165 7.319469,-0.64711 14.286988,-0.67881 22.27118,-0.10131 23.97786,-1.09115 24.41191,-14.158281 0.22857,-6.881164 0.01,-7.963016 -2.02006,-10 C 125.97119,76.523984 125.61417,76.49475 94.223643,76 L 62.5,75.5 61.619294,68.639798 c -0.702214,-5.469847 -0.600879,-7.037434 0.5,-7.734687 1.958125,-1.2402 59.550296,-1.124598 64.062326,0.128589 6.21266,1.725527 12.83139,7.029413 16.21389,12.992923 2.90633,5.124017 3.10325,6.111666 3.085,15.473377 -0.0161,8.242157 -0.4183,10.8725 -2.2882,14.96346 -2.818,6.16522 -4.49839,8.04333 -10.19109,11.39018 C 128.96071,118.22914 127.22059,118.55118 116,119 l -12.5,0.5 -0.5,8 -0.5,8 -7.103274,0.29085 -7.103274,0.29085 z M 199.19495,85.5 c 0.0204,-1.65 0.2445,-2.203936 0.49804,-1.230968 0.25354,0.972967 0.23687,2.322967 -0.0371,3 C 199.38201,87.946064 199.17457,87.15 199.19495,85.5 Z M 2.0851509,78.25 c 0.4325538,-2.6125 1.9403487,-8.091319 3.3506553,-12.175152 2.322811,-6.726179 2.5649049,-8.891306 2.571748,-23 C 8.0185411,20.422466 10.633311,7.8721646 15.932685,5.0360259 18.815174,3.4933648 31.730803,5.3197723 37.871117,8.1383538 48.535106,13.033432 48.905956,13.074432 54.977809,10.029609 65.183076,4.912024 75.913315,1.7799372 82.88225,1.884485 86.419884,1.9375565 89.543592,2.2102585 89.823823,2.4904893 90.104054,2.7707202 88.432602,3 86.109487,3 78.97568,3 66.210658,6.8396621 55.789838,12.120017 50.814775,14.64094 47.401358,14.488301 41.775308,11.493323 35.943422,8.3887709 25.106656,5.7978043 19.630478,6.1987072 16.20962,6.4491433 15.279977,6.992343 14.122952,9.4168107 10.74022,16.505099 9.7907141,22.845135 9.3180619,41.5 8.8754797,58.968049 8.6013629,61.246782 5.9183326,69.761958 4.3132497,74.856034 3,79.918534 3,81.011958 3,82.105381 2.6172051,83 2.1493447,83 1.6814842,83 1.652597,80.8625 2.0851509,78.25 Z M 197,80.038095 c 0,-1.079047 -1.07484,-5.346611 -2.38854,-9.483476 -2.25841,-7.111776 -2.33653,-8.189883 -1.43372,-19.788095 C 194.23276,37.212777 193.63495,25.636418 191.40821,16.5 188.98652,6.5637147 188.58927,6 184.00878,6 c -5.16507,0 -15.97397,3.0014428 -22.94593,6.371684 -6.88479,3.3281 -8.87756,3.295989 -15.328,-0.246989 C 140.94629,9.4945184 130.79247,5.6730312 122,3.1918529 l -3.5,-0.9876772 3.24602,-0.1020878 c 4.12779,-0.1298199 13.57076,3.084865 23.53069,8.0105921 l 7.77672,3.846006 6.22328,-3.015752 c 11.58587,-5.614412 27.08395,-8.0108446 30.3949,-4.6998928 2.00259,2.0025883 5.01847,14.6811318 5.84038,24.5525628 0.35282,4.237418 0.18129,13.217182 -0.38117,19.955031 -0.91308,10.937973 -0.82709,12.819067 0.80252,17.555618 C 198.45599,75.638447 199.4569,82 198.0879,82 197.48955,82 197,81.117143 197,80.038095 Z M 58.666667,21.333333 C 57.101918,19.768584 58.213867,16.940766 60.95034,15.52568 63.779488,14.062671 72,13.366344 72,14.589707 c 0,1.062792 -4.433123,4.488827 -7.717881,5.964583 -3.584845,1.610577 -4.637835,1.75666 -5.615452,0.779043 z"
     style="fill:#000000" />
</svg>
